<?xml version="1.0" encoding="UTF-8" standalone="no"?>
<!-- Created with Inkscape (http://www.inkscape.org/) -->

<svg
   xmlns:dc="http://purl.org/dc/elements/1.1/"
   xmlns:cc="http://creativecommons.org/ns#"
   xmlns:rdf="http://www.w3.org/1999/02/22-rdf-syntax-ns#"
   xmlns:svg="http://www.w3.org/2000/svg"
   xmlns="http://www.w3.org/2000/svg"
   xmlns:sodipodi="http://sodipodi.sourceforge.net/DTD/sodipodi-0.dtd"
   xmlns:inkscape="http://www.inkscape.org/namespaces/inkscape"
   width="630"
   height="210"
   viewBox="0 0 630 210"
   id="svg8124"
   version="1.1"
   inkscape:version="0.91 r13725"
   sodipodi:docname="dominika-doors.svg">
  <defs
     id="defs8126" />
  <sodipodi:namedview
     id="base"
     pagecolor="#ffffff"
     bordercolor="#666666"
     borderopacity="1.0"
     inkscape:pageopacity="0.0"
     inkscape:pageshadow="2"
     inkscape:zoom="0.73453364"
     inkscape:cx="445.89929"
     inkscape:cy="357.52626"
     inkscape:document-units="px"
     inkscape:current-layer="layer1"
     showgrid="false"
     units="px"
     inkscape:window-width="1440"
     inkscape:window-height="778"
     inkscape:window-x="0"
     inkscape:window-y="1"
     inkscape:window-maximized="1" />
  <metadata
     id="metadata8129">
    <rdf:RDF>
      <cc:Work
         rdf:about="">
        <dc:format>image/svg+xml</dc:format>
        <dc:type
           rdf:resource="http://purl.org/dc/dcmitype/StillImage" />
        <dc:title></dc:title>
      </cc:Work>
    </rdf:RDF>
  </metadata>
  <g
     inkscape:label="Layer 1"
     inkscape:groupmode="layer"
     id="layer1"
     transform="translate(0,-842.36216)">
    <path
       style="fill:#000000"
       d="m 56.598032,1028.161 c -0.68628,-0.4242 -1.03581,-0.9736 -0.77674,-1.2211 0.25907,-0.2474 5.64604,-1.2007 11.97104,-2.1184 6.325,-0.9177 11.92763,-2.0898 12.45029,-2.6048 0.60005,-0.5912 0.47597,-4.161 -0.33667,-9.6859 -1.66201,-11.2997 -1.99246,-19.854 -2.52058,-65.24976 l -0.43625,-37.5 35.171598,-0.0613 35.17161,-0.0613 0.11712,5.06129 c 0.0644,2.78371 0.62509,11.36129 1.24594,19.06129 0.62084,7.7 1.13384,27.95 1.13998,45 0.006,17.05 0.29665,34.02248 0.64555,37.71658 l 0.63438,6.7166 10.10851,0.2834 c 7.46524,0.2093 10.10852,0.6223 10.10852,1.5793 0,2.1447 -33.63477,2.6002 -50.90499,0.6894 -15.47288,-1.7119 -25.105348,-1.2973 -56.318268,2.4239 -3.42279,0.4081 -6.78476,0.3949 -7.47104,-0.029 z m 82.479408,-5.1805 c 0.36975,-0.9636 -0.82994,-101.81114 -1.21676,-102.28279 -0.1965,-0.23959 -4.18673,-0.36567 -9.06835,-0.28653 -3.025,0.049 -13.52511,0.15232 -23.33357,0.22951 l -17.833578,0.14035 0.57084,5 c 0.31395,2.75 0.79922,16.925 1.07836,31.5 0.27914,14.575 0.78404,35.1625 1.12199,45.74996 l 0.61447,19.2501 12.140738,0.099 c 6.67741,0.055 15.96575,0.4349 20.64075,0.8451 13.34629,1.1712 14.75029,1.1487 15.28511,-0.245 z M 101.2113,974.93048 c -0.42449,-1.1062 -1.505768,-1.34734 -4.131178,-0.92129 -2.77093,0.44966 -3.45323,0.26817 -3.08987,-0.82191 0.25649,-0.76946 2.00438,-1.6738 3.88421,-2.00966 1.87983,-0.33585 3.867868,-0.72827 4.417868,-0.87203 2.63816,-0.68959 3.61704,0.11234 3.31642,2.7169 -0.34962,3.0291 -3.45088,4.37469 -4.39745,1.90799 z m 45.7829,14.35056 c -0.16396,-18.975 -0.80061,-43.275 -1.41477,-54 -0.61416,-10.725 -1.155,-20.54986 -1.20188,-21.83303 l -0.0852,-2.33303 -11.5,0.83303 c -6.325,0.45817 -20.85795,0.75262 -32.29544,0.65434 l -20.795438,-0.17868 0.56113,36.17868 c 0.30862,19.89828 0.77936,40.90369 1.04609,46.67869 0.97593,21.13016 3.26176,31.40416 6.00091,26.97216 0.34941,-0.5654 0.16101,-16.8779 -0.41866,-36.25007 -0.57967,-19.37215 -1.14985,-42.1554 -1.26706,-50.62944 -0.20201,-14.60457 -0.10872,-15.44597 1.79048,-16.14853 2.99509,-1.10795 50.377988,-1.95704 50.377988,-0.90275 0,0.49272 0.62731,0.65514 1.39403,0.36092 2.03492,-0.78087 2.27281,3.82577 2.45796,47.59771 0.0896,21.175 0.45041,42.91016 0.80186,48.30036 0.60135,9.223 0.76292,9.7827 2.74257,9.5 2.09829,-0.2996 2.10283,-0.3872 1.80545,-34.80036 z m 45.64174,38.90336 c -0.70713,-0.437 -1.07372,-1.0036 -0.81465,-1.2591 0.25907,-0.2555 5.62283,-1.1792 11.91945,-2.0528 6.29663,-0.8735 11.89996,-2.0398 12.45185,-2.5917 0.67124,-0.6713 0.57294,-4.0651 -0.29694,-10.2516 -1.18636,-8.4374 -3.44259,-100.61518 -2.48834,-101.66054 0.20704,-0.2268 16.05337,-0.48326 35.21406,-0.5699 l 34.83763,-0.15753 0.0596,4.0699 c 0.0328,2.23845 0.55777,9.87276 1.16667,16.96513 0.6089,7.09237 1.10709,24.68372 1.10709,39.09189 0,14.40816 0.29405,32.32785 0.65343,39.82145 l 0.65344,13.6249 10.09656,0.2833 c 7.45552,0.2092 10.09657,0.6222 10.09657,1.5792 0,2.1617 -33.58259,2.5959 -51.22737,0.6623 -8.7666,-0.9607 -17.48082,-1.3394 -22.1191,-0.9614 -8.38154,0.6832 -34.35076,3.3383 -37.83888,3.8688 -1.20195,0.1828 -2.76392,-0.025 -3.47104,-0.4623 z m 82.6354,-15.9034 c -0.0115,-6.325 -0.19169,-29.84481 -0.40033,-52.2663 -0.20863,-22.42149 -0.0867,-41.05899 0.27099,-41.41667 0.35768,-0.35768 0.98783,-0.31345 1.40033,0.0983 0.4125,0.41174 1.03517,22.64924 1.3837,49.41667 0.34854,26.76743 0.68604,50.3869 0.75,52.4876 0.10237,3.3621 0.3858,3.7813 2.3663,3.5 l 2.25,-0.3195 -0.29709,-37.00005 c -0.26627,-33.16028 -1.76968,-74.38642 -2.74875,-75.37541 -0.20441,-0.20648 -7.89606,0.19216 -17.09257,0.88585 -10.52696,0.79406 -22.34451,1.00406 -31.90212,0.56693 l -15.1812,-0.69434 0.41569,37.80849 c 0.37118,33.76043 1.02372,48.63296 2.96415,67.55853 0.50089,4.8853 0.8901,5.75 2.58814,5.75 1.95841,0 1.98624,-0.4673 1.38446,-23.25 -0.33777,-12.78755 -0.89722,-36.15182 -1.24322,-51.92066 l -0.6291,-28.67061 4.37081,-0.56024 c 2.40394,-0.30813 14.18743,-0.77378 26.18554,-1.03479 20.18123,-0.43903 21.78672,-0.34686 21.44061,1.23085 -0.20577,0.93797 -1.0224,1.54535 -1.81474,1.34974 -0.79234,-0.19561 -3.91561,-0.26407 -6.94061,-0.15212 -3.025,0.11195 -13.49819,0.27199 -23.27375,0.35566 l -17.77374,0.15212 0.5276,2.5 c 0.38375,1.81842 2.3617,78.56555 2.50634,97.25005 0.0121,1.5649 1.30941,1.7612 12.26355,1.8559 6.7375,0.058 16.3,0.4468 21.25,0.8634 4.95,0.4167 10.35,0.7065 12,0.6441 l 3,-0.1134 -0.021,-11.5 z m -47.07277,-24.15166 c -0.39148,-0.63344 -0.044,-1.64594 0.77208,-2.25 1.14083,-0.8444 1.51681,-3.67364 1.6264,-12.23856 0.13699,-10.70631 0.0559,-11.16617 -2.08109,-11.8052 l -2.22363,-0.66492 2.2262,-1.08701 c 1.66343,-0.81221 2.61011,-0.76839 3.74486,0.17337 2.22485,1.84646 2.04011,24.74008 -0.22009,27.27402 -1.81891,2.03921 -2.85459,2.20038 -3.84473,0.5983 z m 94.84376,40.40566 c -2.65478,-0.8933 -1.04635,-2.158 3.5,-2.7522 13.16127,-1.72 19.35995,-2.8706 19.86472,-3.6874 0.3066,-0.4961 -0.12939,-7.7447 -0.96887,-16.1082 -0.93024,-9.26762 -1.74684,-31.02279 -2.09097,-55.70616 l -0.56464,-40.5 35.53726,-0.0556 c 25.64768,-0.0401 35.41873,0.25331 35.11133,1.05437 -0.23426,0.61047 0.18746,9.18548 0.93716,19.05557 0.74969,9.8701 1.37679,28.33658 1.39354,41.03664 0.0168,12.70005 0.32026,29.80008 0.67445,37.99998 l 0.64398,14.909 10.10602,0 c 7.57563,0 10.10602,0.3224 10.10602,1.2877 0,2.1485 -33.92893,2.5976 -50.76343,0.6719 -11.19136,-1.2801 -16.14361,-1.3765 -26.5,-0.5158 -15.36534,1.2771 -32.17898,2.9469 -34.23657,3.4002 -0.825,0.1818 -2.0625,0.1413 -2.75,-0.09 z m 82.39373,-25.504 c -0.92332,-30.78756 -1.12927,-83.59775 -0.32914,-84.39788 0.37697,-0.37698 0.96639,-0.40444 1.3098,-0.061 0.34341,0.34341 0.99558,23.25591 1.44927,50.91666 0.45368,27.66076 0.84771,51.33612 0.87561,52.61182 0.0399,1.8224 0.53298,2.2511 2.30073,2 l 2.25,-0.3195 -0.31234,-39.00004 c -0.17179,-21.45 -0.73503,-44.175 -1.25165,-50.5 -0.51662,-6.325 -1.12273,-13.975 -1.3469,-17 l -0.40759,-5.5 -5.84076,0.21609 c -3.21242,0.11884 -17.68404,0.34384 -32.15917,0.5 l -26.31841,0.28391 0.57373,39.5 c 0.60792,41.85343 2.74519,71.00004 5.20633,71.00004 0.6813,0 1.51139,-0.4412 1.84465,-0.9804 0.73046,-1.182 -1.22148,-90.79684 -2.12056,-97.35634 -0.57802,-4.2171 -0.42812,-4.68931 1.75025,-5.51345 1.31033,-0.49573 13.32392,-1.16149 26.69686,-1.47945 22.56014,-0.53641 24.28746,-0.45518 23.94061,1.12574 -0.20561,0.93712 -1.0221,1.54381 -1.81444,1.3482 -0.79234,-0.19562 -3.91561,-0.2579 -6.94061,-0.13841 -3.025,0.11949 -13.5273,0.27954 -23.33843,0.35566 l -17.83844,0.13841 0.59699,13 c 0.32835,7.15 0.81111,21.325 1.0728,31.5 0.2617,10.175 0.77156,27.1625 1.13303,37.75004 l 0.65721,19.25 12.10842,0.099 c 6.65963,0.055 15.93342,0.4349 20.60842,0.8452 4.675,0.4102 10.25073,0.8155 12.39051,0.9007 l 3.89051,0.1548 -0.63729,-21.25 z m -46.44373,-19.94996 c -1.68275,-1.68275 -1.49362,-5.36352 0.37143,-7.22857 2.2899,-2.2899 2.59476,-1.97423 1.86259,1.92857 -0.4304,2.29424 -0.27376,3.5 0.45469,3.5 0.61121,0 1.11129,-1.125 1.11129,-2.5 0,-1.375 0.45,-2.5 1,-2.5 1.8848,0 1.09631,5.87809 -0.93426,6.96482 -2.4106,1.29011 -2.41082,1.2901 -3.86574,-0.16482 z m 106.8913,45.39716 c -2.58345,-0.8612 -0.70913,-2.0562 4.1587,-2.6515 2.8875,-0.3531 8.5125,-1.1321 12.5,-1.731 l 7.25,-1.089 -0.008,-3.6129 c -0.004,-1.987 -0.6357,-8.5628 -1.4028,-14.6128 -0.92959,-7.33147 -1.51052,-24.98068 -1.74193,-52.92131 l -0.34727,-41.92136 35.16615,-0.14568 35.1662,-0.14568 -0.085,3.06704 c -0.046,1.68686 0.4368,10.71703 1.0741,20.06703 0.6374,9.35 1.1648,27.125 1.1721,39.5 0.01,12.375 0.3061,28.89756 0.6638,36.71676 l 0.6503,14.2167 10.096,0.2833 c 7.455,0.2092 10.096,0.6222 10.096,1.5792 0,2.1628 -33.8989,2.6127 -50.7559,0.6735 -14.34884,-1.6507 -22.12119,-1.3694 -51.40284,1.8606 -6.13729,0.6769 -11.64979,1.0671 -12.25,0.8671 z m 82.55655,-23.9472 c -0.8868,-27.26856 -1.0864,-85.14472 -0.2965,-85.93464 0.3568,-0.35676 0.9227,-0.37461 1.2576,-0.0397 0.335,0.33494 0.9884,23.24744 1.452,50.91666 0.4636,27.66923 0.8646,51.32018 0.891,52.55768 0.033,1.5441 0.6571,2.25 1.989,2.25 1.0676,0 2.1827,-0.391 2.4781,-0.8689 0.5384,-0.8712 -1.2036,-86.86371 -2.0961,-103.47498 l -0.4752,-8.84389 -11.6739,0.84389 c -6.4206,0.46414 -20.9415,0.7656 -32.26864,0.66992 l -20.5948,-0.17397 0.34184,39.67397 c 0.39232,45.53194 2.36332,71.17396 5.47086,71.17396 2.01235,0 3.20757,-5.573 2.35913,-11 -0.30095,-1.925 -0.96685,-21.27499 -1.47978,-42.99999 -0.51293,-21.725 -1.1974,-40.98217 -1.52104,-42.79371 -0.88357,-4.9456 0.17699,-7.0648 3.82494,-7.643 1.7565,-0.2784 13.45942,-0.71955 26.00649,-0.98033 21.0711,-0.43795 22.7844,-0.34469 22.4406,1.22145 -0.2047,0.93257 -1.0205,1.52505 -1.8128,1.3166 -0.7924,-0.20844 -3.9156,-0.27666 -6.9406,-0.1516 -3.025,0.12506 -13.4535,0.29561 -23.17442,0.37899 l -17.67436,0.1516 0.38699,2.5 c 0.21284,1.375 0.61963,16.675 0.90397,34 0.28434,17.325 0.82183,39.0375 1.19442,48.24999 l 0.67743,16.75 12.09296,0.099 c 6.65111,0.055 15.91791,0.4349 20.59301,0.8452 4.675,0.4103 10.2527,0.8156 12.395,0.9008 l 3.895,0.1547 -0.6422,-19.75 z m -45.97819,-19.97545 c -0.28425,-0.45992 -0.83051,-5.10967 -1.21391,-10.33277 -0.57227,-7.79612 -0.43065,-9.71768 0.7909,-10.73148 2.18734,-1.81533 3.19782,0.009 4.76415,8.60014 0.89541,4.9113 1.0235,8.18988 0.39033,9.99029 -0.92915,2.64204 -3.7243,4.10347 -4.73147,2.47382 z m 2.01967,-10.02451 c -0.25153,-0.9625 -0.45733,-0.175 -0.45733,1.75 0,1.925 0.2058,2.7125 0.45733,1.75 0.25152,-0.9625 0.25152,-2.5375 0,-3.5 z"
       id="path4164"
       inkscape:connector-curvature="0" />
  </g>
</svg>
