<?xml version="1.0" encoding="UTF-8" standalone="no"?>
<!-- Created with Inkscape (http://www.inkscape.org/) -->

<svg
   xmlns:dc="http://purl.org/dc/elements/1.1/"
   xmlns:cc="http://creativecommons.org/ns#"
   xmlns:rdf="http://www.w3.org/1999/02/22-rdf-syntax-ns#"
   xmlns:svg="http://www.w3.org/2000/svg"
   xmlns="http://www.w3.org/2000/svg"
   xmlns:sodipodi="http://sodipodi.sourceforge.net/DTD/sodipodi-0.dtd"
   xmlns:inkscape="http://www.inkscape.org/namespaces/inkscape"
   width="1104"
   height="210"
   viewBox="0 0 1104 210"
   id="svg8124"
   version="1.1"
   inkscape:version="0.91 r13725"
   sodipodi:docname="dominika-houses.svg">
  <defs
     id="defs8126" />
  <sodipodi:namedview
     id="base"
     pagecolor="#ffffff"
     bordercolor="#666666"
     borderopacity="1.0"
     inkscape:pageopacity="0.0"
     inkscape:pageshadow="2"
     inkscape:zoom="0.73453364"
     inkscape:cx="433.1063"
     inkscape:cy="357.52626"
     inkscape:document-units="px"
     inkscape:current-layer="layer1"
     showgrid="false"
     units="px"
     inkscape:window-width="1440"
     inkscape:window-height="783"
     inkscape:window-x="0"
     inkscape:window-y="1"
     inkscape:window-maximized="1" />
  <metadata
     id="metadata8129">
    <rdf:RDF>
      <cc:Work
         rdf:about="">
        <dc:format>image/svg+xml</dc:format>
        <dc:type
           rdf:resource="http://purl.org/dc/dcmitype/StillImage" />
        <dc:title></dc:title>
      </cc:Work>
    </rdf:RDF>
  </metadata>
  <g
     inkscape:label="Layer 1"
     inkscape:groupmode="layer"
     id="layer1"
     transform="translate(0,-842.36216)">
    <path
       style="fill:#000000"
       d="m 181.91669,1032.1084 c -6.07377,-6.6737 -12.95454,-14.6193 -15.29061,-17.6568 -2.33605,-3.0375 -6.75869,-7.5907 -9.8281,-10.1182 l -5.5807,-4.5955 0.48383,-16.36401 0.48385,-16.36407 16.98956,-0.9956 16.98956,-0.99559 21.73852,22.17623 21.73852,22.17624 -14.6433,14.5078 c -8.05381,7.9794 -15.38942,15.8411 -16.30133,17.4706 -0.91193,1.6296 -2.57572,2.9471 -3.69732,2.9279 -1.12159,-0.019 -7.00872,-5.4952 -13.08248,-12.169 z m 27.76551,-7.9444 15.02337,-14.983 -19.27076,-19.8364 -19.27073,-19.83626 -13.59166,0.0509 c -7.47539,0.0281 -14.43084,0.61266 -15.45654,1.29917 -1.0257,0.68651 -2.03232,6.78032 -2.23692,13.54182 -0.34086,11.26427 -0.004,12.63287 3.99975,16.34527 2.40447,2.2284 6.72178,7.0087 9.59403,10.623 7.2742,9.1534 24.30995,27.8539 25.33664,27.8126 0.46722,-0.019 7.60998,-6.7765 15.87282,-15.0172 z m -22.07072,-10.8647 c -11.11609,-11.6354 -15.4625,-19.2905 -9.69649,-17.0779 1.58184,0.607 3.6089,-0.015 4.67211,-1.4328 2.78996,-3.7214 7.93935,-5.1635 10.58814,-2.9652 3.54083,2.9386 2.7894,5.2919 -1.27759,4.0011 -2.42973,-0.7711 -3.23043,-0.5307 -2.44816,0.735 1.86681,3.0206 -0.65217,5.7653 -3.28541,3.5799 -1.50836,-1.2518 -2.59832,-1.2937 -3.31895,-0.1277 -0.59016,0.9549 0.4494,3.0397 2.31014,4.6329 1.86074,1.5932 3.00038,3.5162 2.53249,4.2732 -0.46788,0.7571 0.26047,0.9501 1.61857,0.4289 1.35809,-0.5211 2.8057,-2.2341 3.21692,-3.8066 0.67943,-2.5982 4.00034,-3.119 13.60355,-2.1335 0.70082,0.072 1.27422,1.2921 1.27422,2.7116 0,1.9151 -1.11273,2.3015 -4.31439,1.4979 -3.09155,-0.7759 -4.17501,-0.4464 -3.82265,1.1625 0.27045,1.235 -0.65505,2.3558 -2.05669,2.4907 -5.49464,0.5289 -5.83082,0.9583 -2.63976,3.3717 2.18689,1.6539 2.73581,3.0715 1.62106,4.1863 -1.11477,1.1147 -4.01927,-0.7572 -8.57711,-5.528 z m -24.94962,-26.18518 c -1.98508,-1.98508 -1.21762,-8.57451 1.23579,-10.61065 1.82864,-1.51762 2.9903,-1.34378 5.09687,0.76279 3.22151,3.22153 3.24857,3.43618 0.9697,7.69428 -1.75782,3.28456 -5.16623,4.28976 -7.30236,2.15358 z m 4.74114,-3.84683 c 0.53762,-0.86986 0.20047,-2.06176 -0.7492,-2.64871 -0.94966,-0.58691 -1.72668,0.12471 -1.72668,1.58156 0,2.98427 1.01948,3.42367 2.47588,1.06715 z m 294.57163,47.12891 c -6.85983,-7.6539 -16.53227,-18.2836 -21.49432,-23.6216 l -9.02193,-9.7055 0.64482,-13.78816 c 0.35466,-7.58348 1.3564,-14.48738 2.22611,-15.342 0.86971,-0.85464 9.1142,-1.74853 18.32108,-1.98645 l 16.73979,-0.43257 13.84141,14.38205 c 25.9013,26.91303 26.95575,28.26023 24.99169,31.93013 -0.97444,1.8207 -7.22213,8.1534 -13.88376,14.0727 -6.66164,5.9192 -12.76666,12.4824 -13.56676,14.5848 -0.80009,2.1025 -2.55068,3.8227 -3.89022,3.8227 -1.33953,0 -8.04809,-6.2622 -14.90791,-13.9161 z m 40.95077,-17.4014 c 2.90021,-3.4945 -4.38264,-13.5603 -21.90076,-30.26964 l -13.80425,-13.1669 -13.10647,0.0261 c -7.20855,0.0136 -14.14332,0.68301 -15.4106,1.48602 -1.54953,0.98184 -2.38415,5.4703 -2.54843,13.70531 -0.20646,10.34911 0.28188,12.68411 3.15362,15.07881 1.86885,1.5584 7.17791,7.4207 11.79791,13.0272 4.62003,5.6066 11.8202,13.7906 16.00042,18.1868 l 7.60036,7.9931 13.07373,-11.7858 c 7.19055,-6.4822 14.00557,-12.9086 15.14447,-14.2809 z m -40.40566,-2.314 c -5.16959,-6.5271 -5.58365,-9.4688 -1.09007,-7.7445 1.23804,0.4751 3.88614,-0.7714 5.8847,-2.7699 4.0922,-4.0922 8.12598,-3.9744 10.82794,0.3163 2.36145,3.75 0.22954,5.8642 -3.11467,3.0887 -2.18924,-1.8169 -2.58949,-1.5595 -2.58949,1.6649 0,2.9117 -0.51589,3.3858 -2.18068,2.0042 -1.21511,-1.0085 -3.1724,-1.1969 -4.42041,-0.4256 -1.71274,1.0585 -1.31585,2.0314 1.68673,4.1345 2.79797,1.9598 3.40206,3.2746 2.10183,4.5748 -1.30024,1.3003 -3.34253,-0.092 -7.10588,-4.8434 z m -18.62406,-24.47277 c -2.71962,-2.71962 -2.58271,-7.28749 0.28986,-9.67151 1.78331,-1.48002 3.22604,-1.20592 6.16083,1.17056 3.42409,2.77264 3.58492,3.49911 1.51009,6.8214 -2.61174,4.18212 -4.9623,4.67802 -7.96078,1.67955 z m 4.75708,-4.75708 c 0,-0.93443 -0.33714,-1.69897 -0.7492,-1.69897 -0.41206,0 -1.22173,0.76454 -1.79923,1.69897 -0.57751,0.93442 -0.24037,1.69896 0.7492,1.69896 0.98958,0 1.79923,-0.76454 1.79923,-1.69896 z m 278.71076,58.33235 c -3.86145,-4.9091 -20.0882,-22.7022 -30.87173,-33.8519 l -6.72196,-6.9502 0.49207,-15.98569 0.49206,-15.98569 16.98956,-0.9956 16.98956,-0.99559 21.7385,22.17623 21.73853,22.17624 -14.64329,14.5078 c -8.05381,7.9794 -15.38942,15.8411 -16.30132,17.4706 -2.35788,4.2133 -5.78178,3.6718 -9.90198,-1.5662 z m 20.72107,-15.5088 14.85677,-14.7908 -10.60937,-11.9372 c -5.83513,-6.5655 -14.74659,-15.5487 -19.80322,-19.96272 -9.14874,-7.98616 -9.25437,-8.02552 -21.52273,-8.02552 -17.93304,0 -17.70364,-0.19812 -17.70364,15.29059 0,9.90765 0.61028,13.46225 2.43122,14.16105 1.33718,0.5131 5.62522,4.991 9.52898,9.9508 8.07039,10.2535 25.83683,29.9335 27.11578,30.0363 0.46721,0.038 7.53502,-6.5876 15.70621,-14.7225 z m -23.09313,-7.1609 c -9.50672,-10.2684 -12.39014,-16.2382 -6.80853,-14.0964 1.71069,0.6565 3.68702,-0.1488 5.09688,-2.077 1.26651,-1.732 2.30275,-2.5271 2.30275,-1.7669 0,0.7602 1.04988,0.5109 2.33309,-0.5541 3.2608,-2.7062 7.86063,-0.5172 7.86063,3.7408 0,2.7657 -0.45305,3.1028 -2.03874,1.5172 -2.94014,-2.9402 -4.98459,-2.5067 -4.40682,0.9344 0.38069,2.2671 -0.50936,2.8598 -3.74816,2.4957 l -4.24739,-0.4775 3.75041,3.2397 c 2.06272,1.7819 3.27323,3.7169 2.69,4.3002 -0.58322,0.5832 0.21384,1.0604 1.7712,1.0604 1.55739,0 2.8316,-1.1468 2.8316,-2.5485 0,-1.8877 1.98212,-2.5484 7.6453,-2.5484 5.70581,0 7.6453,0.6547 7.6453,2.5808 0,1.9152 -1.11273,2.3015 -4.31439,1.498 -3.09154,-0.776 -4.17503,-0.4465 -3.82266,1.1624 0.27046,1.235 -0.65505,2.3558 -2.05668,2.4907 -5.49465,0.5289 -5.83082,0.9583 -2.63976,3.3717 2.29767,1.7377 2.7653,3.0421 1.5326,4.2748 -1.2327,1.2327 -4.70405,-1.3908 -11.37663,-8.598 z m -18.68691,-18.4018 c -5.63276,-5.8793 -5.64434,-6.8133 -0.0712,-5.7479 3.8372,0.7335 4.2884,0.3824 3.3417,-2.6004 -1.00182,-3.15642 -0.40814,-3.42804 7.01021,-3.20735 6.60516,0.19652 8.22354,0.85985 8.74695,3.58495 0.55045,2.8659 0.26063,3.0271 -2.02773,1.128 -2.82183,-2.342 -6.95744,-1.0985 -5.29468,1.5919 0.53762,0.8699 -0.46928,1.5816 -2.23756,1.5816 -4.32983,0 -5.83069,1.778 -3.68409,4.3645 3.67927,4.4333 -1.46234,3.8152 -5.7836,-0.6953 z m -5.0737,-11.59768 c -1.81695,-1.81694 -1.30606,-8.20807 0.82661,-10.34074 2.61765,-2.61765 8.23449,0.38195 8.23449,4.39754 0,5.15147 -5.95012,9.05418 -9.0611,5.9432 z m 3.42585,-5.98174 c -0.54233,-1.35529 -0.94492,-0.95273 -1.02643,1.02647 -0.0737,1.79097 0.32778,2.79441 0.89231,2.22988 0.56455,-0.56455 0.6249,-2.02992 0.13406,-3.25635 z m 334.3832,47.41532 c -7.4754,-8.5957 -16.8334,-18.719 -20.7954,-22.4964 l -7.2038,-6.868 0.122,-15.64757 c 0.067,-8.60612 0.642,-15.9688 1.2773,-16.36151 0.6355,-0.3927 8.7703,-0.93565 18.0776,-1.20654 l 16.9223,-0.49256 12.5434,12.66004 c 6.8988,6.96301 16.2758,16.95744 20.8378,22.20984 l 8.2945,9.5499 -15.2677,15.085 c -8.3973,8.2968 -15.2682,16.0407 -15.2689,17.2087 0,5.5844 -7.1719,0.5796 -19.5392,-13.6409 z m 37.7103,-27.3418 c -3.921,-4.6919 -12.2528,-13.73204 -18.515,-20.08919 l -11.386,-11.55845 -14.0983,0.0261 c -7.7542,0.0136 -14.863,0.58771 -15.7974,1.27422 -0.9344,0.68652 -1.9676,6.39902 -2.2958,12.69449 l -0.5969,11.44623 11.5482,13.1886 c 6.3516,7.2537 15.3917,17.2079 20.089,22.1204 l 8.5407,8.9318 14.8203,-14.7517 14.8202,-14.7516 -7.129,-8.5308 z m -26.667,19.7005 c -11.6518,-12.2576 -16.461,-20.0624 -11.0933,-18.0026 1.3742,0.5273 4.5354,-0.6435 7.025,-2.6018 2.4896,-1.9582 5.1332,-3.5605 5.875,-3.5605 2.4635,0 6.7364,5.3432 5.6624,7.0809 -0.6969,1.1275 -1.686,1.0809 -2.9039,-0.137 -2.6643,-2.6643 -4.621,-2.27 -3.4807,0.7015 0.7282,1.8975 -0.2575,2.5484 -3.8586,2.5484 l -4.8366,0 4.6752,4.3351 c 4.3194,4.0051 9.4315,4.4002 7.0486,0.5447 -0.6456,-1.0447 2.0276,-1.4827 7.0601,-1.1568 4.9264,0.3189 8.3964,1.4265 8.858,2.8273 0.5816,1.7651 -0.4898,2.0286 -4.5879,1.1286 -4.0071,-0.8802 -5.2281,-0.6058 -4.8735,1.095 0.2725,1.3059 -0.7345,2.0699 -2.3717,1.7995 -3.7793,-0.624 -5.7464,2.7618 -2.3595,4.0615 2.6417,1.0137 3.814,5.8256 1.3819,5.6722 -0.7008,-0.044 -3.9501,-2.8953 -7.2205,-6.3359 z m -21.8396,-21.3535 c -4.5491,-4.8424 -4.587,-6.2093 -0.1724,-6.2093 2.3185,0 3.3065,-0.9494 2.9731,-2.857 -0.3985,-2.2812 1.1058,-2.96872 7.4627,-3.41085 7.9891,-0.55563 11.8109,1.61585 8.5617,4.86505 -1.1326,1.1326 -2.0794,1.0832 -2.8404,-0.148 -1.6633,-2.6914 -4.3389,-2.2589 -4.3389,0.7014 0,1.4016 -1.4016,2.5484 -3.1147,2.5484 -4.2368,0 -5.7135,1.7985 -3.5839,4.3646 3.2813,3.9537 -1.2445,4.087 -4.9472,0.1457 z m -5.9101,-12.43878 c -1.8169,-1.81694 -1.3061,-8.20807 0.8266,-10.34074 2.6177,-2.61765 8.2345,0.38195 8.2345,4.39754 0,5.15147 -5.9501,9.05418 -9.0611,5.9432 z m 5.6632,-5.8637 c 0,-0.93443 -0.7645,-1.22646 -1.699,-0.64896 -0.9344,0.57751 -1.6989,1.81455 -1.6989,2.74897 0,0.93442 0.7645,1.22646 1.6989,0.64894 0.9345,-0.57751 1.699,-1.81452 1.699,-2.74895 z M 67.269392,1016.8358 c -17.736369,-0.7389 -33.218098,-1.7157 -34.403845,-2.1707 -1.633885,-0.627 -2.155928,-8.3987 -2.155928,-32.09422 l 0,-31.26685 -6.371092,-1.01872 c -3.504098,-0.56029 -8.091268,-0.56884 -10.193731,-0.019 -3.004366,0.78571 -3.822651,0.28667 -3.822651,-2.33132 0,-3.06036 38.642265,-41.49127 54.366593,-54.0692 3.270477,-2.61608 9.62818,-8.25348 14.128181,-12.52755 l 8.18186,-7.771 3.4595,4.24739 c 8.229351,10.10361 19.353181,22.06702 20.527001,22.07632 0.70081,0.004 1.27422,-3.07265 1.27422,-6.84046 0,-8.29853 2.76483,-9.78938 15.73615,-8.48524 l 8.89871,0.89468 -0.60165,18.46761 -0.60167,18.46759 11.45696,11.54541 c 14.10049,14.20938 13.96672,16.89299 -0.79914,16.03106 l -10.30398,-0.60149 -0.40513,23.26097 c -0.22283,12.79354 -0.40647,27.65702 -0.40812,33.03002 -0.001,5.3729 -0.39272,9.8472 -0.86907,9.9427 -0.47638,0.096 -6.60009,0.456 -13.60829,0.8008 -7.00818,0.3449 -14.65349,0.8853 -16.98955,1.2009 -2.33607,0.3156 -18.758951,-0.031 -36.495328,-0.7697 z m 1.093107,-19.6695 c 0.283711,-17.03568 0.554144,-24.36666 1.106139,-29.98408 0.291953,-2.97109 1.422642,-3.14739 14.333341,-2.23498 21.861591,1.54499 20.476541,-0.25686 19.742711,25.68356 l -0.62945,22.2508 13.59165,-0.5808 c 7.4754,-0.3195 13.95685,-0.9396 14.4032,-1.3779 0.44635,-0.4384 0.82862,-15.6102 0.84948,-33.71504 l 0.038,-32.91805 11.04321,0.83501 11.04321,0.83501 -16.93386,-15.80882 c -9.31363,-8.69485 -24.6123,-23.62753 -33.99706,-33.18375 l -17.063201,-17.37493 -5.37951,5.02758 c -2.95873,2.7652 -9.831438,8.78517 -15.27267,13.37776 -5.441231,4.59261 -18.685242,16.97223 -29.431135,27.5103 l -19.537989,19.16009 5.946344,1.34389 c 3.2705,0.73915 7.032022,0.96183 8.358961,0.49488 1.326929,-0.46699 3.028804,0.13251 3.781962,1.33219 0.753157,1.19968 0.887422,15.67816 0.29838,32.1744 l -1.070986,29.99318 11.730132,1.1149 c 6.451568,0.6132 12.876938,1.3625 14.278584,1.6652 8.525929,1.841 8.478434,1.9255 8.770632,-15.6204 z m 30.624101,-1.699 c 0.77771,-26.76302 1.36028,-25.37346 -11.029511,-26.30777 -5.7894,-0.43655 -11.40658,-0.47252 -12.482649,-0.08 -1.076054,0.39262 -2.248914,3.78049 -2.606362,7.52861 -0.499732,5.2402 0.05046,7.18957 2.381218,8.43695 3.188753,1.70657 4.246933,8.29851 1.332133,8.29851 -0.93443,0 -1.69896,-0.7646 -1.69896,-1.699 0,-0.9344 -0.573403,-1.6955 -1.274221,-1.6913 -0.700817,0 -1.513555,5.3559 -1.80611,11.8927 l -0.53189,11.885 13.592831,0 13.592791,0 0.53073,-18.2637 z m 33.66036,-91.31884 0,-16.14008 -5.80738,0 c -9.75563,0 -11.18217,1.25151 -11.18217,9.81007 0,7.08492 0.69025,8.37237 8.07004,15.05206 4.43852,4.01745 8.26117,7.33 8.49478,7.36123 0.23361,0.0312 0.42473,-7.20624 0.42473,-16.08328 z m 247.87506,114.03024 c -0.37233,-0.323 -15.06396,-1.0607 -32.64801,-1.6392 -17.58407,-0.5785 -32.68355,-1.4922 -33.55439,-2.0304 -0.88519,-0.5471 -1.58332,-14.6951 -1.58332,-32.08664 l 0,-31.10813 -6.12394,-0.99377 c -3.36818,-0.54657 -8.33762,-0.55104 -11.04321,-0.0111 -3.71642,0.74321 -4.91928,0.34638 -4.91928,-1.62293 0,-2.64757 43.29682,-44.67758 65.9047,-63.97643 l 12.38759,-10.57447 3.70594,4.81207 c 2.03824,2.64662 7.34188,8.6347 11.78587,13.30683 l 8.07996,8.49477 0.0367,-5.38263 c 0.0682,-10.02257 1.01159,-10.75744 13.81001,-10.75744 l 11.71092,0 0,19.71787 0,19.71789 11.34827,10.54199 c 8.51963,7.91435 11.06154,11.2893 10.19787,13.54 -0.97806,2.54877 -2.6784,2.86688 -11.3483,2.12299 l -10.19784,-0.87497 -0.24309,19.85999 c -0.36227,29.59891 -1.08262,44.68791 -2.18608,45.79141 -0.54245,0.5424 -6.9074,1.2329 -14.1444,1.5343 -7.23699,0.3015 -14.76483,0.9207 -16.72858,1.3761 -1.96373,0.4554 -3.87506,0.5637 -4.2474,0.2407 z m -30.38268,-26.9588 c 0.0136,-12.38109 0.70633,-23.5857 1.53779,-24.89906 1.19211,-1.88299 4.43835,-2.16226 15.35164,-1.32069 7.61193,0.58699 14.56522,1.51554 15.45177,2.06348 0.88774,0.54865 1.6119,11.29819 1.6119,23.92747 l 0,22.9312 14.01638,-1.1507 c 7.70902,-0.6329 14.19099,-1.2965 14.40438,-1.4747 0.21342,-0.1781 0.59567,-15.3296 0.84947,-33.66983 l 0.4615,-33.34593 11.04321,0.88677 11.04321,0.88677 -14.37004,-13.30781 c -7.9035,-7.3193 -23.30457,-22.14323 -34.22456,-32.94208 l -19.85456,-19.63422 -5.9746,5.19311 c -3.28602,2.85623 -10.80419,9.39804 -16.70702,14.53738 -5.90284,5.13935 -19.05395,17.36858 -29.22474,27.1761 l -18.49231,17.83185 7.22671,1.23369 c 3.97472,0.67852 7.96901,0.77496 8.87622,0.21427 3.66236,-2.26346 4.38744,4.851 3.43755,33.72986 -0.54718,16.63547 -0.68543,30.27647 -0.30722,30.31327 0.37822,0.037 6.42164,0.508 13.42984,1.047 7.00819,0.539 13.06072,1.2734 13.45007,1.632 0.38934,0.3586 2.10952,0.652 3.82264,0.652 2.86235,0 3.11686,-1.8243 3.14077,-22.5112 z m 30.34263,0.4248 0.43225,-22.08644 -6.48093,-0.11702 c -3.56452,-0.0644 -8.45388,-0.3807 -10.86524,-0.7029 -6.16616,-0.82393 -7.68526,0.66529 -8.95108,8.77496 -0.95978,6.14884 -0.65138,7.25082 2.29049,8.18455 2.30898,0.73282 3.38227,2.54115 3.34558,5.63665 -0.0492,4.152 -0.25492,4.293 -2.31101,1.5844 -3.73471,-4.91986 -4.43079,-3.5186 -4.43079,8.9195 l 0,11.8927 13.26925,0 13.26925,0 0.43223,-22.0864 z m 34.19167,-87.49624 0,-16.14008 -7.68734,0 c -6.68862,0 -7.90263,0.56619 -9.34427,4.35799 -3.2632,8.58289 -2.01727,12.05282 7.23343,20.14511 4.8897,4.27738 9.09461,7.77705 9.34425,7.77705 0.24967,0 0.45393,-7.26303 0.45393,-16.14007 z m 222.47448,114.11324 c -0.41842,-0.3696 -15.17677,-1.1629 -32.79632,-1.7629 -17.61957,-0.6 -32.73389,-1.5225 -33.58735,-2.0499 -0.85348,-0.5275 -1.48447,-14.7413 -1.40218,-31.58619 0.0822,-16.8449 -0.34946,-31.12556 -0.95938,-31.73479 -0.60995,-0.6092 -5.24961,-1.04258 -10.31037,-0.963 -12.56451,0.19752 -12.15185,-2.7772 2.26659,-16.33905 6.30737,-5.93265 17.96645,-16.95157 25.90907,-24.48649 7.94261,-7.53493 19.41057,-17.88158 25.48434,-22.99256 6.07377,-5.11097 11.54519,-10.00681 12.15874,-10.87963 1.00835,-1.43449 19.01357,16.39745 22.34954,22.13444 2.1959,3.7764 4.56769,0.92004 4.56769,-5.50087 0,-7.2535 3.21731,-8.79415 15.73616,-7.53551 l 8.89872,0.89469 -0.63505,18.43396 -0.63503,18.43396 11.49033,11.57905 c 14.21506,14.32483 14.07709,17.12414 -0.79742,16.17722 l -10.27232,-0.65396 -0.20118,30.87626 c -0.1105,16.98187 -0.0704,31.57067 0.0897,32.41947 0.57416,3.0464 -4.20219,4.1837 -17.78183,4.234 -7.591,0.028 -14.92905,0.4838 -16.30677,1.0125 -1.37771,0.5287 -2.84725,0.6589 -3.26565,0.2893 z m -30.23151,-18.547 c 0.14357,-7.709 0.1701,-17.95861 0.0592,-22.77689 -0.27451,-11.91322 1.65213,-13.23915 17.31349,-11.91528 19.78925,1.67279 18.5519,-0.1047 17.82452,25.60827 l -0.6295,22.2508 13.59165,-0.6104 c 7.4754,-0.3357 13.87532,-0.8742 14.22204,-1.1967 0.34672,-0.3225 0.90102,-15.3384 1.23177,-33.36871 l 0.60141,-32.7824 10.66089,0.47768 10.66091,0.47766 -16.01134,-14.91878 c -8.80624,-8.20535 -23.75243,-22.75524 -33.21376,-32.33311 -9.46133,-9.57785 -17.80717,-17.41429 -18.5463,-17.41429 -3.00313,0 -36.12417,29.7732 -59.48197,53.46963 l -10.02541,10.17076 5.77803,1.25145 c 3.1779,0.68829 6.86369,0.86939 8.19063,0.40244 1.32693,-0.46699 2.97168,0.0555 3.65499,1.16119 0.68332,1.10564 0.82308,15.58471 0.31057,32.17572 l -0.93182,30.16546 11.71795,1.1136 c 6.44487,0.6124 12.86475,1.3612 14.26639,1.6639 8.39996,1.8138 8.48084,1.693 8.75573,-13.072 z m 30.32025,-7.8658 0,-21.88224 -10.61848,-0.80045 c -5.84016,-0.44024 -11.57413,-0.45032 -12.74216,-0.0224 -3.6987,1.35498 -2.62787,14.51824 1.46623,18.0237 2.8264,2.41999 3.14257,3.49399 1.48658,5.04969 -1.60256,1.5055 -2.28873,1.4703 -2.88202,-0.1478 -2.04801,-5.58547 -3.89344,-0.9551 -3.89344,9.769 l 0,11.8927 13.59165,0 13.59164,0 0,-21.8823 z m 34.38802,-85.35554 c 1.26465,-17.67505 0.7461,-18.75659 -8.69909,-18.14434 l -7.8499,0.50883 -0.51199,7.92729 c -0.47868,7.41142 -0.0365,8.37601 6.79581,14.82338 4.01932,3.79285 7.77849,6.9152 8.35375,6.93858 0.57528,0.0232 1.4354,-5.40082 1.91142,-12.05374 z m 182.77656,111.46654 c -0.58576,-0.5858 -0.71604,-15.7296 -0.2895,-33.65285 0.85382,-35.87727 -0.2673,-53.81026 -3.36662,-53.85079 -1.09367,-0.0136 -3.02596,-0.6834 -4.29398,-1.48686 -2.77904,-1.76088 -1.06024,-8.68087 2.15619,-8.68087 1.19625,0 5.47192,-8.57728 9.52774,-19.11324 4.04667,-10.5123 8.55537,-20.09738 10.01929,-21.30022 2.02545,-1.66418 11.08239,-2.07028 37.88981,-1.69894 l 35.22811,0.48798 1.05596,-7.05276 c 0.58077,-3.87903 0.56709,-8.593 -0.0304,-10.4755 -1.48184,-4.66886 1.09239,-5.8194 10.02373,-4.48006 l 7.56395,1.1343 0.5011,10.29631 0.5011,10.29631 8.49478,0.14067 8.49479,0.14067 4.4957,13.59165 c 9.58,28.96336 9.8156,29.4763 13.79731,30.04214 4.9485,0.70319 6.4774,8.18436 1.6727,8.18436 -3.04171,0 -3.22801,2.08744 -3.62281,40.6087 -0.2796,27.2716 0.1767,40.9752 1.3894,41.7247 0.99321,0.6138 1.80571,2.0279 1.80571,3.1424 0,1.5286 -17.43511,2.1542 -70.97449,2.5467 -39.03598,0.2861 -71.45378,0.041 -72.03955,-0.5449 z m 48.16747,-14.8473 c 0.42355,-17.68753 1.18021,-44.37615 1.30097,-45.88684 0.0567,-0.70909 7.5572,-1.14389 16.66785,-0.96622 9.11066,0.17766 18.40164,-0.28638 20.64666,-1.03118 l 4.08184,-1.35423 -1.16086,21.85845 c -0.6385,12.02215 -1.61816,25.48992 -2.17704,29.92852 l -1.01614,8.07 24.85373,0 24.85376,0 0,-41.62442 0,-41.62441 -19.96275,-0.0287 -19.96273,-0.0289 -7.6453,-7.35606 c -4.20492,-4.04585 -10.17955,-10.13579 -13.27696,-13.53321 l -5.63168,-6.17714 -10.50841,8.47939 c -5.77962,4.66365 -14.17578,11.62579 -18.65813,15.47138 -8.14541,6.98829 -8.15529,6.99138 -18.68852,5.82807 -5.79632,-0.64017 -12.22124,-1.57282 -14.27756,-2.07254 l -3.73878,-0.90856 -0.10392,41.67275 -0.10393,41.67275 4.69226,0.7097 c 2.58074,0.3904 12.52868,0.8243 22.10655,0.9643 l 17.41424,0.2545 0.29495,-12.3174 z m -10.77051,-0.4234 c -0.48065,-0.4806 -12.94391,-1.6086 -27.32621,-2.4732 -0.70082,-0.042 -1.27422,-10.3469 -1.27422,-22.89962 l 0,-22.82305 17.4143,-0.53759 c 9.57787,-0.29565 17.57041,-0.50887 17.7612,-0.47382 0.1908,0.035 -0.11619,10.89229 -0.68224,24.12716 -0.72246,16.89242 -1.66236,24.30642 -3.15398,24.87882 -1.16865,0.4484 -2.40113,0.539 -2.73885,0.2013 z m 1.3012,-10.1951 c 0,-5.75254 -0.21035,-5.94629 -6.45603,-5.94629 -6.67647,0 -7.2982,0.9317 -5.3852,8.06999 0.79034,2.9492 2.26029,3.8227 6.43282,3.8227 5.0484,0 5.40841,-0.3958 5.40841,-5.9464 z m -16.30998,-1.8118 c 0,-5.60349 -0.35026,-6.01873 -4.6576,-5.52156 -7.84414,0.90538 -7.51515,11.58076 0.3569,11.58076 3.7977,0 4.3007,-0.7086 4.3007,-6.0592 z M 893.457,975.92933 c 0.51875,-6.2679 0.42933,-6.37107 -5.5216,-6.37107 -4.61939,0 -6.0544,0.70263 -6.0721,2.97317 -0.0136,1.63524 -0.49787,4.74563 -1.07803,6.91201 -0.98619,3.68255 -0.62543,3.90362 5.54482,3.39792 6.28663,-0.51529 6.62462,-0.84307 7.12691,-6.91203 z m -16.35727,-0.31902 c 0.4972,-4.25885 -0.035,-6.02808 -1.96495,-6.53279 -4.913,-1.28479 -7.68896,1.18354 -7.70584,6.85181 -0.0136,4.84469 0.53558,5.52162 4.48627,5.52162 3.8655,0 4.59914,-0.82648 5.18452,-5.84064 z m 0.78438,-13.69615 c -0.20627,-3.57479 -1.08823,-4.24639 -5.57785,-4.2474 -7.2288,-10e-4 -7.04338,5.4953 0.23598,6.99571 2.80326,0.57782 5.20712,1.15121 5.34187,1.27421 0.13473,0.12302 0.13473,-1.68713 0,-4.02252 z m 15.89507,-0.001 c 0,-3.72153 -0.73621,-4.24738 -5.94635,-4.24738 -5.21013,0 -5.94634,0.52585 -5.94634,4.24738 0,3.72153 0.73621,4.24738 5.94634,4.24738 5.21014,0 5.94635,-0.52585 5.94635,-4.24738 z m 71.35615,36.31804 c -7.00821,-0.8073 -13.70743,-1.8345 -14.88721,-2.2829 -1.58336,-0.6018 -2.04104,-5.7423 -1.74791,-19.63191 0.21842,-10.34914 0.80141,-19.4297 1.29555,-20.17896 1.20535,-1.82769 31.15642,-3.64436 33.74162,-2.0466 1.439,0.88937 1.9749,7.85589 1.8196,23.65473 -0.2521,25.63944 2.2772,23.07704 -20.22165,20.48564 z m 0,-8.2853 c 0,-4.83581 -0.35735,-5.09683 -6.9776,-5.09683 -5.66465,0 -6.78354,0.50567 -5.94634,2.68739 0.56718,1.47804 1.03124,3.33864 1.03124,4.13454 0,0.7959 2.10246,1.7656 4.67213,2.1549 2.56966,0.3893 5.24553,0.8223 5.94635,0.9623 0.70082,0.14 1.27422,-2.039 1.27422,-4.8423 z m 15.29055,0 c 0,-4.46389 -0.5977,-5.09683 -4.8137,-5.09683 -6.04713,0 -6.78637,0.76455 -5.78818,5.98623 0.63439,3.3186 1.83927,4.2075 5.70313,4.2075 4.31045,0 4.89875,-0.6121 4.89875,-5.0969 z m -15.29055,-14.44109 c 0,-5.66319 -0.28317,-5.94634 -5.94636,-5.94634 -5.4459,0 -5.94634,0.41989 -5.94634,4.98922 0,4.35568 0.70116,5.07624 5.52161,5.67444 3.03689,0.37688 5.71273,0.80759 5.94634,0.95712 0.23361,0.14952 0.42475,-2.40396 0.42475,-5.67444 z m 15.72195,3.82265 c 1.2903,-3.83479 -0.68,-7.73833 -4.4111,-8.73924 -7.05906,-1.89373 -8.03515,-1.26384 -7.61892,4.91659 0.36896,5.47862 0.82973,5.94635 5.85798,5.94635 3.00164,0 5.77904,-0.95566 6.17204,-2.1237 z m -15.74796,-16.32597 c -0.14663,-6.13212 -10.65175,-7.04069 -11.51655,-0.99604 -0.43837,3.06403 0.23589,3.40439 5.52161,2.7873 3.31152,-0.38659 6.00924,-1.19265 5.99494,-1.79126 z m 16.98956,0.18589 c -0.048,-5.49632 -2.4544,-7.31912 -8.15665,-6.17867 -4.25738,0.85148 -5.409,1.94088 -5.409,5.11682 0,3.5749 0.77497,4.03501 6.79583,4.03501 5.34952,0 6.79032,-0.63277 6.76982,-2.97316 z m -68.85893,-26.68133 c -7.55888,-7.55889 -4.11054,-17.30788 7.46021,-21.09113 5.2099,-1.70346 6.0957,-1.44686 10.61848,3.07594 5.82999,5.82997 6.28381,11.51688 1.41322,17.70884 -4.72936,6.01239 -13.64572,6.15253 -19.49191,0.30635 z m 17.26122,-3.53345 c 3.9528,-6.03274 1.38268,-11.27364 -5.92062,-12.07317 -11.0174,-1.20613 -15.79131,5.90461 -8.71494,12.98096 4.75323,4.75324 11.18782,4.35412 14.63556,-0.90779 z m 7.49992,76.9361 c 0.0771,-8.6884 1.15999,-24.88568 2.48375,-37.15488 l 1.21335,-11.24576 -15.03999,-0.85528 c -8.27199,-0.4704 -15.51842,-0.37928 -16.10315,0.20255 -0.58474,0.5818 -1.56674,5.07162 -2.18221,9.97735 -0.92476,7.371 -0.66646,8.91951 1.48791,8.91951 1.76398,0 2.60694,1.64812 2.60694,5.09688 0,5.86933 -3.28901,7.02913 -3.61333,1.27421 -0.11843,-2.10246 -0.89453,1.1468 -1.7245,7.22052 -0.82998,6.0738 -1.08065,13.528 -0.55705,16.5649 l 0.95199,5.5216 15.21361,0 15.21363,0 0.0491,-5.5216 z m -52.09223,-80.7611 c 0.45376,-0.73421 -0.45678,-1.37507 -2.02342,-1.42417 -1.56663,-0.0491 -8.96467,-0.5607 -16.44008,-1.13694 -14.92019,-1.1501 -14.17734,-0.26899 1.69896,2.0151 14.03253,2.01883 15.81834,2.07698 16.76454,0.54601 z m 63.00645,-9.26287 c -3.69374,-3.95988 -10.70419,-11.29683 -15.57879,-16.3043 l -8.8629,-9.10448 -11.52457,10.22266 c -21.76198,19.30361 -23.39354,20.99051 -12.37406,12.79389 6.07378,-4.51784 13.9221,-10.80603 17.4407,-13.97375 l 6.39745,-5.75948 13.71851,14.66264 c 7.54517,8.06446 14.56923,14.66266 15.60901,14.66266 1.0398,0 -1.13162,-3.23993 -4.82535,-7.19984 z m 22.62153,5.98589 c -2.55294,-0.38765 -7.14012,-0.39546 -10.19374,-0.0174 -3.05362,0.37813 -0.96485,0.69529 4.6417,0.70484 5.60655,0.0111 8.10498,-0.29984 5.55204,-0.68749 z m 18.67794,0.0468 c -1.6244,-0.42524 -4.6825,-0.44067 -6.7959,-0.0343 -2.1133,0.40638 -0.7843,0.75429 2.9534,0.77315 3.7377,0.0188 5.4668,-0.31362 3.8425,-0.73886 z m -86.93686,-17.65569 c 9.74537,-8.48381 17.28376,-16.12911 16.75196,-16.98955 -0.53179,-0.86046 0.55449,-1.56447 2.41397,-1.56447 2.08188,0 9.03286,6.08739 18.09118,15.84351 l 14.71029,15.84349 16.56644,0.35043 16.56642,0.35041 -6.643,-20.01658 -6.64306,-20.01656 -51.27495,0 c -28.20122,0 -52.12773,0.55494 -53.17004,1.23319 -2.5516,1.66041 -15.00491,35.10073 -13.59625,36.50941 1.38985,1.38984 13.3647,3.38702 21.99978,3.66916 5.88665,0.19234 8.20112,-1.26092 24.22726,-15.21244 z M 955.9104,870.1696 c 0.0812,-6.36047 -0.5525,-9.34414 -1.98474,-9.34414 -1.15724,0 -3.31341,-0.46405 -4.79145,-1.03124 -2.25104,-0.86381 -2.68741,0.4953 -2.68741,8.3702 0,9.41108 0.6367,10.33984 7.64531,11.15236 0.93807,0.10871 1.7524,-3.98785 1.81829,-9.14718 z"
       id="path5281"
       inkscape:connector-curvature="0" />
  </g>
</svg>
