<?xml version="1.0" encoding="UTF-8" standalone="no"?>
<!-- Created with Inkscape (http://www.inkscape.org/) -->

<svg
   xmlns:dc="http://purl.org/dc/elements/1.1/"
   xmlns:cc="http://creativecommons.org/ns#"
   xmlns:rdf="http://www.w3.org/1999/02/22-rdf-syntax-ns#"
   xmlns:svg="http://www.w3.org/2000/svg"
   xmlns="http://www.w3.org/2000/svg"
   xmlns:sodipodi="http://sodipodi.sourceforge.net/DTD/sodipodi-0.dtd"
   xmlns:inkscape="http://www.inkscape.org/namespaces/inkscape"
   width="1104"
   height="210"
   viewBox="0 0 1104 210"
   id="svg8124"
   version="1.1"
   inkscape:version="0.91 r13725"
   sodipodi:docname="dominika-college-houses.svg">
  <defs
     id="defs8126" />
  <sodipodi:namedview
     id="base"
     pagecolor="#ffffff"
     bordercolor="#666666"
     borderopacity="1.0"
     inkscape:pageopacity="0.0"
     inkscape:pageshadow="2"
     inkscape:zoom="0.73453364"
     inkscape:cx="433.1063"
     inkscape:cy="357.52626"
     inkscape:document-units="px"
     inkscape:current-layer="layer1"
     showgrid="false"
     units="px"
     inkscape:window-width="1440"
     inkscape:window-height="783"
     inkscape:window-x="0"
     inkscape:window-y="1"
     inkscape:window-maximized="1" />
  <metadata
     id="metadata8129">
    <rdf:RDF>
      <cc:Work
         rdf:about="">
        <dc:format>image/svg+xml</dc:format>
        <dc:type
           rdf:resource="http://purl.org/dc/dcmitype/StillImage" />
        <dc:title></dc:title>
      </cc:Work>
    </rdf:RDF>
  </metadata>
  <g
     inkscape:label="Layer 1"
     inkscape:groupmode="layer"
     id="layer1"
     transform="translate(0,-842.36216)">
    <path
       style="fill:#000000"
       d="m 188.94879,1038.1187 c -3.15782,-1.9517 -0.8913,-11.9641 4.03313,-17.8165 3.49794,-4.157 4.01818,-6.3836 4.01818,-17.1973 0,-6.83212 -0.48666,-12.42204 -1.08146,-12.42204 -0.5948,0 -4.33127,1.90453 -8.30327,4.23226 -9.53218,5.58628 -27.49557,12.93528 -35.10929,14.36358 -3.34884,0.6282 -9.22331,0.3215 -13.05437,-0.6815 -6.68814,-1.7512 -30.0776,-11.99045 -54.458685,-23.84059 l -11.561273,-5.61922 -1.856873,-22.8225 c -1.021278,-12.55237 -1.479607,-23.80566 -1.018505,-25.00726 0.586014,-1.52712 -2.749386,-3.30567 -11.080828,-5.90866 -6.555559,-2.04815 -13.303991,-4.44512 -14.996523,-5.32657 -3.613552,-1.88191 -4.118655,-1.59951 24.309772,-13.59115 21.09264,-8.89726 49.822975,-22.80733 63.773665,-30.8766 l 9.87591,-5.71238 17.8896,6.313 c 9.83927,3.47216 27.0767,10.32999 38.30539,15.23965 11.2287,4.90964 25.3433,10.94088 31.36581,13.40275 6.0225,2.46187 12.52097,5.83861 14.44103,7.50389 3.40655,2.9545 3.1694,6.46765 -0.43659,6.46765 -0.9909,0 -7.62774,3.4156 -14.74853,7.59024 l -12.94687,7.59024 0.88756,15.68378 c 0.48817,8.62607 1.35661,18.71066 1.92985,22.41019 0.98784,6.37507 0.79979,6.78694 -3.60025,7.88532 -2.55339,0.6374 -7.08178,2.6628 -10.0631,4.50086 l -5.42058,3.34193 0.52078,15.85853 c 0.43995,13.3971 0.916,15.757 3.0672,15.2043 3.05625,-0.7852 6.43654,5.8375 6.43654,12.6103 0,4.7468 -2.29455,7.8134 -3.90115,5.2139 -1.22839,-1.9876 -7.8624,-0.909 -14.14274,2.2994 -0.49204,0.2514 -1.87512,-0.1489 -3.07353,-0.8895 z m -29.05395,-34.5035 c 5.58601,-1.8702 15.93531,-6.46379 22.99844,-10.20796 l 12.84206,-6.80753 -0.94324,-18.41624 c -0.51879,-10.12895 -1.52042,-19.43452 -2.22584,-20.67908 -1.02613,-1.81037 -5.52807,-0.49947 -22.51503,6.55599 -22.33027,9.27477 -25.42629,9.63809 -33.23746,3.90037 -3.91904,-2.87875 -51.754845,-24.17134 -60.023785,-26.71768 -3.317076,-1.02148 -3.411033,-0.63302 -2.813935,11.63392 0.339751,6.97987 1.426663,16.45134 2.415365,21.04769 0.9887,4.59636 1.4779,9.31621 1.08712,10.48857 -0.73707,2.21119 5.47825,5.70482 32.141885,18.06692 18.24747,8.46013 33.38362,14.33833 37.2083,14.45023 1.60035,0.047 7.48011,-1.4451 13.06612,-3.3152 z m 49.56626,-25.39213 c 5.37624,-3.15067 7.04246,-4.99825 6.26003,-6.94137 -1.47149,-3.65438 -3.77694,-31.57534 -2.81527,-34.09534 0.47327,-1.24016 -2.54483,-0.50741 -7.64762,1.85675 -4.63618,2.14798 -8.47826,4.36201 -8.53798,4.92011 -0.31254,2.92143 2.36774,36.28394 2.99889,37.32837 1.09904,1.81866 1.75536,1.61193 9.74195,-3.06852 z m -39.80326,-27.97583 c 10.56318,-4.21088 18.97875,-8.33722 18.70127,-9.16967 -0.77936,-2.33808 -20.11995,-12.85769 -34.64053,-18.84145 -14.90086,-6.14048 -19.34117,-9.31243 -10.7941,-7.7108 7.18331,1.34609 33.74576,13.94338 43.38541,20.57563 l 7.51019,5.16715 11.7979,-5.40963 c 11.48514,-5.2662 35.48026,-18.9393 35.48026,-20.21766 0,-1.0674 -9.38731,-5.57332 -25.08856,-12.04249 -8.20952,-3.38248 -21.17366,-8.78967 -28.80917,-12.016 -7.63552,-3.22633 -20.64375,-8.36615 -28.90719,-11.42183 l -15.02443,-5.55579 -9.47454,5.22753 c -5.211,2.87515 -13.51687,7.46353 -18.45751,10.19642 -11.13017,6.15663 -60.843672,28.12659 -63.904578,28.24145 -2.456871,0.0922 1.416169,1.70211 24.706223,10.26967 23.13697,8.51124 55.938825,22.99426 63.100745,27.86092 3.47033,2.35814 7.41289,3.88593 8.76125,3.39511 1.34836,-0.49082 11.09417,-4.33769 21.65736,-8.54856 z m 289.1859,75.24476 c -7.02391,-7.8039 -16.276,-17.7806 -20.56017,-22.1705 l -7.78943,-7.98155 0.39765,-14.76983 c 0.2234,-8.29818 1.13172,-15.0057 2.07299,-15.30815 0.92144,-0.2961 8.65756,-0.76421 17.19138,-1.04025 l 15.51601,-0.50191 13.88275,14.11519 c 7.63552,7.76334 16.63482,17.25072 19.99847,21.08306 7.13557,8.12984 7.82926,6.52264 -10.6072,24.57384 -6.96179,6.8164 -12.6578,13.2474 -12.6578,14.2911 0,4.7823 -5.67932,0.7808 -17.44465,-12.291 z m 39.64024,-16.7905 c 2.44584,-2.9869 0.2782,-5.9348 -19.24245,-26.16915 l -14.19613,-14.71519 -12.75274,0.0249 c -7.01399,0.0131 -13.63423,0.58537 -14.71163,1.27024 -1.0774,0.68488 -2.44814,6.02046 -3.0461,11.85685 l -1.08719,10.6116 11.81701,13.84205 c 6.49935,7.6131 15.19727,17.3384 19.32871,21.6117 l 7.51172,7.7695 12.20795,-11.8527 c 6.71438,-6.519 13.09127,-12.9314 14.17085,-14.2499 z m -39.12275,-1.3655 c -5.13017,-7.40278 -5.29777,-8.44054 -1.18975,-7.36628 1.84668,0.48298 4.50736,-0.5771 6.53306,-2.6028 4.04697,-4.04697 5.04847,-4.1639 9.23011,-1.07758 2.37515,1.75302 2.70454,2.81289 1.31313,4.22546 -1.32156,1.3417 -2.17374,1.3734 -2.9546,0.1099 -1.69538,-2.74314 -4.19213,-2.09749 -3.08146,0.7969 0.6271,1.6342 0.16169,2.4571 -1.27621,2.2564 -6.07038,-0.8477 -7.13044,0.2069 -3.36371,3.3462 2.0897,1.7416 3.33252,3.922 2.76184,4.8454 -1.77962,2.8796 -3.52161,1.8889 -7.97241,-4.5336 z m -18.33931,-25.65731 c -1.39239,-5.54776 1.87631,-9.46461 6.03921,-7.23669 3.50442,1.87552 4.05883,6.45743 1.1351,9.38116 -3.14709,3.14708 -6.06512,2.27486 -7.17431,-2.14447 z m 5.8677,-2.42869 c 0,-0.89829 -0.3241,-1.63325 -0.72024,-1.63325 -0.39613,0 -1.17448,0.73496 -1.72966,1.63325 -0.55518,0.89831 -0.23107,1.63327 0.72024,1.63327 0.95132,0 1.72966,-0.73496 1.72966,-1.63327 z m 251.02787,37.601 -20.8063,-22.82994 0.60676,-13.18434 c 0.33371,-7.25138 1.26791,-13.80621 2.07596,-14.56627 0.80808,-0.76007 8.70922,-1.67891 17.55812,-2.04187 l 16.0889,-0.65995 19.43462,20.40609 c 10.68904,11.22334 19.43461,21.28998 19.43461,22.37038 0,1.0804 -5.76584,7.3884 -12.81298,14.0179 -7.04713,6.6294 -13.68771,13.6879 -14.75684,15.6857 -1.06914,1.9976 -2.86023,3.6321 -3.98022,3.6321 -1.11998,0 -11.39916,-10.2734 -22.84263,-22.8298 z m 35.82429,4.2532 14.37055,-13.6767 -4.66965,-6.3307 c -2.5683,-3.48193 -10.75108,-12.39426 -18.18394,-19.80521 l -13.5143,-13.47443 -12.24886,0 c -17.65762,0 -17.41581,-0.20147 -17.41581,14.51041 0,11.57647 0.34104,12.84128 4.49148,16.65786 2.47031,2.27157 10.5971,11.25487 18.05952,19.96287 7.46242,8.708 13.83183,15.8327 14.15426,15.8327 0.32242,0 7.05296,-6.1545 14.95675,-13.6768 z m -22.11447,-8.604 c -5.4716,-5.9713 -9.94837,-11.5289 -9.94837,-12.3503 0,-0.82144 -0.73362,-1.04009 -1.63027,-0.48593 -1.47255,0.91013 -9.62633,-6.75199 -9.75096,-9.16294 -0.0284,-0.54915 1.86749,-0.6316 4.21305,-0.18322 3.65801,0.69929 4.11872,0.35542 3.2387,-2.41728 -0.91742,-2.89053 -0.23411,-3.24449 6.45882,-3.34566 5.12075,-0.0774 7.77257,0.63677 8.39594,2.26122 1.28709,3.35414 -0.98262,5.07782 -2.8788,2.18621 -1.37674,-2.09951 -1.82912,-2.08078 -3.58603,0.14847 -1.1058,1.40309 -3.37952,3.06549 -5.0527,3.69416 -2.44766,0.9197 -2.65822,1.60569 -1.07746,3.5104 3.16942,3.81887 8.21817,4.72327 10.3643,1.85645 2.71357,-3.62476 9.26158,-4.00617 11.43235,-0.66592 0.99363,1.52891 1.18076,3.36634 0.41583,4.08314 -0.76494,0.7168 -1.7189,0.3846 -2.11992,-0.7383 -0.40102,-1.12285 -1.48149,-2.04157 -2.40104,-2.04157 -0.91954,0 -1.25789,1.07893 -0.75185,2.39757 1.05787,2.7568 -1.48341,4.9892 -2.95992,2.6002 -0.53997,-0.8737 -2.07945,-1.1673 -3.42107,-0.6525 -1.87806,0.7207 -2.00791,1.4558 -0.56435,3.1951 1.03121,1.2426 2.93078,2.2592 4.22125,2.2592 1.29047,0 1.89206,0.735 1.33689,1.6333 -0.55518,0.8983 0.13638,1.6332 1.53686,1.6332 1.40047,0 2.5463,-1.0249 2.5463,-2.2775 0,-3.0006 13.31185,-2.7149 14.31663,0.3072 0.50948,1.5324 -0.46315,1.8203 -3.54056,1.0479 -3.33337,-0.8366 -4.24301,-0.4643 -4.24301,1.7367 0,1.7326 -0.87394,2.4663 -2.29021,1.9229 -3.5785,-1.3732 -4.51353,0.7897 -1.69012,3.9096 1.5141,1.673 1.90994,3.2302 0.96897,3.8118 -0.87499,0.5407 -6.06767,-3.9024 -11.53925,-9.8737 z m -22.94943,-29.08865 c -2.28817,-2.75707 -0.9489,-8.37269 2.29356,-9.61694 3.60679,-1.38405 7.30902,4.03533 5.67943,8.31361 -1.60025,4.2013 -5.09392,4.7724 -7.97299,1.30333 z m 4.31718,-4.46777 c -0.52137,-1.30291 -0.90839,-0.9159 -0.98676,0.98676 -0.0709,1.72173 0.31511,2.68638 0.85783,2.14366 0.54271,-0.54271 0.60073,-1.95142 0.12886,-3.13042 z m 323.85404,49.00322 c -5.8114,-6.4536 -12.4588,-14.11 -14.7719,-17.0143 -2.31314,-2.9042 -6.56484,-7.2654 -9.44814,-9.6916 l -5.2424,-4.41116 0.4651,-15.73133 0.4652,-15.73135 16.33264,-0.94826 16.3327,-0.94827 20.0075,20.27142 c 11.0041,11.1493 20.0075,21.19005 20.0075,22.31285 0,1.1228 -6.2473,8.0426 -13.8827,15.3774 -7.6356,7.3347 -13.8829,14.4412 -13.8829,15.7921 0,5.446 -6.3754,1.8355 -16.3826,-9.2775 z m 26.367,-7.3206 14.3756,-14.1547 -5.046,-5.8528 c -8.3079,-9.63658 -16.7843,-18.50852 -24.7074,-25.86037 -7.4151,-6.8804 -7.588,-6.94137 -19.6926,-6.94137 -17.42984,0 -17.37884,-0.0391 -17.37884,13.29004 l 0,11.30728 9.2234,10.97532 c 12.14874,14.4564 27.35534,31.3912 28.18764,31.3912 0.3644,0 7.1316,-6.3696 15.0382,-14.1546 z m -18.3349,-3.4082 c -3.0427,-3.3251 -7.8334,-8.7834 -10.6461,-12.1294 -2.8126,-3.346 -5.4386,-5.75895 -5.8354,-5.36204 -0.3969,0.39694 -2.8268,-1.47563 -5.3996,-4.16114 l -4.67804,-4.88276 4.49884,0 c 3.6263,0 4.3136,-0.58324 3.5442,-3.00742 -0.8327,-2.62383 0.037,-3.02242 6.8224,-3.125 7.3729,-0.11139 11.0588,1.86058 9.1749,4.90879 -0.4699,0.76024 -1.8591,0.54831 -3.0872,-0.47093 -2.3983,-1.99032 -6.2663,-0.63592 -4.8284,1.69064 0.4771,0.77202 -0.6425,1.63994 -2.488,1.92874 -4.7564,0.74432 -4.4591,3.38021 0.704,6.24151 3.954,2.19121 4.6266,2.18051 6.3701,-0.10132 4.4305,-5.7981 12.5656,-5.40797 12.5656,0.60262 0,2.65881 -0.4355,2.98291 -1.9599,1.45851 -2.8265,-2.82646 -4.7919,-2.40971 -4.2364,0.8983 0.3659,2.1795 -0.4897,2.7492 -3.6033,2.3992 l -4.0832,-0.459 3.6054,3.1144 c 1.983,1.713 3.1467,3.5732 2.586,4.1339 -0.5606,0.5607 0.2056,1.0194 1.7028,1.0194 1.4971,0 2.7221,-1.1025 2.7221,-2.4499 0,-2.5511 8.5408,-3.4571 13.7492,-1.4585 4.6453,1.7826 2.7827,4.2117 -2.3631,3.0815 -3.673,-0.8067 -4.8293,-0.5248 -4.4914,1.0952 0.2502,1.1999 -0.6475,2.2805 -1.995,2.4015 -1.3473,0.1211 -3.115,0.3047 -3.9279,0.4083 -0.8129,0.1036 -0.2139,1.5854 1.3314,3.2928 1.5451,1.7074 2.1273,3.5259 1.2939,4.041 -0.8336,0.5152 -4.0051,-1.7839 -7.0479,-5.109 z m -27.19324,-33.47671 c -1.7196,-2.13397 -0.1532,-8.33422 2.52344,-9.98846 0.8289,-0.51229 2.8725,0.067 4.5413,1.28723 2.5944,1.89706 2.7527,2.83644 1.0923,6.48073 -2.0877,4.58189 -5.5046,5.51205 -8.15704,2.2205 z m 6.14504,-4.58788 c 0,-0.84528 -0.735,-1.53686 -1.6333,-1.53686 -0.8983,0 -1.6332,1.14583 -1.6332,2.54628 0,1.40047 0.7349,2.09206 1.6332,1.53688 0.8983,-0.55519 1.6333,-1.70101 1.6333,-2.5463 z m -653.23367,34.07869 c -17.47698,-0.674 -32.66631,-1.5669 -33.75407,-1.9843 -1.46093,-0.5606 -1.90662,-8.4323 -1.7056,-30.12419 0.1496,-16.1509 -0.2616,-29.89941 -0.91392,-30.55225 -0.65235,-0.65283 -5.2459,-1.18695 -10.20791,-1.18695 -6.19027,0 -9.02185,-0.6491 -9.02185,-2.06809 0,-2.55816 32.21888,-34.21277 56.30194,-55.31592 l 17.92022,-15.70284 11.47856,12.59816 11.47855,12.59813 0.81663,-7.26175 0.81663,-7.26175 11.84117,-0.47988 11.84118,-0.47987 0,19.13247 0,19.13248 10.71736,10.45694 c 8.87471,8.65907 10.37521,10.86922 8.72729,12.85485 -1.45772,1.75644 -4.26055,2.18819 -10.47759,1.61395 l -8.48751,-0.78394 -1.04796,15.82455 c -0.57639,8.7035 -1.05176,22.99049 -1.05642,31.74887 -0.005,8.75833 -0.55967,16.00143 -1.23339,16.09583 -0.67372,0.094 -7.47219,0.4578 -15.1077,0.8079 -7.63551,0.35 -14.61772,0.8449 -15.51601,1.0997 -0.8983,0.2548 -15.93262,-0.089 -33.4096,-0.7621 z m 0.005,-4.1752 c 0.0428,-0.6737 0.44097,-10.41207 0.88472,-21.64077 0.44376,-11.22869 1.16201,-21.4424 1.59609,-22.6971 0.62919,-1.8186 3.60304,-2.08274 14.66213,-1.30229 7.63008,0.53847 14.645,1.45624 15.58871,2.03947 1.06913,0.66076 1.62435,8.53871 1.47309,20.90147 -0.13343,10.91255 -0.18455,20.84292 -0.11351,22.06752 0.0994,1.711 2.11456,2.0038 8.70398,1.2646 4.71606,-0.5291 10.99089,-0.9798 13.9441,-1.0016 l 5.37021,-0.04 -0.18477,-32.25699 -0.18475,-32.25698 10.18585,0.59178 10.18588,0.59179 -3.12108,-3.95776 c -1.71659,-2.17677 -9.98934,-10.16025 -18.3839,-17.74107 -8.39454,-7.58081 -21.21063,-19.8468 -28.48022,-27.25773 -7.26956,-7.41094 -13.87778,-13.47445 -14.68493,-13.47445 -0.80715,0 -3.79289,2.09899 -6.63498,4.66441 -23.24547,20.98262 -31.59594,28.74006 -44.76888,41.5896 -8.30636,8.10243 -14.89478,14.93936 -14.64096,15.19319 0.25383,0.25382 4.11007,0.77451 8.56941,1.15707 l 8.10791,0.69556 0.44369,30.23292 c 0.50079,34.12406 -0.82887,31.29486 15.07233,32.07116 4.94062,0.2412 9.28919,0.7428 9.66348,1.1147 1.18379,1.176 6.66573,0.7301 6.74707,-0.5489 z m 29.91551,-6.3527 c 0.57189,-4.1677 1.03929,-13.63668 1.03929,-21.04219 l 0,-13.46452 -11.02454,-0.74723 c -6.0635,-0.411 -11.94325,-0.41799 -13.06612,-0.0164 -1.18802,0.42579 -2.04158,3.56721 -2.04158,7.51379 0,5.01323 0.85194,7.31412 3.26653,8.82204 1.79659,1.12199 3.26652,3.13621 3.26652,4.47605 0,2.94064 -1.90978,3.13948 -4.57314,0.47614 -1.52437,-1.52439 -1.95991,0.65331 -1.95991,9.79959 l 0,11.75953 12.02749,0 12.02747,0 1.03865,-7.5777 z m 32.93268,-101.03447 c -0.0444,-11.36346 -0.0731,-11.4361 -4.73356,-11.9687 -9.25688,-1.05788 -11.60261,0.56656 -12.1006,8.37986 -0.42568,6.67902 0.0649,7.64745 7.20971,14.23335 9.05556,8.34711 9.69601,7.63878 9.62445,-10.64451 z m 214.18297,112.50767 c -0.2592,-0.1801 -56.04798,-2.1998 -61.92574,-2.2418 -2.62053,-0.019 -2.85822,-2.5864 -2.85822,-30.87546 0,-30.63896 -0.0258,-30.86136 -3.67485,-31.76609 -2.02116,-0.50111 -6.73651,-0.55456 -10.47855,-0.11874 -6.1938,0.72132 -6.72645,0.49691 -5.94188,-2.50333 0.96983,-3.70861 31.31717,-33.39636 56.93848,-55.70093 l 16.94306,-14.74971 6.18049,6.95592 c 16.40359,18.46166 16.68867,18.71707 16.99432,15.22597 0.15729,-1.7966 0.43587,-4.36899 0.61902,-5.71643 0.18313,-1.34744 0.44181,-3.4008 0.57481,-4.56303 0.17876,-1.56207 3.32976,-1.988 12.08299,-1.63327 l 11.84117,0.47988 -0.61049,17.7212 -0.61048,17.7212 11.04606,11.13134 c 13.9541,14.06186 13.77474,17.27579 -0.87869,15.74422 l -9.76303,-1.02046 -0.243,18.3492 c -0.41619,31.42862 -1.11134,44.04132 -2.50045,45.36832 -1.03442,0.9882 -32.52287,3.0342 -33.73502,2.192 z m -28.67581,-19.00325 c 0.097,-8.30924 0.12903,-17.31262 0.0711,-20.0075 -0.058,-2.69489 0.27093,-6.65977 0.73069,-8.81087 0.82278,-3.8494 1.05382,-3.89568 14.65916,-2.93553 7.60276,0.53654 14.54428,1.42118 15.4256,1.96587 0.91971,0.56837 1.60248,10.38322 1.60248,23.03496 l 0,22.04462 13.47443,-1.1063 c 7.41094,-0.6084 13.7128,-1.3169 14.00412,-1.5744 0.29133,-0.2574 0.65882,-14.82062 0.81664,-32.3627 l 0.28694,-31.89471 10.61623,0.80078 10.61622,0.80075 -15.51601,-14.38001 c -8.53382,-7.909 -23.01011,-21.91344 -32.16958,-31.12097 -9.15945,-9.20752 -17.12042,-16.74096 -17.69103,-16.74096 -2.83885,0 -22.60687,17.60488 -52.05622,46.3599 l -14.86161,14.51123 5.71642,1.35735 c 3.14403,0.74654 6.76012,0.99006 8.03574,0.54115 1.27563,-0.44891 2.83367,0.0164 3.46231,1.0332 0.62864,1.01716 0.76898,14.89403 0.31186,30.83748 -0.94874,33.09011 -2.35742,30.20841 15.13896,30.96891 5.38978,0.2343 10.10583,0.7319 10.48012,1.1057 0.37429,0.3738 2.02796,0.6797 3.67485,0.6797 2.67506,0 3.01311,-1.6107 3.17063,-15.10765 z m 29.22245,-5.92845 0,-21.03614 -10.20791,-0.74559 c -14.68993,-1.07295 -15.22163,-0.78365 -14.53055,7.90567 0.34651,4.35671 1.52006,7.74062 2.86323,8.25605 2.58637,0.99248 3.13875,7.05697 0.64279,7.05697 -0.8983,0 -1.63327,-0.73496 -1.63327,-1.63326 0,-0.89829 -0.73497,-1.63327 -1.63327,-1.63327 -0.93329,0 -1.63326,4.8998 -1.63326,11.43286 l 0,11.43281 13.06612,0 13.06612,0 0,-21.0361 z m 32.88853,-95.33398 c -0.54624,-4.13244 -1.1705,-4.49148 -7.80926,-4.49148 -7.58036,0 -7.7898,0.21486 -9.43944,9.68446 -0.89855,5.15798 -0.29571,6.23092 7.61668,13.55629 l 8.59244,7.95498 0.81663,-11.10638 c 0.44915,-6.10852 0.54949,-13.12756 0.22295,-15.59787 z m 175.15707,88.26271 c 1.32673,-39.21922 0.34424,-51.92257 -4.01567,-51.92257 -1.61991,0 -3.40358,-0.74155 -3.96372,-1.64788 -1.55997,-2.52407 0.75587,-8.1517 3.35452,-8.1517 1.26977,0 2.79154,-2.02117 3.38167,-4.49149 0.59011,-2.47031 1.58245,-5.22645 2.20518,-6.12474 0.62273,-0.8983 3.17471,-7.34673 5.67107,-14.32986 2.49635,-6.98312 5.77047,-13.35574 7.27581,-14.16137 1.50532,-0.80564 17.7442,-1.55112 36.08634,-1.65663 18.34216,-0.10555 33.58721,-0.4297 33.87792,-0.72039 0.29069,-0.29071 0.63854,-4.71002 0.77301,-9.82074 0.13442,-5.11071 0.85077,-9.6669 1.5918,-10.12489 0.74101,-0.45796 4.72539,-0.32609 8.85418,0.29304 l 7.50689,1.12574 -1.07654,8.61632 c -1.25851,10.07278 -0.39899,11.00271 10.37566,11.22541 l 7.48075,0.15467 4.47337,13.88275 c 7.78637,24.16434 9.45385,27.76551 12.85643,27.76551 2.25135,0 3.13146,1.14756 3.13146,4.08316 0,2.54064 -0.92553,4.08316 -2.44992,4.08316 -2.11086,0 -2.44989,5.52424 -2.44989,39.9186 0,25.27774 0.6088,40.29487 1.6599,40.94447 0.91295,0.5642 1.35049,1.5263 0.97228,2.138 -0.3782,0.6116 -31.73977,1.3495 -69.69239,1.6397 l -69.00477,0.5277 1.12466,-33.2459 z m 46.74439,17.89947 c -0.008,-9.66095 0.38481,-20.68727 1.57216,-44.06892 0.0333,-0.65766 7.59416,-1.12467 16.80169,-1.03782 9.20753,0.0869 17.84343,-0.10992 19.19087,-0.4375 2.77499,-0.67448 2.73323,-2.12427 0.93565,32.47816 l -1.2091,23.27398 23.41075,-7e-4 23.41074,-7e-4 -0.12673,-37.9727 c -0.0697,-20.88496 -0.25356,-38.89139 -0.40841,-40.01426 -0.20635,-1.49669 -5.22474,-2.04158 -18.80284,-2.04158 l -18.52137,0 -12.91898,-12.93457 -12.91899,-12.93459 -12.2495,9.89465 c -6.73721,5.44207 -14.74784,12.07149 -17.80138,14.73202 -5.32137,4.63645 -5.99964,4.79148 -16.33265,3.73274 -5.92942,-0.60753 -12.25069,-1.44706 -14.04728,-1.86561 -3.18894,-0.74292 -3.26382,0.0455 -3.15217,33.19744 0.15958,47.39276 0.0147,45.84826 4.37712,46.68846 2.02116,0.3893 11.5782,0.8079 21.23787,0.9303 l 17.56302,0.2224 -0.01,-11.8412 z m -10.0486,-0.36351 c -0.31241,-0.30074 -6.44775,-0.95735 -13.63412,-1.45914 -7.18637,-0.5018 -13.44319,-0.94006 -13.90407,-0.97394 -0.96718,-0.0711 -0.77895,-42.27353 0.19284,-43.23668 0.35482,-0.35166 7.99481,-0.84532 16.97776,-1.097 l 16.33265,-0.45762 -0.18732,6.44053 c -0.103,3.54229 -0.35933,13.92318 -0.56959,23.06863 -0.27297,11.8734 -0.99103,16.86171 -2.51122,17.44506 -1.17092,0.44933 -2.38453,0.57087 -2.69693,0.27016 z m 1.06526,-9.84436 c 0,-5.51681 -0.21387,-5.71642 -6.12474,-5.71642 -5.91086,0 -6.12474,0.19961 -6.12474,5.71642 0,5.51681 0.21388,5.71643 6.12474,5.71643 5.91087,0 6.12474,-0.19962 6.12474,-5.71643 z m -15.51601,-1.74175 c 0,-5.39089 -0.33467,-5.78641 -4.49148,-5.30811 -3.74255,0.43063 -4.57682,1.4019 -5.00327,5.82491 -0.47677,4.94484 -0.16939,5.30812 4.49147,5.30812 4.64694,0 5.00328,-0.41487 5.00328,-5.82492 z m 14.69939,-8.67032 c 0,-0.786 0.45935,-3.72588 1.02078,-6.53305 1.0113,-5.05653 0.95819,-5.10395 -5.71642,-5.10395 l -6.73722,0 0,6.53305 c 0,6.37751 0.13605,6.53306 5.71642,6.53306 3.14404,0 5.71644,-0.64309 5.71644,-1.42911 z m -14.69939,-5.78448 c 0,-5.74629 -1.96366,-7.50386 -6.94138,-6.21284 -2.01284,0.52205 -2.8582,2.37568 -2.8582,6.26723 0,5.05108 0.42103,5.52593 4.89979,5.52593 4.48816,0 4.89979,-0.46881 4.89979,-5.58032 z m 16.33264,-13.20221 c 0,-3.57765 -0.70774,-4.08317 -5.71642,-4.08317 -5.00868,0 -5.71642,0.50552 -5.71642,4.08317 0,3.57763 0.70774,4.08315 5.71642,4.08315 5.00868,0 5.71642,-0.50552 5.71642,-4.08315 z m -16.33264,-0.81664 c 0,-2.54064 -1.08885,-3.26653 -4.89979,-3.26653 -3.81095,0 -4.89979,0.72589 -4.89979,3.26653 0,2.54065 1.08884,3.26653 4.89979,3.26653 3.81094,0 4.89979,-0.72588 4.89979,-3.26653 z m 96.36263,36.6554 c -1.34745,-0.29193 -8.17586,-1.00717 -15.17428,-1.5894 l -12.72437,-1.05862 0.47489,-19.8619 0.47489,-19.8619 13.88275,-1.02324 c 22.37723,-1.64933 20.90785,-3.24245 20.64262,22.38083 -0.23842,23.03372 -0.0948,22.63518 -7.5765,21.01423 z m -11.43286,-8.8899 c 0,-4.64022 -0.35154,-4.89979 -6.63572,-4.89979 -5.94404,0 -6.58246,0.38304 -6.12474,3.67485 0.47227,3.3965 2.16891,4.26569 11.53551,5.90973 0.67372,0.11826 1.22495,-1.9899 1.22495,-4.68479 z m 14.69939,0 c 0,-4.51091 -0.45369,-4.89979 -5.71643,-4.89979 -4.89979,0 -5.71642,0.54441 -5.71642,3.81095 0,4.94664 1.18406,5.98864 6.80527,5.98864 4.05291,0 4.62758,-0.60847 4.62758,-4.8998 z m -15.89497,-14.29107 c -0.68813,-4.51815 -1.48247,-5.3081 -5.33747,-5.3081 -3.76671,0 -4.64809,0.81111 -5.2363,4.81876 -0.66055,4.50063 -0.32231,4.85109 5.12273,5.30811 3.2065,0.26916 5.92662,0.48935 6.04471,0.48935 0.11809,0 -0.14911,-2.38865 -0.59367,-5.30812 z m 15.89497,1.22495 c 0,-2.81909 -0.86696,-4.90926 -2.04158,-4.92209 -1.12287,-0.0131 -3.69526,-0.46547 -5.71643,-1.00713 -3.31508,-0.8884 -3.67484,-0.40653 -3.67484,4.9221 0,5.66193 0.2371,5.90691 5.71642,5.90691 5.26274,0 5.71643,-0.38887 5.71643,-4.89979 z m -16.33265,-14.88475 c 0,-2.33468 -1.18711,-3.08116 -4.89979,-3.08116 -4.04036,0 -4.8998,0.66659 -4.8998,3.8003 0,3.2935 0.6534,3.70439 4.8998,3.08115 3.45855,-0.50762 4.89979,-1.62544 4.89979,-3.80029 z m 17.19358,0.59704 c -1.46456,-5.83528 -1.41921,-5.80712 -7.2772,-4.52049 -3.9148,0.85985 -5.01658,1.97011 -5.01658,5.05524 0,3.54081 0.70024,3.95337 6.71011,3.95337 6.50335,0 6.6754,-0.13834 5.58367,-4.48812 z m -65.44913,-24.01978 c -7.38586,-7.38585 -4.84266,-15.42553 6.39959,-20.23063 3.90831,-1.67046 5.35285,-1.57253 8.64755,0.58624 3.79547,2.48689 7.07617,8.46997 7.07617,12.90494 0,1.15779 -1.80232,4.04982 -4.00517,6.42673 -5.22996,5.64321 -12.65942,5.77146 -18.11814,0.31272 z m 15.50171,-1.60081 c 1.06958,-1.28876 1.7108,-4.70578 1.42493,-7.59337 -0.47324,-4.78032 -1.08264,-5.30705 -6.80988,-5.88585 -6.94892,-0.70225 -10.85916,1.5385 -10.85916,6.22282 0,7.32648 11.80821,12.60133 16.24411,7.2564 z m 8.29145,65.63219 c 0.0201,-6.51261 0.48215,-18.16262 1.02671,-25.88888 l 0.99013,-14.04774 -14.50011,-0.90462 c -7.97507,-0.49756 -15.05182,-0.56367 -15.7261,-0.14699 -0.6743,0.41671 -1.22598,4.75663 -1.22598,9.64425 0,6.81032 0.57239,8.88655 2.44989,8.88655 1.63327,0 2.4499,1.63327 2.4499,4.89981 0,3.42363 -0.79546,4.89979 -2.64039,4.89979 -1.83687,0 -2.38024,-0.99472 -1.78558,-3.26879 0.47014,-1.79783 0.18838,-2.85691 -0.62614,-2.35349 -0.81453,0.5034 -1.48095,7.48662 -1.48095,15.51826 l 0,14.60295 15.51602,0 15.51601,0 0.0366,-11.8411 z m -49.91224,-71.35646 c 0.52156,-0.84393 -0.35377,-1.4676 -1.94521,-1.38593 -1.59142,0.0817 -8.77327,-0.32631 -15.95963,-0.90659 -14.98444,-1.20994 -14.32775,0.0718 1.05911,2.0674 14.79882,1.9192 15.79054,1.93246 16.84573,0.22512 z m 52.31721,-17.10149 c -6.95541,-7.6407 -13.47377,-14.17501 -14.48525,-14.52067 -1.73495,-0.59289 -27.74877,20.51907 -32.36181,26.26378 -2.3329,2.90522 19.56221,-13.90545 26.84245,-20.60915 l 4.48605,-4.13078 6.0407,7.24172 c 7.82705,9.38323 20.38856,21.38277 21.36353,20.40781 0.41828,-0.4183 -4.93027,-7.01201 -11.88567,-14.65271 z m 29.84468,14.20236 c -2.45422,-0.37266 -6.86404,-0.38015 -9.79959,-0.0167 -2.93554,0.36352 -0.92755,0.66842 4.46223,0.6776 5.38977,0.01 7.79158,-0.28826 5.33736,-0.66092 z m 17.95571,0.0448 c -1.56155,-0.40879 -4.50143,-0.42362 -6.53306,-0.033 -2.03164,0.39068 -0.75401,0.72514 2.83917,0.74327 3.59318,0.0182 5.25543,-0.30151 3.69389,-0.71031 z m -95.24902,-7.47292 c 19.8932,-16.33166 28.63386,-24.44778 27.79347,-25.80753 -0.5198,-0.84105 0.35008,-1.5292 1.93306,-1.5292 1.58298,0 9.52726,6.89068 17.65397,15.31263 l 14.77586,15.31263 16.00967,0.2873 16.00967,0.28731 -2.2224,-4.57539 c -1.22231,-2.51647 -4.28026,-11.19012 -6.79541,-19.27478 l -4.573,-14.69939 -45.96272,0.15075 c -56.5205,0.18538 -56.5766,0.18807 -56.58902,2.70747 -0.005,1.12287 -0.95883,3.879 -2.11847,6.12474 -4.41503,8.55014 -9.64053,24.53355 -8.76597,26.81264 0.8876,2.31303 6.39272,3.3999 19.87746,3.92438 5.17036,0.20109 7.8765,-0.84882 12.97383,-5.03356 z m 61.33972,-42.71916 c 0,-3.07056 0.44219,-6.73519 0.98268,-8.14362 0.67838,-1.76787 -0.40323,-3.08769 -3.49305,-4.26245 -2.46164,-0.93591 -4.64683,-1.49735 -4.85601,-1.24765 -0.20916,0.24971 -0.73078,4.27608 -1.15919,8.9475 -0.81625,8.90054 -1.07327,8.54614 7.30062,10.06665 0.67373,0.12233 1.22495,-2.28988 1.22495,-5.36043 z"
       id="path5303"
       inkscape:connector-curvature="0" />
  </g>
</svg>
