<?xml version="1.0" encoding="UTF-8" standalone="no"?>
<!-- Created with Inkscape (http://www.inkscape.org/) -->

<svg
   xmlns:dc="http://purl.org/dc/elements/1.1/"
   xmlns:cc="http://creativecommons.org/ns#"
   xmlns:rdf="http://www.w3.org/1999/02/22-rdf-syntax-ns#"
   xmlns:svg="http://www.w3.org/2000/svg"
   xmlns="http://www.w3.org/2000/svg"
   xmlns:sodipodi="http://sodipodi.sourceforge.net/DTD/sodipodi-0.dtd"
   xmlns:inkscape="http://www.inkscape.org/namespaces/inkscape"
   width="280"
   height="280"
   viewBox="0 0 280 280.00001"
   id="svg8124"
   version="1.1"
   inkscape:version="0.91 r13725"
   sodipodi:docname="dominika-virus.svg">
  <defs
     id="defs8126" />
  <sodipodi:namedview
     id="base"
     pagecolor="#ffffff"
     bordercolor="#666666"
     borderopacity="1.0"
     inkscape:pageopacity="0.0"
     inkscape:pageshadow="2"
     inkscape:zoom="0.73453364"
     inkscape:cx="308.82308"
     inkscape:cy="357.52626"
     inkscape:document-units="px"
     inkscape:current-layer="layer1"
     showgrid="false"
     units="px"
     inkscape:window-width="1440"
     inkscape:window-height="783"
     inkscape:window-x="0"
     inkscape:window-y="1"
     inkscape:window-maximized="1" />
  <metadata
     id="metadata8129">
    <rdf:RDF>
      <cc:Work
         rdf:about="">
        <dc:format>image/svg+xml</dc:format>
        <dc:type
           rdf:resource="http://purl.org/dc/dcmitype/StillImage" />
        <dc:title></dc:title>
      </cc:Work>
    </rdf:RDF>
  </metadata>
  <g
     inkscape:label="Layer 1"
     inkscape:groupmode="layer"
     id="layer1"
     transform="translate(0,-772.36216)">
    <path
       style="fill:#000000"
       d="m 151.12374,1031.7535 c -3.2594,-1.3152 -3.40559,-11.537 -0.21069,-14.7318 1.79799,-1.798 1.57061,-3.6355 -0.92032,-7.437 -2.77319,-4.2324 -5.59724,-5.2727 -17.46002,-6.431 -7.78344,-0.7601 -16.64339,-1.8668 -19.68874,-2.4595 -4.30418,-0.83773 -5.83972,-0.1239 -6.89653,3.2058 -1.68373,5.3049 -8.275794,5.9348 -6.754934,0.6455 0.57534,-2.001 1.661744,-5.12333 2.414214,-6.93859 2.07958,-5.01653 -14.456538,-15.44838 -20.332211,-12.82658 -3.54921,1.5837 -4.251631,3.49252 -3.765064,10.23151 0.674542,9.34246 -1.856338,12.46616 -11.694881,14.43386 -5.686617,1.1372 -7.777164,0.016 -17.992279,-9.64429 -6.356939,-6.01216 -11.558069,-12.73843 -11.558069,-14.94732 0,-2.20891 2.835981,-6.85215 6.302158,-10.31831 6.075976,-6.07599 8.170535,-6.42343 16.926094,-2.80771 6.185429,2.55433 7.867575,-5.02252 3.360467,-15.13643 -3.348617,-7.5142 -4.498314,-8.56016 -7.066489,-6.42876 -2.384547,1.97899 -3.622077,1.99065 -5.560344,0.0524 -2.428932,-2.42895 -0.438129,-4.95275 5.573357,-7.06553 1.092549,-0.384 1.061614,-4.05044 -0.07464,-8.85537 -1.870308,-7.90851 -2.213765,-8.1764 -9.660423,-7.53482 -5.888874,0.50735 -7.721178,-0.10309 -7.721178,-2.57282 0,-3.50089 8.77038,-6.64533 12.355287,-4.42973 1.406482,0.86926 2.197049,-1.69705 2.197049,-7.13189 0,-7.24794 -0.797219,-8.79289 -5.450121,-10.56192 -3.758993,-1.42917 -6.300268,-1.36659 -8.18991,0.20166 -1.506872,1.25059 -5.362078,1.97233 -8.567126,1.60387 -8.0084,-0.9207 -12.274896,-9.77223 -9.100053,-18.87956 5.491635,-15.75335 19.237586,-21.48699 23.627962,-9.85562 3.824916,10.1334 10.507391,8.41763 17.946586,-4.6079 5.762413,-10.0896 5.958164,-11.10483 2.811616,-14.58174 -2.023087,-2.23548 -4.912516,-3.25132 -7.191037,-2.52815 -12.894473,4.09255 -16.785102,-9.68079 -5.668052,-20.06567 3.551123,-3.31726 8.763354,-6.03135 11.582745,-6.03135 4.313603,0 5.020223,0.86256 4.457692,5.44141 -0.498999,4.06171 0.944406,6.68754 5.692707,10.35615 l 6.361201,4.91476 6.83359,-5.70495 6.833611,-5.70495 -3.714962,-7.79039 c -2.986098,-6.26189 -3.200662,-8.29615 -1.093545,-10.36818 2.092168,-2.05737 3.447823,-1.5663 6.714509,2.4323 2.2512,2.7556 4.760433,6.20264 5.576063,7.66008 1.16803,2.08717 4.19584,1.77139 14.25708,-1.48695 14.56746,-4.71766 18.52846,-10.72152 10.89975,-16.52122 -3.00676,-2.28586 -4.07949,-5.07936 -3.59245,-9.35507 0.68906,-6.04921 0.80965,-6.1007 15.70431,-6.70557 14.73836,-0.59852 15.03512,-0.50911 16.40333,4.94229 0.91392,3.64143 0.17442,7.61544 -2.14897,11.54867 -4.487,7.59591 -2.59316,13.88818 4.65648,15.47097 3.06815,0.66984 6.89325,1.63399 8.50024,2.1425 1.607,0.50852 5.01646,-1.04321 7.57657,-3.44834 5.09264,-4.78426 8.78658,-2.41776 5.47176,3.50547 -1.55501,2.7787 -0.12555,4.39789 7.42864,8.41447 8.83007,4.695 9.57235,4.77629 13.24704,1.45073 2.14106,-1.93762 3.89283,-5.31048 3.89283,-7.49525 0,-6.63736 4.0389,-12.01455 9.02433,-12.01455 4.88475,0 17.08745,7.86789 21.63952,13.95245 6.60626,8.83032 -1.22221,22.96778 -11.31542,20.43456 -3.71074,-0.93133 -6.02425,-0.2396 -7.93409,2.37226 -2.28094,3.11935 -1.92686,5.13169 2.29993,13.07169 2.74773,5.16162 4.99588,10.50384 4.99588,11.87159 0,1.40083 2.39743,2.3159 5.48995,2.09544 7.3254,-0.52222 8.62683,3.94267 1.65894,5.69151 -4.43906,1.11414 -5.26755,2.26969 -4.27674,5.96509 0.67589,2.5208 1.24167,8.90999 1.25728,14.19819 0.0267,8.99153 0.42901,9.69507 6.20732,10.85073 3.95325,0.79065 8.35285,-0.0124 12.21419,-2.22798 5.64928,-3.24225 6.38425,-3.23511 11.49177,0.11142 6.51829,4.27093 6.84923,9.56498 1.35466,21.66979 -4.73612,10.43391 -10.04231,11.51143 -17.91568,3.63809 -8.34372,-8.34374 -14.43764,-6.93934 -19.49456,4.49265 -5.26729,11.90764 -2.78974,17.57231 8.05889,18.42572 3.79806,0.29878 8.76007,2.39775 11.0267,4.66435 3.65669,3.6567 3.80545,4.71738 1.32009,9.41162 -3.53001,6.66739 -17.79204,18.09664 -22.58193,18.09664 -5.60817,0 -8.81724,-5.3144 -7.32145,-12.12469 1.79241,-8.16082 -3.37887,-10.07661 -11.33062,-4.19762 -5.71865,4.228 -5.83773,4.64496 -2.69579,9.44014 4.74229,7.23769 0.22587,11.53924 -5.14788,4.90291 l -3.82505,-4.72375 -10.79698,3.83475 c -12.38819,4.39999 -12.77095,7.64503 -2.03325,17.23923 4.70001,4.1994 5.94425,6.7268 4.9123,9.9782 -2.42121,7.6286 -20.38234,13.4212 -29.81412,9.6154 z m 20.91447,-7.3666 c 4.92444,-2.5274 3.69967,-8.3801 -2.30322,-11.0061 -4.87423,-2.1324 -7.57,-8.3739 -6.32191,-14.63726 0.4016,-2.01532 5.16728,-5.25756 11.09833,-7.55044 5.717,-2.21013 11.43318,-5.37221 12.70264,-7.02688 1.26944,-1.65466 3.08926,-3.00847 4.04405,-3.00847 0.95477,0 4.30215,-2.45856 7.43857,-5.46346 l 5.70262,-5.46345 6.88457,4.08338 c 4.06307,2.40989 6.67156,5.50097 6.36484,7.54236 -0.28585,1.90244 -0.75361,4.99544 -1.03945,6.87331 -0.97771,6.42301 4.51972,5.19867 13.25858,-2.95283 10.71724,-9.99693 10.08632,-15.01383 -1.88814,-15.01383 -6.41986,0 -8.87252,-1.1938 -12.48152,-6.07524 l -4.4916,-6.07521 6.29634,-13.88631 c 5.50565,-12.14243 6.8691,-13.73271 10.85711,-12.66332 2.5084,0.67265 6.6026,1.23577 9.09819,1.2514 2.60848,0.0167 5.06815,1.70052 5.78583,3.96173 1.98437,6.25222 8.60962,6.78888 11.28629,0.91422 3.22536,-7.0789 2.85967,-16.66057 -0.68784,-18.02188 -1.6421,-0.63014 -5.22327,0.6144 -7.95813,2.76562 -4.27154,3.35999 -6.19504,3.60102 -13.64557,1.70989 -7.79094,-1.97757 -8.69281,-2.86297 -8.86694,-8.70504 -0.71658,-24.04217 -3.71829,-36.79984 -11.28047,-47.94332 l -5.23095,-7.70821 4.46504,-6.27054 c 3.91235,-5.49442 5.33237,-6.10783 11.47249,-4.95595 6.12124,1.14838 7.31465,0.64043 9.43637,-4.01621 2.15856,-4.73755 1.75351,-6.04049 -3.63961,-11.70737 -8.52491,-8.95763 -12.92083,-11.03738 -16.7,-7.90094 -1.69926,1.41026 -2.81986,4.62232 -2.4902,7.1379 0.40188,3.06671 -1.6308,6.45034 -6.16889,10.26889 -6.2569,5.26485 -7.12442,5.46175 -11.48247,2.60625 -6.37605,-4.17774 -31.10597,-13.97301 -35.27739,-13.97301 -4.16462,0 -9.82958,-7.78769 -9.82958,-13.51288 0,-2.34967 1.48671,-6.39471 3.3038,-8.98895 5.03416,-7.18727 2.39388,-10.76571 -7.91607,-10.72883 -4.89533,0.0167 -10.27934,0.90374 -11.96448,1.96941 -2.59796,1.64294 -2.36089,2.68589 1.55917,6.8586 2.9943,3.18727 4.62306,7.53348 4.62306,12.33615 0,7.11303 -0.40226,7.51584 -9.8748,9.88831 -14.26569,3.57301 -25.11057,8.79104 -36.609483,17.61481 l -10.103437,7.75291 -6.254741,-6.39749 c -3.44013,-3.51863 -7.188313,-6.39752 -8.329341,-6.39752 -1.141027,0 -1.627492,-2.33878 -1.081073,-5.19726 1.264724,-6.61596 -1.37399,-6.59999 -8.022535,0.0486 -7.018198,7.01819 -5.850934,12.61995 2.465081,11.83011 4.549476,-0.43212 7.6527,0.88576 11.348058,4.81928 l 5.086229,5.41405 -7.249247,13.56794 c -3.98707,7.46238 -7.760345,13.88382 -8.385056,14.26991 -0.624691,0.38608 -5.119824,0.16756 -9.989181,-0.48551 -6.315028,-0.84703 -8.542055,-1.99878 -7.767538,-4.01715 1.550385,-4.04025 -0.796762,-9.06638 -4.233899,-9.06638 -4.032306,0 -11.163783,12.27373 -11.173242,19.22987 -0.0063,4.93175 0.825056,5.717 6.055706,5.717 3.334917,0 6.391074,-0.98283 6.791491,-2.18404 0.491204,-1.47363 3.421443,-1.30397 9.008583,0.52156 l 8.28057,2.70557 1.365466,14.5505 c 1.653645,17.62149 6.117242,33.90167 12.053389,43.96271 l 4.41233,7.47834 -6.09747,9.37367 c -5.828709,8.96045 -6.202039,9.17832 -8.469022,4.94241 -4.363498,-8.15325 -16.777576,-4.50411 -16.777576,4.93181 0,4.44628 10.112397,15.46048 17.670693,19.24661 6.269437,3.1405 13.512884,-0.3928 13.512884,-6.59147 0,-2.82784 -0.935508,-5.71974 -2.078904,-6.42639 -3.498444,-2.16217 -2.315236,-6.92096 2.066597,-8.31171 2.28004,-0.72366 5.594167,-2.7644 7.364771,-4.53499 2.906393,-2.90639 4.424223,-2.27256 15.618483,6.52215 13.887734,10.91082 18.801854,12.75358 39.430974,14.78643 11.44857,1.12808 14.9629,2.31808 17.2268,5.83278 4.51682,7.0126 5.49902,13.367 2.25832,14.6106 -3.59513,1.3796 -3.788,6.7841 -0.29001,8.126 3.04416,1.1678 11.39598,-0.4058 16.75667,-3.1572 z M 117.8654,979.46018 c -18.515604,-9.87762 -18.182994,-32.42191 0.61054,-41.38393 6.66578,-3.17869 7.94649,-3.17249 18.2921,0.0887 15.97329,5.03513 18.70495,8.71445 15.86814,21.37289 -2.61935,11.68802 -6.61063,16.89413 -15.99802,20.86741 -8.45928,3.58044 -10.4805,3.47867 -18.77276,-0.94504 z m 20.38032,-4.60076 c 6.12118,-3.27596 10.75755,-13.81782 9.19869,-20.91531 -2.3575,-10.73361 -21.38281,-16.28922 -31.50452,-9.1997 -5.55718,3.8924 -8.91639,13.26925 -6.80162,18.986 3.89981,10.54224 19.24269,16.40845 29.10748,11.12901 z m 36.24135,-10.37233 c -2.14076,-3.46379 1.07018,-5.74585 9.20458,-6.54184 8.29323,-0.81155 11.13542,3.38776 3.57688,5.28486 -2.80207,0.70326 -6.49022,1.8142 -8.19589,2.46872 -1.70567,0.65452 -3.76916,0.10908 -4.58557,-1.21174 z M 76.577554,942.86045 c -1.711915,-4.46115 2.948783,-11.59642 7.574637,-11.59642 2.876312,0 4.084654,1.41447 4.084654,4.78147 0,8.2078 -9.086686,13.51905 -11.659291,6.81495 z m 77.160946,-9.49144 c -2.26763,-3.66911 2.55645,-7.69346 9.45759,-7.88967 5.40558,-0.15363 6.2737,0.50759 5.72519,4.36095 -0.48443,3.40302 -2.29206,4.70181 -7.20792,5.17899 -3.60872,0.35028 -7.19742,-0.39234 -7.97486,-1.65027 z M 97.407546,919.0173 c -3.531628,-2.15355 -8.443042,-6.48599 -10.914257,-9.62766 -9.160924,-11.64621 -3.152016,-36.73625 10.315197,-43.0708 11.191934,-5.26433 33.006474,-5.82314 33.006474,-0.8455 0,2.1057 -2.49842,2.57314 -9.93414,1.85865 -18.50591,-1.77818 -30.985627,7.24827 -32.952042,23.83391 -2.402674,20.265 21.221032,34.15454 41.623882,24.47274 15.69621,-7.44835 17.81955,-26.81475 4.94291,-45.08289 -1.37176,-1.94611 -1.74503,-4.28486 -0.8295,-5.19726 2.71424,-2.70493 9.41018,7.36603 12.91628,19.42654 3.11594,10.7185 3.0689,11.63985 -1.02245,20.02191 -6.06438,12.42418 -15.34501,18.14338 -29.42593,18.1337 -7.40204,-0.005 -13.52227,-1.35965 -17.726424,-3.92334 z m 83.097224,-1.45497 c -12.53783,-6.15503 -13.28707,-18.4972 -1.67726,-27.6295 6.8764,-5.40898 18.22234,-4.92635 22.67998,0.96474 4.56705,6.03568 3.85356,16.4906 -1.52949,22.41182 -6.26532,6.89174 -11.68629,8.07567 -19.47323,4.25294 z m 15.37259,-6.16578 c 8.04231,-5.63306 5.64054,-16.17403 -4.25094,-18.65662 -7.58034,-1.90255 -16.07554,3.58753 -16.07554,10.38891 0,5.23679 6.79533,11.50394 12.47341,11.50394 1.77799,0 5.31187,-1.45631 7.85307,-3.23623 z m -37.91744,-45.30267 c -5.17645,-3.78511 -2.71272,-6.95061 6.22149,-7.99363 9.00926,-1.0518 13.02256,2.60983 8.17436,7.45801 -4.07466,4.07468 -9.29052,4.26876 -14.39585,0.53562 z M 32.106406,952.96983 c 0,-1.78258 0.935507,-2.66287 2.078904,-1.9562 1.143399,0.70666 2.078906,2.16514 2.078906,3.24105 0,1.07591 -0.935507,1.9562 -2.078906,1.9562 -1.143397,0 -2.078904,-1.45846 -2.078904,-3.24105 z"
       id="path4682"
       inkscape:connector-curvature="0" />
  </g>
</svg>
