<?xml version="1.0" encoding="UTF-8" standalone="no"?>
<!-- Created with Inkscape (http://www.inkscape.org/) -->

<svg
   xmlns:dc="http://purl.org/dc/elements/1.1/"
   xmlns:cc="http://creativecommons.org/ns#"
   xmlns:rdf="http://www.w3.org/1999/02/22-rdf-syntax-ns#"
   xmlns:svg="http://www.w3.org/2000/svg"
   xmlns="http://www.w3.org/2000/svg"
   xmlns:sodipodi="http://sodipodi.sourceforge.net/DTD/sodipodi-0.dtd"
   xmlns:inkscape="http://www.inkscape.org/namespaces/inkscape"
   width="280"
   height="280"
   viewBox="0 0 280 280.00001"
   id="svg8124"
   version="1.1"
   inkscape:version="0.91 r13725"
   sodipodi:docname="dominika-wheel.svg">
  <defs
     id="defs8126" />
  <sodipodi:namedview
     id="base"
     pagecolor="#ffffff"
     bordercolor="#666666"
     borderopacity="1.0"
     inkscape:pageopacity="0.0"
     inkscape:pageshadow="2"
     inkscape:zoom="0.73453364"
     inkscape:cx="111.20771"
     inkscape:cy="357.52626"
     inkscape:document-units="px"
     inkscape:current-layer="layer1"
     showgrid="false"
     units="px"
     inkscape:window-width="1440"
     inkscape:window-height="778"
     inkscape:window-x="0"
     inkscape:window-y="1"
     inkscape:window-maximized="1" />
  <metadata
     id="metadata8129">
    <rdf:RDF>
      <cc:Work
         rdf:about="">
        <dc:format>image/svg+xml</dc:format>
        <dc:type
           rdf:resource="http://purl.org/dc/dcmitype/StillImage" />
        <dc:title />
      </cc:Work>
    </rdf:RDF>
  </metadata>
  <g
     inkscape:label="Layer 1"
     inkscape:groupmode="layer"
     id="layer1"
     transform="translate(0,-772.36216)">
    <path
       style="fill:#000000"
       d="M 111.71008,1030.6307 C 80.224633,1021.7312 45.151352,995.11319 33.111416,970.98025 7.9839249,920.61469 15.80889,865.97756 53.515528,828.51029 69.039586,813.08481 91.524014,798.69583 96.887794,800.7541 c 1.862166,0.71459 3.233176,-0.0313 3.233176,-1.75931 0,-5.84225 44.06793,-9.76312 64.78045,-5.76376 20.53806,3.96569 43.53811,15.97384 59.88492,31.26548 17.78406,16.63614 21.4171,22.50201 29.7725,48.07052 14.9611,45.78275 5.568,86.89117 -28.92487,126.58827 -10.74167,12.3625 -28.99953,23.596 -47.60746,29.2921 -16.14299,4.9417 -52.34229,6.1333 -66.31643,2.1833 z m 15.4907,-7.021 c -1.49431,-0.6045 -4.47399,-0.6414 -6.6215,-0.082 -2.14751,0.5596 -0.92487,1.0542 2.71695,1.0992 3.64183,0.044 5.39888,-0.4128 3.90455,-1.0175 z m 41.59296,-0.7305 c 13.78238,-2.5252 33.22244,-10.8951 31.5585,-13.5874 -0.62637,-1.0133 -3.32183,-0.4545 -5.9899,1.242 -8.32506,5.2937 -26.28403,10.4801 -42.3729,12.2372 -13.03888,1.4238 -13.86096,1.734 -5.26739,1.9869 5.60054,0.1655 15.53279,-0.6807 22.07169,-1.8787 z m -56.53335,-2.2361 c -6.0677,-2.6074 -9.55256,-2.6074 -5.51792,0 1.82092,1.1769 4.80059,2.0851 6.62151,2.0182 2.183,-0.08 1.8071,-0.7674 -1.10359,-2.0182 z m -13.37295,-5.4478 c -2.356416,-1.7823 -5.277628,-3.2406 -6.491567,-3.2406 -1.21394,0 -0.27919,1.4583 2.077237,3.2406 2.356414,1.7824 5.27763,3.2406 6.49157,3.2406 1.21393,0 0.27918,-1.4582 -2.07724,-3.2406 z m 61.56038,0.9729 c 14.51134,-2.0978 36.78859,-9.9569 36.78859,-12.9783 0,-0.8028 2.95246,-3.2035 6.56102,-5.3353 3.60858,-2.13161 10.88244,-9.54662 16.16414,-16.47784 15.18458,-19.9267 14.62402,-20.39367 -2.96954,-2.47356 -13.90471,14.16277 -19.17233,17.8801 -34.10223,24.0656 -22.24819,9.2172 -33.0075,10.275 -56.38306,5.5427 -25.7751,-5.2181 -40.484285,-12.67641 -56.290664,-28.5425 -21.414886,-21.49579 -28.748555,-42.83224 -27.062765,-78.73606 0.785707,-16.73413 2.136229,-23.1685 6.985093,-33.27916 12.461171,-25.98362 39.243273,-46.24759 70.794526,-53.56482 21.4445,-4.97333 37.12446,-4.34133 57.06685,2.30009 14.16656,4.71789 19.17284,7.73197 28.41168,17.10556 23.1524,23.49004 34.6569,47.42301 37.29901,77.59361 l 1.7396,19.86452 -0.67353,-22.0717 c -0.56493,-18.5135 -1.79774,-24.96537 -7.64718,-40.02135 -5.9007,-15.18792 -9.14547,-20.03516 -21.08906,-31.50399 -53.48131,-51.3554 -139.911485,-36.17416 -172.795017,30.351 -7.936803,16.05652 -8.235807,17.50712 -8.235807,39.95374 0,23.75172 3.430183,39.75491 12.325488,57.50342 7.889595,15.74187 37.398652,39.10354 59.407506,47.03174 17.06621,6.1475 30.31861,7.0538 53.70535,3.6726 z m 3.83224,-12.3186 c 6.59352,-1.9529 14.72387,-4.9602 18.06742,-6.6831 l 6.07921,-3.13263 -6.73617,-11.52604 c -3.70489,-6.33935 -10.28155,-18.47864 -14.61482,-26.97623 -4.33324,-8.49761 -8.1002,-15.7054 -8.37095,-16.0173 -0.27078,-0.31191 -3.46821,0.028 -7.10543,0.75549 l -6.61307,1.32263 -2.78022,30.56431 c -1.52911,16.81033 -2.12952,31.61717 -1.33426,32.90397 2.03738,3.2964 9.49085,2.9108 23.40829,-1.2111 z m -28.07773,-20.17655 c 0.77471,-11.83599 2.02514,-26.09246 2.77876,-31.68103 1.22591,-9.09095 0.87627,-10.29024 -3.31976,-11.38753 -3.75067,-0.98082 -6.59808,1.27524 -14.2175,11.26466 -10.96507,14.37572 -27.944372,39.28761 -27.944372,40.9997 0,1.37533 27.471682,9.67195 39.959892,12.06805 0.73392,0.1413 1.96826,-9.42801 2.74298,-21.26385 z m 77.15159,-6.98113 c 4.43337,-4.90723 7.51385,-10.18589 6.8455,-11.73053 -1.61058,-3.72206 -43.66425,-34.86713 -48.94356,-36.24769 -2.26853,-0.59325 -5.35166,0.39987 -6.85136,2.2069 -2.96416,3.57163 2.31086,15.76552 19.95813,46.13579 l 8.65982,14.90317 6.1354,-3.17264 c 3.37446,-1.74493 9.76269,-7.18777 14.19607,-12.095 z M 105.63888,965.48247 c 19.51976,-28.07559 19.79487,-28.62383 16.17814,-32.24054 -2.77936,-2.77936 -6.69229,-1.25169 -30.51974,11.91531 -15.032415,8.30688 -27.750097,16.35869 -28.261525,17.893 -0.511427,1.5343 4.796438,8.33601 11.79527,15.11491 14.62905,14.16942 11.14017,15.60562 30.807855,-12.68268 z m 125.36307,-13.81342 c 5.0684,-13.72159 8.14437,-26.20417 8.15836,-33.10753 l 0.0132,-6.06972 -32.85011,0 c -30.57975,0 -32.92699,0.29397 -33.96242,4.25347 -0.8835,3.37852 4.39834,8.35426 25.67682,24.18875 14.73402,10.96438 27.39908,19.97582 28.14463,20.02533 0.74554,0.0501 2.91472,-4.13104 4.82041,-9.2903 z M 82.929851,943.94396 c 31.200699,-17.05321 32.884059,-18.3416 31.344869,-23.9901 -1.12793,-4.13923 -3.46481,-4.85506 -20.312291,-6.22208 -10.47074,-0.84958 -23.379436,-2.35582 -28.685982,-3.34719 -5.306536,-0.99137 -11.679759,-1.27124 -14.162713,-0.62193 -4.057357,1.06103 -4.388491,2.40087 -3.270503,13.23326 1.27551,12.35826 7.877882,33.63927 10.436512,33.63927 0.786578,0 11.87912,-5.71106 24.650108,-12.69123 z m 160.443699,-8.27688 c -0.0627,-2.83209 -1.11557,-1.64541 -2.93757,3.31075 -5.06512,13.77799 -5.74713,18.98156 -1.30177,9.93226 2.38534,-4.85577 4.29305,-10.81513 4.23934,-13.24301 z m -89.12927,-2.37773 c 7.34111,-3.48359 14.32687,-14.36932 14.2688,-22.2347 -0.0728,-9.84682 -3.01482,-14.28437 -12.26407,-18.49787 -11.97301,-5.45433 -17.85178,-5.46022 -26.76283,-0.0267 -14.71303,8.97108 -14.57226,31.03706 0.25567,40.07912 8.30459,5.06413 14.87942,5.24667 24.50243,0.68026 z m -19.3604,-9.9385 c -4.30239,-2.50591 -5.07146,-11.09756 -1.57773,-17.62565 2.9816,-5.57116 20.78961,-6.17717 22.86148,-0.77797 2.61413,6.81232 1.26572,11.69672 -4.47586,16.21305 -6.38922,5.02577 -10.92517,5.61694 -16.80789,2.19057 z m 13.30369,-5.46627 c 2.698,-1.88976 4.90545,-4.75361 4.90545,-6.36409 0,-2.70455 -6.34702,-5.54851 -12.54248,-5.62008 -3.89223,-0.045 -5.87312,8.53619 -2.81979,12.21523 3.34417,4.02948 4.40758,4.006 10.45682,-0.23106 z M 28.792117,923.1138 c -0.704568,-1.76073 -1.227576,-1.23773 -1.33348,1.3335 -0.09575,2.32671 0.425807,3.63033 1.159253,2.89692 0.733415,-0.73343 0.811833,-2.63713 0.17436,-4.23042 z m -2.20716,-11.03585 c -0.704579,-1.76072 -1.227586,-1.23773 -1.333491,1.33351 -0.09575,2.32671 0.425808,3.63033 1.159254,2.89691 0.733415,-0.73342 0.811843,-2.63712 0.174359,-4.23042 z m 0,-8.82867 c -0.704579,-1.76073 -1.227586,-1.23773 -1.333491,1.3335 -0.09575,2.32671 0.425808,3.63033 1.159254,2.89692 0.733415,-0.73343 0.811843,-2.63713 0.174359,-4.23042 z m 87.772773,1.00775 c 0.80633,-2.10125 0.66428,-4.08938 -0.31565,-4.41805 -0.97993,-0.32869 -13.7004,-8.54529 -28.267718,-18.25913 -29.881161,-19.92551 -29.184142,-19.94374 -35.381666,0.92563 -4.543486,15.29953 -4.32023,23.22565 0.618754,21.96801 2.124405,-0.54096 9.325286,-0.0675 16.001975,1.05217 6.676688,1.11966 19.730661,2.15186 29.008849,2.29378 14.107786,0.21586 17.109416,-0.3674 18.335456,-3.56241 z m 124.81489,1.53621 c 0,-6.132 -11.99627,-37.56033 -14.12003,-36.99225 -1.33857,0.35805 -13.60754,6.98241 -27.26439,14.72077 -26.79446,15.18249 -31.45808,21.24639 -17.65736,22.95904 16.32482,2.02588 59.04178,1.52844 59.04178,-0.68756 z M 122.61716,890.42011 c 2.2685,-3.75289 -16.37078,-40.82171 -26.512176,-52.72603 l -5.916281,-6.94472 -9.187937,7.36551 c -5.05338,4.05107 -11.704157,10.35589 -14.779514,14.01077 l -5.591577,6.64521 26.91894,18.07033 c 14.805435,9.9387 28.302335,17.80471 29.993135,17.48003 1.69081,-0.32469 3.97474,-2.08018 5.07541,-3.9011 z m 72.44741,-11.14294 c 12.72696,-7.34254 24.46678,-14.66421 26.08848,-16.27037 2.45455,-2.43102 0.6557,-5.37128 -10.73713,-17.55026 -7.52711,-8.0465 -14.46753,-14.63 -15.42319,-14.63 -1.88126,0 -35.2782,51.16434 -35.2782,54.04645 0,2.20694 6.98364,7.59069 9.96759,7.68409 1.23338,0.0387 12.65547,-5.93735 25.38245,-13.27991 z m -55.4136,-29.03063 0.0751,-33.10889 -9.31847,1.20898 c -13.00356,1.6871 -32.493736,7.83373 -32.493736,10.24761 0,1.10605 2.875006,6.28199 6.388926,11.50212 3.51392,5.22011 9.61449,15.94709 13.55681,23.83771 8.97187,17.95738 12.3285,21.87635 17.5645,20.5071 3.82727,-1.00086 4.15775,-3.67427 4.22693,-34.19463 z m 31.09941,6.71553 c 9.10457,-14.66702 16.8378,-27.84485 17.18495,-29.28406 0.77058,-3.19474 -19.22954,-9.41943 -31.79299,-9.89496 -8.5351,-0.32308 -9.17522,0.0814 -10.48405,6.62559 -1.85497,9.27488 -1.79238,56.04862 0.0774,57.9185 4.49967,4.4997 9.83308,-0.90845 25.01458,-25.36507 z"
       id="path5924"
       inkscape:connector-curvature="0" />
  </g>
</svg>
