<?xml version="1.0" encoding="UTF-8" standalone="no"?>
<!-- Created with Inkscape (http://www.inkscape.org/) -->

<svg
   xmlns:dc="http://purl.org/dc/elements/1.1/"
   xmlns:cc="http://creativecommons.org/ns#"
   xmlns:rdf="http://www.w3.org/1999/02/22-rdf-syntax-ns#"
   xmlns:svg="http://www.w3.org/2000/svg"
   xmlns="http://www.w3.org/2000/svg"
   xmlns:sodipodi="http://sodipodi.sourceforge.net/DTD/sodipodi-0.dtd"
   xmlns:inkscape="http://www.inkscape.org/namespaces/inkscape"
   width="630"
   height="210"
   viewBox="0 0 630 210.00001"
   id="svg8124"
   version="1.1"
   inkscape:version="0.91 r13725"
   sodipodi:docname="dominika-change.svg">
  <defs
     id="defs8126" />
  <sodipodi:namedview
     id="base"
     pagecolor="#ffffff"
     bordercolor="#666666"
     borderopacity="1.0"
     inkscape:pageopacity="0.0"
     inkscape:pageshadow="2"
     inkscape:zoom="0.51939372"
     inkscape:cx="435.70322"
     inkscape:cy="196.8951"
     inkscape:document-units="px"
     inkscape:current-layer="layer1"
     showgrid="false"
     units="px"
     inkscape:window-width="1440"
     inkscape:window-height="778"
     inkscape:window-x="0"
     inkscape:window-y="1"
     inkscape:window-maximized="1" />
  <metadata
     id="metadata8129">
    <rdf:RDF>
      <cc:Work
         rdf:about="">
        <dc:format>image/svg+xml</dc:format>
        <dc:type
           rdf:resource="http://purl.org/dc/dcmitype/StillImage" />
        <dc:title></dc:title>
      </cc:Work>
    </rdf:RDF>
  </metadata>
  <g
     inkscape:label="Layer 1"
     inkscape:groupmode="layer"
     id="layer1"
     transform="translate(0,-842.36216)">
    <path
       style="fill:#000000"
       d="m 88.38084,1027.8415 c -10.190438,-1.4545 -19.143803,-6.2416 -33.931974,-18.1424 -12.686335,-10.20934 -21.768881,-19.7257 -24.162111,-25.31606 -1.933788,-4.51717 -2.325206,-4.99147 -4.569027,-5.53651 -3.067006,-0.74501 -3.819487,-2.24342 -6.366187,-12.67677 -2.960965,-12.13052 -3.136261,-13.45493 -1.870577,-14.1323 1.521362,-0.81421 3.692048,-0.62474 5.046244,0.44047 0.676011,0.53175 1.453389,0.96682 1.72751,0.96682 0.621859,0 0.919432,-2.39159 1.291078,-10.37639 0.520061,-11.17356 2.431716,-19.20511 6.566314,-27.58742 8.256169,-16.73825 26.14927,-30.36974 46.665503,-35.55118 9.469057,-2.39145 15.570007,-3.03357 29.181367,-3.07136 11.42827,-0.0317 12.57367,0.0437 15.71084,1.03402 9.39487,2.96581 21.17205,10.81201 30.75773,20.49142 5.35097,5.40328 9.09359,10.80396 12.02679,17.35489 2.92248,6.52701 7.03066,19.23029 8.22106,25.42118 0.55791,2.90146 1.32035,6.88044 1.69433,8.84217 0.37395,1.96174 0.78451,3.67137 0.91232,3.79917 0.12782,0.12782 0.87671,-0.22642 1.66422,-0.78717 1.73947,-1.23862 2.12827,-1.26047 3.08921,-0.17359 2.01014,2.27359 1.35878,10.96453 -1.20467,16.0734 -1.83673,3.66059 -5.12857,6.28434 -7.88451,6.28434 -1.59145,0 -1.65533,0.0864 -4.5588,6.16348 -1.6196,3.38992 -3.54828,6.92486 -4.28595,7.85542 -0.73768,0.93058 -2.28465,3.10592 -3.43772,4.83411 -3.23113,4.84274 -15.36049,16.66676 -20.67553,20.15496 -2.45749,1.6129 -9.45063,5.4603 -15.54029,8.5498 l -11.07212,5.6174 -11.04729,-0.059 c -6.07601,-0.033 -12.3525,-0.2452 -13.94776,-0.4729 z m 21.67523,-2.6476 c 6.21183,-1.5178 20.56825,-8.408 29.08289,-13.958 11.28456,-7.3554 24.64176,-24.20696 30.6718,-38.69565 l 1.99412,-4.79138 -3.52258,-3.51058 -3.52259,-3.51057 -11.60185,1.95911 c -14.95325,2.52505 -20.80934,2.71953 -25.27211,0.83926 -4.48132,-1.88806 -7.84488,-4.05136 -13.26628,-8.53232 -5.76653,-4.76619 -7.82585,-5.89971 -10.71832,-5.89971 -1.86256,0 -2.78767,0.42667 -6.66615,3.0745 -5.65777,3.86255 -9.44418,5.77871 -15.018552,7.60032 -7.515658,2.456 -12.345185,3.04448 -25.015584,3.04813 -12.061575,0.004 -19.267637,-0.74036 -25.269718,-2.60841 -1.688331,-0.52547 -3.175499,-0.74888 -3.41185,-0.51254 -0.607002,0.60701 0.540827,10.34544 1.594784,13.53039 0.490838,1.4833 1.022374,3.76693 1.181177,5.07474 0.822716,6.77547 6.778051,14.08341 21.315999,26.15741 14.960279,12.4248 24.387051,18.0033 34.312134,20.3051 7.07016,1.6397 17.39666,1.8317 23.13268,0.4302 z m -27.59135,-5.9771 c -5.210559,-1.9184 -8.550297,-4.084 -12.703859,-8.2375 -4.496599,-4.4966 -6.529222,-7.8107 -8.158608,-13.30243 -1.28019,-4.31483 -2.335577,-12.56445 -2.759237,-21.56819 l -0.332473,-7.06583 2.849887,-0.34944 c 3.696759,-0.45329 14.538336,-3.24197 18.560731,-4.77421 6.096609,-2.32237 10.445389,-4.55172 15.227439,-7.80616 6.73503,-4.58355 7.55694,-4.88901 10.34648,-3.84535 1.73761,0.65011 3.81989,2.45031 9.54894,8.25539 l 7.32676,7.42399 6.69215,0.007 c 3.68068,0.004 6.97437,0.18642 7.3193,0.40522 1.18569,0.75215 -0.59665,1.51401 -4.76454,2.03662 -7.69073,0.96434 -9.82215,0.0505 -18.48171,-7.92404 -3.64396,-3.3557 -7.27555,-6.43749 -8.0702,-6.84842 -1.30463,-0.67465 -1.62017,-0.67388 -3.25197,0.008 -0.99392,0.41528 -3.77035,2.02338 -6.16982,3.57355 -7.69796,4.9732 -13.499803,7.50986 -23.940812,10.4673 -9.754701,2.76305 -9.055684,2.42775 -9.295268,4.45875 -0.281731,2.38828 0.4238,14.40023 1.112781,18.94542 0.746024,4.92155 1.963503,7.96213 4.812765,12.01933 3.957927,5.6358 9.898888,9.9362 16.388694,11.8628 7.89643,2.3442 21.77635,-0.4011 35.17681,-6.9576 6.91074,-3.3812 11.19583,-7.003 13.56277,-11.46342 2.681,-5.05224 5.45629,-17.37617 5.63232,-25.01082 0.0809,-3.51198 0.23696,-4.34012 0.79339,-4.21189 1.20691,0.27814 1.41188,1.17085 1.41947,6.18226 0.0115,7.62476 -2.07737,17.91142 -4.70029,23.14619 -2.67989,5.34848 -9.45891,11.60858 -15.64994,14.45208 -9.33224,4.2862 -18.8937,6.5665 -28.70855,6.8464 -6.29682,0.1797 -7.58443,0.085 -9.78341,-0.7254 z m 2.60864,-15.2493 c -3.756795,-0.7801 -4.777748,-1.42 -4.571028,-2.8644 0.167992,-1.17404 -0.158059,-1.18221 7.636808,0.1911 5.19536,0.9153 7.22883,1.0315 14.50232,0.8283 5.84315,-0.163 9.43154,-0.4957 11.60186,-1.0754 4.4265,-1.18224 6.69347,-2.42267 7.05412,-3.85952 0.40549,-1.61563 2.0063,-1.59277 2.62612,0.0372 0.68801,1.80954 -0.16893,3.01672 -3.07484,4.33132 -4.71748,2.1343 -8.92721,2.7153 -21.10772,2.9133 -8.54616,0.1389 -12.17944,0.015 -14.66764,-0.5023 z m -3.0752,-12.80535 c -3.017693,-0.64852 -4.093475,-1.35727 -3.919118,-2.58198 0.178705,-1.25532 1.044767,-1.29472 7.159638,-0.32581 2.56044,0.4057 7.9348,0.6381 14.26061,0.61664 8.43668,-0.0286 11.13159,-0.22019 15.95255,-1.13408 7.3266,-1.38884 10.07151,-1.48354 10.29353,-0.35512 0.22515,1.1444 -3.33014,2.08778 -11.50205,3.05199 -7.50618,0.88565 -29.22995,1.37636 -32.24516,0.72836 z m 5.59392,-10.18031 c -4.574463,-0.39822 -8.154325,-1.41986 -8.154325,-2.32711 0,-0.27779 6.465435,-0.54742 16.315105,-0.68042 15.70754,-0.2121 16.49513,-0.26769 21.14921,-1.49248 2.65876,-0.69969 5.2148,-1.27474 5.68007,-1.27788 1.36183,-0.009 1.02045,1.81403 -0.4834,2.58172 -4.55037,2.32286 -23.92444,4.11739 -34.50666,3.19617 z m -60.510688,-6.09516 c 0.417658,-1.08838 -1.122686,-11.09061 -2.289926,-14.8697 -0.638854,-2.06838 -1.342233,-3.33682 -2.14028,-3.85972 -2.083141,-1.36493 -2.351975,-1.06127 -2.010583,2.27097 0.409621,3.9981 3.050969,14.77109 3.96282,16.16275 0.838669,1.27997 2.045036,1.42392 2.477969,0.2957 z m 150.369438,-3.65736 c 0.90897,-0.75437 1.53665,-2.34909 2.33837,-5.941 0.79399,-3.55721 0.89408,-9.42651 0.16077,-9.42651 -1.3375,0 -3.32059,2.91378 -4.30938,6.3318 -0.5693,1.96796 -1.54399,5.07323 -2.16597,6.9006 l -1.13088,3.32248 2.20185,-0.3018 c 1.21102,-0.166 2.51838,-0.56449 2.90524,-0.88557 z m -4.15751,-9.29406 c 1.11886,-2.45563 -0.31763,-3.33832 -3.09524,-1.90196 l -1.52308,0.78761 1.33233,1.14603 c 1.69606,1.45888 2.61086,1.45007 3.28599,-0.0317 z M 142.72953,961.198 c 3.87445,-0.78735 9.57979,-1.71187 12.67852,-2.05449 l 5.63405,-0.62295 -7.21143,-7.66509 c -8.86935,-9.42728 -11.61948,-13.06608 -19.19713,-25.40035 -7.2088,-11.73391 -12.14644,-18.73349 -16.69074,-23.66078 -1.87689,-2.03505 -3.58763,-3.7732 -3.80166,-3.86255 -0.21403,-0.0894 -1.96449,1.29866 -3.88992,3.08446 -12.61721,11.70231 -27.519376,19.87255 -44.432816,24.36069 -8.297435,2.2018 -13.647078,2.92105 -25.215382,3.39017 -5.805359,0.23541 -10.622751,0.5002 -10.705325,0.58843 -1.079769,1.15369 -2.774474,25.62663 -1.839348,26.56175 0.229958,0.22996 2.258483,0.9714 4.507832,1.64763 9.80668,2.94825 37.428512,2.92121 47.674091,-0.0467 4.484948,-1.29917 7.249278,-2.64867 14.424918,-7.04203 7.55264,-4.62418 10.11423,-5.17521 14.2695,-3.06959 1.31659,0.66718 3.8654,2.47803 5.664,4.02412 7.2112,6.19879 11.97801,9.18409 16.69188,10.45359 3.46068,0.93201 3.48151,0.93076 11.43896,-0.68633 z M 70.615512,936.7323 c -1.53161,-0.83091 -1.599327,-1.18315 -0.599262,-3.11706 1.757024,-3.39771 5.65372,-3.18703 6.735588,0.36419 0.241591,0.79303 0.0056,1.40258 -0.887674,2.29621 -1.385731,1.38573 -3.238915,1.54697 -5.248652,0.45666 z m 52.130448,-0.72742 c -0.68832,-0.81802 -1.25149,-1.89336 -1.25149,-2.38964 0,-2.23005 5.08223,-3.29405 7.27049,-1.52211 1.47195,1.19193 0.97393,3.16874 -1.11998,4.44544 -2.1792,1.32872 -3.44822,1.19048 -4.89902,-0.53369 z m 50.39719,19.94963 c 2.26589,-2.85585 -2.50775,-23.75356 -8.67306,-37.96838 -3.43186,-7.91257 -5.38682,-10.68834 -12.47767,-17.71654 -7.93158,-7.8615 -13.42051,-11.85941 -22.89307,-16.67437 l -7.13914,-3.62887 -4.46952,0 c -8.37251,0 -27.16254,1.00395 -31.94222,1.70666 -2.621307,0.38539 -7.319908,1.55459 -10.441321,2.59823 -19.074974,6.37763 -33.757676,18.68276 -41.554756,34.82579 -1.084758,2.24589 -1.972293,4.37795 -1.972293,4.73792 0,1.52439 3.382266,2.25503 10.393332,2.2452 7.332158,-0.0102 12.705708,-0.77891 21.869901,-3.12829 24.331537,-6.23775 48.502957,-22.68638 52.742577,-35.89127 0.81803,-2.54787 2.17919,-3.53011 3.03045,-2.18685 0.97676,1.5413 0.12251,4.13786 -2.93563,8.92307 -0.6047,0.94621 -0.30521,1.42135 4.13541,6.56076 5.31639,6.15302 10.23507,13.29952 15.90974,23.11573 5.45576,9.43756 8.8011,14.15587 14.43892,20.36489 4.77339,5.257 11.54278,11.69118 13.59491,12.92171 1.41687,0.8496 7.53683,0.26166 8.38344,-0.80539 z m 138.57338,67.57799 c -23.13119,-0.1619 -42.08573,-0.3354 -42.12119,-0.3855 -0.60771,-0.8588 -0.81518,-6.765 -1.0759,-30.62684 -0.17042,-15.5982 -0.47292,-28.5233 -0.67221,-28.72244 -0.19929,-0.19914 -4.18638,-0.5139 -8.86019,-0.69948 -10.05837,-0.39938 -10.74234,-0.67898 -9.13885,-3.73583 3.08443,-5.88005 65.58518,-64.11354 70.47862,-65.66666 0.74196,-0.23549 1.32095,0.0519 2.23795,1.11102 11.9078,13.75264 19.14765,21.41538 20.23353,21.41538 0.71194,0 1.04831,-1.79719 1.08573,-5.80093 0.0186,-1.99407 0.29353,-4.38696 0.61086,-5.31752 0.85763,-2.51491 2.37327,-2.84127 13.3427,-2.87318 l 9.38186,-0.0273 -0.33338,18.00704 -0.33338,18.00704 6.10286,6.04263 c 9.92823,9.83026 13.74792,14.25825 13.74792,15.93729 0,1.01394 -0.36705,1.68371 -1.23403,2.25178 -1.06318,0.69662 -2.08385,0.76343 -7.37201,0.48249 -3.37589,-0.17934 -7.25568,-0.4565 -8.62177,-0.61592 l -2.48379,-0.28983 -0.32669,7.91561 c -0.17968,4.35359 -0.47594,18.24852 -0.65837,30.87755 l -0.3317,22.962 -5.80092,0.023 c -3.19051,0.013 -24.72646,-0.1095 -47.85765,-0.2715 z m 49.54958,-2.8527 1.20853,-0.346 -1.45023,-0.312 c -6.35301,-1.3668 -32.64102,-1.7108 -34.80681,-0.4555 -0.82368,0.4775 -0.57486,0.5715 1.69319,0.6399 1.46231,0.045 5.26917,0.2303 8.45968,0.4135 7.84082,0.4503 23.40182,0.4879 24.89564,0.06 z m -71.51298,-1.0247 c 1.0967,-0.587 1.20537,-1.2262 0.26952,-1.5853 -0.36604,-0.1404 -4.51547,-0.5309 -9.22095,-0.8677 -7.38096,-0.5283 -8.61581,-0.5169 -8.99529,0.083 -0.60774,0.9604 -0.5676,1.2383 0.30498,2.1108 0.62919,0.6292 2.12906,0.7596 8.73318,0.7596 4.5719,0 8.37242,-0.2134 8.90856,-0.5003 z m 24.62216,-5.7323 c 0,-5.4723 -0.10319,-6.2778 -0.84597,-6.6033 -1.21755,-0.5335 -18.01605,-0.8897 -18.47852,-0.3918 -0.21321,0.2296 -0.54038,3.2997 -0.72703,6.8225 l -0.33936,6.4052 10.19544,0 10.19544,0 0,-6.2326 z m -12.47199,1.7853 c -0.31906,-0.3191 -0.5801,-1.1457 -0.5801,-1.837 0,-0.6913 0.26104,-1.5179 0.5801,-1.8369 0.31904,-0.3191 1.14568,-0.5802 1.83696,-0.5802 1.52767,0 2.41705,0.8085 2.41705,2.1972 0,2.0368 -2.88105,3.4298 -4.25401,2.0569 z m 18.4509,1.9601 c 3.09463,-0.6215 3.4014,-1.5381 0.59367,-1.774 -1.80052,-0.1512 -4.15552,0.9002 -4.15552,1.8553 0,0.5966 0.21054,0.5918 3.56185,-0.081 z m 19.87814,-4.6431 c -0.47637,-4.7964 -1.57176,-9.2475 -2.74155,-11.1402 -1.1,-1.7799 -4.34986,-4.08454 -6.98702,-4.95489 -1.46247,-0.4827 -1.86433,-0.37519 -4.39747,1.17641 -3.74669,2.29488 -6.64922,2.90148 -10.28712,2.15008 -2.75712,-0.56948 -2.88594,-0.54848 -5.11874,0.8351 -2.99137,1.8537 -3.23111,2.617 -0.83699,2.6651 2.98772,0.059 5.63781,1.065 6.30988,2.3932 0.33262,0.6573 0.60797,2.446 0.61189,3.9748 0.006,2.1015 0.17797,2.7795 0.70748,2.7795 2.53479,0 12.08165,1.5985 14.28537,2.3919 1.55536,0.5599 3.92859,0.9645 5.71855,0.9746 l 3.05979,0.018 -0.32407,-3.263 z m 22.28007,-2.9004 c 0.50357,-8.2365 0.54881,-48.33286 0.0565,-50.10213 l -0.38911,-1.39846 3.77298,0.34502 c 13.35848,1.22161 16.60164,1.24135 16.56637,0.10084 -0.0396,-1.28084 -11.6262,-12.66847 -24.64394,-24.22076 -11.74542,-10.42321 -17.0136,-15.50589 -27.286,-26.32526 -5.57256,-5.86928 -10.32297,-10.6714 -10.55649,-10.6714 -0.6844,0 -17.87143,14.36717 -25.2356,21.09522 -3.72226,3.40074 -14.38146,13.76687 -23.68711,23.03586 -14.76799,14.70979 -16.79426,16.90259 -15.93544,17.24512 0.54115,0.21584 4.21502,0.62815 8.16413,0.91624 3.94911,0.28809 7.31321,0.65672 7.47576,0.81916 0.16255,0.16244 0.40432,11.78879 0.53725,25.83633 0.13294,14.04752 0.37589,25.67492 0.53989,25.83862 0.52447,0.5234 11.20283,2.1923 14.04875,2.1957 3.11802,0 4.02471,-0.6049 4.48962,-3.0132 1.40526,-7.2792 1.63379,-7.5182 7.71966,-8.0729 3.26987,-0.298 4.53665,-0.6465 6.09122,-1.6752 3.47298,-2.2983 5.7837,-4.66692 5.7837,-5.92863 0,-2.42776 -1.56432,-7.92777 -2.75308,-9.6795 -1.71868,-2.53262 -1.59377,-5.15621 0.42589,-8.9455 2.62561,-4.92616 6.89082,-7.15574 13.68897,-7.15574 8.53422,0 11.97358,3.41057 13.96871,13.85182 0.3986,2.08597 1.07194,5.60351 1.49632,7.81677 0.49064,2.55878 1.46445,5.37051 2.67429,7.72166 2.01045,3.90702 3.29575,8.74372 3.49336,13.14572 0.11323,2.5223 0.19145,2.6701 1.5694,2.9642 0.79763,0.1702 5.07204,0.3352 9.49868,0.3666 l 8.04846,0.058 0.37683,-6.1635 z m -44.16259,-57.73288 c -0.98501,-0.98502 -0.68764,-3.24472 0.5959,-4.52826 1.97392,-1.97393 3.64755,-1.2699 3.64755,1.53435 0,1.46499 -1.0113,3.08002 -1.92864,3.08002 -0.22513,0 -0.70517,0.11353 -1.06675,0.25228 -0.36157,0.13874 -0.92319,-0.0136 -1.24806,-0.33839 z m -6.36594,-7.37585 c -0.92732,-1.11735 0.14076,-2.43423 2.95694,-3.64572 2.09238,-0.90011 3.14729,-1.05259 6.0109,-0.86881 3.86238,0.24786 8.05868,1.96055 8.32417,3.39742 0.26551,1.43695 -1.27215,1.50166 -4.22234,0.17769 -3.7173,-1.66822 -5.8566,-1.62492 -9.06077,0.1834 -2.93384,1.65577 -3.21774,1.7093 -4.0089,0.75602 z m -6.64379,-6.38094 c -0.43177,-1.1252 0.31952,-2.12808 2.9141,-3.88994 4.01995,-2.72977 7.22386,-3.64034 12.16373,-3.45699 3.60413,0.13377 4.83367,0.39863 7.16535,1.54356 3.17231,1.55769 6.81765,4.76456 6.50266,5.72049 -0.4126,1.25222 -2.37954,1.01069 -3.71987,-0.45678 -2.26346,-2.47817 -5.55963,-4.07593 -8.97407,-4.35001 -4.341,-0.34845 -7.15839,0.50154 -10.92995,3.29751 -3.3859,2.51006 -4.62224,2.89438 -5.12195,1.59216 z m 15.95802,58.76523 c 3.13556,-0.87072 7.09609,-5.10425 7.09609,-7.58527 0,-1.1011 -2.18278,-3.25699 -3.98814,-3.93901 -0.94114,-0.35553 -1.71762,-0.34302 -2.65876,0.0429 -0.73116,0.29978 -3.06966,1.02517 -5.19667,1.61199 l -3.86727,1.06693 0.0202,2.47662 c 0.0236,2.89743 1.12753,4.71641 3.63975,5.99745 1.93028,0.98426 2.46532,1.01975 4.95482,0.32845 z m 12.40475,-4.19498 c -0.0173,-2.59931 -1.41262,-11.03442 -2.20637,-13.33828 -1.07709,-3.12624 -3.44693,-5.41337 -6.57019,-6.34087 -4.93892,-1.46671 -8.93884,-0.46953 -12.53281,3.12444 -2.54538,2.54539 -3.25237,4.59271 -2.28267,6.61023 1.30249,2.70994 3.26857,2.5383 12.54919,-1.09551 l 2.2421,-0.87789 1.65143,1.44998 c 0.90829,0.79749 2.34662,1.73793 3.19628,2.08988 1.53399,0.63539 1.54484,0.6642 1.54484,4.09926 0,2.34861 0.24163,3.80434 0.75253,4.53375 1.01727,1.45236 1.66637,1.35239 1.65567,-0.25499 z m 29.94079,-67.85665 c 0.7419,-11.26813 0.68524,-17.90438 -0.16276,-19.06486 -0.61209,-0.83764 -1.40339,-0.95326 -7.37201,-1.07711 -3.67748,-0.0763 -6.96174,0.0475 -7.29834,0.27502 -0.75497,0.51042 -1.85772,5.81023 -2.28983,11.00485 l -0.32357,3.88997 4.99658,4.62083 c 2.74812,2.54145 6.41056,5.83269 8.13875,7.31386 2.70234,2.31606 3.1875,2.57141 3.46601,1.82422 0.17812,-0.47785 0.55844,-4.43189 0.84517,-8.78678 z"
       id="path5900"
       inkscape:connector-curvature="0" />
    <path
       style="fill:#000000"
       d="m 535.53886,1027.3937 c -3.1927,-0.6863 -4.19021,-5.0333 -2.0649,-8.9987 1.14287,-2.1323 1.15052,-2.3451 0.1553,-4.3183 -0.57573,-1.1415 -1.88547,-2.5498 -2.91052,-3.1293 -2.01556,-1.1395 -21.90897,-3.903 -23.55363,-3.2718 -0.51603,0.198 -1.10698,0.8916 -1.31321,1.5414 -0.49525,1.5604 -2.02697,3.0525 -3.13355,3.0525 -1.08381,0 -1.12579,-1.5762 -0.14015,-5.2613 0.72225,-2.7005 0.68574,-2.8598 -1.08718,-4.7468 -1.97895,-2.1065 -7.26264,-4.88585 -9.30654,-4.8957 -0.69277,0 -1.88089,0.42908 -2.64029,0.96103 -1.21003,0.84758 -1.38072,1.52168 -1.38072,5.45297 0,5.1444 -0.87083,6.8959 -4.09933,8.2448 -1.14026,0.4765 -3.28833,0.8663 -4.7735,0.8663 -2.38626,0 -3.20204,-0.4224 -7.015,-3.6319 -4.84362,-4.0772 -9.58321,-9.84543 -9.58321,-11.66314 0,-2.18894 4.01375,-7.14067 7.08952,-8.74634 1.64047,-0.8564 2.15367,-0.83995 5.51098,0.17656 3.62442,1.09738 3.72105,1.09554 4.60746,-0.0873 1.13316,-1.51223 0.73025,-5.10257 -1.01545,-9.04904 -1.69404,-3.82966 -2.56593,-4.51134 -4.59033,-3.58897 -1.99982,0.91118 -3.526,0.35007 -3.526,-1.29635 0,-0.84209 0.73492,-1.62249 2.17436,-2.30892 2.44716,-1.16697 2.70937,-2.48056 1.47424,-7.3857 -0.84309,-3.34817 -2.23697,-4.24181 -5.78615,-3.70958 -3.18632,0.47782 -4.69614,-0.0256 -4.69614,-1.56563 0,-1.58856 3.31681,-3.18671 6.10959,-2.94381 l 2.27722,0.19805 0.18013,-4.38494 c 0.15235,-3.7086 -0.008,-4.55512 -1.03896,-5.48821 -1.44866,-1.31102 -5.94677,-2.04456 -7.0561,-1.1507 -2.83897,2.28753 -8.29076,1.00262 -10.39587,-2.45017 -2.36139,-3.87312 -0.94408,-10.04687 3.33063,-14.5082 4.5173,-4.71452 8.04377,-4.5521 10.74854,0.49505 1.50161,2.80205 2.03455,3.28695 3.7989,3.45644 1.69733,0.16305 2.41349,-0.19725 4.14115,-2.0834 2.65419,-2.89771 5.92087,-8.99228 5.92087,-11.04645 0,-0.97198 -0.642,-2.08136 -1.67445,-2.89349 -1.41768,-1.11516 -2.17389,-1.25473 -4.93143,-0.91019 -2.9769,0.37194 -3.40034,0.26357 -4.92409,-1.26018 -1.41607,-1.41607 -1.61697,-2.04087 -1.33417,-4.14928 0.48036,-3.58133 3.04571,-7.05154 6.8078,-9.20908 5.22941,-2.99904 7.29883,-2.36649 7.29883,2.23098 0,2.40321 0.29276,2.88259 3.51352,5.75321 l 3.51353,3.13155 2.23298,-1.79364 c 1.22815,-0.98649 3.17756,-2.59394 4.332,-3.5721 l 2.09901,-1.77847 -1.97742,-4.50536 c -2.03251,-4.6309 -2.07894,-6.50288 -0.17937,-7.23181 1.08173,-0.4151 2.9456,1.28835 6.36081,5.81335 l 1.56834,2.07797 4.02287,-1.02997 c 7.48229,-1.91568 13.03091,-5.21426 13.03091,-7.74671 0,-0.51911 -1.04835,-2.01746 -2.32967,-3.32964 -1.9802,-2.02791 -2.32966,-2.79734 -2.32966,-5.12928 0,-4.18674 0.73881,-4.58489 9.36916,-5.04894 8.68079,-0.46676 9.93808,-0.0778 10.56597,3.26924 0.31675,1.6884 0.0192,3.21004 -1.21575,6.2172 -1.87965,4.57701 -2.01838,6.23968 -0.68009,8.15036 0.9824,1.40257 6.08924,3.26373 8.9423,3.25897 0.87762,-0.002 2.82244,-0.81654 4.32183,-1.81128 3.01391,-1.99951 4.76778,-1.91787 4.10743,0.19119 -1.1917,3.80608 -1.14912,3.95494 1.63358,5.71157 1.48056,0.93463 3.90268,2.23491 5.38248,2.8895 2.48209,1.09795 2.80691,1.11393 4.19214,0.2063 1.78634,-1.17046 3.06973,-3.53064 3.64347,-6.7004 0.57203,-3.16028 3.11586,-6.07542 5.30158,-6.07542 3.47426,0 12.20083,5.80983 14.02496,9.33731 1.20253,2.32543 1.16955,5.17422 -0.0906,7.82984 -1.45678,3.06993 -3.0632,3.95517 -7.17736,3.95517 -2.86741,0 -3.81291,0.26606 -4.83173,1.35963 -0.69667,0.7478 -1.26542,1.79615 -1.26389,2.32967 9.3e-4,0.53352 1.25831,3.62586 2.79281,6.87186 1.5345,3.24601 2.79125,6.21867 2.79279,6.60593 0.003,0.83733 2.02258,1.45003 4.81745,1.46177 3.03158,0.0127 2.69032,1.90319 -0.62125,3.44141 -2.17444,1.01002 -2.61409,1.50044 -2.49183,2.77953 0.0817,0.8542 0.33255,4.43986 0.55756,7.96812 0.27143,4.256 0.70684,6.71274 1.29373,7.29963 1.57149,1.57149 6.74535,1.36094 10.22896,-0.41626 2.95395,-1.50699 4.52006,-1.49278 7.03878,0.0638 4.07847,2.52064 4.31908,6.68496 0.78834,13.64422 -3.21516,6.33725 -5.19045,6.66254 -11.23465,1.85009 -3.97053,-3.1614 -5.6466,-3.59565 -7.78807,-2.01786 -2.15207,1.58559 -4.92,6.64206 -5.41876,9.899 -0.66828,4.36395 0.55657,5.48592 7.75114,7.10005 4.45217,0.99886 7.87838,3.98417 7.28517,6.34769 -0.54449,2.1694 -6.53111,8.563 -10.25625,10.9534 -3.81254,2.4465 -6.35689,2.5115 -8.18014,0.2091 -1.11505,-1.4081 -1.29701,-2.259 -1.03519,-4.84066 0.37109,-3.65914 -0.31836,-5.25459 -2.27072,-5.25459 -1.60978,0 -7.11368,3.30958 -7.59655,4.56785 -0.17809,0.46412 0.27066,1.8514 0.99721,3.0828 1.40258,2.3771 1.45093,4.8117 0.10439,5.2555 -0.44714,0.1472 -1.88888,-0.8976 -3.20386,-2.322 l -2.39088,-2.5897 -4.75097,1.6866 c -5.44398,1.9326 -7.78927,3.5367 -7.78927,5.3277 0,0.6881 1.72395,3.0465 3.83101,5.2407 4.68401,4.878 5.05064,6.911 1.7441,9.6715 -3.28586,2.743 -10.76645,4.6932 -14.73301,3.8406 z m 6.36229,-3.3832 c 3.83459,-1.0447 6.42915,-2.427 6.68887,-3.5636 0.34326,-1.5023 -1.19766,-4.2993 -2.61668,-4.7497 -0.67211,-0.2133 -1.94652,-1.2489 -2.83202,-2.3013 -1.35241,-1.6072 -1.5804,-2.4218 -1.42508,-5.092 l 0.18491,-3.1787 6.52307,-3.2962 c 3.58769,-1.8129 7.23727,-3.9794 8.11018,-4.81462 0.87291,-0.83515 1.90532,-1.51855 2.29425,-1.51855 0.38894,0 2.38336,-1.55182 4.43206,-3.44857 l 3.72491,-3.4486 2.67826,1.66163 c 5.25689,3.26145 5.59415,3.79332 5.13344,8.09543 -0.26913,2.51318 -0.17693,3.96478 0.26935,4.24058 1.23977,0.7662 4.88236,-1.5491 8.71247,-5.53769 5.54919,-5.77894 5.08747,-7.30303 -2.45937,-8.11801 -3.78115,-0.40833 -4.17445,-0.60798 -6.95858,-3.53244 -1.623,-1.70481 -2.95091,-3.4835 -2.95091,-3.95265 0,-1.36385 6.51391,-14.76487 7.61476,-15.66577 0.7426,-0.60773 2.15225,-0.70469 5.47902,-0.37689 4.59127,0.45241 5.20566,0.79574 7.59161,4.24219 2.87103,4.14712 7.27063,-0.22105 7.27063,-7.21868 0,-4.97805 -2.08527,-6.03283 -6.52307,-3.29951 -1.54631,0.9524 -3.44052,1.53787 -5.01461,1.54993 -3.31583,0.0254 -8.20547,-1.66795 -8.60778,-2.98101 -0.17487,-0.57073 -0.60148,-4.5873 -0.94803,-8.92571 -0.97378,-12.19056 -2.4262,-17.15528 -7.10097,-24.27275 l -2.73538,-4.16469 2.45297,-3.42553 c 2.62044,-3.6594 2.70812,-3.69698 8.07817,-3.46179 3.09854,0.1357 3.63191,-0.02 4.46195,-1.30261 0.5185,-0.8012 1.13792,-2.25012 1.37649,-3.21983 0.39272,-1.59625 -0.0144,-2.20261 -4.30182,-6.40747 -4.16954,-4.08922 -4.97521,-4.62107 -6.74008,-4.44935 -2.25111,0.21903 -3.30684,1.75095 -3.92316,5.69272 -0.27194,1.73919 -1.13124,3.1275 -3.15049,5.08997 -1.5271,1.48419 -3.31171,2.86837 -3.96578,3.07596 -0.75536,0.23974 -3.48163,-0.74716 -7.47251,-2.70503 -3.45579,-1.69535 -9.5114,-4.14432 -13.45689,-5.44216 -5.93706,-1.95292 -7.43481,-2.70211 -8.68885,-4.34624 -2.46172,-3.22748 -2.53334,-5.774 -0.29302,-10.41916 2.09633,-4.34661 2.0218,-5.73628 -0.35613,-6.64037 -1.65956,-0.63095 -6.93055,-0.64945 -9.74831,-0.0342 -3.07106,0.67055 -3.2338,1.88949 -0.74589,5.58652 1.92211,2.85623 2.23256,3.81664 2.23256,6.90654 0,2.29894 -0.3091,3.8455 -0.85996,4.30268 -0.47298,0.39254 -3.33848,1.42424 -6.36777,2.29267 -7.68319,2.20258 -14.5034,5.63265 -21.59654,10.86148 l -6.06655,4.47205 -3.5216,-3.43203 c -1.93688,-1.88762 -4.17255,-3.76496 -4.96814,-4.17187 -1.22469,-0.62637 -1.41523,-1.13534 -1.24248,-3.31882 0.29826,-3.76988 -1.32438,-3.81276 -4.85474,-0.12827 -2.28121,2.38079 -2.74413,3.25223 -2.58724,4.87041 0.18467,1.9048 0.30553,1.98187 3.60792,2.30062 4.03539,0.38949 5.11973,0.93889 8.26897,4.18961 l 2.36714,2.44341 -3.51377,6.45851 c -6.03756,11.09733 -5.51174,10.4971 -9.19205,10.49313 -1.76598,-0.002 -4.25922,-0.29461 -5.54054,-0.65045 -2.16454,-0.60112 -2.32966,-0.81263 -2.32966,-2.98402 0,-5.07395 -3.45426,-5.85789 -6.37359,-1.44648 -1.70006,2.56895 -3.56633,7.49349 -3.56633,9.41046 0,2.86626 3.61576,3.9895 7.06002,2.1932 0.97868,-0.51043 2.39657,-0.92805 3.15087,-0.92805 1.55462,0 7.13541,1.75988 8.19181,2.58325 0.38348,0.2989 0.89555,3.12476 1.13794,6.27973 0.90289,11.75222 3.72786,22.5092 7.92079,30.16099 l 2.49045,4.54487 -3.54868,5.33245 -3.54867,5.33242 -2.07692,-2.26704 c -1.72018,-1.87769 -2.4997,-2.26709 -4.53835,-2.26709 -1.9859,0 -2.77214,0.36928 -4.06976,1.91141 -1.9134,2.27391 -2.02151,3.95597 -0.4162,6.47538 3.44586,5.4082 8.98598,9.6293 12.6381,9.6293 5.02182,0 6.79384,-3.8513 4.03055,-8.76 l -1.3978,-2.48296 1.66334,-1.36754 c 3.45224,-2.83824 7.3253,-4.87423 8.53932,-4.48891 0.66478,0.21099 3.66248,2.21302 6.66158,4.44896 8.99841,6.70865 12.40838,7.99165 25.38041,9.54865 7.84301,0.9414 9.32517,1.7051 11.22365,5.7825 1.81699,3.9026 1.90457,5.7628 0.31145,6.6154 -1.78139,0.9535 -2.21426,3.0008 -0.93365,4.4158 1.23442,1.3641 2.62664,1.48 6.17216,0.5141 z M 516.6676,995.88785 c -5.33973,-1.92521 -9.75258,-5.91044 -11.11466,-10.0376 -1.20227,-3.64292 -0.50708,-8.59622 1.63561,-11.65378 2.43706,-3.47764 7.74778,-6.65661 11.12037,-6.65661 5.20196,0 14.33854,3.69064 16.21093,6.54826 1.83811,2.80532 -0.003,11.93778 -3.28405,16.2939 -1.58765,2.10757 -7.2158,5.30922 -10.45698,5.94857 -1.02505,0.20219 -2.8751,0 -4.11122,-0.44274 z m 9.3918,-4.5984 c 3.2598,-2.05857 5.55785,-6.56269 5.57757,-10.93185 0.0121,-2.6809 -0.25383,-3.29146 -2.34383,-5.38146 -4.35809,-4.35809 -12.34555,-5.40797 -17.02663,-2.238 -1.07597,0.72863 -2.62831,2.58281 -3.44966,4.12039 -2.78043,5.20509 -1.04706,10.64575 4.35988,13.68462 4.62307,2.59831 9.50239,2.88097 12.88267,0.7463 z m 22.74622,-6.06209 c -0.52242,-0.52242 -0.79302,-1.35854 -0.60134,-1.85806 0.48517,-1.26434 4.33957,-2.29594 7.67488,-2.05412 4.21475,0.30558 3.68279,1.7693 -1.24249,3.41881 -4.9717,1.66505 -4.68374,1.64068 -5.83105,0.49337 z m -60.28715,-12.45129 c -1.58271,-1.58271 -1.21041,-4.47638 0.83971,-6.52648 2.12707,-2.12708 4.07512,-2.33476 5.03724,-0.53703 1.00546,1.87872 0.14935,4.681 -1.97657,6.46984 -2.18358,1.83736 -2.59419,1.89986 -3.90038,0.59367 z m 47.94679,-6.52846 c -3.01088,-1.75368 0.078,-4.95951 4.9406,-5.12772 l 2.98027,-0.1031 0,2.15601 c 0,1.67604 -0.34575,2.33093 -1.55311,2.94176 -1.86344,0.94274 -4.86976,1.00556 -6.36776,0.13305 z m -29.75232,-7.40103 c -5.91184,-1.03146 -11.8009,-5.29725 -14.22443,-10.30359 -1.16456,-2.40568 -1.32998,-3.59348 -1.10212,-7.91387 0.64746,-12.27568 6.85681,-18.11249 20.07376,-18.86938 5.91947,-0.33899 9.00805,0.33543 9.00805,1.96699 0,0.78451 -1.0479,0.94724 -6.09969,0.94724 -7.39687,0 -11.40197,1.08307 -14.81805,4.00711 -6.71594,5.74859 -7.48209,15.58705 -1.71345,22.00316 6.69338,7.44466 19.15871,7.93591 26.06731,1.0273 3.30678,-3.30678 4.21121,-6.03707 3.9187,-11.82973 -0.1976,-3.91299 -0.608,-5.29415 -2.86089,-9.6279 -2.80541,-5.39661 -3.16694,-6.82242 -1.72994,-6.82242 2.37334,0 7.5926,10.81543 8.23828,17.07151 0.27861,2.69947 0.039,3.74456 -1.60528,7.0019 -2.6028,5.15611 -5.12123,7.88098 -8.97355,9.70913 -3.62424,1.71991 -9.68093,2.41728 -14.1787,1.63255 z m 44.81751,-3.47258 c -3.82868,-2.15631 -5.28059,-4.27727 -5.28059,-7.71397 0,-7.21625 8.34111,-12.93409 15.447,-10.58892 5.75374,1.8989 7.07972,10.70626 2.44172,16.21821 -3.36398,3.99786 -7.88411,4.74524 -12.60813,2.08468 z m 8.67342,-2.42098 c 6.02886,-3.11764 5.65658,-10.32639 -0.63057,-12.21006 -3.24445,-0.97207 -6.77425,0.0665 -8.92894,2.62725 -1.82553,2.16951 -1.98586,3.6032 -0.68443,6.11992 2.03256,3.93052 6.45118,5.4242 10.24394,3.46289 z M 538.2244,923.83836 c -1.22817,-0.98274 -1.6842,-1.78634 -1.41371,-2.49122 1.13009,-2.94497 11.61353,-3.08296 11.61353,-0.15287 0,0.4539 -0.73702,1.56231 -1.63783,2.46312 -2.17615,2.17614 -5.96832,2.2563 -8.56199,0.18097 z"
       id="path5308"
       inkscape:connector-curvature="0"
       sodipodi:nodetypes="cscscssscccscssssscsssssssscscsssssssssssssscsscssscsssssssscssssssssssscscsscsssssssssssssscscscsscccccscsscscsscsscssssssssscssscsscssssssssssssssssscssssssscscssssssssscccssscsscsssscccccsssscccssssssssssssssssssscsssssssssssssssssssssssssssssscsss" />
  </g>
</svg>
