<?xml version="1.0" encoding="UTF-8" standalone="no"?>
<!-- Created with Inkscape (http://www.inkscape.org/) -->

<svg
   xmlns:dc="http://purl.org/dc/elements/1.1/"
   xmlns:cc="http://creativecommons.org/ns#"
   xmlns:rdf="http://www.w3.org/1999/02/22-rdf-syntax-ns#"
   xmlns:svg="http://www.w3.org/2000/svg"
   xmlns="http://www.w3.org/2000/svg"
   xmlns:sodipodi="http://sodipodi.sourceforge.net/DTD/sodipodi-0.dtd"
   xmlns:inkscape="http://www.inkscape.org/namespaces/inkscape"
   width="420"
   height="210"
   viewBox="0 0 420 210.00001"
   id="svg8124"
   version="1.1"
   inkscape:version="0.91 r13725"
   sodipodi:docname="dominika-box.svg">
  <defs
     id="defs8126" />
  <sodipodi:namedview
     id="base"
     pagecolor="#ffffff"
     bordercolor="#666666"
     borderopacity="1.0"
     inkscape:pageopacity="0.0"
     inkscape:pageshadow="2"
     inkscape:zoom="0.73453364"
     inkscape:cx="484.31592"
     inkscape:cy="237.72235"
     inkscape:document-units="px"
     inkscape:current-layer="layer1"
     showgrid="false"
     units="px"
     inkscape:window-width="1440"
     inkscape:window-height="778"
     inkscape:window-x="0"
     inkscape:window-y="1"
     inkscape:window-maximized="1" />
  <metadata
     id="metadata8129">
    <rdf:RDF>
      <cc:Work
         rdf:about="">
        <dc:format>image/svg+xml</dc:format>
        <dc:type
           rdf:resource="http://purl.org/dc/dcmitype/StillImage" />
        <dc:title></dc:title>
      </cc:Work>
    </rdf:RDF>
  </metadata>
  <g
     inkscape:label="Layer 1"
     inkscape:groupmode="layer"
     id="layer1"
     transform="translate(0,-842.36216)">
    <path
       style="fill:#000000"
       d="m 341.39376,1029.6629 c -2.14262,-1.2768 -12.54734,-7.1665 -23.12158,-13.0882 l -19.22589,-10.7666 0.39675,-17.36645 c 0.44013,-19.26558 0.68869,-18.65364 -8.69319,-21.40191 -9.12279,-2.67236 -9.15964,-3.30748 -0.64507,-11.12119 4.28295,-3.93041 7.77151,-7.51263 7.75236,-7.96049 -0.019,-0.44789 -2.94091,-3.96032 -6.4928,-7.80544 -3.55191,-3.84511 -6.45801,-7.73756 -6.45801,-8.64988 0,-0.91232 5.69744,-4.42836 12.66098,-7.81344 6.96353,-3.38508 17.77168,-8.70086 24.01809,-11.81285 l 11.35712,-5.65814 4.58063,6.3759 c 2.51935,3.50675 5.32503,6.66155 6.23483,7.01069 0.9098,0.34911 5.56171,-2.53844 10.33756,-6.41681 l 8.68335,-7.05158 18.52508,10.98425 c 10.18879,6.04133 20.13205,11.70955 22.09612,12.59605 1.96408,0.88648 3.57105,2.34921 3.57105,3.25051 0,0.90127 -2.99235,4.25633 -6.64967,7.45566 l -6.64966,5.81696 7.29894,9.14787 c 4.01441,5.03134 7.29895,9.50358 7.29895,9.93832 0,0.43475 -3.25448,2.28041 -7.2322,4.10146 l -7.23218,3.31101 0.32686,16.42022 0.32688,16.42028 -20.28645,10.3885 c -11.15754,5.7136 -22.05095,11.7032 -24.20758,13.3101 -2.15664,1.607 -4.09089,2.8735 -4.29837,2.8143 -0.20747,-0.059 -2.13028,-1.1523 -4.2729,-2.4291 z m 3.09463,-35.54669 0.15177,-16.65707 -6.98362,5.96629 -6.98363,5.9663 -13.28553,-7.8887 c -7.30705,-4.3388 -13.52266,-7.6516 -13.81248,-7.36176 -0.28982,0.28981 -0.89446,6.9503 -1.34365,14.80109 l -0.81671,14.27414 8.07614,4.9061 c 4.44188,2.6982 13.72939,8.0172 20.63889,11.8199 l 12.56275,6.9142 0.82214,-8.0417 c 0.45218,-4.4229 0.89045,-15.5374 0.97393,-24.69879 z m 25.76075,20.55279 19.93291,-10.3885 0.56487,-15.17586 0.56486,-15.17583 -4.8313,2.00114 c -2.65721,1.10064 -5.44297,2.49749 -6.19058,3.10411 -0.74759,0.60662 -5.70381,3.25008 -11.01381,5.87435 l -9.65454,4.7714 -5.34012,-6.06864 -5.34015,-6.06865 -0.85199,15.84534 c -1.32078,24.56354 -1.12344,33.95594 0.68746,32.72014 0.84671,-0.5778 10.50928,-5.7254 21.47239,-11.439 z m -32.86039,-34.85574 6.38349,-5.58464 -8.33134,-4.62859 c -9.83579,-5.46442 -28.81401,-15.01973 -32.96854,-16.59927 -2.37176,-0.90175 -4.06217,-0.17003 -8.96284,3.87965 l -6.03978,4.99098 6.8343,3.15292 c 5.51548,2.54451 19.11616,10.3019 33.45482,19.0816 2.82184,1.72785 2.67173,1.79476 9.62989,-4.29265 z m 39.46867,-2.11808 c 6.92073,-3.55166 15.95863,-7.90899 20.08423,-9.68294 l 7.5011,-3.22538 -4.73665,-6.22444 c -4.92144,-6.46728 -6.74539,-8.11875 -9.00377,-8.15238 -1.35402,-0.0202 -38.15224,20.1199 -39.8349,21.80207 -1.68523,1.68471 7.20225,11.84015 10.40726,11.89207 1.64978,0.0268 8.66201,-2.85733 15.58273,-6.409 z M 362.0163,962.18917 c 8.65545,-4.93787 17.90188,-10.00039 20.54759,-11.25004 l 4.81039,-2.27208 -8.05679,-4.71398 c -4.43124,-2.59268 -11.96394,-7.39215 -16.73933,-10.66545 -10.20845,-6.99743 -15.89957,-8.45671 -22.39556,-5.74251 -3.81568,1.59429 -14.35211,7.70974 -34.30615,19.91161 -2.96807,1.81497 -2.64198,2.07787 11.68706,9.42182 8.10718,4.1551 17.3699,9.06283 20.58385,10.90603 3.21393,1.8432 6.35836,3.35833 6.98762,3.36694 0.62925,0.009 8.22584,-4.02446 16.88132,-8.96234 z m -37.86756,-29.01745 17.81616,-10.43355 -5.24799,-6.26815 -5.24798,-6.26813 -11.2696,5.59827 c -6.19829,3.07904 -15.79834,7.80838 -21.33346,10.50964 -5.53512,2.70125 -10.06385,5.21701 -10.06385,5.59056 0,0.37356 2.67264,3.80757 5.93921,7.63113 5.31508,6.22137 6.2362,6.8007 8.76529,5.51285 1.55434,-0.79149 10.84334,-6.13417 20.64222,-11.87262 z m 71.98932,6.67202 c 3.81556,-2.9437 6.9161,-5.71937 6.89007,-6.16816 -0.0259,-0.44882 -9.07202,-5.95174 -20.10222,-12.22875 l -20.05493,-11.41275 -6.84291,5.38603 c -3.76361,2.96232 -7.01448,5.83699 -7.22413,6.38817 -0.20967,0.55118 1.07251,1.36698 2.84924,1.81292 1.77673,0.44593 7.20744,3.53849 12.06824,6.87235 11.27706,7.73455 22.78371,14.69473 24.30063,14.69902 0.64822,9.5e-4 4.30043,-2.40514 8.11601,-5.34883 z M 19.573127,1022.2439 c -0.122449,-0.1191 -0.176471,-19.1104 -0.119989,-42.20323 l 0.102717,-41.98685 4.763571,-7.79137 c 2.619961,-4.28526 4.765069,-8.56114 4.766898,-9.50197 0.0028,-1.36253 4.363535,-1.62675 21.43135,-1.29856 11.785391,0.22661 21.427212,0.056 21.426269,-0.37906 -9.43e-4,-0.43511 2.317581,-3.42599 5.1523,-6.64639 9.193912,-10.44485 27.197707,-16.4099 44.191317,-14.64154 16.2223,1.68809 26.78496,9.44567 34.21548,25.12902 3.64751,7.69871 4.09208,9.90677 4.09208,20.32411 0,10.52806 -0.40416,12.48376 -4.07557,19.7208 -4.56915,9.00672 -4.23352,10.53538 3.52646,16.06098 3.83058,2.72762 4.00605,2.73951 5.84352,0.39644 1.7791,-2.26863 2.60967,-1.66498 13.65006,9.92073 6.46564,6.78498 13.24869,14.52139 15.07345,17.19209 2.99589,4.3844 3.15855,5.2398 1.6769,8.8169 -2.11471,5.1054 -5.97483,7.7537 -11.30166,7.7537 -3.47384,0 -6.14626,-1.7493 -14.68596,-9.6129 -12.71404,-11.7074 -18.49466,-18.78762 -17.72913,-21.71504 0.35093,-1.34195 -1.30197,-4.03817 -4.22594,-6.89334 l -4.8023,-4.68931 -8.77521,4.57394 c -6.53229,3.40487 -10.39106,4.57396 -15.09703,4.57396 -3.477,0 -6.64364,0.52072 -7.03697,1.15716 -0.39333,0.63642 -0.76757,7.94081 -0.83162,16.23203 l -0.11648,15.0749 -15.801689,0.2566 c -20.357279,0.3305 -75.022408,0.4585 -75.312834,0.1762 z m 170.538183,-4.3285 c 4.55703,-4.5571 3.29461,-8.1718 -6.66237,-19.07671 -5.09274,-5.57753 -10.93864,-11.77976 -12.99088,-13.78273 l -3.73137,-3.64178 -1.22597,3.22456 c -0.67428,1.77352 -3.40403,4.7046 -6.06613,6.51354 l -4.84013,3.28895 12.80725,13.03567 c 13.82876,14.0754 17.42139,15.7267 22.7096,10.4385 z m -83.10794,-13.6349 c 0,-13.13509 -0.26342,-14.93349 -2.1873,-14.93349 -1.20302,0 -5.645683,-0.97037 -9.87259,-2.15638 -6.043923,-1.69584 -9.037757,-3.53035 -14.017781,-8.58955 -7.501597,-7.62084 -13.802167,-19.5611 -14.970894,-28.37144 l -0.840015,-6.3323 -22.075746,0 -22.075756,0 1.122257,12.0117 c 1.407074,15.06016 1.427354,23.03652 0.115577,45.44966 l -1.045043,17.8553 42.923652,0 42.923659,0 0,-14.9335 z m 52.66615,-16.77517 c 1.38524,-1.01291 2.22737,-2.08201 1.8714,-2.37577 -0.35599,-0.29375 -3.39524,-3.02001 -6.75389,-6.05836 -5.11076,-4.62338 -6.40427,-5.24626 -7.93169,-3.81942 -1.5498,1.44771 -1.02048,2.63913 3.50952,7.89939 2.93401,3.40701 5.66114,6.19485 6.0603,6.1952 0.39915,3.5e-4 1.85911,-0.82811 3.24436,-1.84104 z m -28.13367,-4.54741 c 8.55927,-4.41493 17.85406,-13.8113 21.77718,-22.01514 4.96557,-10.3838 5.01543,-24.87021 0.12233,-35.53107 -7.19686,-15.67988 -12.85882,-20.33058 -28.92295,-23.75704 -9.77588,-2.0852 -11.00718,-2.0876 -20.21311,-0.0395 -18.529046,4.12231 -29.5407,13.56127 -34.349496,29.44363 -4.41949,14.59661 0.04016,31.15076 11.819596,43.87396 6.851836,7.40079 8.104727,8.06989 20.689,11.04886 1.42842,0.33814 7.27194,0.45805 12.98562,0.26644 7.75107,-0.2599 11.83644,-1.09522 16.09183,-3.29017 z m -27.12961,-3.1893 C 94.949608,976.2876 88.101524,971.32418 83.312631,964.48015 68.285736,943.00457 73.001667,920.51507 94.853642,909.44299 c 6.625648,-3.35712 8.942258,-3.84099 17.993248,-3.75825 12.43938,0.11376 19.70647,2.91285 28.42387,10.94827 9.40761,8.67162 13.87227,24.74667 9.62921,34.66996 -9.69002,22.66209 -29.42902,34.74723 -46.49373,28.46565 z m 24.46339,-5.92303 c 9.10954,-4.69608 18.243,-17.68035 20.35468,-28.93655 1.21694,-6.4869 -2.38249,-18.09709 -7.37247,-23.78037 -7.13024,-8.12091 -14.35418,-11.4062 -26.4803,-12.04264 -9.40082,-0.49342 -11.54413,-0.16644 -17.65019,2.69273 -3.822498,1.7899 -8.118709,4.17887 -9.547127,5.30883 -2.443887,1.93325 -2.126224,2.05692 5.383509,2.09577 l 7.980648,0.0413 4.03105,6.28184 c 2.21708,3.45502 4.03106,6.76905 4.03106,7.36448 0,0.59546 0.91005,2.08822 2.02233,3.31729 1.79554,1.98406 1.84068,4.37241 0.40248,21.29934 -1.31926,15.52676 -1.30887,19.25692 0.056,20.10045 2.13743,1.321 10.64497,-0.5755 16.78833,-3.74248 z m -20.56099,-1.05524 c 0.004,-2.67829 0.3761,-10.44671 0.82758,-17.26317 l 0.82084,-12.39354 -13.266819,-0.32228 c -14.877567,-0.36139 -18.260942,0.27772 -18.242558,3.44598 0.02159,3.70213 5.907672,15.07751 10.520188,20.33089 3.686566,4.19875 15.003369,11.01531 18.360139,11.05903 0.53565,0.007 0.97694,-2.17863 0.98063,-4.85691 z m 1.29185,-33.48367 c 0,-0.38222 -0.94375,-2.13528 -2.09719,-3.89568 -1.95087,-2.9774 -2.85101,-3.2007 -12.901081,-3.2007 -12.640292,0 -17.465775,1.42619 -17.465775,5.1621 0,2.49975 0.799569,2.62926 16.232024,2.62926 8.927612,0 16.232022,-0.31273 16.232022,-0.69498 z m -6.80924,-12.61528 c -1.51745,-2.29512 -3.539557,-3.06747 -9.428175,-3.60113 -8.105208,-0.73453 -12.705722,0.73719 -13.388584,4.28302 -0.384478,1.99644 0.93699,2.23988 12.158575,2.23988 l 12.589944,0 -1.93176,-2.92177 z m -43.820536,10.3885 2.573086,-4.22033 -13.954596,-0.67204 c -18.441609,-0.88813 -20.767741,-0.48437 -23.090903,4.00815 -1.045798,2.02235 -1.901453,3.99819 -1.901453,4.39078 0,0.39257 7.605181,0.71377 16.900385,0.71377 l 16.900395,0 2.573086,-4.22033 z m 6.478662,1.08012 c 0,-1.0129 0.346578,-2.91204 0.770164,-4.22033 0.550032,-1.69879 9.43e-4,-1.45078 -1.918961,0.86772 -3.212975,3.87881 -3.415335,5.19425 -0.799041,5.19425 1.071309,0 1.947838,-0.82874 1.947838,-1.84164 z m -0.222375,-11.27043 c 0.935481,-1.49796 1.499061,-2.92541 1.252371,-3.1721 -0.24669,-0.24669 -7.929877,-0.62805 -17.073745,-0.84746 -15.374831,-0.36896 -16.769149,-0.20362 -18.538546,2.19817 -1.821269,2.4722 -1.644591,2.63458 3.673527,3.376 3.072755,0.4284 10.851522,0.86666 17.286156,0.97392 10.588201,0.17652 11.860871,-0.0636 13.400237,-2.52853 z"
       id="path5913"
       inkscape:connector-curvature="0" />
  </g>
</svg>
