<?xml version="1.0" encoding="UTF-8" standalone="no"?>
<!-- Created with Inkscape (http://www.inkscape.org/) -->

<svg
   xmlns:dc="http://purl.org/dc/elements/1.1/"
   xmlns:cc="http://creativecommons.org/ns#"
   xmlns:rdf="http://www.w3.org/1999/02/22-rdf-syntax-ns#"
   xmlns:svg="http://www.w3.org/2000/svg"
   xmlns="http://www.w3.org/2000/svg"
   xmlns:sodipodi="http://sodipodi.sourceforge.net/DTD/sodipodi-0.dtd"
   xmlns:inkscape="http://www.inkscape.org/namespaces/inkscape"
   width="400"
   height="210"
   viewBox="0 0 400 210"
   id="svg8124"
   version="1.1"
   inkscape:version="0.91 r13725"
   sodipodi:docname="dominika-toilet-paper.svg">
  <defs
     id="defs8126" />
  <sodipodi:namedview
     id="base"
     pagecolor="#ffffff"
     bordercolor="#666666"
     borderopacity="1.0"
     inkscape:pageopacity="0.0"
     inkscape:pageshadow="2"
     inkscape:zoom="0.73453364"
     inkscape:cx="433.1063"
     inkscape:cy="357.52626"
     inkscape:document-units="px"
     inkscape:current-layer="layer1"
     showgrid="false"
     units="px"
     inkscape:window-width="1440"
     inkscape:window-height="783"
     inkscape:window-x="0"
     inkscape:window-y="1"
     inkscape:window-maximized="1" />
  <metadata
     id="metadata8129">
    <rdf:RDF>
      <cc:Work
         rdf:about="">
        <dc:format>image/svg+xml</dc:format>
        <dc:type
           rdf:resource="http://purl.org/dc/dcmitype/StillImage" />
        <dc:title></dc:title>
      </cc:Work>
    </rdf:RDF>
  </metadata>
  <g
     inkscape:label="Layer 1"
     inkscape:groupmode="layer"
     id="layer1"
     transform="translate(0,-842.36216)">
    <path
       style="fill:#000000"
       d="m 107.67791,1032.2644 c -0.65003,-0.65 -1.18364,-6.4338 -1.18582,-12.8528 l -0.004,-11.6708 -15.875464,-0.2808 c -18.446327,-0.3262 -24.983633,-2.1401 -36.038452,-9.99985 l -8.045046,-5.71979 -0.225339,-51.65998 c -0.123918,-28.41299 0.405082,-51.93659 1.17559,-52.27467 0.770508,-0.33809 2.621425,-2.99598 4.113122,-5.90643 3.557493,-6.94093 13.986819,-12.62508 27.474012,-14.97378 13.23216,-2.30428 48.760727,-2.50045 54.381117,-0.30026 2.2397,0.87677 9.11256,3.01394 15.27303,4.74927 16.79483,4.73089 18.56601,7.79723 17.30759,29.96365 -0.55464,9.76969 -1.82796,35.71256 -2.8296,57.65084 l -1.82119,39.88775 -4.83766,3.51915 c -2.66071,1.9355 -10.24372,8.5666 -16.8511,14.7357 -14.42588,13.469 -27.49594,19.6477 -32.01084,15.1328 z m 16.22826,-7.2389 c 2.79746,-1.7063 11.47844,-8.9153 19.29109,-16.02 l 14.20482,-12.91765 1.16214,-27.85655 c 0.63918,-15.32113 1.6332,-36.23304 2.20893,-46.4709 l 1.04678,-18.6143 -5.20406,8.01241 c -6.21837,9.57408 -14.0368,16.42558 -25.1103,22.0048 -7.92829,3.99455 -19.12591,7.37539 -21.98338,6.63731 -0.7732,-0.19973 -0.95835,5.43202 -0.41146,12.51501 1.1981,15.5169 2.50647,47.39212 2.62064,63.84587 0.0743,10.7077 0.45148,11.9664 3.58577,11.9664 1.92651,0 5.79156,-1.3961 8.58903,-3.1024 z m -17.96852,-52.59414 c -0.61424,-16.98259 -1.33819,-31.84582 -1.60879,-33.02941 -0.29948,-1.30988 3.32348,-2.96738 9.25834,-4.23571 14.57898,-3.11561 23.88828,-8.55408 34.48451,-20.14581 l 5.23347,-5.72514 -10.55184,3.80764 c -8.90701,3.21408 -14.42066,3.80584 -35.3709,3.79627 -28.80829,-0.0124 -42.908745,-2.91114 -50.758961,-10.43211 l -5.083937,-4.87072 -0.350623,13.1844 c -0.192844,7.25142 -0.298307,15.97654 -0.234363,19.38916 0.064,3.41262 0.221741,17.46429 0.35064,31.22593 l 0.234346,25.02116 6.884879,4.77123 c 9.457517,6.55405 14.558296,7.79175 32.838884,7.96815 l 15.791115,0.1523 -1.11677,-30.87743 z m -26.033464,16.69507 c 0,-5.85021 0.627267,-10.63674 1.393927,-10.63674 0.766661,0 1.526586,4.78653 1.688743,10.63674 0.16221,5.85022 -0.465127,10.63672 -1.393927,10.63672 -0.928818,0 -1.688743,-4.7865 -1.688743,-10.63672 z m 0.389801,-30.03546 c -0.209668,-4.81908 0.414603,-9.25383 1.38728,-9.85496 1.095123,-0.67683 1.7685,2.65933 1.7685,8.76196 0,12.19974 -2.632842,13.11163 -3.15578,1.093 z m -0.389801,-26.69383 c 0,-5.90929 0.787899,-10.63674 1.772791,-10.63674 0.984891,0 1.77279,4.72745 1.77279,10.63674 0,5.9093 -0.787899,10.63674 -1.77279,10.63674 -0.984892,0 -1.772791,-4.72744 -1.772791,-10.63674 z M 145.49742,908.1982 c 10.1796,-4.701 15.35253,-10.43399 16.87943,-18.70691 1.12228,-6.08063 0.77643,-6.8282 -4.69974,-10.15846 -3.25115,-1.97714 -10.31317,-4.53458 -15.69339,-5.68321 -5.38023,-1.14863 -10.54009,-2.75993 -11.46638,-3.58068 -2.80955,-2.48941 -40.031103,-1.63593 -52.030641,1.19307 -14.85242,3.50158 -20.990671,6.89349 -24.397637,13.48186 -2.289647,4.4277 -2.437161,6.41606 -0.773858,10.43161 5.78793,13.97331 18.601037,17.85565 56.726416,17.188 23.42618,-0.41023 28.65465,-1.02446 35.4558,-4.16528 z m -45.01013,-7.65893 c -6.429962,-0.85796 -9.769774,-2.43755 -12.935464,-6.11787 -5.233826,-6.08469 -4.723706,-8.09807 3.094672,-12.21434 6.918828,-3.64266 21.560492,-3.20266 28.108012,0.84468 5.47452,3.38406 6.70531,9.9344 2.59971,13.83567 -4.29253,4.07892 -10.0781,5.09143 -20.86693,3.65186 z m 18.49212,-6.34609 c 3.97564,-4.79037 -1.96287,-8.51631 -14.67725,-9.20882 -12.035421,-0.65552 -16.681833,1.09043 -14.945243,5.61588 1.544579,4.02511 7.616456,6.09725 18.251643,6.22872 6.15765,0.0761 9.82586,-0.77418 11.37085,-2.63578 z m 136.80261,102.90777 c -20.60311,-3.73379 -26.2031,-9.2238 -24.75725,-24.271 0.95055,-9.89252 7.4295,-18.26837 15.50268,-20.04154 4.62629,-1.01611 4.73466,-1.30323 2.97719,-7.88764 -2.1769,-8.15573 1.40612,-15.29726 8.578,-17.09728 3.94458,-0.99003 4.29313,-1.77352 3.36661,-7.56764 -1.48584,-9.29202 3.65844,-15.21314 15.66502,-18.03051 12.06906,-2.83204 15.56338,-4.59229 20.32147,-10.23689 4.63376,-5.49712 7.43232,-3.97403 4.10873,2.23616 -2.74928,5.13707 -10.30991,9.02593 -22.72416,11.68831 -10.03546,2.15222 -13.21634,4.90449 -13.21634,11.43551 0,5.85221 3.17717,9.41608 8.99368,10.08831 7.75363,0.89609 4.3388,4.13982 -3.75739,3.56912 -14.7253,-1.03795 -20.42203,3.82357 -16.76691,14.30869 2.62539,7.53122 10.73772,10.97719 25.26974,10.73417 6.82524,-0.11417 13.60617,-0.49198 15.06872,-0.83963 1.46255,-0.34764 3.05806,0.11506 3.54558,1.02803 2.34334,4.38879 -30.64297,5.95563 -37.40458,1.77672 -2.92528,-1.80793 -13.67997,-1.07706 -17.97496,1.22156 -8.73252,4.6735 -11.0188,20.60007 -3.90376,27.19405 9.23831,8.5618 45.22787,10.9447 83.08464,5.50122 18.67858,-2.68583 26.79945,-5.70147 28.70151,-10.65816 1.8072,-4.7095 -4.4561,-15.11755 -12.51629,-20.79889 -4.97202,-3.50461 -7.45808,-6.33758 -6.44792,-7.34773 1.01013,-1.01014 3.69332,-0.18475 6.95921,2.14076 14.23492,10.13616 19.72828,23.72428 12.64106,31.26828 -5.20094,5.53615 -10.66468,7.15931 -35.33981,10.49872 -24.09884,3.26145 -42.31312,3.28795 -59.97447,0.087 z m 66.99443,-42.11748 c 0,-1.22802 1.64333,-3.25903 3.65183,-4.51337 2.69836,-1.68514 3.50838,-3.76367 3.10238,-7.96078 -0.54044,-5.58713 -0.69938,-5.6802 -9.69993,-5.6802 -10.48887,0 -13.6936,-1.8128 -7.42083,-4.1977 9.53416,-3.62488 10.24531,-11.51045 1.46197,-16.21114 -4.06081,-2.17328 -4.65248,-5.29662 -1.00335,-5.29662 1.37586,0 4.63757,2.53848 7.24821,5.64105 3.57939,4.25385 4.50094,6.86953 3.74751,10.63675 -0.79561,3.97799 -0.35813,4.99568 2.14755,4.99568 8.21811,0 10.45821,14.23813 3.29837,20.96447 -4.66542,4.38292 -6.53371,4.84669 -6.53371,1.62186 z M 296.1846,915.55563 c 0,-1.46255 1.47187,-2.65918 3.27081,-2.65918 4.49761,0 9.13872,-5.56376 9.13872,-10.95549 0,-2.45936 -1.95865,-8.15526 -4.35257,-12.6576 -2.39391,-4.50232 -3.68094,-8.60113 -2.86005,-9.10847 2.81192,-1.73787 9.46699,9.98536 11.38401,20.0535 0.98036,5.14875 0.32481,6.75362 -4.8879,11.96634 -6.31847,6.31847 -11.69302,7.86328 -11.69302,3.3609 z"
       id="path5346"
       inkscape:connector-curvature="0" />
  </g>
</svg>
