<?xml version="1.0" encoding="UTF-8" standalone="no"?>
<!-- Created with Inkscape (http://www.inkscape.org/) -->

<svg
   xmlns:dc="http://purl.org/dc/elements/1.1/"
   xmlns:cc="http://creativecommons.org/ns#"
   xmlns:rdf="http://www.w3.org/1999/02/22-rdf-syntax-ns#"
   xmlns:svg="http://www.w3.org/2000/svg"
   xmlns="http://www.w3.org/2000/svg"
   xmlns:sodipodi="http://sodipodi.sourceforge.net/DTD/sodipodi-0.dtd"
   xmlns:inkscape="http://www.inkscape.org/namespaces/inkscape"
   width="210"
   height="210"
   viewBox="0 0 210 210.00001"
   id="svg8124"
   version="1.1"
   inkscape:version="0.91 r13725"
   sodipodi:docname="dominika-house.svg">
  <defs
     id="defs8126" />
  <sodipodi:namedview
     id="base"
     pagecolor="#ffffff"
     bordercolor="#666666"
     borderopacity="1.0"
     inkscape:pageopacity="0.0"
     inkscape:pageshadow="2"
     inkscape:zoom="0.73453364"
     inkscape:cx="267.17134"
     inkscape:cy="237.72235"
     inkscape:document-units="px"
     inkscape:current-layer="layer1"
     showgrid="false"
     units="px"
     inkscape:window-width="1440"
     inkscape:window-height="778"
     inkscape:window-x="0"
     inkscape:window-y="1"
     inkscape:window-maximized="1" />
  <metadata
     id="metadata8129">
    <rdf:RDF>
      <cc:Work
         rdf:about="">
        <dc:format>image/svg+xml</dc:format>
        <dc:type
           rdf:resource="http://purl.org/dc/dcmitype/StillImage" />
        <dc:title></dc:title>
      </cc:Work>
    </rdf:RDF>
  </metadata>
  <g
     inkscape:label="Layer 1"
     inkscape:groupmode="layer"
     id="layer1"
     transform="translate(0,-842.36216)">
    <path
       style="fill:#000000"
       d="m 111.97779,871.02846 -6.71155,5.45098 c -19.618085,15.92932 -76.767765,70.31514 -79.768765,75.91202 -1.71408,3.19676 0.62252,4.07566 10.94623,4.11541 4.96871,0.0191 9.63619,0.41986 10.37059,0.88964 0.9665,0.61824 1.4343,10.4161 1.69388,35.47903 0.19723,19.04376 0.77013,35.26376 1.27261,36.04466 0.71136,1.1056 13.77159,1.4199 59.003345,1.4199 l 58.08804,0 0,-33.93486 c 0,-18.66422 0.3044,-35.45922 0.67491,-37.32264 l 0.67269,-3.38771 11.46676,0.12202 c 10.872,0.11602 11.48425,-0.002 11.80861,-2.28955 0.2489,-1.75482 -2.90343,-5.81717 -11.57483,-14.91972 l -11.91889,-12.51039 0,-21.71071 0,-21.71292 -12.91801,0 c -8.86932,0 -13.18469,0.43023 -13.76274,1.37106 -0.46313,0.75375 -1.14149,4.71519 -1.50861,8.80319 l -0.66829,7.43214 -6.2175,-6.24743 c -3.4196,-3.43609 -9.53105,-10.01624 -13.58188,-14.62467 l -7.3666,-8.37945 z m -1.16454,5.96567 c 0.37131,0 6.91211,6.46127 14.5347,14.35622 7.62259,7.89495 18.93921,18.95605 25.15008,24.58151 18.84792,17.07137 36.71173,35.09726 35.97282,36.29987 -0.65445,1.06516 -15.69436,0.38357 -21.29255,-0.96506 -2.21261,-0.53304 -2.25029,-0.0655 -1.87473,23.07732 0.21084,12.99261 0.0355,28.86231 -0.39039,35.26591 l -0.77415,11.643 -11.61232,0 -11.61232,0 -0.47861,-6.5314 c -0.27597,-3.7829 -1.70886,-9.1605 -3.4076,-12.7789 -1.61317,-3.43596 -3.71676,-10.44866 -4.6736,-15.58518 -2.29316,-12.31005 -4.69584,-17.23327 -9.37366,-19.1993 -8.10546,-3.4066 -21.056385,-0.51081 -24.208305,5.41325 -2.69533,5.06591 -3.2596,9.06976 -1.63433,11.59413 0.86535,1.3441 2.18199,4.89467 2.92459,7.89134 1.26944,5.1228 1.18863,5.6224 -1.33879,8.34396 -3.8219,4.1155 -8.10195,6.0854 -13.22017,6.0854 -5.05653,0 -6.6524,1.4361 -7.68861,6.9241 -0.40163,2.1271 -1.2275,4.5059 -1.83724,5.2868 -1.33372,1.7087 -7.09093,1.6684 -15.51397,-0.109 l -6.21088,-1.3112 -0.56462,-31.805 -0.56463,-31.8051 -6.21088,-0.28176 c -3.41598,-0.15576 -7.88334,-0.56772 -9.92946,-0.91403 l -3.7208,-0.63007 5.23382,-5.90133 C 50.258515,930.42023 107.84665,876.9938 110.81325,876.9938 Z m 39.14663,9.20919 c 1.30812,-0.0175 2.9199,0.0487 4.9118,0.1198 l 9.17736,0.32613 0.36171,9.08717 c 0.19889,4.99796 0.03,12.79303 -0.37714,17.32242 -0.40714,4.52939 -1.17948,8.23525 -1.71593,8.23525 -0.53646,0 -5.11854,-3.70586 -10.18311,-8.23525 l -9.20825,-8.23525 0.59771,-7.38332 c 0.77367,-9.52483 0.7673,-11.1612 6.43585,-11.23695 z m -39.81271,31.68308 c -7.23207,0 -15.913405,4.12717 -16.471175,7.82926 -0.48069,3.19046 0.22206,3.04318 6.23514,-1.29786 4.287985,-3.09564 6.087845,-3.6815 11.151345,-3.63175 5.07537,0.0499 6.76607,0.6493 10.60658,3.75377 5.2618,4.2534 8.41906,3.76552 4.35378,-0.67221 -3.67928,-4.01636 -8.89451,-5.98121 -15.87567,-5.98121 z m 0.91972,11.33678 c -5.03798,-0.0246 -9.69127,1.49375 -9.69127,4.03776 0,2.14556 1.27764,2.09863 6.12928,-0.22851 3.68332,-1.7664 4.26838,-1.76759 8.73625,-0.002 5.81023,2.29575 8.54302,0.69704 3.38997,-1.98338 -2.37939,-1.23767 -5.54143,-1.80886 -8.56423,-1.82365 z m 0.62418,7.97346 c -2.36349,0 -4.23004,3.63675 -2.94223,5.73273 1.3776,2.24211 4.4758,0.56674 4.84122,-2.61789 0.28413,-2.47611 -0.104,-3.11484 -1.89899,-3.11484 z m 1.47993,31.80509 c 7.19636,0 11.16033,3.90906 12.99962,12.82099 1.37867,6.68009 1.23984,14.16332 -0.23379,12.65682 -0.46582,-0.4762 -0.84694,-2.7642 -0.84694,-5.0849 0,-3.50464 -0.68364,-4.74515 -4.03839,-7.31901 l -4.03839,-3.09931 -6.22412,2.39603 c -7.71539,2.96989 -10.13617,3.01083 -11.636575,0.19079 -2.92384,-5.49541 4.960895,-12.56141 14.018585,-12.56141 z m 1.62991,15.19704 c 1.21394,-0.0206 1.95824,0.50148 3.35247,1.54855 4.19127,3.14765 4.16161,4.44852 -0.19188,8.82762 -6.53199,6.57046 -15.17274,4.7446 -15.78966,-3.3367 -0.20948,-2.74397 0.40202,-3.24927 6.45348,-5.32896 3.27751,-1.12637 4.96167,-1.6899 6.17559,-1.71051 z m 7.53643,13.60857 c 1.05874,-0.1034 1.98677,0.31 3.61714,1.1581 4.68987,2.43946 7.98021,6.91226 8.75169,11.89586 0.35288,2.2794 0.86243,5.5498 1.13146,7.2679 0.47573,3.0382 0.34408,3.1252 -4.84564,3.1081 -2.93464,-0.011 -6.09972,-0.5033 -7.03135,-1.0959 -0.93163,-0.5926 -5.12398,-1.4168 -9.31632,-1.8325 l -7.62244,-0.7565 0,-4.3573 c 0,-4.778 -2.09022,-6.7089 -7.265135,-6.7089 -1.59355,0 -2.89812,-0.3886 -2.89812,-0.863 0,-2.0142 4.801715,-3.5991 10.443365,-3.4498 4.43325,0.1173 7.29207,-0.5351 10.63083,-2.42266 2.15604,-1.2188 3.34578,-1.8397 4.40452,-1.9434 z m -42.417475,12.00886 11.57482,0.3217 11.574815,0.324 0.33304,8.2352 0.33084,8.2353 -11.905655,0 -11.90786,0 0,-8.5592 0,-8.557 z m 11.29251,5.7572 c -2.12323,0 -3.83864,2.891 -2.75917,4.6479 0.94016,1.5301 4.75341,1.2514 5.32204,-0.3883 0.7943,-2.2905 -0.39053,-4.2596 -2.56287,-4.2596 z m 20.677195,5.6972 c 2.7419,0.014 3.19671,0.2803 1.90781,1.1182 -2.23959,1.4559 -7.10538,1.4559 -6.21088,0 0.38386,-0.6248 2.32119,-1.1296 4.30307,-1.1182 z m -53.857765,1.2246 c 1.84315,0.028 4.15759,0.1618 6.98724,0.3927 10.08289,0.823 11.36725,1.1626 9.91624,2.6246 -0.46505,0.4686 -5.27731,1.0286 -10.6926,1.2423 -7.92882,0.3129 -10.13298,0.039 -11.32559,-1.4066 -1.70822,-2.0704 -0.41471,-2.9383 5.11471,-2.853 z m 77.064755,2.1654 c 17.7655,0 27.91624,0.9897 24.38696,2.3782 -2.19431,0.8633 -6.22928,0.8892 -28.46506,0.182 -17.46107,-0.5554 -14.26724,-2.5602 4.0781,-2.5602 z"
       id="path5897"
       inkscape:connector-curvature="0" />
  </g>
</svg>
