<?xml version="1.0" encoding="UTF-8" standalone="no"?>
<!-- Created with Inkscape (http://www.inkscape.org/) -->

<svg
   xmlns:dc="http://purl.org/dc/elements/1.1/"
   xmlns:cc="http://creativecommons.org/ns#"
   xmlns:rdf="http://www.w3.org/1999/02/22-rdf-syntax-ns#"
   xmlns:svg="http://www.w3.org/2000/svg"
   xmlns="http://www.w3.org/2000/svg"
   xmlns:sodipodi="http://sodipodi.sourceforge.net/DTD/sodipodi-0.dtd"
   xmlns:inkscape="http://www.inkscape.org/namespaces/inkscape"
   width="210"
   height="210"
   viewBox="0 0 210 210"
   id="svg4163"
   version="1.1"
   inkscape:version="0.91 r13725"
   sodipodi:docname="ian-apple.svg">
  <defs
     id="defs4165" />
  <sodipodi:namedview
     id="base"
     pagecolor="#ffffff"
     bordercolor="#666666"
     borderopacity="1.0"
     inkscape:pageopacity="0.0"
     inkscape:pageshadow="2"
     inkscape:zoom="0.70952381"
     inkscape:cx="458.02766"
     inkscape:cy="70.022712"
     inkscape:document-units="px"
     inkscape:current-layer="layer1"
     showgrid="false"
     inkscape:window-width="1440"
     inkscape:window-height="778"
     inkscape:window-x="0"
     inkscape:window-y="1"
     inkscape:window-maximized="1"
     units="px" />
  <metadata
     id="metadata4168">
    <rdf:RDF>
      <cc:Work
         rdf:about="">
        <dc:format>image/svg+xml</dc:format>
        <dc:type
           rdf:resource="http://purl.org/dc/dcmitype/StillImage" />
        <dc:title></dc:title>
      </cc:Work>
    </rdf:RDF>
  </metadata>
  <g
     inkscape:label="Layer 1"
     inkscape:groupmode="layer"
     id="layer1"
     transform="translate(0,-842.36216)">
    <path
       style="fill:#000000"
       d="m 89.122017,1047.262 c -1.352625,-0.4874 -3.151002,-0.8912 -3.996392,-0.8976 -0.845391,-0.01 -2.43804,-0.5609 -3.539224,-1.2323 -1.897291,-1.1568 -6.531403,-2.3028 -7.813508,-1.9322 -0.326265,0.094 -2.899524,-0.1717 -5.718346,-0.591 -4.602114,-0.6848 -5.411002,-1.0142 -7.926375,-3.2283 -2.808709,-2.4723 -5.244485,-4.0343 -8.307757,-5.3275 -0.902822,-0.3812 -1.783265,-1.0625 -1.956548,-1.514 -0.173284,-0.4516 -2.042046,-1.7415 -4.152812,-2.8666 -3.623227,-1.9311 -9.893992,-6.9867 -14.690438,-11.8436 -3.10615,-3.1453 -7.377956,-8.1096 -7.377956,-8.574 0,-0.2189 -1.766879,-2.2177 -3.926394,-4.4419 C 15.502575,1000.4731 9.6863232,990.23676 8.3872373,984.87446 7.3074858,980.4175 6.3235124,972.02938 6.7301484,970.7482 6.9363561,970.09851 6.704387,967.54684 6.2146568,965.07781 5.2166468,960.04623 4.9272588,937.8748 5.81902,934.76585 c 0.2909866,-1.01447 0.8360762,-3.02496 1.2113067,-4.46772 0.3752244,-1.44276 1.4728367,-3.52365 2.4391276,-4.6242 0.9662907,-1.10054 2.8632807,-4.39579 4.2155247,-7.32269 1.35225,-2.92696 3.334602,-6.59491 4.405236,-8.15098 1.070627,-1.55613 2.628919,-4.27399 3.462868,-6.03965 2.490896,-5.27395 5.90475,-9.65517 12.133719,-15.57204 6.833241,-6.49082 12.224374,-9.62762 18.238023,-10.61153 2.198016,-0.35968 7.0398,-1.50424 10.75952,-2.54355 3.719719,-1.03931 9.39152,-2.26221 12.604005,-2.71761 3.212485,-0.45534 6.670902,-1.16781 7.685371,-1.58312 1.029901,-0.42172 5.277956,-0.8267 9.618936,-0.91708 4.27595,-0.089 8.080203,-0.35089 8.453903,-0.58182 0.37371,-0.23099 0.67946,-1.39935 0.67946,-2.59636 0,-3.23929 1.61364,-6.05466 5.14351,-8.97399 1.73618,-1.43588 3.24569,-2.80855 3.35447,-3.05036 0.59854,-1.33043 13.0337,-10.57962 15.90794,-11.83221 1.08055,-0.4709 2.32558,-1.45297 2.76674,-2.18234 1.16572,-1.92743 5.16442,-3.86076 6.49801,-3.14178 0.58696,0.31645 1.87844,2.71189 2.86996,5.32307 1.74359,4.59192 1.76495,4.77532 0.65102,5.58985 -0.63345,0.46321 -2.41304,0.86242 -3.95465,0.88708 -6.54046,0.10476 -8.90758,0.81489 -12.24714,3.67428 -1.75788,1.5051 -3.35321,3.34676 -3.54517,4.09255 -0.19196,0.74579 -1.29077,2.07425 -2.44179,2.95223 -1.95388,1.49029 -3.93597,4.39031 -3.93597,5.75874 0,0.329 0.6921,1.42069 1.53799,2.426 l 1.53798,1.82776 9.06783,0.41993 c 5.07707,0.23511 11.23253,0.91991 13.98646,1.55607 5.23519,1.20925 16.42152,5.5307 18.07039,6.98084 0.54414,0.47858 2.78771,1.76929 4.98573,2.8683 5.31556,2.65773 10.44231,6.6449 15.67815,12.19312 2.3671,2.50832 7.3692,7.77348 11.11578,11.70039 7.95655,8.33943 9.48102,10.25266 9.48102,11.89886 0,0.66642 0.67977,2.0196 1.51061,3.00695 1.43156,1.70136 1.98335,3.1839 4.43215,11.90852 1.46485,5.21898 1.44721,21.90097 -0.0312,29.51182 -2.92874,15.0771 -4.76413,21.41679 -7.65393,26.43768 -3.75054,6.51645 -6.86521,12.54694 -6.86521,13.29214 0,0.479 -0.74881,1.9727 -1.66402,3.3193 -0.91521,1.3465 -2.42259,4.0139 -3.34971,5.9276 -0.92712,1.9136 -1.98064,3.6615 -2.34115,3.8844 -0.36051,0.2228 -1.23469,1.5622 -1.94263,2.9764 -1.54102,3.0785 -4.61943,6.4793 -6.54538,7.2311 -0.76692,0.2993 -1.65926,1.2408 -1.98298,2.0923 -0.32372,0.8514 -0.85346,1.5481 -1.1772,1.5481 -0.32374,0 -0.75576,0.5267 -0.96006,1.1703 -0.2043,0.6437 -1.26047,1.5946 -2.34705,2.1132 -1.08657,0.5187 -3.0487,2.046 -4.36027,3.3942 -2.33647,2.4015 -4.57129,3.485 -6.65076,3.2243 -0.57346,-0.072 -1.86354,0.2938 -2.86684,0.8126 -3.30892,1.7111 -13.81624,4.204 -20.06886,4.7615 -3.38157,0.3015 -7.67,0.8106 -9.52986,1.1314 -1.85986,0.3208 -5.87163,0.6931 -8.91503,0.8274 -3.04341,0.1342 -7.25422,0.606 -9.35737,1.0483 -3.20228,0.6737 -4.08038,0.6671 -5.40163,-0.04 -1.263808,-0.6764 -1.979655,-0.6991 -3.597708,-0.1139 -2.598043,0.9394 -4.418602,0.8883 -7.466135,-0.2096 z m 25.364653,-7.6534 c 1.10038,-0.8136 3.09299,-1.4972 4.85171,-1.6646 1.64144,-0.1562 3.60695,-0.5872 4.3678,-0.9578 1.04129,-0.5072 1.75827,-0.4732 2.89948,0.1376 1.02208,0.5469 1.77338,0.6136 2.30561,0.2044 0.43423,-0.3338 1.98933,-0.6648 3.45578,-0.7355 2.81905,-0.136 4.35858,-0.7893 6.86358,-2.9123 0.84539,-0.7166 2.92044,-1.7937 4.61122,-2.3938 1.69078,-0.6001 3.52668,-1.5963 4.07976,-2.2138 0.55309,-0.6175 2.35146,-1.6617 3.99639,-2.3204 10.1915,-4.0812 13.50635,-6.54 21.22266,-15.742 1.13163,-1.3495 2.54168,-2.9926 3.13346,-3.6512 0.59177,-0.6587 1.07595,-1.4561 1.07595,-1.7721 0,-0.316 1.19602,-2.2697 2.65783,-4.3416 4.06307,-5.75877 9.5035,-16.54811 10.83058,-21.47898 0.65455,-2.43208 1.47832,-5.25193 1.83061,-6.2664 3.11663,-8.97498 3.51743,-10.92952 4.28664,-20.90421 1.01325,-13.13953 -1.02512,-24.08847 -6.35268,-34.12305 -3.97916,-7.49478 -13.38915,-18.3266 -18.75674,-21.59085 -0.91428,-0.55599 -4.26922,-3.25952 -7.45543,-6.00781 -3.75629,-3.24003 -6.6519,-5.23269 -8.23567,-5.6675 -1.3434,-0.36884 -3.22353,-1.32779 -4.17805,-2.13094 -2.47178,-2.07985 -6.2014,-2.92222 -11.13522,-2.5149 -4.81161,0.39724 -8.98927,2.59274 -8.98927,4.72423 0,1.145 0.28141,1.19904 4.29882,0.82565 5.25605,-0.48848 12.5079,0.6524 15.77874,2.48232 3.11481,1.74261 4.38216,5.08654 3.55387,9.37707 -0.45916,2.37841 -0.82357,2.98008 -1.80497,2.98008 -1.0262,0 -1.19615,-0.3424 -1.02712,-2.06915 0.28874,-2.9497 -0.3255,-4.85943 -1.82033,-5.65944 -0.71272,-0.38138 -4.95078,-0.81773 -9.41793,-0.96959 -7.29756,-0.24802 -8.26793,-0.15795 -9.55893,0.88745 -1.75394,1.42025 -1.37771,2.72996 1.14586,3.98889 1.8366,0.91622 4.82182,3.18119 9.31066,7.06433 1.27974,1.10706 2.50768,2.73353 2.72875,3.61434 0.22107,0.8808 1.07943,2.59851 1.90746,3.81704 1.61377,2.37491 1.88973,4.36726 0.86906,6.27434 -0.65426,1.22253 -3.05251,1.67381 -3.05251,0.57444 0,-0.33816 0.24707,-0.61483 0.54905,-0.61483 1.06609,0 1.23464,-1.83982 0.36026,-3.93252 -1.08235,-2.5904 -4.51165,-7.74925 -5.15127,-7.74925 -0.25622,0 -1.77237,-0.86537 -3.36922,-1.92312 -2.82791,-1.87308 -2.99306,-1.90505 -6.35624,-1.22966 -1.89909,0.38144 -4.35248,0.69346 -5.45197,0.69346 -5.62693,0 -5.2453,1.85156 1.81167,8.78967 3.45983,3.40155 6.37055,6.88511 7.29693,8.73298 1.98859,3.96676 3.81095,13.67597 2.97806,15.86661 -0.68533,1.80255 -2.38553,2.89462 -4.46233,2.86621 -1.40446,-0.0191 -1.40084,-0.0369 0.267,-1.28094 2.07085,-1.545 2.23137,-4.23623 0.57011,-9.55802 -2.00751,-6.43099 -7.20385,-13.11991 -10.19232,-13.11991 -0.90086,0 -2.56001,-0.38525 -3.68701,-0.85615 -2.96009,-1.23679 -3.96141,-0.42694 -2.71552,2.19629 5.2304,11.01284 6.28328,14.56188 6.26029,21.10182 -0.0124,3.51904 -0.32839,6.09358 -0.86788,7.07054 -0.78706,1.4253 -0.90351,1.04737 -1.6104,-5.22673 -0.44183,-3.92144 -1.28268,-7.92564 -2.00119,-9.52985 -0.68155,-1.52171 -1.64496,-3.79369 -2.14092,-5.04886 -0.51496,-1.30332 -1.92227,-3.00873 -3.28104,-3.97611 -2.24784,-1.6004 -5.69932,-6.38882 -7.3767,-10.23415 -0.49836,-1.14248 -1.13114,-1.66791 -1.84449,-1.5316 -0.9129,0.17449 -1.11405,0.9983 -1.26281,5.17195 -0.20743,5.81991 0.46613,8.03054 2.70637,8.88232 1.57849,0.60014 1.59502,0.65726 0.53057,1.83342 -1.7894,1.9773 -3.28725,1.52312 -4.61363,-1.39898 -0.65236,-1.43716 -1.19218,-3.32777 -1.1996,-4.20132 -0.007,-0.87361 -0.19832,-1.77317 -0.42421,-1.99906 -0.225882,-0.22589 -0.433387,-1.56185 -0.461122,-2.96889 -0.05878,-2.98284 -1.298896,-3.81274 -2.19105,-1.46618 -0.421558,1.10878 -0.399271,1.94661 0.07185,2.70101 0.52274,0.83703 0.448862,1.54629 -0.314904,3.02324 -0.548834,1.06132 -0.997875,2.39304 -0.997875,2.9593 0,0.80844 -0.38337,0.95299 -1.784284,0.67281 -2.071829,-0.4144 -3.817164,0.93343 -6.543288,5.05285 -1.692755,2.55794 -2.705995,2.55087 -2.729948,-0.0191 -0.01156,-1.24392 -1.828854,-2.02752 -2.69451,-1.1619 -0.862188,0.86224 -1.61932,0.79965 -1.615864,-0.13354 0.0061,-1.66016 2.911034,-7.76586 5.730704,-12.0452 3.636053,-5.51828 3.497514,-6.97173 -0.433676,-4.5498 -1.504611,0.92698 -4.009827,2.76077 -5.567148,4.07515 -2.571039,2.16992 -2.929337,2.30457 -3.895136,1.46361 -0.585004,-0.50939 -1.478653,-0.79559 -1.985888,-0.63598 -0.507234,0.15961 -3.585625,3.02859 -6.840865,6.37547 -3.255238,3.3469 -6.370161,6.08529 -6.922039,6.08529 -0.851373,0 -0.886406,-0.1874 -0.2312,-1.23655 0.424724,-0.68006 1.238623,-1.38453 1.808663,-1.56548 0.570039,-0.18088 2.848253,-2.46036 5.062701,-5.06546 4.151847,-4.88427 6.401023,-9.53195 5.271476,-10.893 -0.33689,-0.40591 -0.438595,-1.60766 -0.226017,-2.67052 0.370822,-1.85414 0.304285,-1.93253 -1.640138,-1.93253 -1.11465,0 -2.463432,0.39362 -2.997295,0.87466 -0.533863,0.48104 -2.215684,1.32938 -3.737387,1.88519 -5.175938,1.8906 -4.918637,1.92226 -4.918637,-0.60469 0,-2.27646 0.01426,-2.28931 2.103842,-1.8973 1.712891,0.32131 2.273087,0.15303 3.014608,-0.90564 0.848865,-1.21195 0.951904,-1.22677 1.515992,-0.21882 0.5724,1.02283 0.834979,1.00894 4.841812,-0.25565 2.330124,-0.73539 5.235662,-1.33707 6.456744,-1.33707 2.625532,0 5.198901,-1.80354 4.642443,-3.25367 -0.499573,-1.30185 -3.209048,-2.64722 -6.398224,-3.17695 -2.423192,-0.40253 -2.741852,-0.27403 -5.40217,2.17815 -2.430797,2.24063 -2.744385,2.38843 -2.237156,1.05431 0.45078,-1.18563 0.357,-1.78454 -0.397623,-2.53912 -0.906828,-0.90687 -0.893757,-1.0912 0.159929,-2.2555 1.778045,-1.96469 0.209307,-3.00695 -5.487524,-3.64582 -3.811194,-0.42743 -5.253658,-0.3475 -7.031592,0.38956 -2.338861,0.96965 -10.536993,7.26372 -10.536993,8.08974 0,0.2621 -0.98591,1.56437 -2.190909,2.89394 -2.679557,2.95641 -7.735928,10.33726 -9.534299,13.91735 -0.729667,1.45253 -1.938139,3.47102 -2.685496,4.48549 -0.747356,1.01447 -1.790783,3.08952 -2.318731,4.61123 -0.527942,1.5217 -1.788159,5.11845 -2.800476,7.99278 -2.247048,6.38015 -3.845704,13.0719 -3.838781,16.06858 0.0037,1.70873 -0.356705,2.47198 -1.531909,3.24199 -1.166111,0.76411 -1.537074,1.5388 -1.537074,3.20984 0,1.21146 -0.432398,3.8714 -0.960881,5.91085 -0.871287,3.36244 -0.871287,4.15035 0,8.45028 0.528483,2.60823 0.960881,6.25719 0.960881,8.10893 0,5.56987 4.25507,16.35435 8.261976,20.93996 1.260604,1.4427 4.509062,5.33403 7.218795,8.64723 2.709726,3.3134 5.994989,6.6985 7.300579,7.5227 1.305585,0.8242 2.6528,2.0199 2.993803,2.6571 0.341003,0.6371 1.59793,1.6225 2.793164,2.1897 1.253244,0.5947 2.173165,1.4816 2.173165,2.0952 0,0.5852 0.4307,1.6789 0.957105,2.4305 0.767904,1.0963 1.553429,1.3665 3.97357,1.3665 2.729162,0 3.247838,0.2408 5.445812,2.5282 1.344534,1.3992 2.733225,2.3404 3.109857,2.1076 0.409551,-0.2531 1.070105,0.5151 1.65897,1.9293 1.196779,2.8742 1.525147,3.0911 5.422076,3.5815 1.706952,0.2148 4.069299,0.6915 5.249668,1.0594 1.180362,0.3678 3.670422,0.7402 5.533467,0.8274 1.863038,0.087 6.154082,0.616 9.535645,1.1749 3.381563,0.559 7.263561,1.0882 8.626663,1.176 1.363095,0.088 2.997529,0.4503 3.632059,0.8054 0.63454,0.3551 3.28448,0.5782 5.88878,0.4958 3.7909,-0.1198 5.1074,-0.425 6.60233,-1.5302 z m 1.1922,-87.71329 c -0.21624,-0.21624 -0.26207,-0.60524 -0.10186,-0.86451 0.37804,-0.6117 2.74941,0.006 2.74941,0.71455 0,0.62326 -2.05774,0.73977 -2.64755,0.14996 z M 84.510795,935.45323 c 0,-0.84539 0.276673,-1.70806 0.61483,-1.91704 0.347262,-0.21464 0.614829,0.28891 0.614829,1.15711 0,0.84539 -0.276673,1.70806 -0.614829,1.91704 -0.347262,0.21463 -0.61483,-0.28891 -0.61483,-1.15711 z m -6.946542,-4.04878 c 0.367459,-1.40519 1.885535,-2.8268 2.433459,-2.27886 0.461522,0.46149 -1.453187,3.48835 -2.206655,3.48835 -0.298702,0 -0.400764,-0.5443 -0.226804,-1.20949 z m 17.553694,-2.7869 c 0.0068,-1.35262 0.132735,-1.83354 0.279797,-1.06876 0.147061,0.76479 0.141478,1.87148 -0.01242,2.45932 -0.153886,0.58784 -0.274214,-0.0381 -0.267389,-1.39056 z m -31.97556,-15.83187 c 0.139209,-0.42269 0.923117,-0.84582 1.742021,-0.94032 1.441862,-0.16637 1.451195,-0.14209 0.29545,0.76854 -1.445163,1.13866 -2.381887,1.21761 -2.037471,0.17178 z m -9.427971,-1.31721 c 0.91047,-1.09704 4.278686,-2.50303 4.784537,-1.99715 0.782506,0.78249 -1.881404,2.85324 -3.670552,2.85324 -1.489394,0 -1.693991,-0.15721 -1.113985,-0.85609 z m 15.425638,-2.21806 c 0,-0.33816 0.276673,-0.61483 0.614829,-0.61483 0.338157,0 0.61483,0.27667 0.61483,0.61483 0,0.33816 -0.276673,0.61483 -0.61483,0.61483 -0.338156,0 -0.614829,-0.27667 -0.614829,-0.61483 z m -5.262245,-13.16867 c 1.366717,-1.11358 2.188099,-1.24779 2.188099,-0.35758 0,0.33815 -0.254048,0.61483 -0.564543,0.61483 -0.310501,0 -1.071353,0.1609 -1.690782,0.35758 -1.030589,0.32728 -1.024884,0.27508 0.06723,-0.61483 z m 30.97222,22.23741 c 0.153191,-1.33135 -0.05952,-1.69078 -1.000666,-1.69078 -1.531855,0 -2.821902,1.54506 -2.339562,2.80202 0.63992,1.6676 3.115243,0.8441 3.340228,-1.11124 z m -11.336801,-9.14658 c 2.937914,-1.94599 3.567641,-3.70275 1.471957,-4.10638 -1.349711,-0.25989 -6.353201,4.35773 -5.760677,5.31643 0.642097,1.03894 1.079782,0.91542 4.28872,-1.21005 z m 11.49009,-7.93659 c 1.53408,-0.82098 1.508466,-1.95817 -0.07641,-3.3925 -0.944772,-0.85499 -1.518887,-0.98564 -2.264522,-0.51529 -1.763756,1.11253 -2.319839,2.49977 -1.431238,3.5705 0.937591,1.12969 2.097707,1.23347 3.772171,0.33729 z m 31.981002,0.0215 c 1.52968,0 1.52314,-1.61725 -0.01,-2.43767 -2.83426,-1.51685 -5.9508,0.12843 -3.97876,2.1005 0.56251,0.56251 1.42471,0.86845 1.916,0.67994 0.49132,-0.18851 1.42401,-0.34277 2.07266,-0.34277 z m -39.997305,-5.34145 c 2.422878,-1.65389 4.286906,-3.85222 4.286906,-5.05575 0,-2.03797 -4.764542,-6.73201 -7.573127,-7.46108 -1.414361,-0.36711 -3.9136,-1.10214 -5.553867,-1.63329 -2.530491,-0.81951 -3.508513,-0.85025 -6.455712,-0.20302 -3.828138,0.84072 -7.17113,2.61696 -8.063568,4.2845 -0.765155,1.42973 1.673652,3.25264 6.660287,4.9784 3.455614,1.19584 3.8203,1.21521 5.596174,0.29684 2.144956,-1.10915 3.397259,-0.75138 2.566397,0.73331 -0.892468,1.59474 -0.155761,2.89332 2.249982,3.96602 2.986153,1.33147 4.441799,1.35324 6.286528,0.0941 z m 8.88004,-12.11153 c 1.488355,-1.19087 1.688937,-1.62696 1.083711,-2.35621 -1.868719,-2.25169 -17.666023,-3.78065 -17.666023,-1.70985 0,0.65197 0.94072,1.03704 3.210228,1.31408 1.868455,0.22804 4.56674,1.17728 6.455712,2.271 3.957929,2.29171 4.597616,2.33623 6.916372,0.48098 z m 30.485425,-1.02849 c 0.2357,-0.48713 0.98434,-2.02777 1.66365,-3.42368 0.67931,-1.39591 1.05958,-2.80995 0.84505,-3.14233 -0.21454,-0.33238 -1.77344,-0.77057 -3.46422,-0.97371 -1.69078,-0.20314 -4.32752,-0.54744 -5.85942,-0.76509 -1.89393,-0.26905 -3.50136,-0.0965 -5.02286,0.53927 -2.61779,1.09378 -4.00121,3.09831 -2.80345,4.06211 0.42587,0.34271 1.7627,1.44824 2.97074,2.4568 1.83927,1.53554 2.83904,1.86865 6.1483,2.04855 4.96957,0.27028 5.00597,0.26499 5.52221,-0.80192 z m 11.26666,-5.53716 c -1.49694,-1.49692 -3.2925,-1.90295 -4.42471,-1.00063 -0.64373,0.51307 -0.51745,0.80807 0.61483,1.43636 0.78374,0.43481 2.24731,0.80045 3.25239,0.81244 l 1.8274,0.0215 -1.26991,-1.26993 z"
       id="path4913"
       inkscape:connector-curvature="0" />
    <path
       style="fill:#ff5855;fill-opacity:1;stroke:#cd0042;stroke-width:7.0469799;stroke-miterlimit:4;stroke-dasharray:none;stroke-opacity:1"
       d="m 84.506298,195.03538 c -15.941416,-2.48282 -17.434101,-2.99007 -22.298338,-7.57764 -2.86727,-2.70418 -6.245303,-4.91669 -7.506739,-4.91669 -1.261438,0 -8.241777,-6.05553 -15.511867,-13.45674 -17.384049,-17.69756 -20.46498,-24.13714 -20.631682,-43.12312 -0.08123,-9.25138 0.454656,-14.31422 1.641129,-15.50474 0.96896,-0.97226 1.761745,-3.19374 1.761745,-4.93661 0,-7.0512 7.261431,-25.629221 14.067182,-35.990204 9.309876,-14.173227 17.070194,-20.881207 24.157021,-20.881207 5.600043,0 8.571835,2.256686 4.851705,3.684234 -1.211883,0.465043 -2.203424,1.449336 -2.203424,2.187318 0,0.737981 0.705137,0.905985 1.56697,0.373343 0.861835,-0.532643 2.081953,-0.135189 2.711375,0.883242 0.922281,1.492281 1.559043,1.507562 3.280686,0.07873 2.36339,-1.961443 10.058418,-1.622216 10.058418,0.44341 0,1.873648 -9.400887,4.239366 -19.379194,4.876741 -1.47433,0.09417 -2.466443,1.29139 -2.466443,2.976338 0,1.550336 -0.913912,2.818792 -2.030916,2.818792 -2.525399,0 -4.11306,2.339468 -2.333888,3.439058 0.725319,0.448271 2.228799,-0.09499 3.341069,-1.207269 1.963337,-1.963338 11.527447,-6.459976 13.740024,-6.459976 4.374559,0 -3.682105,16.281247 -9.732068,19.666977 -1.240822,0.6944 -1.82252,1.696066 -1.29266,2.225926 0.52986,0.529861 4.053648,-1.64237 7.830641,-4.827177 3.776993,-3.184807 7.850812,-5.790559 9.052929,-5.790559 1.202119,0 3.79825,-1.268456 5.769184,-2.818792 1.970931,-1.550335 3.925269,-2.818792 4.342971,-2.818792 0.417703,0 -1.12039,3.573652 -3.417985,7.941451 l -4.177444,7.941448 3.700901,1.92005 c 3.404694,1.766378 3.922456,1.638386 6.469116,-1.599167 1.522519,-1.93557 3.661444,-3.519218 4.753165,-3.519218 1.091721,0 2.369622,-1.744127 2.839779,-3.875839 1.390145,-6.302975 1.788751,-6.911535 1.906397,-2.910543 0.165176,5.61744 2.578953,11.01457 4.926093,11.01457 3.16184,0 4.32694,-3.027872 1.72533,-4.483806 -1.59552,-0.892903 -2.28628,-3.128327 -2.22908,-7.213744 0.0724,-5.170631 0.29537,-5.57726 1.76174,-3.212735 0.92337,1.48894 3.79632,5.116284 6.38431,8.060763 4.64623,5.286216 8.68381,15.455801 8.68381,21.872177 0,1.81472 0.63423,3.29949 1.4094,3.29949 2.53558,0 1.51492,-15.839073 -1.44035,-22.351896 -3.56754,-7.862144 -3.51402,-8.402744 0.7511,-7.587414 7.18013,1.372567 15.03707,15.741636 11.85676,21.68409 -1.07279,2.004542 -0.91054,2.617639 0.69274,2.617639 8.58971,0 3.10603,-20.256766 -8.41324,-31.07856 -2.58891,-2.432156 -3.02328,-3.554785 -1.70035,-4.394606 2.98127,-1.89257 11.53536,-1.300528 14.86054,1.02852 3.69532,2.5883 7.23296,9.031611 6.33701,11.541961 -0.34583,0.96896 0.37542,1.761745 1.60277,1.761745 6.12184,0 0.0369,-13.14753 -8.96797,-19.376805 -3.08344,-2.133025 -5.63033,-4.373804 -5.65975,-4.979509 -0.10159,-2.091676 4.24734,-2.737924 11.94919,-1.775641 6.97831,0.871881 7.72887,1.29798 7.72887,4.387732 0,2.102248 0.81536,3.422076 2.11409,3.422076 3.19761,0 2.75027,-8.853163 -0.60057,-11.885636 -1.681,-1.521277 -6.0556,-2.759685 -11.48871,-3.252343 -7.79343,-0.706682 -8.48379,-1.007839 -6.17703,-2.694583 6.34993,-4.643185 15.41353,-1.383151 32.36027,11.639483 15.47021,11.887994 23.11609,22.484818 26.92383,37.315057 6.10684,23.78472 -5.80946,61.6274 -25.92633,82.3344 -9.20653,9.47659 -32.62664,21.27263 -44.6698,22.4989 -4.64057,0.47252 -9.04845,1.47017 -9.7953,2.21703 -1.89261,1.8926 -9.97584,1.44563 -29.859132,-1.65113 z m 34.702572,-85.78292 c 0,-0.77517 -0.95134,-1.4094 -2.1141,-1.4094 -1.16275,0 -2.11409,0.63423 -2.11409,1.4094 0,0.77516 0.95134,1.40939 2.11409,1.40939 1.16276,0 2.1141,-0.63423 2.1141,-1.40939 z M 86.792761,92.256526 c 0,-0.729421 -0.634228,-1.326218 -1.409396,-1.326218 -0.775168,0 -1.409396,0.988773 -1.409396,2.197272 0,1.208499 0.634228,1.805298 1.409396,1.326218 0.775168,-0.479081 1.409396,-1.467852 1.409396,-2.197272 z m -6.537305,-3.440312 c 0.494168,-1.287781 0.0022,-2.114094 -1.258607,-2.114094 -1.138422,0 -2.06986,0.951342 -2.06986,2.114094 0,1.162752 0.566373,2.114094 1.258606,2.114094 0.692234,0 1.623671,-0.951342 2.069861,-2.114094 z M 96.658533,86.70212 c 0,-0.775168 -0.634228,-1.409396 -1.409396,-1.409396 -0.775168,0 -1.409396,0.634228 -1.409396,1.409396 0,0.775168 0.634228,1.409396 1.409396,1.409396 0.775168,0 1.409396,-0.634228 1.409396,-1.409396 z M 65.651822,69.789368 c 0,-0.775167 -0.279684,-1.409396 -0.62152,-1.409396 -0.341836,0 -1.013494,0.634229 -1.492574,1.409396 -0.479081,0.775168 -0.199396,1.409396 0.621519,1.409396 0.820916,0 1.492575,-0.634228 1.492575,-1.409396 z m 5.637583,-2.818792 c 0,-0.775167 -0.634228,-1.409396 -1.409396,-1.409396 -0.775167,0 -1.409396,0.634229 -1.409396,1.409396 0,0.775168 0.634229,1.409396 1.409396,1.409396 0.775168,0 1.409396,-0.634228 1.409396,-1.409396 z"
       id="path11913"
       inkscape:connector-curvature="0"
       transform="translate(0,842.36216)" />
  </g>
</svg>
