<?xml version="1.0" encoding="UTF-8" standalone="no"?>
<!-- Created with Inkscape (http://www.inkscape.org/) -->

<svg
   xmlns:dc="http://purl.org/dc/elements/1.1/"
   xmlns:cc="http://creativecommons.org/ns#"
   xmlns:rdf="http://www.w3.org/1999/02/22-rdf-syntax-ns#"
   xmlns:svg="http://www.w3.org/2000/svg"
   xmlns="http://www.w3.org/2000/svg"
   xmlns:sodipodi="http://sodipodi.sourceforge.net/DTD/sodipodi-0.dtd"
   xmlns:inkscape="http://www.inkscape.org/namespaces/inkscape"
   width="420"
   height="210"
   viewBox="0 0 420 210"
   id="svg5601"
   version="1.1"
   inkscape:version="0.91 r13725"
   sodipodi:docname="ian-2-rotten.svg">
  <defs
     id="defs5603" />
  <sodipodi:namedview
     id="base"
     pagecolor="#ffffff"
     bordercolor="#666666"
     borderopacity="1.0"
     inkscape:pageopacity="0.0"
     inkscape:pageshadow="2"
     inkscape:zoom="2.4774779"
     inkscape:cx="209.57641"
     inkscape:cy="84.336113"
     inkscape:document-units="px"
     inkscape:current-layer="layer1"
     showgrid="false"
     units="px"
     inkscape:window-width="1440"
     inkscape:window-height="778"
     inkscape:window-x="0"
     inkscape:window-y="1"
     inkscape:window-maximized="1" />
  <metadata
     id="metadata5606">
    <rdf:RDF>
      <cc:Work
         rdf:about="">
        <dc:format>image/svg+xml</dc:format>
        <dc:type
           rdf:resource="http://purl.org/dc/dcmitype/StillImage" />
        <dc:title />
      </cc:Work>
    </rdf:RDF>
  </metadata>
  <g
     inkscape:label="Layer 1"
     inkscape:groupmode="layer"
     id="layer1"
     transform="translate(0,-842.36216)">
    <path
       style="fill:#000000"
       d="m 54.067345,1035.6887 c -6.965656,-1.2251 -9.344623,-2.1101 -20.492928,-7.6243 -11.119164,-5.4997 -13.273788,-6.8796 -18.198173,-11.6543 -3.072148,-2.9788 -7.286105,-8.1505 -9.36435,-11.4926 -2.078244,-3.342 -4.544659,-7.1362 -5.480921,-8.4315 -0.936262,-1.2953 -2.873489,-5.2261 -4.304948,-8.73505 -2.424474,-5.94313 -2.601714,-6.95191 -2.58893,-14.7351 0.01948,-11.86119 1.664604,-18.32825 7.922078,-31.14209 5.494967,-11.2524 6.217828,-12.14793 15.194639,-18.82407 3.133199,-2.33019 8.256188,-6.31566 11.384421,-8.85661 6.589007,-5.35201 15.982417,-10.18906 22.188215,-11.42562 7.450833,-1.48464 23.662405,0.96275 31.454832,4.74861 l 3.40649,1.655 3.19152,-1.71044 c 3.03172,-1.6248 9.54927,-6.85925 21.6989,-17.42706 3.00182,-2.611 5.80786,-4.74727 6.23564,-4.74727 2.83952,0 12.09578,6.97697 12.09578,9.11729 0,1.04417 -1.85938,2.30263 -7.02596,4.7553 -10.38704,4.93092 -10.87483,6.16155 -3.22814,8.14412 7.41161,1.92163 15.9765,7.21501 19.0667,11.78385 0.84767,1.25328 2.63292,3.81681 3.96721,5.69673 2.71736,3.82852 9.49582,21.29714 11.20007,28.8634 0.61164,2.71544 1.29589,5.75537 1.52055,6.75539 l 0.40849,1.81823 1.13641,-1.62246 c 1.71259,-2.44506 3.96514,-3.44859 5.28398,-2.35405 1.4926,1.23875 5.25192,-0.36081 8.52253,-3.62627 2.90688,-2.90229 3.9643,-3.067 5.9072,-0.92012 1.39434,1.54072 1.38012,1.64201 -0.76633,5.46046 -2.32449,4.13517 -5.14439,7.03995 -7.63477,7.86458 -2.32866,0.77108 -11.40157,9.0811 -14.45243,13.2372 -1.49647,2.0386 -3.71443,6.42901 -4.9288,9.75646 -1.21437,3.32746 -4.01555,8.67949 -6.22484,11.89339 -2.20929,3.2138 -4.75209,6.9144 -5.65066,8.2234 -3.45813,5.0376 -9.84974,10.2554 -17.35531,14.1678 -4.1776,2.1776 -8.07392,4.3469 -8.65848,4.8207 -2.59743,2.1052 -13.71723,5.5518 -23.62296,7.3219 -6.617197,1.1825 -23.001872,0.7937 -31.806725,-0.7549 z m 34.466425,-5.6726 c 5.01244,-1.0263 11.3156,-2.7357 14.00701,-3.7987 7.8083,-3.0839 18.96478,-9.589 23.42409,-13.658 7.69761,-7.0238 15.83749,-21.19772 19.18871,-33.41304 1.8707,-6.81873 1.61446,-10.75896 -0.82957,-12.75675 -2.1523,-1.75932 -1.64195,-3.94393 0.99238,-4.24798 1.80805,-0.20869 2.0823,-0.57565 2.0823,-2.78624 0,-1.40025 -0.20254,-3.07371 -0.45008,-3.71881 -0.40563,-1.05704 -0.62744,-1.05671 -2.2453,0.003 -2.48459,1.62797 -3.12212,0.9578 -3.73193,-3.92297 -1.1032,-8.8297 -5.84143,-21.61642 -8.01015,-21.61642 -0.34153,0 -2.61622,-1.64445 -5.05487,-3.65434 -2.43865,-2.00989 -6.05748,-4.58782 -8.04183,-5.72874 -1.98436,-1.14092 -3.65999,-2.48725 -3.72362,-2.99184 -0.0636,-0.50459 -0.14941,-1.43014 -0.19063,-2.05678 -0.0483,-0.73412 -1.15528,-1.28688 -3.11245,-1.55416 -1.67064,-0.22815 -3.98469,-1.04125 -5.14234,-1.80688 -3.8486,-2.54533 -11.9471,-0.0173 -11.9471,3.7294 0,1.47816 0.49075,1.76808 3.58286,2.1166 2.65104,0.29881 4.04463,0.94067 5.35833,2.46794 2.07652,2.4141 2.05969,6.2033 -0.0333,7.50329 -1.11707,0.69382 -1.67601,0.41591 -3.2832,-1.63241 -1.488,-1.89643 -2.51878,-2.46859 -4.44734,-2.46859 -3.6148,0 -4.51774,1.48714 -3.9315,6.47515 0.64696,5.50468 -0.78724,9.01579 -4.38318,10.73058 -3.34232,1.59384 -4.68085,0.69596 -5.41174,-3.6302 -0.28318,-1.67608 -0.96037,-3.21837 -1.50487,-3.42731 -0.5445,-0.20895 -2.413639,0.34638 -4.153631,1.23406 -2.709887,1.38248 -3.537537,1.49056 -5.770607,0.75358 -2.450701,-0.8088 -2.798958,-0.69604 -5.809897,1.88121 -2.677558,2.29189 -3.580792,2.66068 -5.506596,2.24835 -3.093752,-0.6624 -3.443006,-0.92571 -3.443006,-2.59575 0,-2.23797 3.206428,-5.41947 8.00509,-7.94284 2.414823,-1.26984 4.260633,-2.65059 4.10181,-3.06835 -0.158826,-0.41776 -0.640679,-0.67926 -1.070786,-0.58111 -6.556367,1.4962 -8.074114,1.49932 -9.954199,0.0204 -1.589876,-1.2506 -1.880929,-2.04667 -1.691049,-4.6253 0.20916,-2.84048 0.487528,-3.21259 3.161761,-4.22648 2.396634,-0.90865 3.548302,-0.94705 6.303324,-0.2102 2.40849,0.64417 3.800173,0.67185 4.874393,0.0969 2.217013,-1.18651 1.198256,-2.03668 -3.645504,-3.04224 -8.957986,-1.85968 -14.582954,-7.7e-4 -29.57176,9.77271 -6.832541,4.45517 -8.669539,6.07251 -10.682112,9.40477 -3.055592,5.05923 -7.809129,15.32106 -7.809129,16.85819 0,0.6381 -0.850145,3.82219 -1.889212,7.07574 -1.602232,5.01696 -1.890684,7.39071 -1.898908,15.6267 -0.0074,7.48087 0.259157,10.12149 1.160949,11.49779 1.064474,1.6246 1.053366,1.90391 -0.122487,3.07977 -0.821296,0.82129 -2.085145,1.17688 -3.463752,0.97455 -3.437904,-0.50458 -3.873805,0.85195 -2.10939,6.56455 1.040347,3.3682 2.317489,5.7396 3.805031,7.065 1.231494,1.0973 2.239079,2.6391 2.239079,3.4263 0,5.1047 6.395464,10.5483 20.828286,17.7284 9.597006,4.7743 12.256364,5.7709 16.409289,6.1499 4.027612,0.3675 5.147884,0.2212 5.979618,-0.781 0.562917,-0.6783 1.579787,-1.2602 2.259715,-1.2932 0.78715,-0.038 0.891327,-0.1991 0.286777,-0.4431 -1.125138,-0.454 -1.288863,-3.2948 -0.189891,-3.2948 0.41776,0 0.759563,0.3419 0.759563,0.7596 0,0.4178 0.628742,0.7596 1.397205,0.7596 0.768463,0 1.792387,0.8673 2.275387,1.9274 0.731274,1.6049 1.124512,1.7955 2.350677,1.1393 0.809868,-0.4334 3.402045,-0.788 5.760375,-0.788 l 4.287886,0 -0.500484,2.2787 c -0.275265,1.2532 -0.216422,2.2786 0.130774,2.2786 0.347189,0 4.732341,-0.8396 9.744781,-1.8659 z m -33.328179,-2.341 c -0.732963,-1.9101 -0.516739,-2.4029 0.378668,-0.8631 0.443349,0.7624 0.646083,1.5462 0.450519,1.7417 -0.195563,0.1956 -0.568698,-0.1998 -0.829187,-0.8786 z m 56.493629,-38.79436 c -4.52049,-1.43619 -9.33805,-2.6052 -12.83552,-3.11461 -5.83878,-0.85044 -6.41062,-2.14973 -3.37249,-7.66269 1.32071,-2.39655 2.64704,-5.71797 2.9474,-7.38094 0.73217,-4.05371 1.5653,-4.9225 4.72041,-4.9225 4.64351,0 8.6263,1.7097 12.73905,5.46852 4.34354,3.96976 5.00808,4.22627 6.44952,2.48944 0.78287,-0.94331 0.70595,-1.72031 -0.41687,-4.21026 -1.23605,-2.74106 -1.258,-3.1724 -0.21457,-4.21583 1.04342,-1.04342 1.38702,-0.96919 3.35823,0.72558 2.09265,1.79918 2.20603,2.22136 2.41167,8.98054 0.23406,7.69312 -0.40263,9.80906 -3.63382,12.07656 -1.86678,1.31002 -9.90972,2.47889 -12.15301,1.76619 z m 14.99041,0.0117 c -0.74762,-0.74762 0.30337,-2.79419 2.98598,-5.81454 2.99125,-3.36782 3.1936,-5.66835 0.99026,-11.25828 -1.18442,-3.00489 -1.33884,-4.15523 -0.66656,-4.96528 1.52222,-1.83417 2.93395,-1.16026 5.2631,2.51243 2.49742,3.93802 2.84786,3.86321 1.13266,-0.24181 -1.82245,-4.36174 0.77013,-7.43587 3.60481,-4.27439 1.97457,2.20223 4.5292,10.82607 4.01652,13.55888 -0.56227,2.99714 -4.16511,6.66895 -8.93536,9.1064 -3.37995,1.72705 -7.38408,2.38393 -8.39141,1.37659 z m -61.441121,39.61106 c 0.167859,-0.8659 -0.105863,-1.2311 -0.759564,-1.0135 -0.562096,0.1872 -1.140089,0.9495 -1.284426,1.6941 -0.167859,0.8659 0.105863,1.2312 0.759564,1.0135 0.562096,-0.1872 1.140089,-0.9495 1.284426,-1.6941 z m 6.193856,0.3403 c 0,-0.4178 -0.150728,-0.7596 -0.334953,-0.7596 -0.184224,0 -0.546202,0.3418 -0.804392,0.7596 -0.258191,0.4178 -0.107463,0.7596 0.334952,0.7596 0.442415,0 0.804393,-0.3418 0.804393,-0.7596 z m 182.445115,7.1712 c -6.18097,-1.6636 -8.48427,-3.1482 -18.59815,-11.9874 -6.34682,-5.547 -6.97477,-6.6109 -5.87274,-9.95 0.62159,-1.8835 0.60417,-3.4915 -0.0675,-6.2292 -0.98377,-4.0099 -7.17021,-17.44073 -8.37696,-18.18655 -0.40936,-0.253 -0.53337,-1.42033 -0.27557,-2.59407 0.26368,-1.20054 0.117,-2.35144 -0.33531,-2.63099 -1.48427,-0.91732 -0.823,-2.69675 1.53509,-4.13079 3.18263,-1.93547 9.4528,-12.7386 11.50529,-19.82293 1.43802,-4.96344 2.1991,-6.23841 5.91266,-9.90497 7.05834,-6.96903 18.95124,-12.20285 35.28688,-15.52904 6.95576,-1.4163 9.00382,-1.12383 10.74565,1.53454 1.82939,2.792 0.92222,6.54013 -2.61234,10.79327 -3.18244,3.82945 -5.45045,7.79003 -5.45045,9.51804 0,0.57457 0.83077,1.82513 1.84615,2.77902 1.05757,0.99355 2.0682,3.04879 2.36603,4.81167 0.69285,4.10086 2.61577,5.84282 9.84905,8.92214 5.60258,2.3851 6.79632,2.60538 15.58845,2.87661 l 9.52126,0.29371 3.19396,-3.68 c 1.75668,-2.02401 4.22274,-4.80054 5.48012,-6.17007 1.3396,-1.45909 2.28616,-3.323 2.28616,-4.5018 0,-1.10645 1.27399,-3.86151 2.83109,-6.12236 3.77721,-5.48433 3.79548,-8.49384 0.0848,-13.97283 -1.51046,-2.23028 -3.79755,-6.08567 -5.08244,-8.56755 -2.56651,-4.95743 -2.41267,-5.67858 1.56271,-7.32524 l 2.38407,-0.98751 5.68584,6.02731 c 8.65955,9.17962 9.96782,13.35857 6.90623,22.06019 -2.33031,6.6232 -2.14327,10.29789 0.88558,17.39897 2.39903,5.62449 2.59183,6.66978 2.59183,14.05192 0,4.43233 -0.65021,11.74531 -1.46363,16.46141 -1.2059,6.9917 -1.32516,9.3992 -0.67727,13.6722 0.77543,5.1141 0.7562,5.2208 -1.38474,7.6811 -2.4195,2.7805 -2.67894,3.8141 -1.10863,4.4167 2.43738,0.9353 14.93251,-7.3289 25.23637,-16.6911 4.64036,-4.2163 6.3624,-7.6542 6.3624,-12.702 0,-1.6029 -0.0665,-1.6201 -1.44372,-0.3737 -1.87838,1.6999 -2.67198,0.4817 -2.00438,-3.0769 0.29169,-1.55489 0.15806,-3.07915 -0.32051,-3.65578 -0.62094,-0.74819 -0.44701,-1.08674 0.71434,-1.39045 1.02648,-0.26842 1.53514,-1.0336 1.53514,-2.30933 0,-1.04935 0.18234,-2.38307 0.40521,-2.96384 0.22285,-0.58076 -0.23381,-1.79272 -1.01481,-2.69322 -1.08002,-1.24528 -1.63169,-1.4256 -2.30411,-0.75318 -0.67243,0.67243 -0.88411,0.6579 -0.88411,-0.0607 0,-0.51962 -0.42725,-0.86277 -0.94945,-0.76256 -1.3567,0.26036 -4.36749,-0.85822 -4.36749,-1.62263 0,-0.3548 0.42726,-0.84756 0.94946,-1.09504 0.5222,-0.24748 -0.66015,-0.28442 -2.62742,-0.0821 -4.01096,0.41253 -3.98552,0.52949 -1.19477,-5.49403 1.42682,-3.07963 4.39186,-5.78117 4.39186,-4.00154 0,0.43246 -0.58107,0.78628 -1.29126,0.78628 -1.02837,0 -1.09925,0.19201 -0.34815,0.94311 0.7511,0.7511 1.09082,0.71244 1.66869,-0.18989 0.83542,-1.30451 0.082,-10.11999 -0.89744,-10.50095 -1.08905,-0.42357 -0.72636,-1.64572 0.48838,-1.64572 1.65547,0 1.40173,-1.00782 -0.76662,-3.04488 -1.14222,-1.07306 -1.74409,-2.30061 -1.50198,-3.06342 0.22219,-0.70007 -0.11643,-1.70477 -0.7525,-2.23266 -0.79142,-0.65681 -1.1565,-0.69066 -1.1565,-0.10724 0,1.6763 -1.20169,0.81121 -2.0705,-1.49053 -0.70867,-1.87749 -1.19362,-2.24496 -2.44043,-1.84924 -1.17774,0.3738 -1.45053,0.21896 -1.12211,-0.6369 0.25636,-0.66804 -0.18133,-1.46003 -1.06956,-1.9354 -1.32656,-0.70995 -1.45206,-0.60508 -1.06654,0.8912 0.39634,1.53824 0.31331,1.5944 -0.89337,0.60421 -0.73168,-0.6004 -2.15423,-2.71754 -3.16123,-4.70476 -1.69921,-3.35324 -6.03951,-7.17528 -9.63392,-8.48359 -1.60088,-0.5827 -9.36959,-1.20483 -7.94511,-3.15293 1.01668,-1.39039 8.82413,-2.17002 11.6568,-0.0107 3.38402,2.57961 8.28648,7.54805 13.19863,13.37624 3.39316,4.02594 3.88976,4.44715 5.24308,4.44715 1.2457,0 5.79526,6.31812 4.79068,6.65298 -1.49613,0.49871 -1.06641,2.46177 0.5389,2.46177 1.70113,0 2.14041,1.10907 2.69411,6.80193 0.22165,2.2789 0.74307,4.48353 1.15873,4.89918 0.41565,0.41565 0.75572,1.50003 0.75572,2.40973 0,2.4905 1.69851,3.57932 3.48035,2.23106 2.14637,-1.62408 2.821,-1.3903 2.27426,0.78809 -0.42336,1.6868 -0.31068,1.84393 0.86711,1.20924 0.74454,-0.40121 2.12049,-1.61544 3.0577,-2.69828 2.07604,-2.39867 2.99838,-2.45418 5.273,-0.31728 l 1.75798,1.65153 0,-2.03131 c 0,-2.02912 1.01196,-2.70685 1.8989,-1.27175 0.25819,0.41776 1.64558,0.75957 3.08309,0.75957 2.39286,0 3.02081,-0.5906 2.68476,-2.52504 -0.0599,-0.34437 0.24151,-0.40965 0.66962,-0.14506 1.34241,0.82964 0.84908,3.33837 -0.83354,4.23888 -0.88655,0.47448 -2.58232,0.6686 -3.76836,0.43139 -1.23358,-0.24671 -2.38181,-0.0666 -2.68304,0.42075 -0.32077,0.51903 -0.18385,0.64022 0.35033,0.31008 0.49331,-0.30488 0.87184,-0.10701 0.8653,0.45231 -0.0201,1.71501 -1.30827,3.13217 -2.44918,2.69437 -0.60224,-0.23111 -1.54612,-0.14138 -2.09749,0.19939 -0.55906,0.34552 -1.5998,0.24656 -2.35283,-0.22371 -0.98972,-0.6181 -1.81923,-0.61788 -3.10621,7.6e-4 -0.96574,0.46426 -2.35405,1.03529 -3.08513,1.26894 -1.44675,0.46237 -1.94698,5.02987 -0.55087,5.02987 1.42066,0 2.33597,4.02053 2.32522,10.21355 -0.014,8.05217 -1.18158,13.80997 -3.46904,17.10707 -1.63354,2.3545 -8.85795,9.0698 -17.68831,16.4418 -6.56905,5.4841 -19.45223,9.9874 -25.81101,9.0222 -1.35772,-0.2061 -3.63189,-0.5549 -5.05372,-0.7751 -2.7804,-0.4307 -4.03041,-2.2125 -2.68742,-3.8307 0.45658,-0.5501 2.99504,-1.7207 5.64103,-2.6012 4.98061,-1.6574 8.74629,-4.4074 8.74629,-6.3872 0,-1.7742 -4.85315,-6.0555 -9.37331,-8.2688 -7.91814,-3.8771 -19.80224,-5.2225 -28.64991,-3.2435 -18.61286,4.1633 -27.19387,7.5315 -30.14758,11.8335 -2.34232,3.4115 -2.15572,5.004 0.99501,8.4914 1.48722,1.6462 2.59681,3.5676 2.46575,4.2697 -0.29802,1.5968 -6.7243,3.8747 -10.86651,3.8519 -1.67103,-0.01 -4.8507,-0.5046 -7.06591,-1.1008 z m 3.28887,-11.1589 c -0.2949,-0.94 -0.80981,-3.4433 -1.14426,-5.563 -0.33445,-2.1197 -1.32029,-5.25 -2.19076,-6.9563 -2.83382,-5.5547 -2.87634,-8.6233 -0.19646,-14.1799 2.68028,-5.55741 2.87001,-7.86442 1.19579,-14.54018 -1.16224,-4.63431 -1.15363,-4.72876 0.75956,-8.32697 1.63065,-3.06682 1.93514,-4.64176 1.93514,-10.00937 0,-4.53123 0.34705,-6.89955 1.20234,-8.20488 0.70373,-1.07403 0.99772,-2.47965 0.70893,-3.38954 -1.25534,-3.95524 -9.78237,-2.0023 -14.73978,3.37585 -1.68896,1.83231 -3.29923,4.29164 -3.57837,5.46516 -0.27915,1.17353 -0.91213,2.6464 -1.40663,3.27304 -0.4945,0.62664 -2.43456,4.21558 -4.31125,7.97542 -3.1246,6.25995 -3.32579,6.9961 -2.38718,8.73497 1.32759,2.45952 0.75045,7.24553 -1.19028,9.8705 l -1.50947,2.0417 2.68385,4.7624 c 2.35753,4.1834 2.70686,5.4901 2.87313,10.7473 0.11726,3.7075 0.58818,6.4721 1.23757,7.2652 1.25473,1.5324 17.15459,9.264 19.17649,9.3249 1.12828,0.034 1.30833,-0.3063 0.88164,-1.6663 z m 13.77828,-14.3048 c 2.019,-0.8701 8.28525,-2.8134 13.92501,-4.3184 9.86406,-2.6321 10.7597,-2.738 23.54646,-2.7822 l 13.29235,-0.046 7.07505,3.2874 c 3.89127,1.808 7.55547,3.103 8.14267,2.8777 1.19944,-0.4603 1.33523,-1.0078 2.75518,-11.1086 1.54885,-11.01776 1.31013,-19.37738 -0.67806,-23.74537 -2.8198,-6.19502 -5.45233,-5.85871 -12.87077,1.6443 -8.63219,8.73058 -14.93296,12.8569 -19.77875,12.95292 -0.97273,0.0193 -3.06027,1.47112 -4.94825,3.4414 -2.6602,2.77615 -3.91844,3.49755 -6.78617,3.89065 -2.9663,0.4065 -3.63626,0.2587 -4.25616,-0.9395 -1.01099,-1.95414 -1.66318,-8.63792 -0.84287,-8.63792 1.20948,0 0.69324,-2.01882 -0.88042,-3.44296 -0.93275,-0.84413 -3.38067,-1.61597 -6.16709,-1.94452 -4.18861,-0.49388 -4.97174,-0.8887 -8.37983,-4.22483 l -3.75942,-3.68004 0.48662,-3.98771 c 0.64661,-5.29868 -0.41378,-5.19705 -5.5093,0.52803 -3.77584,4.24236 -3.9877,4.70058 -3.9877,8.62455 0,2.27928 0.5127,5.37122 1.13934,6.87098 0.73847,1.76742 1.13935,5.23823 1.13935,9.86472 0,5.9959 0.24386,7.4478 1.52441,9.0758 1.23343,1.568 1.37842,2.3219 0.75956,3.9497 -1.52568,4.0128 -0.67866,4.3225 5.05879,1.8498 z m 37.88369,-16.59494 c -0.83364,-1.34888 3.94724,-2.64726 5.67059,-1.54003 1.00357,0.64478 1.00285,0.81343 -0.006,1.47593 -1.44895,0.95114 -5.09058,0.99234 -5.66429,0.064 z m 54.49398,13.33844 c 0.50693,-1.0921 1.17805,-1.9883 1.49137,-1.9915 1.03682,-0.011 0.59184,1.2576 -0.9217,2.6274 -1.4583,1.3197 -1.47092,1.3056 -0.56967,-0.6359 z m 25.23537,-39.98805 c 0.2624,-0.42457 0.79528,-0.57531 1.18418,-0.33495 1.05354,0.65112 0.8571,1.1069 -0.4771,1.1069 -0.65129,0 -0.96948,-0.34738 -0.70708,-0.77195 z m -20.13608,-3.78543 c 0,-0.41776 0.3418,-0.75956 0.75956,-0.75956 0.41776,0 0.75957,0.3418 0.75957,0.75956 0,0.41776 -0.34181,0.75957 -0.75957,0.75957 -0.41776,0 -0.75956,-0.34181 -0.75956,-0.75957 z"
       id="path10180"
       inkscape:connector-curvature="0"
       sodipodi:nodetypes="ssscsssssssscsssssssssscsssssssscsscsscssssssccssssccssssssssssscsssssssscssscsssssssssscsscsccsssccsccscccsccsssssssssssssssssssssssscscsssssscscssscssssssssssscssssssscssssssccsscsscscsssssssssssscssssssscssssssssssssssssssscssscccscsccsccssssssccsssssccccccscsssssssssssscsssccccscccssscscssssscssssscccccscccccccscsssssss" />
    <path
       style="fill:#00e29a;fill-opacity:1;stroke:none;stroke-width:2;stroke-miterlimit:4;stroke-dasharray:none;stroke-opacity:1"
       d="m 78.815213,187.60188 c 0.147542,-0.8325 0.361634,-1.8315 0.475758,-2.22 0.185516,-0.63155 -0.126741,-0.70382 -2.947884,-0.68231 -2.994873,0.0229 -5.701311,0.37293 -7.68402,0.99397 -0.735983,0.23052 -1.046952,0.0246 -1.74203,-1.15344 -0.533038,-0.90344 -1.345812,-1.59898 -2.196577,-1.87976 -0.742751,-0.24513 -1.451637,-0.70936 -1.575303,-1.03162 -0.319466,-0.83252 -1.362208,-0.72607 -1.645985,0.16803 -0.131613,0.41467 -0.06645,1.20856 0.144793,1.76419 0.345125,0.90774 0.213083,1.12779 -1.301538,2.16902 -1.525228,1.04853 -1.969293,1.1504 -4.666572,1.07062 -4.627412,-0.13688 -7.290786,-1.01844 -15.99419,-5.294 C 23.986384,173.79626 17.9578,169.04603 16.93899,163.58647 c -0.258141,-1.38332 -0.813232,-2.41061 -1.995764,-3.6935 -0.900989,-0.97746 -1.995985,-2.47859 -2.433324,-3.33585 -1.233294,-2.41745 -2.5617813,-7.1835 -2.418651,-8.6771 0.128115,-1.3369 0.149381,-1.3499 2.55101,-1.55983 1.332,-0.11643 2.828355,-0.43953 3.325233,-0.71801 1.259762,-0.70604 1.566293,-2.2618 0.704721,-3.57673 -0.949092,-1.44849 -1.472627,-8.4727 -1.153291,-15.47356 0.250564,-5.49317 0.359151,-6.04275 3.58884,-18.16364 1.436013,-5.3893 7.208583,-16.978261 9.95249,-19.980532 3.079001,-3.368918 13.398133,-10.22796 20.92554,-13.909035 6.803205,-3.326923 11.827859,-3.937994 18.335146,-2.229822 3.139734,0.824183 3.755517,1.32132 2.620988,2.115975 -0.852919,0.597408 -1.356476,0.587639 -7.094598,-0.137628 -1.456856,-0.184139 -2.675095,-0.06291 -4.0898,0.406977 -2.861652,0.950488 -3.381798,1.67771 -3.458432,4.835257 -0.05993,2.469067 0.01982,2.725872 1.219954,3.928416 1.592224,1.595429 4.290884,1.93259 8.19217,1.023504 4.435842,-1.033651 4.139912,-0.06775 -0.863427,2.818169 -8.940087,5.156638 -10.755627,10.694501 -3.54305,10.807229 1.645609,0.02572 2.170396,-0.223725 4.951995,-2.353799 3.078018,-2.357064 3.127943,-2.377587 4.664337,-1.917272 2.434988,0.729541 4.088432,0.558972 7.121908,-0.734694 1.547594,-0.659994 3.025831,-1.204903 3.284969,-1.210909 0.470224,-0.0109 1.257497,1.888824 2.128871,5.137074 0.633669,2.362155 1.894871,3.16406 3.943712,2.507506 2.257368,-0.72337 4.142148,-2.299779 4.994959,-4.177735 0.607,-1.336651 0.756208,-2.655124 0.763341,-6.745206 0.0075,-4.329207 0.113712,-5.175872 0.715227,-5.704075 2.096652,-1.841109 4.613474,-1.367755 7.279536,1.369108 1.70431,1.749561 2.16903,2.022945 3.05905,1.799564 1.52151,-0.381874 2.41662,-2.340684 2.0838,-4.560078 -0.44016,-2.935234 -3.56304,-5.777958 -6.354877,-5.784781 -0.506632,-0.0013 -1.602282,-0.191412 -2.434782,-0.422609 -1.296601,-0.360083 -1.513636,-0.585271 -1.513636,-1.57048 0,-1.43228 2.139938,-3.427289 4.328055,-4.034934 2.26938,-0.630211 5.23116,-0.516921 6.69108,0.255938 0.71047,0.376114 2.92521,1.159127 4.92164,1.740027 3.56732,1.03798 3.6338,1.080341 3.85775,2.458046 0.32085,1.97393 0.39109,2.04923 4.32026,4.631309 1.94166,1.275981 5.47372,3.789723 7.84902,5.586095 2.37529,1.796371 4.80613,3.610693 5.40186,4.031826 2.18932,1.547681 5.88616,11.765089 7.24416,20.021569 0.38339,2.331 0.86179,4.55605 1.0631,4.94455 0.45476,0.87763 1.61481,0.90154 3.22949,0.0666 1.61419,-0.83473 1.96749,-0.43455 2.23662,2.53347 0.24118,2.65979 -0.36271,3.75724 -2.0675,3.75724 -1.10125,0 -2.25373,1.1671 -2.25373,2.28233 0,0.44332 0.47135,1.24638 1.04744,1.78458 1.94891,1.82071 2.30246,3.01161 2.08127,7.01056 -0.5378,9.72315 -9.29498,27.77099 -17.92777,36.9477 -6.20186,6.59262 -19.95628,14.44117 -30.754795,17.54931 -4.660941,1.34156 -16.335528,3.85096 -17.91597,3.85096 -0.700946,0 -0.765504,-0.1844 -0.529922,-1.51363 z m -22.378415,-1.53369 c 0,-0.12202 -0.27712,-0.75775 -0.61582,-1.41272 -0.831886,-1.60869 -1.444428,-1.53403 -0.970547,0.11829 0.2065,0.72003 0.375458,1.35576 0.375458,1.41272 0,0.057 0.272455,0.10358 0.605455,0.10358 0.333,0 0.605454,-0.0998 0.605454,-0.22187 z m 78.665432,-40.78116 c 3.78173,-1.863 8.21374,-6.05793 8.85536,-8.38165 1.03629,-3.75316 -1.95204,-13.17053 -4.8646,-15.33019 -2.4918,-1.84767 -4.27353,1.03865 -2.98165,4.83012 0.3557,1.04391 0.58874,1.95601 0.51786,2.02689 -0.0709,0.0709 -0.84235,-0.90916 -1.71438,-2.17785 -1.87154,-2.72287 -3.34628,-3.47209 -4.60036,-2.33716 -1.11035,1.00486 -1.03324,2.26912 0.38345,6.28682 1.86377,5.28558 1.61231,6.98829 -1.60658,10.87878 -2.50602,3.02889 -3.41911,5.31532 -2.32091,5.81168 1.37897,0.62327 5.36451,-0.14565 8.33181,-1.60744 z m -14.8873,0.81287 c 6.54323,-1.48822 8.10505,-4.84059 7.29855,-15.66594 l -0.36209,-4.86024 -1.83199,-1.73092 c -2.11965,-2.00271 -2.72901,-2.11521 -3.83577,-0.70818 -0.85999,1.09329 -0.79572,1.69461 0.504,4.71612 0.84645,1.96778 0.81449,2.86312 -0.13283,3.72042 -1.08216,0.97935 -1.85932,0.62721 -5.31857,-2.40986 -4.31408,-3.78757 -7.86406,-5.46397 -12.12891,-5.72761 -4.35051,-0.26894 -4.928148,0.14569 -6.037256,4.33354 -0.440311,1.66256 -1.700153,4.93716 -2.799646,7.27689 -2.096172,4.46066 -2.399335,5.98439 -1.391237,6.99249 0.76169,0.76169 0.934349,0.81155 7.061249,2.0391 2.775,0.55599 6.13527,1.36334 7.46727,1.79413 3.03824,0.98261 7.78157,1.07745 11.50723,0.23006 z"
       id="path10182"
       inkscape:connector-curvature="0"
       transform="translate(0,842.36216)" />
    <path
       style="fill:#00e29a;fill-opacity:1;stroke:none;stroke-width:2;stroke-miterlimit:4;stroke-dasharray:none;stroke-opacity:1"
       d="m 251.39313,182.10754 c -4.32088,-1.93768 -12.35671,-6.04686 -13.40504,-6.85477 -1.1455,-0.88279 -1.55202,-2.59079 -1.93102,-8.11324 l -0.36164,-5.26947 -2.50365,-4.91173 -2.50365,-4.91173 1.24993,-1.88704 c 1.6733,-2.52623 2.35509,-5.82382 1.70755,-8.25883 -1.08803,-4.09139 -1.05665,-4.25557 1.96921,-10.30339 1.555,-3.108 3.3709,-6.64991 4.03533,-7.87091 0.66443,-1.221 1.68237,-3.25987 2.26209,-4.53083 1.36162,-2.98517 4.95705,-6.62352 8.07526,-8.17168 1.95896,-0.97259 2.93881,-1.20114 5.1915,-1.21091 2.56528,-0.0111 2.84036,0.0726 3.61146,1.09908 l 0.83467,1.11111 -0.93192,2.11798 c -0.77189,1.7543 -0.9884,3.19226 -1.26086,8.37434 -0.33966,6.46004 -0.66638,7.9181 -2.60515,11.62592 -1.22683,2.34627 -1.22717,2.32953 0.18815,9.09579 1.10036,5.26049 0.91326,6.68846 -1.65855,12.65802 -1.46454,3.39942 -1.7046,4.35454 -1.7046,6.78208 0,2.4345 0.23966,3.38186 1.73206,6.84662 1.45715,3.38291 3.65977,11.70692 3.65977,13.83076 0,0.89819 -1.70702,0.52144 -5.6509,-1.24717 z"
       id="path10184"
       inkscape:connector-curvature="0"
       transform="translate(0,842.36216)" />
    <path
       style="fill:#00e29a;fill-opacity:1;stroke:none;stroke-width:2;stroke-miterlimit:4;stroke-dasharray:none;stroke-opacity:1"
       d="m 340.18753,184.06333 c -0.52077,-0.62749 -0.44326,-0.77341 2.67634,-5.03873 0.87081,-1.19062 0.99627,-1.69829 0.79803,-3.22909 -0.73449,-5.67163 -0.70338,-10.40074 0.10229,-15.5486 1.22794,-7.84593 1.80392,-15.48995 1.57874,-20.95195 -0.16526,-4.00866 -0.3998,-5.4087 -1.32333,-7.89944 -4.05773,-10.94356 -4.2917,-12.81635 -2.39521,-19.17272 1.58368,-5.30792 1.77754,-6.23615 1.78818,-8.56213 0.018,-3.941155 -2.43297,-8.498912 -7.38932,-13.740774 l -2.00556,-2.121087 1.37225,0.262542 c 3.84342,0.735327 8.69188,4.625538 11.27297,9.044989 2.77559,4.75246 4.71337,6.54484 4.34228,4.01646 -0.10775,-0.73418 0.001,-1.210909 0.2771,-1.210909 0.74469,0 1.42354,0.904679 1.42354,1.897089 0,0.79092 0.20801,0.92837 1.40495,0.92837 1.27842,0 1.48742,0.17265 2.32091,1.91727 0.93961,1.96677 2.31707,2.81503 2.34212,1.44232 0.0242,-1.32406 1.60111,1.01511 1.60111,2.375 0,0.83123 0.50096,1.77428 1.61455,3.03938 1.86447,2.11815 1.94764,2.42439 0.70636,2.60068 -0.89981,0.12779 -1.61725,1.94534 -0.76788,1.94534 0.21904,0 0.59495,0.91712 0.83535,2.03805 0.53459,2.49274 0.5724,6.03468 0.0644,6.03468 -1.57794,0 -6.08551,7.08485 -6.08551,9.56501 0,0.86701 0.16291,0.92953 2.42182,0.92953 2.17281,0 2.42181,0.0851 2.42181,0.82787 0,0.91413 2.06188,1.99759 3.80153,1.99759 0.5511,0 1.17508,0.30928 1.38663,0.68729 0.30958,0.5532 0.5004,0.59122 0.97798,0.19486 0.81579,-0.67705 1.81915,-0.20389 2.54528,1.20029 0.45386,0.87768 0.53877,1.79658 0.3336,3.6101 -0.27884,2.46457 -0.9242,3.59109 -2.05727,3.59109 -0.48439,0 -0.55632,0.24789 -0.32209,1.11 0.16587,0.6105 0.26724,2.48662 0.22526,4.16916 -0.0917,3.677 0.44603,4.4976 2.09659,3.19927 0.5659,-0.44514 1.16237,-0.80934 1.32548,-0.80934 0.61393,0 -0.26417,5.06484 -1.2523,7.2232 -1.70864,3.73216 -10.4348,11.59895 -19.95887,17.99327 -6.00679,4.03288 -9.58463,5.54717 -10.50012,4.44407 z m 24.26363,-18.80505 c 1.31649,-1.4093 1.54103,-2.50957 0.47007,-2.30332 -0.81842,0.15761 -2.83956,3.55692 -2.11485,3.55692 0.26056,0 1.00071,-0.56412 1.64478,-1.2536 z"
       id="path10186"
       inkscape:connector-curvature="0"
       transform="translate(0,842.36216)" />
  </g>
</svg>
