<?xml version="1.0" encoding="UTF-8" standalone="no"?>
<!-- Created with Inkscape (http://www.inkscape.org/) -->

<svg
   xmlns:dc="http://purl.org/dc/elements/1.1/"
   xmlns:cc="http://creativecommons.org/ns#"
   xmlns:rdf="http://www.w3.org/1999/02/22-rdf-syntax-ns#"
   xmlns:svg="http://www.w3.org/2000/svg"
   xmlns="http://www.w3.org/2000/svg"
   xmlns:sodipodi="http://sodipodi.sourceforge.net/DTD/sodipodi-0.dtd"
   xmlns:inkscape="http://www.inkscape.org/namespaces/inkscape"
   width="210"
   height="210"
   viewBox="0 0 210 210"
   id="svg4969"
   version="1.1"
   inkscape:version="0.91 r13725"
   sodipodi:docname="ian-newton.svg">
  <defs
     id="defs4971" />
  <sodipodi:namedview
     id="base"
     pagecolor="#ffffff"
     bordercolor="#666666"
     borderopacity="1.0"
     inkscape:pageopacity="0.0"
     inkscape:pageshadow="2"
     inkscape:zoom="1.6916194"
     inkscape:cx="105.90808"
     inkscape:cy="78.148975"
     inkscape:document-units="px"
     inkscape:current-layer="layer1"
     showgrid="false"
     units="px"
     inkscape:window-width="1440"
     inkscape:window-height="778"
     inkscape:window-x="0"
     inkscape:window-y="1"
     inkscape:window-maximized="1" />
  <metadata
     id="metadata4974">
    <rdf:RDF>
      <cc:Work
         rdf:about="">
        <dc:format>image/svg+xml</dc:format>
        <dc:type
           rdf:resource="http://purl.org/dc/dcmitype/StillImage" />
        <dc:title></dc:title>
      </cc:Work>
    </rdf:RDF>
  </metadata>
  <g
     inkscape:label="Layer 1"
     inkscape:groupmode="layer"
     id="layer1"
     transform="translate(0,-842.36216)">
    <path
       style="fill:#000000"
       d="m 187.94693,1040.0772 c -0.15404,-0.4013 -0.28006,-1.1501 -0.28006,-1.6639 0,-1.0572 -2.03148,-2.7672 -3.28753,-2.7672 -0.51261,0 -0.7869,-0.2681 -0.75,-0.7331 0.041,-0.5164 -0.25135,-0.7353 -0.98902,-0.7408 -0.76687,-0.01 -1.05919,-0.2428 -1.09199,-0.8855 -0.1003,-1.9653 -1.21088,-2.4374 -1.84017,-0.7822 -0.59788,1.5725 -0.97888,1.2601 -0.68727,-0.5636 0.22979,-1.4369 0.14306,-1.663 -0.80393,-2.0944 -1.57669,-0.7184 -1.76565,-0.6349 -2.6976,1.1919 -0.47013,0.9215 -1.1337,1.6755 -1.47459,1.6755 -0.3409,0 -0.61981,0.2827 -0.61981,0.6282 0,1.2894 -0.80946,0.5703 -1.06085,-0.9424 -0.14358,-0.8639 -0.33471,-1.8063 -0.42471,-2.0943 -0.19442,-0.622 -1.02772,-0.7069 -1.02772,-0.1048 0,0.2304 -0.30021,0.4188 -0.66715,0.4188 -0.36694,0 -1.82778,1.0523 -3.24632,2.3384 -1.41854,1.2861 -3.74392,3.1709 -5.1675,4.1887 -2.11354,1.5111 -2.92418,1.8506 -4.41918,1.8506 -1.00696,0 -2.04062,0.2097 -2.297,0.4662 -0.62734,0.6274 -1.37692,0.1041 -1.37692,-0.9611 0,-0.7177 -0.10571,-0.7766 -0.62336,-0.347 -0.49889,0.4141 -0.66077,0.4035 -0.81071,-0.053 -0.29414,-0.8962 -1.2037,-7.5674 -1.20267,-8.8211 l 8.3e-4,-1.1291 -1.59235,0.8123 -1.59237,0.8124 -0.65021,-0.9283 -0.65022,-0.9282 -0.0486,1.0356 c -0.0404,0.8614 -0.0824,0.8946 -0.25009,0.198 -0.11083,-0.4608 -0.3717,-1.017 -0.57973,-1.2359 -0.20792,-0.2187 -0.37812,-1.2084 -0.37812,-2.1991 0,-0.9906 -0.1885,-1.8011 -0.41889,-1.8011 -0.54526,0 -0.53827,2.1447 0.0118,3.5914 0.52632,1.3842 0.21748,1.7798 -0.86284,1.1051 -0.44718,-0.2792 -1.16952,-0.5076 -1.60519,-0.5076 -0.43568,0 -1.03076,-0.2876 -1.3224,-0.6389 -0.47332,-0.5704 -0.61367,-0.5634 -1.30792,0.065 -0.42773,0.3871 -0.77769,0.9524 -0.77769,1.2564 0,0.4713 -2.0063,1.8308 -2.70193,1.8308 -0.65324,0 -0.0945,-2.3443 0.81696,-3.4274 1.98878,-2.3635 1.0386,-1.9318 -1.63695,0.7436 -2.59189,2.5919 -7.4122,5.3875 -9.04449,5.2453 -0.34557,-0.03 -4.11549,-0.041 -8.37759,-0.022 -7.97972,0.034 -11.76626,0.477 -18.430711,2.1582 -2.904515,0.7328 -4.949582,0.9117 -11.100311,0.9712 -4.874492,0.047 -8.981208,0.323 -11.617245,0.7807 -2.926975,0.5082 -4.306066,0.5855 -4.887791,0.2743 -1.823783,-0.9762 -1.402443,-5.1295 0.673783,-6.642 0.953462,-0.6944 1.099382,-1.1445 1.26116,-3.8894 0.250486,-4.25 -0.250374,-6.413 -1.527598,-6.5966 -0.82827,-0.1191 -0.946352,0 -0.746541,0.7662 0.189533,0.7246 0.09584,0.8514 -0.46512,0.6294 -2.192868,-0.8683 -10.030884,-0.3564 -22.484225,1.4685 -11.448451,1.6777 -14.270765,2.1076 -15.156474,2.3081 -0.972179,0.2203 -1.514421,1.2974 -1.684841,3.3468 -0.05746,0.6912 -0.137023,1.6337 -0.17677,2.0945 -0.03979,0.4608 0.08154,1.4032 0.269513,2.0944 0.321364,1.1815 0.296036,1.2191 -0.424141,0.6283 -0.680818,-0.5585 -0.742676,-0.5585 -0.556709,0 0.259215,0.7785 2.746595,0.791 17.310538,0.087 10.56104,-0.5104 16.134126,-1.3045 19.62791,-2.7969 2.140482,-0.9144 2.469209,-0.5013 0.414192,0.5203 -3.539606,1.7598 -8.655396,2.5838 -17.738263,2.8572 -3.801331,0.1144 -9.605237,0.5045 -12.897563,0.8669 -5.500648,0.6055 -6.046784,0.6039 -6.73506,-0.018 -1.077393,-0.975 -1.730248,-0.8356 -1.730248,0.3694 0,0.8377 0.209441,1.0471 1.047202,1.0471 1.928049,0 1.07445,0.7291 -1.656889,1.4152 -3.125809,0.7852 -6.654505,0.8778 -8.530355,0.2238 -1.276594,-0.445 -1.304245,-0.5106 -1.214426,-2.883 0.08164,-2.1564 -0.06348,-2.6443 -1.298921,-4.3665 -1.736655,-2.421 -3.965093,-7.2142 -4.889156,-10.5163 -0.386831,-1.3823 -1.830244,-4.9181 -3.2075853,-7.8573 -3.3776965,-7.2081 -3.405846,-7.4883 -1.1405771,-11.3536 1.0074195,-1.71896 2.1527834,-3.70746 2.5452404,-4.41891 1.095066,-1.98513 1.590273,-1.5904 1.590273,1.26771 0,1.97674 0.252697,3.0257 1.107086,4.5954 1.258752,2.3128 1.825081,2.31 1.825081,-0.01 0,-0.9108 0.270539,-1.8241 0.628318,-2.121 0.719115,-0.59686 0.866813,-1.87236 0.166696,-1.43977 -0.253891,0.15703 -0.75208,0.96921 -1.107076,1.80507 -0.355005,0.8359 -0.72378,1.2981 -0.819496,1.0273 -0.234046,-0.662 1.247373,-3.50298 2.343623,-4.49436 0.955005,-0.86372 1.021424,-0.74393 0.906531,1.63564 -0.09085,1.88142 0.742628,7.27852 1.461715,9.46542 0.406931,1.2374 1.015893,2.1303 1.704244,2.4986 0.58908,0.3154 1.636086,1.2867 2.326684,2.1587 0.928407,1.1721 1.567777,1.5853 2.453419,1.5853 1.47064,0 3.54285,2.2942 4.559684,5.0482 l 0.687965,1.8634 8.365991,0.1289 c 12.970406,0.1997 21.941616,-1.1016 28.05335,-4.0693 4.231738,-2.0548 5.499905,-2.4887 6.121883,-2.0949 0.906343,0.574 2.72723,0.459 10.629201,-0.6721 6.74121,-0.9649 10.685545,-2.0045 10.685545,-2.8163 0,-0.5043 -1.022618,-0.3741 -1.857642,0.2364 -0.659797,0.4826 -0.896636,0.4211 -1.779212,-0.4615 -0.678467,-0.6784 -1.309766,-0.9418 -1.89245,-0.7894 -0.500013,0.1307 -1.725218,-0.2025 -2.861741,-0.7785 -2.990319,-1.5152 -3.621252,-4.1365 -2.20803,-9.1731 0.604899,-2.15588 1.131849,-2.95406 3.540452,-5.36258 2.201935,-2.20193 2.884445,-3.17959 3.076197,-4.40621 0.470462,-3.0094 1.131191,-4.9415 2.591071,-7.57701 0.807251,-1.45732 1.394073,-2.72324 1.304047,-2.81325 -0.09001,-0.0903 -2.88752,-1.03992 -6.216658,-2.11098 -6.12842,-1.97141 -9.718945,-3.51827 -10.282142,-4.42952 -0.192626,-0.31169 0.734192,-1.48846 2.459701,-3.12325 2.745965,-2.60156 4.577592,-3.50604 7.110173,-3.51121 1.366563,0 1.447269,-0.59525 0.314159,-2.30614 -1.131285,-1.70816 -1.06275,-3.37361 0.190397,-4.62675 1.367494,-1.36751 2.328885,-1.29509 6.302236,0.47458 2.250089,1.00211 4.245566,1.5684 6.073757,1.72348 l 2.72272,0.2309 -2.82744,-2.83874 c -1.555093,-1.56125 -2.827438,-2.99882 -2.827438,-3.19464 0,-1.12786 6.362958,0.42454 8.772628,2.14042 1.2291,0.87523 2.95601,1.15372 2.95601,0.47683 0,-0.20785 -0.56144,-0.57361 -1.24764,-0.81278 -1.59133,-0.55481 -3.0466,-2.83678 -2.7133,-4.25479 0.33851,-1.44011 1.10641,-2.12884 2.76269,-2.47786 1.37966,-0.29072 1.40519,-0.33576 1.28218,-2.25864 -0.10438,-1.6316 0.0511,-2.13873 0.92343,-3.01095 1.30972,-1.30976 1.70189,-1.30995 3.01008,0 1.61015,1.61015 2.37462,1.40427 1.23634,-0.33295 -0.75286,-1.14902 -0.42953,-1.71718 1.40162,-2.4632 1.38692,-0.56497 1.45108,-0.70246 2.80455,-6.01203 1.56061,-6.12198 1.71433,-7.65511 0.8026,-8.00497 -0.90438,-0.34715 -0.77362,-0.98933 0.20142,-0.98933 0.73735,0 0.80212,-0.20155 0.58165,-1.81011 -0.26495,-1.93303 0.57259,-4.12753 2.61581,-6.85369 0.78712,-1.05027 0.99936,-1.85337 0.99936,-3.78142 0,-2.74949 0.62413,-3.96134 2.55417,-4.95941 1.10944,-0.57371 1.21794,-0.79793 0.98561,-2.0363 -0.51695,-2.75561 3.77382,-6.08258 7.8691,-6.10158 1.47922,-0.01 2.39986,-0.30227 3.61799,-1.16106 l 1.6339,-1.15193 0.31338,-8.16816 c 0.28261,-7.36624 0.17479,-12.49018 -0.41866,-19.8968 -0.11076,-1.3823 0.18871,-0.0628 0.66549,2.93215 0.8123,5.10273 0.83644,6.01836 0.38358,14.54867 -0.54824,10.32719 -0.38439,11.33429 1.87627,11.53105 1.66763,0.14512 2.31709,-0.34329 2.71875,-2.04468 0.31545,-1.33618 0.33657,-1.35019 0.37705,-0.25046 0.0236,0.64078 0.31502,1.26951 0.64764,1.39714 0.33261,0.12762 2.17045,-0.16422 4.08407,-0.64858 5.42205,-1.3723 12.46124,-1.93041 16.25515,-1.28869 2.69647,0.45596 3.33467,0.73567 4.50417,1.97394 0.90147,0.95452 1.42181,1.25502 1.53762,0.88804 0.52905,-1.67656 0.59558,-1.77221 0.62722,-0.9014 0.0239,0.65686 0.44379,1.04557 1.5098,1.39732 1.84374,0.60852 3.80286,2.23071 4.63317,3.83635 0.3489,0.67464 0.81282,2.79737 1.03095,4.71705 0.21812,1.91967 0.67871,4.03122 1.02354,4.6924 0.34482,0.66118 0.62809,1.71398 0.62951,2.33952 0.002,0.69654 0.4898,1.63592 1.25922,2.42304 1.5157,1.55053 1.53003,1.72988 0.25672,3.21015 l -0.99993,1.16247 1.36932,1.68832 c 3.71801,4.58424 4.65545,8.78992 2.63881,11.83877 -1.38566,2.09499 -1.12637,3.53041 1.07858,5.97103 2.56787,2.84232 2.63485,3.20639 0.89212,4.85003 -0.83894,0.79116 -1.70042,1.4386 -1.9144,1.4386 -1.04236,0 -0.19672,0.86171 1.2797,1.30412 3.58418,1.07378 3.82537,3.33195 0.57601,5.39261 l -1.91953,1.21731 1.40817,0.85849 c 0.77451,0.47223 1.91543,0.85926 2.53538,0.8601 1.30556,0 1.8954,0.63466 0.93505,1.00315 -0.5767,0.2213 -0.55797,0.39059 0.15555,1.40522 0.44618,0.63456 1.13157,1.78067 1.52311,2.547 0.64359,1.25962 0.6504,1.48704 0.0711,2.37112 -0.35241,0.53788 -1.31576,1.20066 -2.14075,1.47293 -1.18823,0.3922 -1.40261,0.61247 -1.03139,1.05978 0.25775,0.31055 0.9732,0.62299 1.5899,0.69419 0.96242,0.11126 1.13951,0.34949 1.25016,1.68182 0.0996,1.19981 -0.0668,1.6743 -0.73304,2.09038 -1.19473,0.7462 -1.08772,1.08046 0.60414,1.88723 1.55325,0.74074 1.88328,1.7707 0.84378,2.63333 -0.5448,0.4522 -0.51871,0.6482 0.20944,1.57386 0.45746,0.58161 0.83174,1.58232 0.83174,2.22394 0,1.02496 0.24958,1.24937 2.05785,1.84998 1.13181,0.37592 2.17439,0.98725 2.31687,1.35848 0.30205,0.7872 -1.45789,2.80667 -3.27092,3.7533 -0.88249,0.46075 -1.07648,0.75014 -0.73304,1.09349 0.93969,0.93967 0.49967,1.89964 -1.10379,2.40808 -0.86394,0.27388 -1.95981,0.74113 -2.43527,1.03824 -0.8156,0.50966 -6.18211,1.74577 -9.39809,2.16484 -2.53388,0.33011 -2.72085,0.46672 -1.89233,1.38216 0.49574,0.54791 0.64876,1.15571 0.47009,1.86765 -0.14568,0.5805 0.1409,3.8272 0.63687,7.2149 0.75905,5.185 0.8274,6.5631 0.43196,8.7092 -0.29574,1.6052 -0.33254,3.0896 -0.0993,4.007 0.20377,0.8015 0.4837,2.3823 0.62205,3.5128 0.2491,2.0355 0.24337,2.0481 -0.58722,1.2964 -0.82769,-0.749 -0.83876,-0.7333 -0.83876,1.1909 0,1.4308 0.1629,1.9498 0.612,1.9498 1.01214,0 2.22312,1.6363 3.53549,4.7771 0.74067,1.7728 1.33189,2.7187 1.46494,2.3438 1.41218,-3.9772 2.12191,-5.5378 2.24816,-4.9438 0.0831,0.3912 -0.0647,1.1142 -0.32821,1.6068 -0.61531,1.1497 -0.30582,1.4454 0.79396,0.7586 0.67025,-0.4186 0.98151,-0.4288 1.36565,-0.044 0.38414,0.3841 0.24331,0.5943 -0.61787,0.9216 -1.41087,0.5364 -1.46065,1.0412 -0.0682,0.6916 1.20037,-0.3012 1.40671,0.34 0.31417,0.9764 -0.42932,0.2499 -0.51114,0.4321 -0.1975,0.4396 0.85647,0.021 5.25626,-2.3286 6.0891,-3.2508 0.84433,-0.9351 0.92908,-0.8429 -2.33391,-2.5379 -2.62223,-1.3621 -4.61914,-4.0695 -5.56932,-7.5508 -0.35363,-1.2957 -0.8497,-2.7255 -1.10236,-3.1772 -1.17426,-2.1001 -1.44373,-20.64337 -0.32626,-22.4515 0.70803,-1.14554 0.90743,0.0301 0.45035,2.65464 -0.54112,3.10736 -0.61737,7.42356 -0.13113,7.42356 0.1841,0 0.56565,-0.6386 0.84789,-1.4191 0.62546,-1.7297 3.28012,-5.2829 3.94691,-5.2829 0.3547,0 0.34959,0.1338 -0.0192,0.5026 -0.27646,0.2765 -0.50265,0.9361 -0.50265,1.4661 0,0.5298 -0.19127,0.9634 -0.42503,0.9634 -0.50343,0 -2.08443,2.4812 -2.08668,3.2748 -9.4e-4,0.3804 0.3893,0.2738 1.25507,-0.3427 1.40991,-1.0038 1.51887,-0.7517 0.79767,1.8457 -0.24985,0.8999 -0.3297,2.467 -0.17744,3.4824 0.23074,1.5387 0.3766,1.7634 0.87551,1.3494 0.32926,-0.2732 0.60716,-0.8036 0.61755,-1.1786 0.0104,-0.375 0.29127,-1.2472 0.62416,-1.9384 0.51939,-1.0783 0.57238,-1.108 0.37343,-0.2094 -0.1279,0.5778 0.80306,-0.5126 2.07645,-2.4319 1.26955,-1.9136 2.21848,-3.7132 2.10872,-3.9992 -0.28407,-0.7403 4.33437,-5.71634 5.30548,-5.71634 1.49704,0 0.60967,3.23594 -1.18696,4.32844 -1.58196,0.9618 -3.7394,3.2414 -5.37422,5.6783 -1.79527,2.6762 -1.80808,2.7206 -0.95638,3.3171 0.62824,0.4401 1.47924,0.5323 3.12565,0.3389 1.41778,-0.1667 2.26236,-0.1082 2.26236,0.1565 0,0.2324 -0.44493,0.4226 -0.98873,0.4226 -0.54381,0 -1.72192,0.4904 -2.618,1.0899 -4.04099,2.7031 -6.1539,5.7667 -5.94807,8.6243 l 0.13002,1.805 0.95199,-2.7227 c 1.05819,-3.0264 2.58286,-5.3979 2.59917,-4.0427 0.009,0.734 0.087,0.7285 1.49934,-0.1047 2.18901,-1.2916 2.21047,-1.083 0.0814,0.7911 -1.70839,1.5038 -3.91328,4.924 -3.464,5.3732 0.0977,0.098 1.10869,-0.5057 2.24657,-1.3409 2.15357,-1.5808 4.60368,-2.7704 5.70634,-2.7704 1.22606,0 0.63269,0.6923 -0.92902,1.0838 -1.14811,0.2879 -1.53768,0.5896 -1.44773,1.1211 0.0677,0.4 -0.0732,0.7272 -0.31295,0.7272 -0.52316,0 -3.78949,2.8916 -3.78949,3.3546 0,0.1788 0.6996,-0.032 1.55464,-0.4676 0.85507,-0.4359 1.93892,-0.7798 2.40857,-0.7642 0.81007,0.026 0.80553,0.052 -0.0886,0.4829 -0.51837,0.25 -0.94249,0.6647 -0.94249,0.9216 0,0.2569 -0.47123,1.1606 -1.0472,2.0082 -1.26296,1.8586 -1.34608,2.4047 -0.20944,1.3761 0.8126,-0.7354 0.83776,-0.7316 0.83776,0.1253 0,0.8807 0.007,0.8802 2.19912,-0.1405 1.20952,-0.5632 2.57611,-1.0238 3.03688,-1.0238 0.46645,0 -0.13694,0.4537 -1.36137,1.0238 -2.34,1.0894 -2.88003,1.6681 -1.1519,1.2343 0.64524,-0.1618 1.04719,-0.084 1.04719,0.2015 0,0.2554 -0.27336,0.4643 -0.60747,0.4643 -0.33411,0 -1.30918,0.8394 -2.16681,1.8654 -1.16716,1.3965 -2.65388,2.4095 -5.91125,4.0282 -3.01928,1.5005 -4.28385,2.3401 -4.1297,2.7418 0.1222,0.3184 0.0715,0.9864 -0.11276,1.4845 -0.29809,0.8058 -0.36576,0.8252 -0.61499,0.1757 z M 26.039,1037.5002 c 0.701124,-0.3626 1.199529,-0.7345 1.107566,-0.8265 -0.30497,-0.305 -3.261694,0.68 -3.261694,1.0864 0,0.5768 0.699214,0.4924 2.154128,-0.2599 z m -3.82964,-0.1786 c 0,-0.2305 -0.262581,-0.4189 -0.583502,-0.4189 -0.320931,0 -0.704105,-0.3143 -0.851502,-0.6983 -0.198486,-0.5173 -0.390181,-0.5762 -0.739158,-0.2273 -0.348976,0.349 -0.332103,0.6388 0.06499,1.1173 0.596322,0.7185 2.109134,0.8814 2.109134,0.2272 z m 134.14485,-2.044 c 0.31645,-2.1988 1.44122,-4.9287 1.85873,-4.5113 0.12362,0.1237 -0.21642,1.455 -0.75564,2.9585 -0.72221,2.0138 -0.85715,2.8569 -0.51238,3.2017 0.34476,0.3448 0.71853,0.022 1.4193,-1.2246 0.91397,-1.6261 1.93154,-2.4338 2.43373,-1.9317 0.13109,0.1312 0.009,0.6068 -0.27295,1.0572 -0.46288,0.7412 -0.39707,0.8187 0.69473,0.8187 0.93856,0 2.05407,-0.7983 5.0301,-3.5999 2.10326,-1.9799 3.8241,-3.7706 3.8241,-3.9794 0,-0.2087 -0.32987,-0.3871 -0.73305,-0.3965 -0.40316,-0.01 -1.38777,-0.5766 -2.188,-1.2606 l -1.45496,-1.2435 -0.75417,1.47 c -0.48145,0.9385 -1.05671,1.4701 -1.59088,1.4701 -0.48604,0 -1.03673,0.4389 -1.31388,1.0471 -0.46086,1.0116 -1.34316,1.3816 -1.74469,0.7319 -0.10716,-0.1733 0.10358,-1.0687 0.46834,-1.9896 0.36474,-0.9209 0.701,-2.8996 0.74723,-4.3972 0.0462,-1.4975 0.36306,-3.9479 0.70408,-5.4454 0.37641,-1.653 0.48511,-3.0871 0.27664,-3.6504 -0.19971,-0.5394 -0.17482,-1.0317 0.0595,-1.1766 0.22157,-0.1369 0.40287,-0.7414 0.40287,-1.3432 0,-0.6018 0.2881,-1.4126 0.64022,-1.8017 0.5164,-0.5706 0.54939,-0.9415 0.17061,-1.9179 -0.52967,-1.3653 -0.27186,-5.0076 0.68281,-9.64634 0.44375,-2.15613 0.49675,-3.30238 0.19,-4.10925 -0.53943,-1.41875 -1.25662,-1.00973 -1.29131,0.73642 -0.0248,1.25064 -0.0516,1.27397 -0.41692,0.36304 -0.22239,-0.55481 -0.23568,-1.27571 -0.0308,-1.67552 0.19773,-0.38608 0.47619,-1.46786 0.61883,-2.40404 0.2397,-1.57325 0.12778,-1.84271 -1.47895,-3.56046 l -1.73828,-1.85836 0.35801,1.46607 c 0.1969,0.8064 0.37615,4.48197 0.39832,8.16812 0.0222,3.68616 0.19903,6.95792 0.39305,7.27062 0.26861,0.4328 0.14881,0.5038 -0.5022,0.2971 -0.47023,-0.1493 -0.97336,-0.08 -1.11807,0.1544 -0.14471,0.2341 -1.48297,1.1078 -2.97391,1.9416 -1.49095,0.8338 -2.90301,1.8751 -3.13793,2.314 -0.23491,0.439 -0.77993,0.7982 -1.21115,0.7982 -0.58445,0 -0.97085,0.5939 -1.51796,2.3333 -0.51531,1.6384 -1.14069,2.6436 -2.09963,3.375 -1.16388,0.8878 -1.43895,1.4559 -1.86143,3.8451 -0.27265,1.542 -0.42287,3.369 -0.33383,4.0601 l 0.16188,1.2568 0.73192,-1.653 c 0.86259,-1.9481 2.67517,-4.4209 3.2406,-4.4209 0.68817,0 0.43239,1.0953 -0.4402,1.885 -1.17061,1.0593 -1.10931,2.0254 0.10473,1.6501 0.87174,-0.2695 0.85603,-0.2101 -0.20945,0.7896 -1.25385,1.1765 -1.61141,2.0641 -0.41888,1.0399 0.40317,-0.3462 1.0391,-0.7374 1.41319,-0.8692 0.37408,-0.1318 0.82956,-0.9616 1.01217,-1.8439 l 0.33203,-1.6043 0.25057,1.2567 c 0.21816,1.094 0.59365,0.3992 2.90231,-5.3708 2.50073,-6.2499 3.04382,-8.2333 1.65844,-6.0568 -0.33451,0.5256 -1.14324,2.2302 -1.79718,3.7879 -1.71927,4.0956 -1.72043,3.2248 -0.002,-1.1536 2.06532,-5.2608 2.41166,-5.7193 3.92241,-5.1926 0.91309,0.3183 1.27323,0.7584 1.43996,1.7597 0.12229,0.7345 0.3448,1.9008 0.49446,2.592 0.18107,0.8362 0.14043,1.0696 -0.12145,0.6975 -0.30249,-0.4296 -0.45414,-0.3326 -0.65539,0.4189 -0.14401,0.5379 -0.2644,1.487 -0.26756,2.1091 -0.004,0.6221 -0.31093,1.3019 -0.68399,1.5107 -0.74674,0.4179 -1.93175,5.7526 -1.95169,8.7861 -0.008,1.1133 -0.18603,1.7341 -0.47115,1.6364 -0.56662,-0.194 -0.52627,-1.9844 0.14503,-6.4353 0.76838,-5.0948 0.41386,-5.2945 -1.36713,-0.7707 -0.88029,2.2361 -1.50493,4.1611 -1.3881,4.278 0.11681,0.1167 0.0406,0.6643 -0.16937,1.2165 -0.59826,1.5735 0.17245,3.0954 1.5768,3.1135 l 1.16229,0.015 -1.25664,1.027 c -1.17593,0.961 -1.25968,1.2223 -1.30397,4.069 -0.0261,1.6731 -0.18193,3.3572 -0.34642,3.7423 -0.36676,0.8589 0.47412,2.5542 1.15436,2.3275 0.27196,-0.09 0.6359,-1.1477 0.80878,-2.3489 z m 2.82884,-3.3767 c 0,-0.2169 0.1885,-0.5107 0.41887,-0.6531 0.23039,-0.1424 0.41889,0.035 0.41889,0.3942 0,0.3592 -0.1885,0.653 -0.41889,0.653 -0.23037,0 -0.41887,-0.1774 -0.41887,-0.3941 z m -130.481056,5.0018 c 0.142383,-0.2304 0.05925,-0.419 -0.184718,-0.419 -0.243987,0 -0.443601,0.1886 -0.443601,0.419 0,0.2303 0.08314,0.4189 0.184717,0.4189 0.101593,0 0.301217,-0.1886 0.443602,-0.4189 z m 130.871766,-1.8851 c 8.4e-4,-0.2302 -0.27522,-0.053 -0.61346,0.3943 -0.33827,0.4473 -0.60833,1.107 -0.60017,1.4661 0.0161,0.7109 1.21095,-1.1205 1.21363,-1.8604 z m -80.541791,0.9132 c 0.181622,-0.1817 0.05295,-0.5056 -0.285971,-0.72 -0.454145,-0.2872 -0.258181,-0.3914 0.745167,-0.3961 0.933062,0 1.361361,-0.2057 1.361361,-0.64 0,-0.5234 -0.455404,-0.5921 -2.617998,-0.3953 -1.439895,0.1312 -3.419107,0.2699 -4.398236,0.3084 -1.787818,0.07 -2.047117,0.3753 -1.509605,1.7762 0.227425,0.5926 0.757987,0.6806 3.322855,0.5511 1.67871,-0.085 3.200805,-0.3027 3.382427,-0.4843 z m 16.690788,-0.7036 c 0.150613,-0.2438 -0.266664,-0.419 -0.997761,-0.419 -0.691144,0 -1.373128,0.1886 -1.515512,0.419 -0.150613,0.2436 0.266663,0.4189 0.99776,0.4189 0.691144,0 1.373128,-0.1886 1.515513,-0.4189 z m 8.168153,-1.6756 c 0.85014,-0.2722 0.69248,-0.3338 -0.83775,-0.3276 -1.03674,0 -2.45044,0.1519 -3.141602,0.3276 -1.073719,0.2732 -0.95176,0.3209 0.837762,0.3276 1.15192,0 2.56564,-0.1431 3.14159,-0.3276 z m 80.50173,-0.5095 c -0.30058,-0.3007 -0.49569,-0.3254 -0.49569,-0.063 0,0.238 0.12568,0.5584 0.27927,0.712 0.15357,0.1535 0.37663,0.1819 0.49567,0.063 0.11903,-0.1191 -0.007,-0.4395 -0.27925,-0.712 z m -102.283477,0.09 c 0,-0.2304 -0.188488,-0.4189 -0.418876,-0.4189 -0.230387,0 -0.418885,0.1885 -0.418885,0.4189 0,0.2303 0.188498,0.4189 0.418885,0.4189 0.230388,0 0.418876,-0.1886 0.418876,-0.4189 z m -4.398236,-0.8378 c 0.142384,-0.2304 -0.04609,-0.4189 -0.418876,-0.4189 -0.372772,0 -0.561268,0.1885 -0.418885,0.4189 0.142384,0.2305 0.330882,0.4189 0.418885,0.4189 0.08803,0 0.276491,-0.1884 0.418876,-0.4189 z m 2.368499,-0.5218 c -0.234977,-0.2349 -0.769761,-0.2877 -1.188421,-0.1172 -0.716556,0.2918 -0.71206,0.329 0.07656,0.6316 1.01737,0.3903 1.700577,0.074 1.111853,-0.5144 z m 38.891164,0.1029 c 0,-0.2303 -0.18849,-0.4188 -0.41889,-0.4188 -0.23037,0 -0.41887,0.1885 -0.41887,0.4188 0,0.2304 0.1885,0.4189 0.41887,0.4189 0.2304,0 0.41889,-0.1885 0.41889,-0.4189 z m 6.61785,-0.6826 c -0.46586,-0.4658 -1.03187,-0.595 -1.78241,-0.4066 -1.52554,0.3829 -0.91992,1.0892 0.93392,1.0892 1.41513,0 1.47941,-0.052 0.84849,-0.6826 z m -94.79205,-0.1551 c 0.142384,-0.2304 0.05925,-0.4189 -0.184716,-0.4189 -0.243988,0 -0.443602,0.1885 -0.443602,0.4189 0,0.2304 0.08314,0.4189 0.184716,0.4189 0.101594,0 0.301218,-0.1885 0.443602,-0.4189 z m 60.109255,-0.8703 c 2.419023,-0.4993 5.105096,-0.9987 5.96903,-1.1099 0.916651,-0.118 1.570802,-0.4316 1.570802,-0.7532 0,-0.3032 0.612613,-0.6862 1.361352,-0.8512 l 1.361361,-0.3 -1.884948,-0.5741 c -1.036732,-0.3157 -2.287513,-0.4802 -2.779513,-0.3656 -0.507406,0.1183 -1.118777,-0.062 -1.412648,-0.4157 -0.669306,-0.8066 -1.838493,-0.8242 -1.531116,-0.022 0.175876,0.4584 -0.309804,0.6687 -2.044841,0.8855 -1.251538,0.1562 -2.17228,0.4513 -2.046102,0.6554 0.330704,0.535 -0.950828,0.4569 -1.86461,-0.1137 -0.90149,-0.5631 -2.335441,-0.1634 -1.906153,0.5312 0.203187,0.3288 -0.230643,0.4214 -1.435955,0.3064 -0.949907,-0.09 -1.775836,-0.066 -1.835399,0.055 -0.05954,0.121 -0.81516,0.547 -1.679095,0.9464 -0.863945,0.3994 -1.570804,0.9178 -1.570804,1.1518 0,0.5661 0.555832,0.5402 1.149427,-0.053 0.359708,-0.3598 0.422882,-0.2638 0.253317,0.3846 -0.215621,0.8245 -0.08578,0.8567 2.850869,0.7074 1.692234,-0.086 5.055993,-0.5649 7.475026,-1.0643 z m 63.250855,0.4266 c 0,-0.2167 -0.1885,-0.3941 -0.41889,-0.3941 -0.23037,0 -0.41887,0.2939 -0.41887,0.6531 0,0.3591 0.1885,0.5365 0.41887,0.3942 0.23039,-0.1424 0.41889,-0.4362 0.41889,-0.6532 z m 20.10622,-1.1373 c 0,-1.1186 -1.0481,-0.2297 -1.1614,0.985 -0.10894,1.1678 -0.0849,1.1868 0.52361,0.4112 0.35078,-0.4472 0.63779,-1.0755 0.63779,-1.3962 z m 7.95872,1.3716 c -0.2868,-0.3456 -0.70996,-0.6284 -0.94034,-0.6284 -0.23366,0 -0.18831,0.2779 0.10258,0.6284 0.28681,0.3455 0.70996,0.6283 0.94033,0.6283 0.23367,0 0.18831,-0.2778 -0.10257,-0.6283 z m 2.0944,-0.2095 c 0,-0.2304 -0.18849,-0.4189 -0.41889,-0.4189 -0.23037,0 -0.41887,0.1885 -0.41887,0.4189 0,0.2304 0.1885,0.4189 0.41887,0.4189 0.2304,0 0.41889,-0.1885 0.41889,-0.4189 z m -107.288082,-0.6673 c 0.08502,-0.071 -0.17359,-0.4588 -0.5747,-0.8598 -0.693128,-0.6932 -0.757901,-0.6902 -1.306511,0.06 -0.863455,1.1808 -0.70496,1.5136 0.5747,1.2066 0.633556,-0.1519 1.221489,-0.335 1.306511,-0.4069 z m 50.110982,0.2484 c 0.14239,-0.2304 0.0592,-0.4188 -0.18471,-0.4188 -0.24398,0 -0.44361,0.1884 -0.44361,0.4188 0,0.2304 0.0831,0.4189 0.18472,0.4189 0.1016,0 0.30122,-0.1885 0.4436,-0.4189 z m -109.349558,-1.6997 c -1.156923,-1.2784 -1.61941,-0.95 -0.533524,0.3788 0.535885,0.6558 1.040808,1.0218 1.12205,0.8135 0.08126,-0.2084 -0.183598,-0.7449 -0.588526,-1.1923 z m 162.473318,0.9666 c 0.1017,-0.1728 0.3163,-0.9267 0.47689,-1.6755 0.36782,-1.7149 -0.44089,-1.8343 -1.90069,-0.2803 -0.99483,1.0589 -0.99895,1.0931 -0.2024,1.6755 0.91179,0.6667 1.35396,0.743 1.6262,0.2803 z m -42.02344,-1.4107 c 0,-0.2305 -0.18849,-0.3024 -0.41888,-0.16 -0.23038,0.1424 -0.41887,0.4474 -0.41887,0.6777 0,0.2305 0.18849,0.3024 0.41887,0.16 0.23039,-0.1424 0.41888,-0.4473 0.41888,-0.6777 z m -59.899815,0.05 c 0,-0.2305 -0.08314,-0.4189 -0.184716,-0.4189 -0.101595,0 -0.301218,0.1884 -0.443602,0.4189 -0.142385,0.2303 -0.05925,0.4187 0.184716,0.4187 0.243988,0 0.443602,-0.1884 0.443602,-0.4187 z m 94.014765,-0.5122 c 0.80146,-1.1442 0.8517,-4.0813 0.0876,-5.1261 -0.81251,-1.1112 -1.18942,-0.2766 -1.43688,3.1821 -0.21928,3.0648 0.17063,3.6267 1.34919,1.944 z m -0.60457,-1.5328 c 0,-0.2305 0.1885,-0.5354 0.41889,-0.6778 0.23038,-0.1424 0.41887,-0.07 0.41887,0.16 0,0.2304 -0.18849,0.5354 -0.41887,0.6778 -0.23039,0.1424 -0.41889,0.07 -0.41889,-0.16 z m 4.64309,-0.2338 c 1.36459,-2.0034 1.8604,-1.8896 0.80235,0.1843 -0.47013,0.9216 -0.74354,1.6756 -0.60758,1.6756 0.668,0 3.95862,-2.632 3.95862,-3.1663 0,-0.337 -0.27552,-2.3543 -0.61227,-4.4828 -0.68462,-4.3274 -1.42575,-13.6935 -1.52434,-19.264 -0.0698,-3.94159 -0.27187,-4.22007 -2.05219,-2.82741 -1.42144,1.11186 -2.46291,1.04272 -3.81564,-0.25319 -1.10018,-1.0541 -1.2429,-1.07899 -4.21172,-0.73304 l -3.07295,0.35782 -0.36801,2.58454 c -0.2024,1.42148 -0.22425,3.11798 -0.0486,3.76988 l 0.31941,1.1855 0.37897,-1.3777 c 0.23145,-0.8415 0.79026,-1.5652 1.43556,-1.8592 0.82304,-0.375 1.00286,-0.6954 0.81356,-1.4496 -0.28348,-1.12949 0.12458,-1.2308 1.26367,-0.31371 0.57671,0.46421 0.66087,0.71801 0.28949,0.87261 -0.61618,0.2566 -0.7044,0.986 -0.11926,0.986 0.22239,0 1.29602,0.5655 2.38584,1.2566 2.35724,1.495 2.49053,1.513 2.78766,0.3768 0.29571,-1.1308 1.12425,-0.636 1.12425,0.6714 0,0.5572 0.41156,1.2871 0.93096,1.6508 l 0.93096,0.652 -1.03568,0.03 c -1.33544,0.039 -3.63579,2.6684 -3.00225,3.4318 0.61028,0.7354 0.77468,5.4524 0.19675,5.645 -0.25502,0.085 -0.54669,-0.1857 -0.64816,-0.6016 -0.10146,-0.416 -0.17596,-0.096 -0.16555,0.7099 0.0104,0.8063 -0.14362,1.8286 -0.34229,2.2718 -0.2947,0.6573 -0.22919,0.755 0.35567,0.5307 0.44595,-0.1711 0.807,-0.041 0.9553,0.3461 0.31768,0.8279 1.78208,0.7894 2.73379,-0.073 0.91339,-0.8266 0.9923,-0.2695 0.12438,0.878 -0.70837,0.9366 -0.81314,2.5755 -0.18929,2.961 0.61197,0.3783 0.0208,1.1432 -0.67669,0.8756 -0.6606,-0.2536 -1.64745,1.0669 -2.06393,2.7615 -0.61671,2.5095 0.98388,2.3562 2.76918,-0.2649 z m -2.54868,-16.9898 c 0,-0.2303 0.19961,-0.4188 0.4436,-0.4188 0.24397,0 0.3271,0.1885 0.18471,0.4188 -0.14238,0.2304 -0.342,0.4189 -0.44359,0.4189 -0.1016,0 -0.18472,-0.1885 -0.18472,-0.4189 z m 2.51327,-5.8643 c 0,-0.2304 0.19963,-0.4189 0.4436,-0.4189 0.24399,0 0.32711,0.1885 0.18472,0.4189 -0.14238,0.2304 -0.34201,0.4189 -0.44361,0.4189 -0.10159,0 -0.18471,-0.1885 -0.18471,-0.4189 z m -3.35103,-1.6755 c -0.53697,-0.347 -0.52174,-0.4069 0.10471,-0.4124 0.40317,0 0.73305,0.182 0.73305,0.4124 0,0.5109 -0.0473,0.5109 -0.83776,0 z m -19.06439,25.9792 c 0.36235,-0.5862 -0.62202,-2.2716 -1.06693,-1.8266 -0.42418,0.4242 -0.0448,2.2369 0.46809,2.2369 0.18993,0 0.4594,-0.1847 0.59884,-0.4103 z m -11.09496,-0.4276 c 0,-0.2303 -0.18849,-0.4187 -0.41888,-0.4187 -0.23039,0 -0.41888,0.1884 -0.41888,0.4187 0,0.2305 0.18849,0.4189 0.41888,0.4189 0.23039,0 0.41888,-0.1884 0.41888,-0.4189 z m -7.74745,-0.4218 c 0.14339,-0.2321 -0.0421,-0.5379 -0.41223,-0.6801 -0.802,-0.3077 -1.24898,0.031 -0.86346,0.6552 0.34783,0.5628 0.93615,0.5744 1.27569,0.025 z m -111.100559,-1.7773 c -1.56282,-2.6374 -1.993894,-3.2463 -2.298648,-3.2463 -0.435015,0 0.370759,1.9801 1.385994,3.4058 1.174784,1.6498 1.90874,1.5216 0.912654,-0.1595 z m 123.036809,0.3142 c 0,-0.3183 -0.18851,-0.6953 -0.41888,-0.8378 -0.23851,-0.1474 -0.41889,0.2134 -0.41889,0.8378 0,0.6244 0.18038,0.9852 0.41889,0.8377 0.23037,-0.1423 0.41888,-0.5193 0.41888,-0.8377 z m 1.79689,0.2094 c 0.12048,-0.4608 0.0482,-0.8377 -0.16059,-0.8377 -0.20881,0 -0.37967,0.3769 -0.37967,0.8377 0,0.4608 0.0722,0.8378 0.16059,0.8378 0.0883,0 0.25917,-0.377 0.37967,-0.8378 z m 43.44212,0 c 0,-0.4608 -0.18849,-0.8377 -0.41888,-0.8377 -0.23038,0 -0.41888,0.3769 -0.41888,0.8377 0,0.4608 0.1885,0.8378 0.41888,0.8378 0.23039,0 0.41888,-0.377 0.41888,-0.8378 z M 30.79639,1024.755 c -0.800423,-0.8845 -1.884955,-1.1255 -1.884955,-0.4189 0,0.2303 0.282747,0.4189 0.628319,0.4189 0.345572,0 0.628318,0.1885 0.628318,0.4188 0,0.2305 0.311958,0.4189 0.693241,0.4189 0.623428,0 0.616891,-0.085 -0.06489,-0.8377 z m 136.76425,0.4188 c 0,-0.2303 -0.19961,-0.4188 -0.44359,-0.4188 -0.24399,0 -0.3271,0.1885 -0.18472,0.4188 0.14238,0.2305 0.342,0.4189 0.4436,0.4189 0.1016,0 0.18471,-0.1884 0.18471,-0.4189 z m -152.557854,-1.9085 c -0.26498,-0.9085 -0.550228,-1.3543 -0.633867,-0.9907 -0.165662,0.7205 0.626465,3.1319 0.92929,2.829 0.102498,-0.1024 -0.03047,-0.9296 -0.295423,-1.8383 z m 66.478059,1.2782 c 2.30384,-0.3302 7.393228,-0.8835 11.309753,-1.2296 3.916525,-0.3463 7.780692,-0.8203 8.587042,-1.0535 0.80634,-0.2332 1.93732,-0.5102 2.51327,-0.6158 0.57597,-0.1055 -3.00546,-0.083 -7.958712,0.052 -15.029458,0.4059 -16.455432,0.3899 -16.649159,-0.1872 -0.09664,-0.2879 0.169846,-0.6359 0.592174,-0.7732 0.422327,-0.1374 1.050617,-0.3395 1.396189,-0.4491 0.529028,-0.1677 0.50971,-0.2864 -0.12221,-0.7518 -0.655057,-0.4823 -0.308694,-0.6114 2.722715,-1.014 1.910291,-0.2538 5.323389,-0.6535 7.584671,-0.8884 l 4.111408,-0.4271 1.235155,1.2352 c 1.742281,1.7423 2.347835,1.8317 6.354769,0.939 2.30053,-0.5127 3.79626,-0.6582 4.23583,-0.4122 1.09024,0.6101 7.42472,1.6056 8.49981,1.3358 0.68827,-0.1728 0.98264,-0.5468 0.98264,-1.2484 0,-0.9463 0.14073,-1.0018 2.538,-1.0018 1.78478,0 2.4509,-0.141 2.24452,-0.4749 -0.19501,-0.3155 -1.29241,-0.404 -3.27103,-0.2637 -3.58797,0.2544 -4.02477,0.1262 -4.02477,-1.1812 0,-0.7678 -0.22766,-1.0146 -0.94248,-1.0217 -0.51836,-0.01 -1.39588,-0.3579 -1.95004,-0.784 -0.98744,-0.759 -1.04603,-0.7548 -2.93216,0.2128 -1.8169,0.9322 -2.13556,0.9646 -5.69452,0.582 -5.799225,-0.6236 -11.1973,-0.4998 -18.261247,0.4188 -7.75446,1.0085 -9.533814,1.4969 -9.835708,2.6999 -0.122192,0.4867 -0.164975,2.1046 -0.09507,3.5948 l 0.127092,2.7098 0.748345,-1.2565 c 0.668714,-1.1231 0.718316,-1.1453 0.466118,-0.2096 -0.155222,0.576 -0.370778,1.2828 -0.479003,1.5708 -0.250937,0.6678 0.677545,0.6512 5.966615,-0.1067 z m 58.014865,-0.2569 c 0,-0.2303 -0.18851,-0.3023 -0.41888,-0.16 -0.23039,0.1425 -0.41889,0.4475 -0.41889,0.6778 0,0.2304 0.1885,0.3024 0.41889,0.16 0.23037,-0.1424 0.41888,-0.4474 0.41888,-0.6778 z m 3.76991,0.4684 c 0,-0.2304 -0.1885,-0.4189 -0.41888,-0.4189 -0.23039,0 -0.41888,0.1885 -0.41888,0.4189 0,0.2303 0.18849,0.4188 0.41888,0.4188 0.23038,0 0.41888,-0.1885 0.41888,-0.4188 z m -104.262957,-0.8853 c 4.774639,-0.6323 5.779885,-1.3346 1.469483,-1.0266 -1.820228,0.1299 -4.717878,0.2363 -6.439212,0.2363 -2.734442,0 -3.063828,0.079 -2.608226,0.6284 0.627725,0.7563 2.746905,0.8016 7.577955,0.1619 z m 97.290887,-0.4886 c 0.28234,-1.125 -0.0878,-2.8149 -0.61663,-2.8149 -0.20351,0 -0.37002,0.451 -0.37002,1.0023 0,0.5514 -0.28274,1.111 -0.62832,1.2436 -1.02597,0.3936 -0.74899,1.524 0.37347,1.524 0.69348,0 1.07557,-0.2939 1.2415,-0.955 z m 29.18389,-0.9638 c 0.27015,-0.8186 0.38062,-1.5989 0.24549,-1.7341 -0.25525,-0.2552 -1.51333,2.4426 -1.51333,3.2453 0,0.8901 0.78352,-0.043 1.26784,-1.5112 z m 25.20724,-7.4646 c -0.11744,-0.2078 -0.4675,-0.03 -0.7779,0.3941 -0.70642,0.966 -0.72307,3.6415 -0.0408,6.5487 l 0.52361,2.2311 0.25433,-4.3982 c 0.13987,-2.419 0.15821,-4.5682 0.0408,-4.7757 z m -163.055904,8.1517 c 0.500558,-0.3167 0.410119,-0.6584 -0.535443,-2.0229 -0.685812,-0.9895 -1.032042,-1.9172 -0.871647,-2.3351 0.329037,-0.8575 0.188111,-0.859 -1.909455,-0.019 -1.810362,0.7243 -1.939993,0.9801 -1.211285,2.3906 1.157958,2.2413 2.910536,3.0104 4.52783,1.9871 z m 115.920124,-0.9674 0.72369,-1.3614 0.24693,1.2566 c 0.22969,1.169 0.2784,1.1982 0.69801,0.4189 0.64999,-1.2071 1.06816,-3.8756 0.64803,-4.1352 -0.3491,-0.2157 -3.24088,3.3443 -3.71041,4.5679 -0.46197,1.2039 0.68288,0.5904 1.39375,-0.7468 z m 20.35649,-0.9199 c 0.48054,-1.2941 0.64948,-2.5023 0.47785,-3.4172 -0.30626,-1.6324 -1.01139,-1.5025 -1.01139,0.1864 0,0.6274 -0.25698,2.1314 -0.57107,3.3423 -0.72869,2.809 0.0494,2.7307 1.10461,-0.1115 z m 5.9591,1.8623 c 0.14238,-0.2303 0.0592,-0.4188 -0.18472,-0.4188 -0.24399,0 -0.4436,0.1885 -0.4436,0.4188 0,0.2304 0.0831,0.4189 0.18472,0.4189 0.10159,0 0.30121,-0.1885 0.4436,-0.4189 z m -62.20365,-0.4188 c 0,-0.2305 -0.0831,-0.4189 -0.18473,-0.4189 -0.10159,0 -0.30121,0.1884 -0.44361,0.4189 -0.14237,0.2303 -0.0592,0.4188 0.18474,0.4188 0.24397,0 0.4436,-0.1885 0.4436,-0.4188 z m 33.798,-1.6266 c 1.07322,-2.1024 0.92656,-2.7679 -0.73777,-3.348 -1.09393,-0.3815 -1.2458,-0.3259 -1.46192,0.5353 -0.18848,0.7508 -0.46355,0.9183 -1.25895,0.7663 -1.14178,-0.2183 -1.2173,0.043 -0.55809,1.9344 0.50105,1.4373 1.212,1.3987 1.22225,-0.067 0.006,-0.7461 0.0824,-0.8003 0.41247,-0.2895 0.22332,0.3457 0.40893,1.0681 0.41246,1.6057 0.01,1.4506 0.91525,0.9274 1.96955,-1.1379 z m 33.21635,-0.1537 c 0.004,-0.4031 -0.18208,-0.733 -0.41247,-0.733 -0.23038,0 -0.416,0.6126 -0.41247,1.3613 0.005,1.0331 0.10434,1.2099 0.41247,0.7331 0.22334,-0.3456 0.40894,-0.9582 0.41247,-1.3614 z m -145.315497,-1.7029 c -0.463832,-1.22 -1.286018,-1.5239 -1.286018,-0.4754 0,0.3571 0.324477,1.2524 0.721052,1.9897 0.628535,1.1686 0.738471,1.2295 0.856769,0.4754 0.07467,-0.4759 -0.05672,-1.3712 -0.291803,-1.9897 z m 51.492833,2.2265 c 0,-0.2304 -0.293871,-0.4188 -0.653043,-0.4188 -0.359172,0 -0.536543,0.1884 -0.394159,0.4188 0.142393,0.2304 0.436256,0.4189 0.653043,0.4189 0.216789,0 0.394159,-0.1885 0.394159,-0.4189 z m 87.285494,-0.733 c -0.39452,-1.6445 -0.57738,-1.6997 -0.57738,-0.1745 0,0.7295 0.19209,1.3264 0.42686,1.3264 0.25341,0 0.31457,-0.4681 0.15052,-1.1519 z m 5.05961,0.3431 c 0.13256,-0.2145 0.0494,-0.5083 -0.18471,-0.6531 -0.23415,-0.1447 -0.42572,0.031 -0.42572,0.39 0,0.7359 0.25135,0.8441 0.61043,0.2631 z m -61.97632,-0.4478 c -0.14238,-0.2304 -1.38986,-0.4189 -2.77216,-0.4189 -1.56885,0 -2.416,0.1574 -2.25439,0.4189 0.14238,0.2304 1.38985,0.4189 2.77216,0.4189 1.56884,0 2.41599,-0.1574 2.25439,-0.4189 z m -40.526617,-1.7175 c 1.455516,-0.7045 2.617998,-1.5415 2.617998,-1.8851 0,-1.0741 -3.174198,-0.3728 -5.333979,1.1786 -3.862126,2.7742 -2.362057,3.1644 2.715981,0.7065 z m 73.579607,-0.1675 c 0.66939,-1.0216 0.66033,-1.0472 -0.37071,-1.0472 -0.84806,0 -1.05685,0.2069 -1.05685,1.0472 0,0.5759 0.16682,1.0472 0.3707,1.0472 0.20389,0 0.67947,-0.4713 1.05686,-1.0472 z m -119.500052,-0.8696 c 0.66844,-0.4132 0.381133,-1.0154 -0.48442,-1.0154 -0.797412,0 -5.012625,1.9121 -5.012625,2.2738 0,0.2009 4.980572,-0.9392 5.497045,-1.2584 z m 146.779942,-2.1767 c -0.17685,-0.4608 -0.38236,-0.523 -0.69504,-0.2103 -0.31269,0.3127 -0.30863,0.6968 0.0137,1.2991 0.25171,0.4705 0.48936,1.2918 0.5281,1.8253 0.0388,0.5335 0.14552,0.2433 0.23734,-0.6449 0.0918,-0.8882 0.054,-1.9092 -0.0842,-2.2692 z m -36.62746,2.6274 c -0.003,-0.2304 -0.38998,-0.4791 -0.85987,-0.5526 -0.84245,-0.1322 -1.13338,0.3434 -0.56062,0.9162 0.4073,0.4073 1.42724,0.1462 1.42049,-0.3636 z m 32.39841,-3.9549 c 0.57125,-3.532 0.58915,-4.7115 0.0634,-4.1783 -0.29223,0.2964 -1.5034,6.5644 -1.5034,7.7805 0,2.3202 0.80976,0.2946 1.44002,-3.6022 z m -29.7144,3.7455 c 0.14239,-0.2304 -0.0461,-0.4189 -0.41888,-0.4189 -0.37277,0 -0.56127,0.1885 -0.41889,0.4189 0.1424,0.2304 0.33088,0.4188 0.41889,0.4188 0.088,0 0.27649,-0.1884 0.41888,-0.4188 z M 20.324397,1017.634 c 0.142383,-0.2304 -0.03498,-0.4188 -0.394159,-0.4188 -0.359172,0 -0.653035,0.1884 -0.653035,0.4188 0,0.2305 0.177362,0.4189 0.39415,0.4189 0.216787,0 0.51066,-0.1884 0.653044,-0.4189 z m 0.295217,-1.6296 c 0.437357,0.2341 1.209592,0.3666 1.716067,0.2945 0.82559,-0.1174 0.764061,-0.2285 -0.594649,-1.0734 -2.058638,-1.2803 -2.882714,-1.2264 -2.882714,0.1884 0,0.8542 0.118232,1.0128 0.483047,0.648 0.338527,-0.3385 0.720977,-0.3558 1.278249,-0.057 z m -2.727653,-1.6087 c -0.106212,-0.4076 -0.200085,-0.1756 -0.208624,0.5156 -0.0085,0.6912 0.07834,1.0247 0.193096,0.741 0.114742,-0.2836 0.12173,-0.849 0.01552,-1.2566 z m 177.475789,-1.0477 c 1.25252,-1.6003 0.79072,-2.6092 -0.6129,-1.339 -0.82029,0.7423 -2.06141,2.7383 -2.06141,3.3151 0,0.5391 1.67383,-0.6977 2.67431,-1.9761 z m -25.71271,1.3539 c 0,-0.2305 -0.0831,-0.4189 -0.18471,-0.4189 -0.1016,0 -0.30122,0.1884 -0.44361,0.4189 -0.14237,0.2303 -0.0592,0.4188 0.18473,0.4188 0.24397,0 0.44359,-0.1885 0.44359,-0.4188 z m -146.621247,-0.3143 c -0.02314,-0.5464 -0.986304,-1.568 -2.44263,-2.5908 -1.624254,-1.1408 -2.403853,-2.7574 -2.811498,-5.8305 -0.34529,-2.6029 -0.823372,-3.0841 -1.137954,-1.1457 -0.324683,2.0008 0.292575,4.3081 1.681118,6.2837 1.530757,2.178 4.759514,4.4283 4.710964,3.2833 z m 85.045917,-0.4786 c 0,-1.0903 -1.09605,-1.4138 -2.75604,-0.8135 -1.06674,0.3857 -1.64209,0.3887 -2.466,0.013 -0.70177,-0.3198 -2.19862,-0.3996 -4.314202,-0.23 -4.934991,0.3956 -5.105825,0.9533 -0.30743,1.0034 2.303832,0.023 5.037032,0.1948 6.073752,0.3792 3.21033,0.5713 3.76992,0.519 3.76992,-0.3526 z m 19.26848,0.374 c 0,-0.2304 -0.28275,-0.419 -0.62833,-0.419 -0.34557,0 -0.62832,0.1886 -0.62832,0.419 0,0.2304 0.28275,0.4189 0.62832,0.4189 0.34558,0 0.62833,-0.1885 0.62833,-0.4189 z m 39.06322,-2.3294 c 0.24466,-1.2799 -0.29853,-0.8343 -0.73352,0.6017 -0.18764,0.6193 -0.14524,0.8983 0.11234,0.7392 0.22757,-0.1407 0.50709,-0.7442 0.62118,-1.3409 z m -66.2904,-0.01 c 0.69113,-0.1335 1.25663,-0.4096 1.25663,-0.6135 0,-0.5904 -1.499093,-1.2335 -3.009346,-1.2912 -2.479707,-0.094 6.038416,-1.2307 9.920866,-1.3232 2.26174,-0.053 3.72736,-0.2574 3.66356,-0.5089 -0.0657,-0.2586 -2.83988,-0.4187 -7.25642,-0.4187 l -7.150049,0 -1.214645,1.466 c -1.411623,1.7038 -1.516331,2.307 -0.504124,2.9041 0.690402,0.4071 1.208717,0.3812 4.293528,-0.2146 z m 20.10621,0.01 c 0,-0.3592 -0.18849,-0.5365 -0.41887,-0.3942 -0.23039,0.1424 -0.41888,0.4362 -0.41888,0.653 0,0.2168 0.18849,0.3942 0.41888,0.3942 0.23038,0 0.41887,-0.2939 0.41887,-0.653 z m -10.06712,-0.6851 c 0.53876,-0.5783 0.70931,-1.0663 0.45985,-1.3157 -0.68078,-0.6809 -4.36858,-0.8129 -6.9655,-0.2494 -2.48195,0.5383 -2.48371,0.5399 -1.02018,0.8473 0.80635,0.1693 2.31432,0.5943 3.35104,0.9444 2.57983,0.8712 3.18249,0.8386 4.17479,-0.2266 z m 5.55021,-0.4142 c -0.63985,-0.6399 -1.11198,-0.1677 -0.75709,0.7571 0.20953,0.546 0.39119,0.6001 0.76384,0.2275 0.37265,-0.3727 0.37105,-0.6068 -0.007,-0.9846 z m -0.26014,-0.9436 c 1.82142,-1.6489 1.96176,-1.8933 1.24514,-2.1682 -0.62441,-0.2396 -1.15984,0.087 -2.35997,1.4393 -0.85378,0.9621 -1.90371,1.7681 -2.33318,1.791 -0.58199,0.031 -0.51416,0.1272 0.26635,0.3772 0.57597,0.1844 1.06558,0.3541 1.08804,0.3771 0.0225,0.022 0.9646,-0.7944 2.09362,-1.8164 z m -104.741167,-0.1726 c -0.661575,-0.6477 -0.672381,-0.6153 -0.16918,0.5074 0.29565,0.6598 0.613675,0.9711 0.70672,0.6919 0.09301,-0.279 -0.148846,-0.8189 -0.53754,-1.1993 z m 3.795894,-0.3073 c -0.139844,-0.3645 -0.254258,-0.7527 -0.254258,-0.8625 0,-0.1099 -0.180267,-0.089 -0.400582,0.048 -0.48631,0.3006 -0.09582,1.4775 0.490213,1.4775 0.230379,0 0.304463,-0.2982 0.164627,-0.6627 z m 99.020253,-0.6188 c 0,-0.2168 -0.1885,-0.3941 -0.41887,-0.3941 -0.2304,0 -0.41889,0.2938 -0.41889,0.653 0,0.3591 0.18849,0.5365 0.41889,0.3941 0.23037,-0.1424 0.41887,-0.4362 0.41887,-0.653 z m 57.80542,-1.2567 c 0,-0.4471 -0.1885,-0.813 -0.41889,-0.813 -0.23038,0 -0.41887,0.4824 -0.41887,1.0719 0,0.6079 0.18131,0.9599 0.41887,0.813 0.23039,-0.1423 0.41889,-0.6247 0.41889,-1.0719 z m -157.236337,-2.3859 c -0.34436,-0.6658 -0.921287,-1.4558 -1.282059,-1.755 -1.177605,-0.9774 -0.787171,1.6113 0.495989,3.2886 1.053335,1.3767 1.163055,1.4272 1.282058,0.5913 0.07157,-0.5027 -0.15162,-1.4589 -0.495988,-2.1249 z m 159.583797,1.2675 c -0.4258,-0.4257 -0.77712,0.2153 -0.42776,0.7806 0.26391,0.4271 0.36258,0.4274 0.50445,0 0.097,-0.291 0.0625,-0.6431 -0.0766,-0.7822 z m -65.90447,0.3055 c 3.44224,0 4.09667,-0.099 3.71346,-0.5605 -0.72311,-0.8713 -3.25237,-1.4597 -7.60759,-1.7697 -4.284393,-0.3051 -4.586572,-0.1968 -5.222035,1.8713 l -0.309481,1.0073 2.623506,-0.2743 c 1.44292,-0.1507 4.5039,-0.2741 6.80214,-0.2741 z m 26.90502,-0.4188 c 0.14238,-0.2305 0.027,-0.419 -0.25645,-0.419 -0.28344,0 -0.81293,-0.2552 -1.17664,-0.5673 -0.68924,-0.5913 -13.69873,-1.824 -14.17921,-1.3435 -0.95444,0.9544 3.44179,2.1594 4.75037,1.302 0.75781,-0.4965 0.92795,-0.4696 1.35425,0.2129 0.39829,0.6377 1.12164,0.8066 3.95042,0.9219 1.90458,0.078 3.87585,0.1796 4.38063,0.2266 0.50476,0.047 1.03425,-0.1034 1.17663,-0.3336 z m -17.07396,-1.7844 c 0.8965,-0.6995 0.13329,-1.1488 -1.90508,-1.1213 -1.60163,0.021 -1.79068,0.096 -1.02247,0.4053 1.45975,0.5868 1.13283,0.7201 -1.21322,0.4947 -1.55078,-0.149 -2.07278,-0.073 -1.86023,0.2709 0.16249,0.2631 0.66132,0.4781 1.1085,0.4781 0.44716,0 0.81303,0.1684 0.81303,0.3744 0,0.4339 3.30352,-0.2965 4.07947,-0.9021 z m -107.542774,-0.1845 c 0,-0.8422 -0.1210907,-1.0098 -0.4745068,-0.6564 -0.2609732,0.261 -0.3611376,0.77 -0.2225815,1.1309 0.383456,0.9994 0.6970883,0.7858 0.6970883,-0.4745 z m 148.593754,-1.2918 c 1.49736,-0.9582 1.9159,-3.41969 1.65346,-9.72465 -0.2662,-6.39505 -1.05238,-9.83225 -1.10179,-4.81707 -0.0276,2.80514 -0.47616,5.31836 -1.2708,7.12086 -1.69901,3.85405 -2.53703,7.59606 -1.85406,8.27886 0.29743,0.2976 1.27845,-0.03 2.57319,-0.858 z m -17.48438,-0.1398 c 0,-0.2304 -0.1885,-0.3024 -0.41888,-0.1601 -0.23038,0.1425 -0.41888,0.4475 -0.41888,0.6778 0,0.2304 0.1885,0.3024 0.41888,0.1601 0.23038,-0.1425 0.41888,-0.4475 0.41888,-0.6778 z m -37.92957,0.085 c -0.36972,-0.3563 -2.37051,-0.6382 -3.330092,-0.469 -0.761836,0.1343 1.233192,0.7932 2.492342,0.8233 0.75788,0.018 1.08182,-0.119 0.83775,-0.3543 z m 28.17513,-1.606 c 1.72918,-1.92486 9.7709,-13.63198 9.52959,-13.87332 -0.0956,-0.0956 -0.49333,0.0884 -0.88388,0.40951 -0.39055,0.32081 0.16946,-0.61435 1.24447,-2.07797 1.07502,-1.46372 1.85464,-2.82305 1.73248,-3.02074 -0.39211,-0.63447 -9.33383,-3.32395 -11.05112,-3.32395 -0.91219,0 -1.77589,-0.18989 -1.91933,-0.42192 -0.48802,-0.78965 -3.50727,-2.03244 -3.69393,-1.52042 -0.0955,0.26193 -0.40702,-0.0894 -0.69222,-0.78035 -0.2852,-0.69118 -0.65788,-1.53943 -0.82819,-1.88497 -0.70649,-1.43363 -8.06794,-2.3004 -8.56374,-1.00832 -0.14081,0.36698 -0.48394,2.48755 -0.76252,4.71243 -0.27858,2.22487 -0.57702,3.70147 -0.6632,3.28135 -0.0981,-0.47816 -0.39075,-0.67398 -0.78262,-0.52359 -0.34426,0.13214 -0.76864,0.24021 -0.94306,0.24021 -0.29105,0 -0.7858,2.97823 -1.67006,10.0531 -0.18718,1.49747 -0.28696,3.38245 -0.22174,4.18875 0.0651,0.80638 0.13307,1.79601 0.1508,2.19914 0.0552,1.25449 0.74851,0.81374 2.05197,-1.30467 1.81096,-2.94319 3.96726,-9.04208 5.54212,-15.67542 0.75412,-3.17629 1.52854,-5.61777 1.72093,-5.42534 0.41553,0.41552 -2.81706,12.6575 -4.64754,17.60041 -0.7063,1.90727 -1.2842,3.80411 -1.2842,4.21511 0,0.4111 -0.56549,1.28911 -1.25664,1.95126 -1.32386,1.26841 -1.67269,2.72271 -0.65305,2.72271 0.33199,0 0.72832,-0.2018 0.88075,-0.4483 0.16789,-0.2718 0.89997,-0.3434 1.85699,-0.1817 l 1.57983,0.2669 0.52452,-2.77975 c 0.28848,-1.52889 0.4111,-3.60713 0.2725,-4.61846 -0.20062,-1.46372 -0.13373,-1.79328 0.3281,-1.61608 0.35505,0.13628 0.69634,-0.15472 0.8797,-0.75006 0.79063,-2.56737 4.48972,-11.68789 4.66801,-11.50956 0.11138,0.11135 -0.0317,0.64011 -0.31802,1.17507 -0.2863,0.53496 -0.53719,2.01194 -0.55753,3.2822 -0.0258,1.60922 -0.19577,2.27783 -0.5606,2.20483 -0.7268,-0.1453 -0.65483,0.82935 0.13326,1.80494 0.62806,0.77743 0.6459,0.76191 0.40706,-0.3541 -0.21197,-0.99045 -0.0719,-1.24411 0.92501,-1.67552 0.72384,-0.31319 1.12256,-0.76896 1.03873,-1.18721 -0.0793,-0.39548 0.20759,-0.76877 0.68718,-0.89414 0.45279,-0.11841 1.22697,-0.9439 1.7204,-1.83438 0.49345,-0.89057 0.77864,-1.24222 0.63378,-0.78137 -0.14486,0.46076 -0.37588,1.40324 -0.51341,2.09433 -0.13749,0.69118 -0.62293,1.76412 -1.07871,2.38438 -0.73044,0.99393 -0.76512,1.28117 -0.29244,2.42229 0.5214,1.25878 0.55953,1.27402 1.37683,0.54785 0.82247,-0.73077 0.82811,-0.72655 0.26161,0.19563 -0.71941,1.17112 -1.64081,1.21683 -1.93393,0.096 -0.31809,-1.21646 -1.15775,-0.39897 -2.67254,2.60169 -1.50132,2.97409 -1.8963,3.17338 -0.73068,0.36859 l 0.85819,-2.06504 -0.87699,-0.94127 c -1.01047,-1.0846 -1.73005,-0.73237 -0.9747,0.47712 0.73085,1.17024 0.63231,1.63909 -0.43473,2.06796 -0.51837,0.20833 -0.70686,0.39079 -0.41889,0.40536 0.28798,0.0151 0.52361,0.20908 0.52361,0.43226 0,0.22319 -0.25366,0.3084 -0.56368,0.18943 -0.39364,-0.15105 -0.83373,0.64265 -1.45888,2.63114 -1.55966,4.9609 -1.58202,5.4157 -0.28243,5.742 0.63305,0.1588 1.36886,0.084 1.676,-0.1713 0.39779,-0.3302 0.59327,-0.317 0.71483,0.047 0.19736,0.5921 2.90265,1.0827 6.37414,1.1562 2.3636,0.05 2.54718,-0.021 3.89181,-1.5185 z m -12.02731,-2.19915 c 0.47013,-0.92157 0.94904,-1.67551 1.06422,-1.67551 0.1152,0 -0.17521,0.75394 -0.64534,1.67551 -0.47013,0.92145 -0.94903,1.67555 -1.06422,1.67555 -0.1152,0 0.1752,-0.7541 0.64534,-1.67555 z m 5.74137,-1.18915 c 1.61987,-3.01561 12.08371,-14.8931 12.75508,-14.47814 0.21441,0.13252 0.71145,0.0103 1.10453,-0.27115 0.39308,-0.28169 -0.0111,0.12621 -0.89826,0.90637 -0.88712,0.78015 -2.77353,2.54953 -4.19205,3.93181 -2.2412,2.18405 -3.64901,3.84317 -8.55985,10.08807 l -0.9607,1.22163 0.75125,-1.39859 z m -1.78065,-1.95243 c 0.60389,-1.15196 1.48314,-2.56564 1.95391,-3.14161 0.58803,-0.7194 0.48468,-0.35871 -0.33024,1.15251 -0.65238,1.20977 -1.53163,2.62354 -1.95389,3.1416 -0.46962,0.5761 -0.34139,0.12863 0.33022,-1.1525 z m 5.41188,-8.37759 c 0.33916,-0.69109 0.9229,-1.63357 1.29718,-2.09443 0.63639,-0.78335 0.64054,-0.75616 0.0639,0.41891 -0.33917,0.69118 -0.92291,1.63367 -1.29719,2.09443 -0.63639,0.78344 -0.64054,0.75626 -0.0639,-0.41891 z m -27.88708,13.52972 c 0.6989,-0.6988 0.62842,-1.59167 -0.12567,-1.59167 -0.73858,0 -2.345536,1.49417 -1.989685,1.85017 0.413938,0.4139 1.586255,0.2707 2.115355,-0.2585 z m 41.31967,-0.4283 c 0.99832,-1.42522 0.7758,-1.84449 -0.39512,-0.7445 -0.57596,0.5411 -1.0472,1.1395 -1.0472,1.3298 0,0.662 0.79454,0.3397 1.44232,-0.5853 z m -34.95271,-0.535 c 0,-0.31839 -0.18849,-0.69546 -0.41887,-0.83781 -0.23852,-0.14741 -0.41889,0.21333 -0.41889,0.83781 0,0.6244 0.18037,0.9852 0.41889,0.8377 0.23038,-0.1423 0.41887,-0.5193 0.41887,-0.8377 z m 68.38213,-3.00016 c -0.28798,-0.1162 -0.75922,-0.1162 -1.0472,0 -0.28797,0.11619 -0.0524,0.21128 0.52361,0.21128 0.57595,0 0.81157,-0.0953 0.52359,-0.21128 z m 8.90119,-1.81705 c 1.01303,-0.2577 0.76942,-0.32805 -1.25663,-0.36285 -1.3823,-0.0235 -2.79602,0.13958 -3.1416,0.36285 -0.76408,0.49387 2.45768,0.49387 4.39823,0 z m -14.6907,-1.07707 c 1.08232,-1.08224 0.76116,-2.44787 -0.46503,-1.97733 -0.49718,0.19083 -0.51246,0.30689 -0.0759,0.57672 0.30062,0.18575 0.4021,0.48229 0.22551,0.65882 -0.1766,0.17664 -0.71338,0.0762 -1.19286,-0.22327 -0.72851,-0.45502 -0.97446,-0.44176 -1.4966,0.0799 -0.34364,0.34366 -0.49713,0.83142 -0.34108,1.08394 0.42263,0.68385 2.59209,0.55471 3.34596,-0.1992 z m 9.66415,-0.56543 c 2.07345,-0.20758 6.56224,-0.62357 9.97507,-0.92435 5.20902,-0.45915 6.0881,-0.63248 5.47602,-1.08007 -0.40103,-0.29326 -0.64865,-0.59352 -0.55027,-0.66745 0.0984,-0.0743 1.15171,-0.7445 2.34074,-1.49014 2.00113,-1.25512 2.97114,-2.3967 2.46577,-2.90205 -0.11504,-0.11502 -0.44935,-0.0197 -0.74289,0.21228 -0.29356,0.23184 -2.47918,0.54324 -4.85697,0.69212 -4.68402,0.29315 -10.63909,1.11263 -15.5894,2.14521 -4.90533,1.02328 -4.69256,0.88898 -4.37599,2.76271 0.17064,1.01003 0.11381,1.63762 -0.1483,1.63762 -0.23374,0 -0.49418,-0.32983 -0.57874,-0.73302 -0.1301,-0.62018 -0.23874,-0.5787 -0.70575,0.26926 l -0.55198,1.00221 2.03639,-0.2735 c 1.12001,-0.15039 3.73285,-0.44326 5.8063,-0.65083 z m -12.19225,-1.81802 c 0.63313,-1.00367 -0.12601,-1.50176 -0.82727,-0.54276 -0.32675,0.44683 -0.59408,0.98057 -0.59408,1.18617 0,0.56036 0.92657,0.14099 1.42135,-0.64341 z m -46.24148,-0.72819 c 0,-0.23043 -0.0831,-0.41891 -0.18472,-0.41891 -0.10159,0 -0.30122,0.18848 -0.4436,0.41891 -0.14239,0.23038 -0.0592,0.41887 0.18471,0.41887 0.24398,0 0.44361,-0.18849 0.44361,-0.41887 z m 55.28347,-2.12828 c 3.66714,-0.84506 12.43251,-2.05465 16.86857,-2.32796 4.63363,-0.28545 5.69409,-0.71432 2.92359,-1.18241 -0.86865,-0.14672 -1.85733,-0.43857 -2.19707,-0.64858 -0.52385,-0.32372 -0.49072,-0.47543 0.218,-0.99835 2.13661,-1.57658 -2.22568,-2.55199 -8.5776,-1.91808 -4.91486,0.49067 -12.7573,1.59425 -13.53753,1.9051 -0.81557,0.32495 -2.34452,4.66456 -1.82609,5.18306 0.55698,0.55698 3.6837,0.55048 6.12813,-0.0131 z m -7.74062,-0.80386 c 0.81793,-0.54165 1.01692,-0.8332 0.57,-0.83499 -0.73111,0 -2.95496,1.63715 -2.24551,1.65606 0.23038,0.01 0.98437,-0.36332 1.67551,-0.82107 z m -75.188923,-1.25662 c 0,-0.23043 -0.188488,-0.4189 -0.418876,-0.4189 -0.230387,0 -0.418875,0.18847 -0.418875,0.4189 0,0.23033 0.188488,0.41881 0.418875,0.41881 0.230388,0 0.418876,-0.18848 0.418876,-0.41881 z m 29.321593,-0.83781 c 0,-0.23033 -0.1885,-0.4189 -0.41889,-0.4189 -0.23037,0 -0.41888,0.18857 -0.41888,0.4189 0,0.23043 0.18851,0.41891 0.41888,0.41891 0.23039,0 0.41889,-0.18848 0.41889,-0.41891 z m 42.83046,-0.27736 c -0.28798,-0.11624 -0.75922,-0.11624 -1.04721,0 -0.28797,0.11616 -0.0524,0.21124 0.52361,0.21124 0.57596,0 0.81158,-0.0951 0.5236,-0.21124 z m 4.46334,-0.66513 c 0.48028,-0.62741 0.46321,-0.73303 -0.11854,-0.73303 -0.41777,0 -0.6796,0.34969 -0.6796,0.9076 0,0.49922 0.0533,0.82906 0.11852,0.73303 0.0651,-0.0961 0.37103,-0.5044 0.67962,-0.9076 z m -3.52087,-1.15194 c 0.32765,-0.53007 -0.22687,-0.53007 -1.04719,0 -0.54148,0.34997 -0.53043,0.40697 0.08,0.41251 0.38957,0 0.82481,-0.18208 0.96719,-0.41251 z m -4.39823,-0.88718 c 0,-0.23033 -0.1885,-0.30237 -0.41888,-0.15998 -0.23038,0.1424 -0.41888,0.4474 -0.41888,0.67783 0,0.23033 0.1885,0.30237 0.41888,0.15998 0.23038,-0.1424 0.41888,-0.4474 0.41888,-0.67783 z m -3.53848,-1.4466 c -0.58294,-3.10736 -2.41189,-6.04382 -3.76437,-6.04382 -0.13035,0 -0.23699,0.59958 -0.23699,1.33223 0,1.51535 3.18642,6.77771 3.85409,6.36511 0.22548,-0.13939 0.29174,-0.88343 0.14727,-1.65352 z m 3.51531,-0.23531 c 0.0299,-0.34084 -1.98077,-0.73276 -2.27082,-0.44261 -0.12061,0.12057 -0.2193,0.76765 -0.2193,1.43795 l 0,1.21872 1.23346,-0.97438 c 0.67841,-0.5359 1.24391,-1.09382 1.25666,-1.23968 z m 7.03442,1.44218 c -0.38946,-0.38947 -0.82572,-0.59046 -0.96946,-0.44675 -0.41226,0.41223 0.22061,1.15485 0.98421,1.15485 0.63942,0 0.63826,-0.0555 -0.0148,-0.7081 z m -70.71412,-4.31846 c 1.396647,-1.95833 2.54095,-3.79609 2.54288,-4.08407 0.002,-0.28798 0.19203,-0.52359 0.42242,-0.52359 0.23037,0 0.41888,-0.19967 0.41888,-0.44363 0,-0.83311 -0.85043,0.0809 -2.874118,3.09051 -4.888155,7.26846 -5.228376,8.57635 -0.510062,1.96078 z m 0.505444,3.45572 c 0.521039,-0.66438 0.506221,-0.67914 -0.158149,-0.1581 -0.69774,0.54719 -0.919635,0.89114 -0.574887,0.89114 0.08702,0 0.416845,-0.32984 0.733036,-0.73304 z m 79.934636,-0.12114 c 9.61852,-1.11817 11.72978,-1.46578 13.56823,-2.23389 3.72117,-1.55486 0.34835,-1.89448 -10.82753,-1.09024 -7.22097,0.51963 -10.93604,1.14178 -11.76434,1.96999 -0.56387,0.56392 -0.55513,0.71771 0.0808,1.42036 0.867,0.958 0.0817,0.96383 8.94288,-0.0658 z m -34.15106,-0.96233 c 1.01799,-1.018 1.9153,-4.22054 1.9153,-6.83592 0,-1.11873 0.14903,-1.43314 0.5977,-1.26094 0.32872,0.12612 0.82202,-0.0414 1.09621,-0.37131 0.39175,-0.47204 0.33271,-0.93779 -0.27567,-2.17427 l -0.7742,-1.57349 -0.26258,1.67553 c -0.14443,0.92151 -0.29533,1.39271 -0.33534,1.04717 -0.0613,-0.52838 -0.15784,-0.51644 -0.60765,0.0753 -0.44782,0.58894 -0.50562,0.29927 -0.35521,-1.7803 0.0988,-1.36609 0.0486,-2.4837 -0.11149,-2.4837 -0.55326,0 -5.89459,3.64025 -9.158,6.24142 -2.38671,1.90246 -3.16061,2.74771 -2.85396,3.11723 0.23142,0.27877 1.76021,1.15495 3.39734,1.94695 2.58112,1.24863 3.09091,1.36854 3.83722,0.90243 1.08282,-0.67624 1.50366,-0.31037 0.73403,0.63804 -0.48438,0.59703 -0.48576,0.66015 -0.009,0.37244 0.31631,-0.19045 1.10876,-1.49899 1.76102,-2.90778 1.47584,-3.18767 1.55412,-2.8284 0.17946,0.8237 -1.34747,3.57997 -0.84799,4.61951 1.22399,2.54756 z m 23.66213,-0.53975 c 0.096,-0.0865 -0.98785,-0.15698 -2.40855,-0.15698 -1.5584,0 -2.58309,0.17813 -2.58309,0.449 0,0.41035 4.50374,0.14691 4.99164,-0.29202 z m -13.78812,0.0771 c 0,-0.10167 -0.18849,-0.30124 -0.41887,-0.44364 -0.23039,-0.1424 -0.41889,-0.0592 -0.41889,0.18471 0,0.24398 0.1885,0.44355 0.41889,0.44355 0.23038,0 0.41887,-0.0827 0.41887,-0.18462 z m -56.827507,-3.69 c 1.254853,-1.67026 2.820517,-3.95006 3.479257,-5.06626 1.15998,-1.96539 1.3198,-2.06828 5.07235,-3.26583 2.13105,-0.68009 3.87464,-1.42657 3.87464,-1.65897 0,-0.2324 -1.03616,-0.89696 -2.30259,-1.47669 -2.76316,-1.26499 -6.6023,-1.77306 -7.53697,-0.99733 -0.530551,0.44035 -0.919471,0.33737 -2.276058,-0.60277 -2.101304,-1.45619 -6.196959,-3.14103 -7.66679,-3.15381 -0.766874,-0.01 -1.370579,0.33848 -1.836989,1.05036 -0.821724,1.25408 -0.566836,1.69894 0.611991,1.06804 1.543163,-0.82586 1.822524,-0.46903 0.502432,0.64172 -1.596077,1.34305 -1.314694,1.8038 1.897744,3.10763 1.267114,0.51427 2.236414,1.13736 2.153998,1.38462 -0.08239,0.24726 -0.934869,0.84477 -1.894332,1.32792 l -1.74448,0.87824 2.715625,1.58862 c 1.493597,0.87373 2.715632,1.65755 2.715632,1.74202 0,0.34855 -5.817402,-2.66757 -7.244299,-3.75594 -1.721982,-1.31333 -2.765499,-1.26969 -4.625717,0.19347 -1.540972,1.21213 -1.397478,1.65426 0.5369,1.65426 1.198014,0 1.975224,0.29908 2.82744,1.08817 l 1.175274,1.08808 -1.208407,-0.87862 c -1.636312,-1.18994 -4.152951,-1.17226 -5.362769,0.0376 -1.002632,1.00268 -0.373034,1.65549 0.72094,0.74761 0.393595,-0.32673 0.614239,-0.34978 0.614239,-0.064 0,0.24499 -0.217051,0.57963 -0.482333,0.74356 -0.33421,0.20654 -0.245304,0.47139 0.289499,0.86245 0.43652,0.31921 0.544341,0.5644 0.248174,0.5644 -0.288014,0 -0.407167,0.18848 -0.264773,0.41891 0.142383,0.23032 0.775545,0.41881 1.407024,0.41881 0.631478,0 1.348147,0.20004 1.592596,0.44448 0.564918,0.56497 7.588432,2.86932 8.810231,2.89057 0.660616,0.0122 1.560412,-0.83781 3.200521,-3.02083 z m 2.263937,-10.16665 c -3.774142,-2.53186 -3.613559,-2.78382 0.21392,-0.33558 3.56439,2.2799 3.49646,2.22939 2.99749,2.22939 -0.21364,0 -1.65878,-0.85219 -3.21141,-1.89381 z m -7.484074,-3.86579 c -0.521025,-0.66438 -0.506212,-0.67923 0.158156,-0.15819 0.40317,0.3162 0.733035,0.64604 0.733035,0.73303 0,0.3448 -0.343974,0.12293 -0.891191,-0.57484 z m 42.779174,15.60328 c -1.15523,-0.66034 -3.77307,-0.87016 -3.12066,-0.25008 0.47603,0.45238 1.68737,0.76877 3.12066,0.81495 l 1.0472,0.0338 -1.0472,-0.59863 z m 26.6161,0.18161 c 0.45082,-0.72946 -0.0626,-0.88399 -0.63715,-0.19177 -0.33038,0.39812 -0.36217,0.63842 -0.0845,0.63842 0.24499,0 0.56968,-0.20099 0.72155,-0.44665 z m 21.64339,-0.7651 c 4.31067,-0.16017 7.96816,-0.42183 8.12775,-0.58143 0.15959,-0.1596 -0.39851,-0.57785 -1.24023,-0.9296 -0.84172,-0.35175 -1.53039,-0.92904 -1.53039,-1.28295 0,-0.53139 -0.41959,-0.6025 -2.40856,-0.40837 -1.32471,0.12931 -4.99198,0.42474 -8.1495,0.65647 -6.18565,0.45389 -9.92388,1.03372 -10.52213,1.63198 -0.22085,0.22083 0.11759,0.65196 0.82304,1.04849 0.93176,0.52376 1.84996,0.61602 4.13027,0.41504 1.61269,-0.14211 6.45908,-0.38946 10.76975,-0.54963 z m -23.33911,-0.0404 c 0.14675,-0.23739 -0.0215,-0.30764 -0.39416,-0.16459 -0.72566,0.27849 -0.85843,0.5787 -0.25591,0.5787 0.21679,0 0.50933,-0.18632 0.65007,-0.41411 z m -27.1724,-3.20639 c 1.71011,-1.53058 3.02832,-2.86377 2.92936,-2.9627 -0.0989,-0.099 -0.90444,0.0207 -1.78998,0.26504 -1.04957,0.29014 -1.65868,0.30076 -1.74971,0.0301 -0.0767,-0.22798 -0.60787,-0.41449 -1.18017,-0.41449 -0.61456,0 -2.00919,-0.78909 -3.40669,-1.92748 -2.68573,-2.18772 -3.3347,-1.83851 -1.31714,0.70886 1.01626,1.28314 1.40627,2.25544 1.55405,3.87434 0.19709,2.15904 0.66856,3.20856 1.44135,3.20856 0.22532,0 1.80883,-1.2522 3.51893,-2.78278 z m 29.68864,1.72038 c 0.97182,-0.42134 1.06675,-0.55198 0.41889,-0.57662 -1.23299,-0.0471 -3.90636,0.76313 -4.22606,1.28041 -0.33142,0.53628 1.89755,0.12424 3.80717,-0.70379 z m -14.70656,-0.37046 c 0.33177,-1.3219 -0.12486,-2.65253 -0.63443,-1.84867 -0.471,0.7431 -0.46622,2.86263 0.007,2.86263 0.20542,0 0.48799,-0.45633 0.62796,-1.01396 z m 11.00265,0.15208 c 0.71349,-0.71347 4.98523,-0.99187 6.37665,-0.41552 1.00585,0.41665 1.81024,0.38825 4.30856,-0.15217 6.10949,-1.32152 19.61757,-2.03574 19.61757,-1.0371 0,0.30998 0.52483,0.36905 1.57081,0.1768 2.21631,-0.40723 2.61642,-0.95085 1.41967,-1.9287 -0.82552,-0.67453 -1.65591,-0.80743 -5.02656,-0.80433 -8.48952,0.01 -20.75162,1.19662 -24.47499,2.37311 -1.10363,0.34865 -2.94158,0.5691 -4.08433,0.48991 -1.14276,-0.079 -2.07762,-0.0943 -2.07747,-0.0338 1.3e-4,0.0612 0.23408,0.48483 0.51989,0.94248 0.57867,0.9266 1.18515,1.05413 1.8502,0.3891 z m -77.768208,-0.99835 c 0,-0.10167 -0.188487,-0.30125 -0.418876,-0.44365 -0.230387,-0.14238 -0.418875,-0.0592 -0.418875,0.18473 0,0.24396 0.188488,0.44363 0.418875,0.44363 0.230389,0 0.418876,-0.0828 0.418876,-0.18471 z m 23.373488,-0.31799 c 0.67972,-0.67971 0.63306,-1.17292 -0.11092,-1.17292 -0.33747,0 -0.81534,0.37706 -1.06193,0.83782 -0.3443,0.6434 -0.31856,0.8378 0.11093,0.8378 0.3076,0 0.78546,-0.22629 1.06192,-0.5027 z m 23.12217,-0.75401 c 0,-0.43358 -0.1885,-0.90477 -0.41887,-1.04717 -0.24506,-0.15142 -0.41889,0.2831 -0.41889,1.04717 0,0.76407 0.17383,1.19868 0.41889,1.04726 0.23037,-0.1424 0.41887,-0.61368 0.41887,-1.04726 z m -1.25664,-0.74451 c 0,-0.4095 -0.32087,-1.21062 -0.71304,-1.7803 -0.67148,-0.97531 -0.67148,-1.00211 0,-0.46075 0.39217,0.3162 0.71304,0.38636 0.71304,0.15604 0,-0.23044 -0.2731,-0.64558 -0.60689,-0.92256 -0.33378,-0.27707 -0.82825,-1.19548 -1.09879,-2.041 -0.54769,-1.71164 -1.92269,-3.42224 -2.75083,-3.42224 -0.80745,0 -1.47519,1.53651 -1.32818,3.0562 0.10203,1.05477 0.44365,1.4988 1.59589,2.07438 0.80635,0.40283 1.21808,0.73276 0.91495,0.73304 -0.71703,8.4e-4 -2.29584,-0.83489 -2.68877,-1.42337 -0.16926,-0.25346 -0.31063,-1.0624 -0.31416,-1.79751 -0.009,-1.84613 -0.51284,-1.9872 -1.90565,-0.53345 -0.65431,0.683 -1.43242,1.24175 -1.72913,1.24175 -0.38254,0 -0.4641,0.39595 -0.28035,1.3613 0.32732,1.71963 0.40495,1.80014 1.14391,1.18692 0.85689,-0.71121 3.25705,0.01 6.11637,1.82732 2.65214,1.68954 2.93163,1.76045 2.93163,0.74423 z m 29.74047,0.35043 c 0,-0.21687 -0.18849,-0.51069 -0.41888,-0.65309 -0.23038,-0.14239 -0.41887,0.0348 -0.41887,0.39417 0,0.35918 0.18849,0.653 0.41887,0.653 0.23039,0 0.41888,-0.17729 0.41888,-0.39408 z m -2.10081,-1.41086 c -0.006,-0.7461 -0.0824,-0.80028 -0.41247,-0.28939 -0.5333,0.8252 -0.5333,1.79562 0,1.46597 0.23039,-0.1423 0.416,-0.67181 0.41247,-1.17658 z m 9.64065,0.3636 c 0,-0.10157 -0.1885,-0.30124 -0.41888,-0.44363 -0.23038,-0.1424 -0.41888,-0.0592 -0.41888,0.18471 0,0.24407 0.1885,0.44365 0.41888,0.44365 0.23038,0 0.41888,-0.0827 0.41888,-0.18473 z m -53.61662,-0.65299 c 0.54148,-0.34997 0.53043,-0.40696 -0.0799,-0.41251 -0.38957,0 -0.82481,0.18209 -0.9672,0.41251 -0.32764,0.53007 0.22687,0.53007 1.04719,0 z m 11.10032,-0.2246 c -1.42901,-0.6543 -3.53092,-0.82398 -2.91121,-0.23503 0.48566,0.4616 1.71976,0.77639 3.12066,0.79586 1.01071,0.0141 1.00342,-0.01 -0.20945,-0.56083 z m 59.57842,-0.15678 c 3.50937,-0.16628 6.5096,-0.43122 6.66716,-0.58886 0.15758,-0.15753 -0.21617,-0.28647 -0.83052,-0.28647 -1.6738,0 -1.34514,-0.76295 0.45379,-1.05347 3.69349,-0.59647 5.5254,-1.15701 6.19353,-1.89532 0.6746,-0.74535 0.65375,-0.88784 -0.3906,-2.66993 -1.59802,-2.72682 -2.44327,-3.1777 -5.95648,-3.1777 -6.21302,0 -15.97542,1.3564 -20.01159,2.78043 -0.94502,0.33342 -2.30617,1.17612 -3.02477,1.87256 -0.71863,0.69655 -2.10339,1.50172 -3.07728,1.78924 l -1.77071,0.52283 1.70051,0.50946 c 0.93527,0.28019 2.2251,1.0768 2.86628,1.77024 l 1.16575,1.26066 4.81712,-0.26569 c 2.64942,-0.14616 7.68844,-0.4017 11.19781,-0.56798 z m -74.20572,-0.46912 c 0.62144,-0.23636 1.05662,-0.49378 0.96708,-0.57212 -0.34318,-0.3004 -5.39882,0.76436 -5.39882,1.13699 0,0.44119 2.6861,0.0987 4.43174,-0.56487 z m 49.60376,0.40686 c 0,-0.24397 0.18264,-0.33068 0.40587,-0.19281 0.22324,0.13798 1.11859,-0.12527 1.98968,-0.58509 l 1.58382,-0.83593 -1.75552,-0.0188 c -0.96554,-0.0103 -1.87392,0.17305 -2.01863,0.40715 -0.1447,0.23418 -0.43858,0.31723 -0.65304,0.18471 -0.21447,-0.13252 -0.38993,0.14709 -0.38993,0.62149 0,0.4744 0.18849,0.86245 0.41887,0.86245 0.23039,0 0.41888,-0.19958 0.41888,-0.44354 z m -43.14461,-0.79991 c 0,-0.22318 -0.28276,-0.2972 -0.62833,-0.16458 -0.34557,0.1326 -0.62833,0.31516 -0.62833,0.40573 0,0.0903 0.28276,0.1646 0.62833,0.1646 0.34557,0 0.62833,-0.18256 0.62833,-0.40575 z m 2.25146,0.0715 c 0.1136,-0.18377 0.0384,-0.60634 -0.16727,-0.939 -0.28254,-0.45719 -0.49185,-0.48672 -0.85739,-0.12115 -0.26599,0.26598 -0.35695,0.68846 -0.20217,0.93892 0.33078,0.53525 0.93414,0.59488 1.22683,0.12123 z m 22.93475,-0.39887 c 0.52104,-0.66438 0.50621,-0.67914 -0.15816,-0.15819 -0.69774,0.54728 -0.91963,0.89123 -0.57488,0.89123 0.087,0 0.41685,-0.32984 0.73304,-0.73304 z m -31.50641,-0.50383 c 0.41013,-0.21942 2.39073,-0.60343 4.40134,-0.85333 4.01275,-0.49865 4.68346,-0.77385 7.15485,-2.93637 0.92154,-0.8063 2.14348,-1.76966 2.71545,-2.14069 l 1.03992,-0.67454 -0.81211,-1.50802 c -1.41973,-2.63625 -0.48784,-2.02943 2.42236,1.57724 3.04453,3.77324 4.3414,4.62676 7.70907,5.07349 2.93126,0.38882 6.59487,-0.33641 14.11689,-2.79444 6.40585,-2.0933 7.78489,-2.84194 7.78489,-4.22647 0,-1.09889 0.97625,-2.86828 2.22738,-4.03686 1.43698,-1.34221 1.93127,-5.22031 0.91568,-7.18429 -0.86226,-1.66743 -0.59253,-2.96289 1.12029,-5.38066 l 1.28747,-1.81745 -1.30933,-1.19586 c -1.59499,-1.45676 -1.64734,-2.45267 -0.21819,-4.15113 1.07929,-1.28258 1.08333,-1.31315 0.37303,-2.81007 -0.46294,-0.97549 -0.63449,-2.02849 -0.48281,-2.96327 0.19366,-1.19341 -0.0265,-1.8306 -1.24403,-3.60065 -1.30928,-1.90331 -1.46029,-2.39238 -1.31366,-4.25431 0.0911,-1.15711 0.30029,-2.39604 0.46484,-2.75326 0.21786,-0.47289 -0.0985,-0.83893 -1.16397,-1.34708 -1.02247,-0.48757 -1.56505,-1.091 -1.80155,-2.00367 -0.28646,-1.10557 -0.69053,-1.43005 -2.63198,-2.1138 -1.39649,-0.4918 -2.34883,-0.64181 -2.43487,-0.38373 -0.25138,0.7541 -3.25046,0.47044 -4.3746,-0.41383 -0.61611,-0.48464 -1.6993,-0.83771 -2.56977,-0.83771 -1.20222,0 -1.84872,-0.34404 -3.21582,-1.71107 l -1.71109,-1.71117 -2.16355,1.8007 c -7.54798,6.28205 -10.6671,9.69291 -9.51486,10.40507 0.28542,0.17644 1.63098,0.43696 2.9901,0.57898 3.64448,0.381 5.2115,1.17574 6.2215,3.15551 0.9353,1.83334 1.10602,2.98048 0.44355,2.98048 -0.23039,0 -0.41887,0.36896 -0.41887,0.81985 0,0.83338 -2.23927,5.31558 -5.86858,11.7466 -1.10514,1.95825 -2.24099,4.29871 -2.52412,5.20104 -0.75329,2.40056 -0.0855,2.74582 4.75907,2.46018 2.95321,-0.17408 4.20677,-0.0734 5.41387,0.43292 1.46325,0.61444 1.57079,0.61002 1.57079,-0.064 0,-0.39783 -0.304,-1.1573 -0.67558,-1.68775 -0.51256,-0.73181 -0.92531,-0.90186 -1.71061,-0.70472 -0.66565,0.16704 -0.93895,0.1043 -0.76579,-0.17588 0.95177,-1.53999 3.98974,0.66974 3.98974,2.90204 0,1.63104 -0.32564,1.7534 -2.16667,0.8142 -1.39481,-0.71159 -2.33981,-0.82351 -6.23345,-0.73811 -4.91477,0.10768 -5.52763,-0.10082 -5.52763,-1.88018 0,-0.57342 1.81428,-4.42407 4.03171,-8.55696 3.62447,-6.75541 4.40755,-8.47523 3.85913,-8.47523 -0.0949,0 -1.58981,-0.27115 -3.32198,-0.60259 -3.4798,-0.66579 -5.84715,-0.32522 -6.50008,0.93506 -0.20364,0.39314 -0.50611,1.64985 -0.67213,2.79266 -0.16605,1.14291 -0.70302,3.12213 -1.19326,4.39821 -0.94408,2.45756 -1.21976,7.54177 -0.61415,11.32629 l 0.30165,1.88489 -0.66777,-2.09433 c -0.36728,-1.15195 -0.74087,-2.35128 -0.83021,-2.66522 -0.25657,-0.90158 -1.40915,0.2639 -1.40915,1.42497 0,0.52847 -0.22084,1.03456 -0.49075,1.12456 -0.2858,0.0953 0.17189,0.89707 1.09594,1.91987 0.87268,0.9659 1.4542,1.75622 1.29226,1.75622 -0.44081,0 -3.99185,-2.61171 -3.99185,-2.93591 0,-0.15434 -0.51836,-0.52217 -1.15191,-0.8173 l -1.15192,-0.53675 0.94247,-0.43226 c 1.11461,-0.51126 1.1706,-0.85408 0.28424,-1.74042 -0.86916,-0.86922 -1.26318,-0.83122 -2.31756,0.22309 -1.12602,1.12608 -0.81971,3.0071 0.75778,4.65366 0.92247,0.9628 0.99013,1.16708 0.3867,1.16708 -1.28142,0 -0.37276,0.6862 3.07945,2.32551 3.32897,1.58081 4.80999,2.91888 1.78876,1.61608 -3.43026,-1.47924 -4.37707,-1.5905 -5.1227,-0.60193 -0.52914,0.70144 -0.93818,0.84203 -1.81207,0.62271 -0.62078,-0.15584 -1.12868,-0.43122 -1.12868,-0.61198 0,-0.41732 1.07931,-0.83716 2.15234,-0.83716 0.80845,0 0.81005,-0.0292 0.0704,-1.29368 -1.21475,-2.07683 -2.19581,-2.38249 -3.34783,-1.04321 -1.82289,2.11926 -0.89727,4.55368 1.90159,5.00127 2.06672,0.33049 2.58734,1.37587 0.99568,1.99934 l -1.14392,0.44806 2.0944,0.96975 c 1.15192,0.53337 1.98877,0.98538 1.85967,1.00456 -0.71105,0.10563 -5.59555,-2.15574 -6.96329,-3.22378 -2.43216,-1.89918 -7.672212,-3.38378 -7.672212,-2.17362 0,0.55217 0.504297,0.70303 3.455762,1.03381 2.2061,0.24726 2.40855,0.35654 2.40855,1.30017 0,0.56665 -0.28274,1.13867 -0.62831,1.27128 -1.0777,0.41354 -0.71273,0.82784 1.98967,2.25855 1.4399,0.76238 3.33798,1.83597 4.21794,2.38589 1.4896,0.93082 1.7591,0.96675 3.90786,0.52067 3.91313,-0.81233 2.87586,-0.21736 -2.14428,1.23 -2.63038,0.75842 -5.12295,1.63705 -5.53908,1.95259 -0.87084,0.66024 -0.43115,0.79181 0.67249,0.20118 z m 23.2781,-9.62397 c -1.05815,-0.25375 -5.42573,-2.62798 -7.74256,-4.2087 -1.17386,-0.80094 2.71168,0.86312 4.9155,2.10515 1.74727,0.98472 2.69966,1.23574 4.68767,1.23574 2.73763,0 3.70465,0.58481 1.64744,0.99619 -1.48993,0.29804 -1.77403,0.28761 -3.50805,-0.12838 z m 5.6616,-0.9456 c -0.57596,-0.24386 -2.10482,-0.48323 -3.39748,-0.53185 -1.87477,-0.0705 -3.00303,-0.44665 -5.5765,-1.85901 -4.04677,-2.22103 -5.18565,-2.18951 -5.95297,0.16486 l -0.54609,1.67552 0.11802,-2.30387 c 0.10761,-2.10045 1.31217,-4.96712 1.85786,-4.42143 0.11681,0.1168 -9.5e-4,0.46987 -0.26255,0.78466 -0.70487,0.84928 -0.16471,1.12345 2.21328,1.12345 1.87596,0 2.38466,0.20474 4.16461,1.67551 2.015,1.66518 2.0501,1.67562 5.64719,1.69038 3.1492,0.0131 3.4954,0.0837 2.66397,0.54541 -1.21991,0.67726 -0.77168,1.14657 0.79564,0.8331 0.93412,-0.18679 1.20718,-0.0875 1.20718,0.43931 0,0.78411 -1.31979,0.86688 -2.93216,0.18396 z m -8.43777,-3.52381 c -0.60596,-0.60597 -1.43264,-1.02205 -1.86519,-0.93872 -0.63027,0.12142 -0.50214,0.32542 0.67897,1.0813 1.96094,1.25484 2.51687,1.18806 1.18622,-0.14258 z M 140.22836,939.851 c -0.40339,-0.10543 -1.20449,-0.99544 -1.78025,-1.97789 -1.45544,-2.48352 -1.30157,-2.98134 0.18832,-0.60927 0.94382,1.50266 1.58067,2.03687 2.81948,2.3652 1.13683,0.30134 1.29701,0.42267 0.55307,0.4189 -0.57596,0 -1.37724,-0.0912 -1.78062,-0.19694 z m 10.78492,-2.80216 c -0.72742,-0.53185 -0.64756,-0.60174 1.00732,-0.88135 1.83774,-0.31046 2.90145,0.14042 2.36789,1.00371 -0.39591,0.64058 -2.43282,0.56675 -3.37521,-0.12236 z m -7.45786,-0.56214 c -1.55649,-0.40809 -2.92585,-1.1099 -3.80132,-1.94808 -1.30212,-1.24684 -1.35675,-1.42196 -1.12758,-3.61411 l 0.24086,-2.30387 2.46371,-0.48634 c 1.98789,-0.39238 2.90462,-0.37141 4.74667,0.10835 2.83137,0.73745 3.37117,1.02807 4.90659,2.64142 1.59691,1.67788 1.09518,2.15857 -0.6848,0.6561 -2.91205,-2.45811 -7.11573,-3.41829 -9.73694,-2.22403 -1.37396,0.6261 -1.48602,1.81707 -0.12443,1.32236 1.36142,-0.49452 4.52936,-0.29579 6.20256,0.38919 1.43375,0.58697 1.42754,0.58932 -1.08476,0.40931 -2.49934,-0.17917 -5.64141,0.64932 -5.64141,1.48751 0,1.07792 2.16744,2.2735 4.87572,2.68939 3.65977,0.56205 3.92077,0.63946 3.92077,1.16172 0,0.5977 -2.25585,0.47129 -5.15564,-0.28892 z m -7.72098,-10.21198 c 0.30675,-0.75185 0.80045,-1.44783 1.09711,-1.54668 0.39734,-0.13242 0.36553,0.15632 -0.12078,1.09683 -0.92314,1.7851 -1.65965,2.12443 -0.97633,0.44985 z m 2.22211,-2.59403 c 0.1573,-0.41307 0.39152,-0.64556 0.52049,-0.51662 0.12897,0.12904 2.7e-4,0.46697 -0.28601,0.75119 -0.41368,0.41053 -0.46179,0.36247 -0.23448,-0.23457 z m 19.86986,45.36181 c 0.49614,-0.32062 0.40362,-0.40733 -0.43983,-0.41241 -0.58747,0 -1.29567,-0.234 -1.57378,-0.51211 -0.39495,-0.39492 -0.66549,-0.33708 -1.2357,0.26438 -0.69836,0.73651 -0.68916,0.76021 0.21201,0.54493 0.51815,-0.12378 1.04762,-0.0545 1.17664,0.15452 0.30276,0.48992 1.06678,0.47374 1.86066,-0.0395 z m -65.530027,-1.4793 c -0.447203,-0.3383 -1.106944,-0.59976 -1.466078,-0.58104 -0.359144,0.0188 -0.08747,0.29297 0.603658,0.60945 1.623878,0.74356 1.872275,0.73538 0.86242,-0.0282 z m 66.641567,-0.25234 c -0.55428,-0.32212 -0.90437,-0.31855 -1.23568,0.0131 -0.33713,0.33708 -0.12774,0.45878 0.77341,0.44956 1.08326,-0.0113 1.1403,-0.0677 0.46227,-0.46235 z m -11.79297,-0.36266 c 0.14239,-0.23043 0.0592,-0.4189 -0.18471,-0.4189 -0.24399,0 -0.44361,0.18847 -0.44361,0.4189 0,0.23034 0.0831,0.41881 0.18471,0.41881 0.1016,0 0.30122,-0.18847 0.44361,-0.41881 z m 15.53783,-1.7391 c 0.8726,-1.41189 -4.65137,-2.27961 -6.34714,-0.99694 -0.88879,0.67219 -0.35541,0.86912 0.64341,0.23748 0.42204,-0.26683 0.84949,-0.18246 1.34449,0.2655 0.48285,0.43696 1.09358,0.56449 1.82489,0.38091 0.71473,-0.17935 1.005,-0.12349 0.82993,0.15979 -0.15215,0.24614 0.0951,0.43565 0.5685,0.43565 0.46076,0 0.97192,-0.21707 1.13592,-0.48239 z m 5.06833,-1.7944 c 3.41338,-0.71808 11.48483,-1.7724 16.55907,-2.16299 3.67001,-0.28253 4.36324,-0.67961 2.00875,-1.15053 -1.74407,-0.34874 -1.58435,-0.92932 0.51488,-1.87162 3.33234,-1.4956 4.85414,-3.72084 3.02478,-4.42275 -0.92718,-0.3558 -15.95366,0.54568 -20.39574,1.22361 -2.23935,0.34178 -5.29933,1.03136 -6.79997,1.53237 -2.68652,0.89706 -2.71568,0.92292 -1.89751,1.68512 1.01452,0.94521 1.01743,1.05553 0.0688,2.61754 l -0.75772,1.24777 1.91184,0.91831 c 2.34438,1.12617 2.25795,1.12043 5.7628,0.38317 z m -11.97904,-0.49395 c 0.48586,-0.58548 0.45508,-0.65601 -0.22815,-0.52369 -0.43434,0.0847 -0.86816,0.38872 -0.96406,0.6767 -0.24879,0.74724 0.52779,0.64755 1.19221,-0.15301 z m 4.77847,-2.67905 c 0.74926,-2.36069 -1.96388,-3.01557 -3.9808,-0.96083 l -1.04719,1.06682 1.67551,-0.23992 c 1.56186,-0.22357 1.6073,-0.2024 0.66986,0.31206 -0.9418,0.51681 -0.95681,0.57926 -0.23626,0.98246 0.94939,0.53129 2.5888,-0.12049 2.91888,-1.16059 z m -56.9691,0 c 0,-0.69373 -2.92603,-1.6126 -3.45249,-1.08423 -0.489339,0.49114 1.59882,1.97743 2.58092,1.8371 0.47937,-0.0686 0.87157,-0.40734 0.87157,-0.75287 z m 51.94111,-1.25662 c 0.14238,-0.23043 0.0704,-0.41891 -0.16,-0.41891 -0.23039,0 -0.53538,0.18848 -0.67777,0.41891 -0.14238,0.23033 -0.0704,0.41881 0.16001,0.41881 0.23037,0 0.53536,-0.18848 0.67776,-0.41881 z m 6.67479,-3.7596 c 1.4388,-0.547 1.36444,-1.26696 -0.13087,-1.26696 -1.35412,0 -2.55916,1.02327 -1.63957,1.39223 0.29759,0.11945 0.57593,0.23203 0.61853,0.25018 0.0426,0.0179 0.56096,-0.15077 1.15191,-0.37545 z m 14.05975,-1.34775 c 5.18364,-0.26099 9.50529,-0.53995 9.60366,-0.62008 0.0984,-0.0799 -0.18437,-0.43302 -0.62832,-0.78439 -0.79013,-0.62525 -0.79046,-0.64952 -0.0157,-1.14761 3.85276,-2.47627 4.65385,-3.10049 4.65385,-3.62652 0,-0.33247 -0.98169,-1.3692 -2.18154,-2.30388 -1.52562,-1.18833 -2.13199,-1.9336 -2.01678,-2.47862 0.10668,-0.50468 -0.12096,-0.85408 -0.64591,-0.9914 -0.44587,-0.11652 -0.81066,-0.32419 -0.81066,-0.46141 0,-0.13722 0.8011,-1.06579 1.78024,-2.06358 1.57587,-1.60582 1.77567,-2.0267 1.74042,-3.66602 -0.0498,-2.31563 -2.221,-6.86423 -3.98519,-8.34873 -0.86313,-0.72626 -1.77254,-1.07265 -2.81393,-1.07171 -2.1188,0 -8.10442,1.08168 -14.07493,2.53928 -2.74804,0.67087 -5.08326,1.13285 -5.18937,1.02676 -0.54864,-0.5486 8.76204,-2.91662 14.16516,-3.60272 5.10991,-0.64876 6.38019,-1.04895 7.69862,-2.42511 l 1.1712,-1.22238 -1.53179,-1.39393 c -1.35711,-1.23499 -1.5014,-1.5558 -1.26539,-2.81382 0.2096,-1.11733 0.0819,-1.59183 -0.59929,-2.22648 -0.71829,-0.66917 -0.86724,-1.32066 -0.87487,-3.82703 -0.0106,-3.47247 -0.85044,-5.70449 -2.85499,-7.58739 -1.08321,-1.01745 -1.39927,-1.12862 -1.93779,-0.68169 -0.43784,0.36332 -0.64345,0.38373 -0.64345,0.064 0,-0.60692 -2.30967,-0.60871 -3.4421,0 -0.76794,0.411 -0.83505,0.37291 -0.55425,-0.31423 0.60654,-1.48412 0.43053,-1.96933 -1.03022,-2.84006 -1.30575,-0.77827 -2.13023,-0.87383 -7.53983,-0.87383 -5.51122,0 -6.5781,0.12914 -11.51919,1.39384 -3.41448,0.87402 -6.45206,1.39327 -8.14439,1.39224 -2.24727,0 -2.90107,0.16845 -3.90677,1.01472 -0.66431,0.55894 -1.47612,1.01631 -1.80402,1.01631 -0.3279,0 -0.59618,0.31197 -0.59618,0.69325 0,0.62074 -0.0765,0.62742 -0.73304,0.064 -0.88718,-0.762 -2.19912,-1.26583 -2.19912,-0.84458 0,0.16778 0.39638,0.55255 0.88083,0.85511 0.89765,0.56054 0.92208,1.27496 0.13132,3.84021 -0.31477,1.02111 -0.28465,1.01377 1.20853,-0.29354 3.09936,-2.71347 7.24783,-2.11464 5.82008,0.84025 -0.413,0.85474 -0.44622,0.82426 -0.47257,-0.43404 -0.0224,-1.06852 -0.24051,-1.40663 -1.03654,-1.6064 -1.02481,-0.25723 -2.76172,0.39577 -2.76172,1.03833 0,0.19402 0.28273,0.58745 0.62832,0.8743 0.34557,0.28676 0.62831,0.87176 0.62831,1.29988 0,1.6773 3.86141,1.37192 4.47366,-0.35383 0.33426,-0.9421 1.41251,-2.20277 1.88411,-2.20277 0.2,0 0.0554,0.47045 -0.32132,1.04539 -0.48945,0.74704 -0.60365,1.47867 -0.40014,2.56345 0.27675,1.4752 0.32778,1.51122 1.80217,1.27195 3.12101,-0.50646 3.98848,-3.27063 1.4574,-4.64396 -1.48334,-0.8048 -0.63116,-0.83508 1.26043,-0.0451 0.82822,0.3461 2.07628,0.51473 2.8786,0.38898 0.92599,-0.14502 1.70652,0 2.25421,0.4237 0.77908,0.60034 0.74448,0.61153 -0.49408,0.15867 -2.9257,-1.06973 -4.98854,1.79525 -2.26934,3.15175 1.1209,0.55923 1.28632,0.53703 2.11584,-0.28347 0.83645,-0.82736 0.87819,-0.83254 0.59227,-0.0733 -0.29782,0.79022 -0.26857,0.78891 0.92106,-0.0442 1.34671,-0.94286 9.84956,-4.85717 10.0707,-4.63606 0.0756,0.0753 -1.94555,1.16445 -4.49144,2.41956 -4.91382,2.42267 -6.16426,3.32932 -4.59135,3.32932 0.49999,0 1.34741,0.47299 1.88317,1.05111 l 0.9741,1.05112 2.88052,-1.68361 c 3.40602,-1.99078 8.10221,-3.99961 11.88512,-5.08393 4.84951,-1.39008 4.53543,-0.81345 -0.47536,0.8727 -8.10051,2.72588 -13.77129,5.89484 -13.75881,7.68859 0.0163,2.34939 1.77781,2.49865 5.58306,0.47288 1.93098,-1.02788 6.54492,-2.25167 8.54773,-2.26719 0.56174,0 0.94247,0.2466 0.94247,0.62111 0,0.47054 0.55211,0.64444 2.19912,0.6924 1.65185,0.0479 1.20883,0.15528 -1.78024,0.4302 -4.40141,0.40488 -17.59294,3.23319 -17.59294,3.77201 0,0.18772 0.4927,0.34131 1.09489,0.34131 0.60218,0 1.80406,0.39859 2.67083,0.88578 1.5252,0.85718 1.66191,0.86433 4.24583,0.22092 3.49613,-0.87044 10.83118,-1.95655 12.82495,-1.89899 0.86546,0.0254 -1.03182,0.47929 -4.21618,1.00955 -6.77916,1.12871 -11.59377,2.25355 -11.59377,2.70877 0,0.17738 0.29465,0.56703 0.65478,0.86592 0.59139,0.49076 0.58656,0.58162 -0.0499,0.93779 -0.45415,0.25413 -0.79918,0.24143 -0.97054,-0.0358 -0.14622,-0.23654 -0.79574,0.30698 -1.44336,1.20799 -1.41126,1.96332 -1.01586,2.07618 1.32727,0.37884 1.1717,-0.84881 1.73837,-1.06785 1.73837,-0.67199 0,0.32297 -0.94839,1.19586 -2.10755,1.93961 -2.22104,1.42525 -2.91901,2.31621 -2.91901,3.72603 0,1.03118 1.8075,1.63282 2.69434,0.89677 0.4595,-0.38128 0.67154,-0.3415 0.96401,0.18115 0.3383,0.60446 0.57218,0.58546 2.39236,-0.19478 4.0421,-1.73261 8.25167,-2.59477 13.63664,-2.79276 6.02895,-0.22168 6.16879,0.42887 0.17882,0.83198 -7.36796,0.49574 -13.42291,2.25365 -14.33887,4.16289 -0.59272,1.23546 -1.3385,1.52006 -1.3385,0.5107 0,-0.34555 -0.20089,-0.62826 -0.44642,-0.62826 -1.38319,0 -4.58014,2.66954 -4.58014,3.82449 0,0.96055 1.57938,2.04769 2.92065,2.01035 0.95156,-0.0263 0.97392,-0.0621 0.22095,-0.35693 -0.81533,-0.31864 -0.81303,-0.33529 0.0863,-0.62121 0.50824,-0.16158 1.38507,-0.84166 1.94849,-1.5113 l 1.0244,-1.2174 0.24702,0.98415 c 0.30659,1.22163 1.10671,1.55297 2.66833,1.1051 1.44257,-0.41373 11.717,-1.06334 11.39071,-0.72015 -0.12522,0.13167 -2.23263,0.42944 -4.68313,0.66156 -6.09076,0.57719 -8.25766,1.16322 -8.71116,2.35598 -0.19938,0.52443 -0.7503,1.0766 -1.22427,1.22699 -0.47396,0.15049 -0.86175,0.55801 -0.86175,0.90571 0,0.44928 -0.3939,0.61058 -1.36137,0.55763 -2.15869,-0.11813 -2.27664,-0.063 -2.85938,1.34418 -0.42221,1.01924 -0.43419,1.37314 -0.0507,1.50097 0.27589,0.0922 0.50164,0.42755 0.50164,0.74582 0,0.31827 0.36334,0.77319 0.80741,1.01086 0.63789,0.34131 1.05563,0.22478 1.98967,-0.55537 1.82174,-1.52147 7.40492,-2.37602 15.00531,-2.29674 l 6.2832,0.0658 -6.53894,0.30812 c -5.99098,0.28225 -8.04135,0.50383 -10.13359,1.09503 -0.57219,0.16177 -0.64392,0.34742 -0.29612,0.76643 0.25243,0.30416 0.34408,1.01077 0.20367,1.57018 -0.22488,0.89602 -0.60842,1.0719 -3.21919,1.47595 -1.63014,0.25233 -3.25574,0.75062 -3.61244,1.10736 -0.96465,0.96468 -0.32716,1.24184 1.12682,0.4899 1.73596,-0.89771 3.12846,-0.82765 4.0624,0.20438 0.51441,0.56835 1.07345,0.77884 1.63573,0.61575 0.46982,-0.13628 5.09538,-0.46132 10.27902,-0.72231 z m -10.05311,-9.53435 c 0.34558,-0.23381 0.98959,-0.42802 1.43117,-0.43159 1.07168,-0.01 0.73734,0.23117 -0.80285,0.57568 -0.91773,0.20532 -1.08719,0.16647 -0.62832,-0.14409 z m 2.82743,-0.71544 c 0.28799,-0.11616 0.75922,-0.11616 1.04721,0 0.28797,0.11625 0.0524,0.21133 -0.52361,0.21133 -0.57596,0 -0.81157,-0.0951 -0.5236,-0.21133 z m 2.09441,-0.41881 c 0.28797,-0.11625 0.75922,-0.11625 1.04719,0 0.28799,0.11615 0.0524,0.21123 -0.5236,0.21123 -0.57596,0 -0.81157,-0.0951 -0.52359,-0.21123 z m 5.03763,-0.44872 c 0.98521,-0.0884 2.49318,-0.0875 3.35103,0 0.85786,0.0903 0.0517,0.16243 -1.79131,0.16082 -1.84307,0 -2.54495,-0.0753 -1.55972,-0.16364 z m -11.21611,7.42816 c 0,-0.23033 -0.57661,-0.41891 -1.28137,-0.41891 -0.74757,0 -1.17351,0.17457 -1.02248,0.41891 0.14239,0.23042 0.71901,0.4189 1.28137,0.4189 0.56236,0 1.02248,-0.18848 1.02248,-0.4189 z m -47.53152,-3.78829 c 0.41611,-0.67331 -0.67156,-1.71258 -1.64592,-1.57263 -1.10593,0.15876 -1.39192,1.45403 -0.37902,1.71653 1.30569,0.3384 1.74623,0.30708 2.02494,-0.1439 z m 13.79087,-15.8654 c 0.36306,-0.58744 -2.71105,-2.93231 -4.46643,-3.4069 -0.85532,-0.23127 -2.06154,-0.29344 -2.68049,-0.13807 -0.79378,0.1992 -1.03797,0.14108 -0.82873,-0.1975 0.42117,-0.6815 4.41187,-0.59479 6.58244,0.14304 l 1.83291,0.623 -1.25663,-1.04086 c -1.98236,-1.64213 -3.60595,-2.01759 -6.30288,-1.4577 -1.81903,0.37761 -2.43742,0.71178 -2.80323,1.5146 -0.70114,1.53887 0.62928,2.61339 4.34961,3.51328 3.55089,0.85887 5.23542,0.99403 5.57343,0.44711 z m 27.56872,-2.89743 c 2.49215,-1.64335 3.0413,-3.40013 1.39917,-4.47607 -1.35952,-0.89077 -3.05576,-0.41016 -3.8289,1.08496 -0.72515,1.40221 -0.77056,2.24698 -0.18008,3.35029 0.53921,1.00748 1.12976,1.0167 2.60981,0.0404 z m -3.25286,-3.41941 c 0.14238,-0.23043 0.0592,-0.41891 -0.18472,-0.41891 -0.24399,0 -0.44361,0.18848 -0.44361,0.41891 0,0.23042 0.0831,0.4189 0.18472,0.4189 0.1016,0 0.30121,-0.18848 0.44361,-0.4189 z m 1.28427,-6.03479 c 0.26662,-1.06222 -0.40384,-2.76173 -1.08957,-2.76173 -0.68832,0 -2.07967,1.6348 -2.07967,2.44346 0,1.05205 0.35944,1.32649 1.73735,1.32649 0.89594,0 1.23958,-0.24199 1.43189,-1.00822 z m -29.97755,-1.88836 c 0,-0.1946 1.05115,-1.14742 2.3359,-2.11738 1.28473,-0.97004 2.23598,-1.86353 2.1139,-1.9856 -0.39615,-0.39615 -2.35539,0.29795 -2.35539,0.83442 0,0.28657 -0.42077,0.70707 -0.93505,0.93458 -0.51427,0.22742 -1.17123,0.88465 -1.45991,1.46061 -0.40438,0.80687 -0.52627,0.87262 -0.53103,0.28668 -0.004,-0.41835 0.1937,-1.17236 0.43798,-1.67552 0.35221,-0.72551 0.22212,-0.67163 -0.62832,0.26033 -1.02753,1.12598 -1.36987,2.36707 -0.80795,2.92894 0.32481,0.32485 1.82987,-0.43771 1.82987,-0.92706 z m 5.95613,-7.32104 c 0.86274,-0.71582 1.57201,-1.65455 1.57615,-2.08587 0.006,-0.61923 -0.11402,-0.68346 -0.5698,-0.30519 -0.4102,0.34046 -0.9033,0.35523 -1.70295,0.0508 -1.80847,-0.68761 -3.58401,0.72965 -3.58401,2.86075 0,1.71352 1.86062,1.48713 4.28061,-0.52095 z m 46.46543,-16.87061 c -0.0546,-9.71298 -0.40009,-20.59238 -1.09528,-34.4871 -0.16024,-3.20256 -0.0993,-4.1961 0.22408,-3.6547 0.9976,1.67014 2.02877,40.2698 1.24462,46.58985 -0.20077,1.61825 -0.33377,-1.39055 -0.37342,-8.44805 z m -2.77943,7.29611 c -0.611,-1.5225 -1.52869,-7.99717 -1.41004,-9.94836 0.0755,-1.24271 0.67882,1.92768 0.7273,3.82224 0.0272,1.0656 0.16796,2.52942 0.3127,3.25305 0.21109,1.05554 0.37679,1.22143 0.83776,0.83883 0.47418,-0.39351 0.57461,-0.10185 0.57461,1.66885 0,1.18015 -0.0738,2.14568 -0.16395,2.14568 -0.0902,0 -0.48544,-0.80113 -0.87838,-1.78029 z m -36.87897,-33.23958 c -0.16652,-2.4429 -0.13753,-5.78871 0.0645,-7.43511 0.31277,-2.55008 0.3708,-1.89218 0.39174,4.44163 0.0135,4.08932 -0.0155,7.43512 -0.0645,7.43512 -0.049,0 -0.22523,-1.99874 -0.39174,-4.44164 z m 2.16859,0.37048 c -0.14395,-0.87104 -0.23652,-2.99744 -0.20571,-4.72532 0.0523,-2.93457 0.0777,-2.83832 0.38484,1.4606 0.34079,4.76961 0.27319,6.00164 -0.17913,3.26472 z m -1.49452,-11.67173 c 0.0201,-0.48798 0.11936,-0.58724 0.25308,-0.25308 0.12099,0.30237 0.10612,0.66365 -0.0331,0.80285 -0.1392,0.1392 -0.2382,-0.10822 -0.22001,-0.54977 z m 2.12747,-0.59342 c 0,-0.57596 0.0951,-0.81158 0.21127,-0.52361 0.1162,0.28799 0.1162,0.75922 0,1.04721 -0.1162,0.28798 -0.21127,0.0524 -0.21127,-0.5236 z"
       id="path7050"
       inkscape:connector-curvature="0" />
  </g>
</svg>
