<?xml version="1.0" encoding="UTF-8" standalone="no"?>
<!-- Created with Inkscape (http://www.inkscape.org/) -->

<svg
   xmlns:dc="http://purl.org/dc/elements/1.1/"
   xmlns:cc="http://creativecommons.org/ns#"
   xmlns:rdf="http://www.w3.org/1999/02/22-rdf-syntax-ns#"
   xmlns:svg="http://www.w3.org/2000/svg"
   xmlns="http://www.w3.org/2000/svg"
   xmlns:sodipodi="http://sodipodi.sourceforge.net/DTD/sodipodi-0.dtd"
   xmlns:inkscape="http://www.inkscape.org/namespaces/inkscape"
   width="1104"
   height="210"
   viewBox="0 0 1104 210"
   id="svg8124"
   version="1.1"
   inkscape:version="0.91 r13725"
   sodipodi:docname="ian-2-fruit.svg">
  <defs
     id="defs8126" />
  <sodipodi:namedview
     id="base"
     pagecolor="#ffffff"
     bordercolor="#666666"
     borderopacity="1.0"
     inkscape:pageopacity="0.0"
     inkscape:pageshadow="2"
     inkscape:zoom="0.90851449"
     inkscape:cx="376.43868"
     inkscape:cy="149.02792"
     inkscape:document-units="px"
     inkscape:current-layer="layer1"
     showgrid="false"
     units="px"
     inkscape:window-width="1440"
     inkscape:window-height="778"
     inkscape:window-x="0"
     inkscape:window-y="1"
     inkscape:window-maximized="1" />
  <metadata
     id="metadata8129">
    <rdf:RDF>
      <cc:Work
         rdf:about="">
        <dc:format>image/svg+xml</dc:format>
        <dc:type
           rdf:resource="http://purl.org/dc/dcmitype/StillImage" />
        <dc:title />
      </cc:Work>
    </rdf:RDF>
  </metadata>
  <g
     inkscape:label="Layer 1"
     inkscape:groupmode="layer"
     id="layer1"
     transform="translate(0,-842.36216)">
    <path
       style="fill:#000000"
       d="m 268.37785,880.36953 c -7.37051,0.051 -14.01104,3.0641 -19.83428,9.01617 -3.83832,3.92325 -8.50988,9.37167 -10.37867,12.10862 l -3.39608,4.97672 -9.90406,-1.85911 c -12.39881,-2.32697 -27.32269,-2.21908 -28.77983,0.20686 -0.60751,1.01145 -5.0903,4.45985 -9.96106,7.66335 -8.09578,5.32462 -9.17399,6.81053 -12.54115,17.29352 -8.38264,26.0977 -0.58083,69.20091 14.15688,78.22594 2.5966,1.5901 7.24294,4.466 10.32687,6.3925 4.00196,2.4998 10.82486,4.0395 23.8313,5.372 10.02264,1.0268 19.6739,2.6847 21.44677,3.6843 4.54992,2.5654 7.58684,2.326 23.11807,-1.8202 20.31505,-5.4233 23.17877,-7.7391 31.65095,-25.56326 5.10559,-10.74133 5.23115,-11.59477 4.94335,-33.76561 -0.3139,-24.20909 -2.23566,-33.0608 -8.71396,-40.13229 -5.30807,-5.79409 -22.81625,-13.38389 -30.71541,-13.31561 -10.42676,0.0902 -12.13959,-1.75455 -7.54802,-8.13257 5.30262,-7.36566 11.16973,-11.12078 19.08614,-12.21242 8.47314,-1.16842 8.93588,-5.20923 0.82369,-7.20195 -2.61565,-0.6425 -5.15465,-0.95399 -7.6115,-0.93696 z m 463.28967,-2.1342 c -1.87428,-0.0267 -3.97055,1.0281 -8.15034,3.54932 -8.21636,4.95609 -12.69541,10.31899 -12.63447,15.12573 0.0213,1.68427 -2.87094,5.91229 -6.42728,9.39587 -5.28519,5.17703 -6.79654,8.18287 -8.27296,16.46594 -5.31922,29.84212 -5.93975,31.37583 -17.22848,42.43594 -11.90445,11.66336 -13.58036,15.84961 -15.00037,37.49707 l -0.90441,13.8151 7.22908,8.4165 c 5.93283,6.9062 9.1019,8.9973 17.66077,11.6543 7.90903,2.4554 14.09647,3.085 25.59003,2.6083 13.89648,-0.5765 16.25674,-1.1987 28.33847,-7.5014 11.72788,-6.1183 13.83782,-7.982 19.16456,-16.9299 5.68632,-9.5519 5.97106,-10.7779 5.71241,-24.50702 -0.30908,-16.40524 -1.69227,-19.78561 -13.68058,-33.38471 -4.31002,-4.88911 -8.28594,-10.90523 -8.83219,-13.36921 -5.29794,-23.89731 -9.02147,-33.86833 -12.63291,-33.82255 -1.41852,0.018 -2.09689,-0.45947 -1.50775,-1.06373 0.58914,-0.60426 -1.21987,-3.64159 -4.01865,-6.7489 -2.79878,-3.1073 -5.09573,-6.29293 -5.10567,-7.0774 -0.0314,-2.47619 11.28614,-10.39547 14.92205,-10.44157 4.68414,-0.0594 4.36889,-2.36295 -0.68196,-4.98426 -1.36988,-0.71094 -2.41478,-1.11739 -3.53935,-1.13342 z m -478.7031,12.2397 c 0.92668,-0.0117 0.33083,1.51244 -1.32295,3.38706 -1.65379,1.87464 -3.766,3.41804 -4.69269,3.42979 -0.92668,0.0118 -0.33084,-1.51244 1.32294,-3.38707 1.65378,-1.87462 3.76601,-3.41803 4.6927,-3.42978 z M 720.5206,901.3993 c 0.99033,-0.0126 2.76036,1.10249 3.93161,2.47788 2.66376,3.12811 1.83773,3.1213 -2.42924,-0.0219 -1.81607,-1.33774 -2.4927,-2.44346 -1.50237,-2.45602 z m -505.31353,6.5079 c 0.85534,-0.0108 2.12487,0.50051 3.77153,1.53531 2.06044,1.29481 1.82269,1.6181 -1.24258,1.67786 -2.08486,0.0405 -3.80029,-0.68711 -3.81204,-1.61379 -0.0134,-1.0555 0.42776,-1.58854 1.28309,-1.59938 z m 167.9357,-0.49971 c -0.89165,-0.0447 -1.64439,0.27639 -2.26547,0.95685 -0.81345,0.89122 0.47925,12.50051 2.98237,26.77645 9.89552,56.43716 34.25239,88.65451 73.28533,96.93451 13.05478,2.7693 22.38992,1.6454 39.01484,-4.6943 30.163,-11.5022 34.598,-14.2988 45.55287,-28.72134 13.5004,-17.77385 19.09936,-30.20165 23.18638,-51.4737 1.87434,-9.75548 4.47093,-20.65069 5.76878,-24.21484 2.17978,-5.98608 2.13506,-6.43463 -0.5551,-5.8811 -1.60171,0.32958 -5.90526,5.98133 -9.56658,12.55911 -3.66131,6.57782 -8.90094,14.49224 -11.64219,17.58821 -11.99292,13.54488 -45.70941,24.90581 -75.50906,25.44451 -17.41587,0.31489 -19.2146,0.0218 -29.85441,-4.8547 -15.68361,-7.18826 -25.39116,-16.48291 -40.18087,-38.47612 -9.86349,-14.66763 -16.35306,-21.74995 -20.21689,-21.94354 z m 331.9483,3.1677 c 0.71479,-0.007 1.48036,0.0757 2.31365,0.24714 8.03892,1.65356 8.84739,2.12619 8.89642,5.1961 0.0259,1.65071 1.2086,5.15996 2.62656,7.79671 1.78753,3.32397 2.64437,9.98063 2.79306,21.71023 0.21149,16.6831 0.16956,16.87787 -3.11737,13.97818 -3.26398,-2.87945 -3.31118,-2.80451 -2.23247,3.55988 0.71894,4.24169 3.05776,8.37372 6.73349,11.90156 6.74929,6.47777 7.49907,6.60841 7.43142,1.27168 -0.0287,-2.26201 0.77185,-4.6382 1.7795,-5.27877 3.04331,-1.93456 6.31291,2.83662 9.20484,13.42703 3.52813,12.92027 2.31034,24.52287 -3.12468,29.76007 -4.14105,3.9903 -5.05885,6.6106 -2.30283,6.5756 0.89216,-0.011 4.65344,-4.6089 8.35875,-10.2169 3.7053,-5.6079 7.09811,-10.2008 7.53936,-10.2064 0.44124,-0.01 -0.34592,2.8481 -1.74958,6.3414 -3.81735,9.5006 -13.48262,18.6836 -23.94546,22.7503 -10.8903,4.2327 -36.01938,6.8644 -37.86226,3.9655 -0.66531,-1.0466 -2.68135,-1.8849 -4.48002,-1.8621 -1.79867,0.023 -3.27926,-0.6069 -3.28935,-1.4031 -0.0101,-0.7964 -2.67276,-4.7159 -5.91627,-8.7095 -5.5112,-6.786 -5.89535,-8.0376 -5.89025,-19.1202 0.007,-16.20362 1.68614,-19.18206 14.91007,-26.44376 3.45159,-1.89539 6.2686,-4.3803 6.25922,-5.51988 -0.009,-1.1396 1.11893,-4.31489 2.50411,-7.05539 1.48759,-2.94299 2.08361,-6.85056 1.45551,-9.54677 -0.58601,-2.51537 -0.27044,-5.06988 0.70462,-5.68972 1.03145,-0.65569 1.68995,-7.40922 1.57863,-16.19019 -0.16297,-12.85589 0.30121,-15.56665 3.1621,-18.50099 1.81375,-1.86037 3.51493,-2.71572 5.65923,-2.73771 z m -479.80871,9.40345 c 0.60063,-0.01 1.12021,0.37074 1.43793,1.26866 0.44487,1.25728 1.05866,4.11735 1.36421,6.35797 0.82814,6.07246 4.31857,6.07243 5.57215,-0.002 l 1.09777,-5.31291 4.84291,4.52338 c 2.97612,2.77983 5.87557,4.11575 7.51514,3.46264 1.82634,-0.72753 3.18752,0.24835 4.31135,3.09511 0.90323,2.28794 2.74245,4.14519 4.08747,4.12814 1.34501,-0.017 2.80812,1.29145 3.25246,2.90778 0.44436,1.61632 0.86133,0.0944 0.92477,-3.38202 0.12872,-7.05294 1.57627,-7.84914 5.86365,-3.23069 4.38117,4.7195 5.54367,14.43056 2.33347,19.4681 -3.14501,4.93525 -3.30789,6.02881 -0.89488,5.99822 2.99593,-0.038 6.8861,-12.06312 5.70094,-17.6215 -0.60169,-2.82201 -3.06405,-8.02998 -5.47535,-11.57522 -5.3111,-7.80872 -4.30942,-9.95523 1.6983,-3.63538 9.68557,10.18873 17.63189,33.09234 15.55366,44.83444 -2.07731,11.73699 -13.93529,28.26971 -26.32263,36.70254 -6.19762,4.2191 -9.8048,5.4562 -16.11973,5.5363 -4.47453,0.057 -8.13936,-0.2556 -8.14494,-0.6965 -0.006,-0.441 1.47165,-3.3034 3.28309,-6.361 1.81144,-3.0575 3.2844,-6.50898 3.27309,-7.66738 -0.036,-3.71784 -3.11377,-2.21509 -6.09072,2.97358 -2.69488,4.697 -6.86168,7.8282 -8.41147,6.3173 -0.37003,-0.3608 0.21013,-2.6667 1.29108,-5.1212 2.63766,-5.98905 0.49366,-7.60734 -3.80496,-2.8744 -3.81977,4.2056 -6.62514,3.6312 -3.16458,-0.64779 1.53273,-1.89521 1.62654,-3.18208 0.32869,-4.44743 -2.74171,-2.67307 -5.46769,-0.0665 -5.40139,5.16342 0.0323,2.5482 -0.99235,6.1083 -2.27601,7.9115 -2.29032,3.2169 -2.40062,3.2179 -5.89633,0.1339 -4.18771,-3.6943 -4.63777,-8.0939 -1.13441,-11.07723 1.37541,-1.17125 2.49233,-2.79262 2.48202,-3.60583 -0.0352,-2.77924 -3.54549,-1.43988 -7.39924,2.82558 -2.11769,2.34392 -4.52311,4.26538 -5.34359,4.27078 -1.86938,0.01 -7.50881,-9.45267 -7.54957,-12.66801 -0.0167,-1.31492 -1.16763,-2.37797 -2.55765,-2.36035 -1.42328,0.018 -2.50821,1.53879 -2.48359,3.48077 0.0426,3.35893 -0.0648,3.37122 -4.08508,0.47307 -4.84602,-3.49338 -7.87387,-13.32451 -8.03566,-26.08702 -0.0897,-7.07661 1.29439,-12.04074 6.39069,-22.92924 6.17734,-13.1983 9.69108,-17.90921 7.86421,-10.54301 -1.03389,4.1687 0.28414,4.32563 3.20068,0.38072 2.01773,-2.72918 2.21238,-2.62646 2.31626,1.23449 0.11107,4.13017 0.17166,4.109 3.27052,-1.12101 3.4471,-5.81723 6.76234,-8.66797 6.79812,-5.84596 0.0124,0.98138 1.09562,1.77 2.40843,1.75336 1.31278,-0.0166 2.82001,0.91214 3.34708,2.064 0.68676,1.50084 1.55633,1.21084 3.07423,-1.02636 6.22625,-9.17663 6.14674,-9.14576 6.28809,-2.46262 0.0945,4.4687 0.87239,6.30824 2.66007,6.28558 1.53783,-0.0195 2.50743,-1.59936 2.47653,-4.03692 -0.0461,-3.63656 2.48083,-7.18227 4.28272,-7.21286 z m -47.183,5.02165 c 0.40865,-0.005 0.75332,0.74876 0.76507,1.67545 0.0118,0.92667 -0.78087,1.69503 -1.76223,1.70747 -0.98138,0.0124 -1.32606,-0.7415 -0.76509,-1.67544 0.56098,-0.93394 1.3536,-1.7023 1.76225,-1.70748 z m 732.79316,-6.15298 c -6.16039,0.006 -13.14914,1.29584 -19.60083,3.80637 -13.21429,5.14201 -25.01096,16.48153 -31.66161,30.43452 -4.81457,10.10093 -5.36717,12.81985 -5.19097,25.65568 0.33731,24.63552 9.09638,35.01362 36.76988,43.57482 19.20613,5.9416 34.22702,2.4478 46.85832,-10.9024 16.28679,-17.2138 20.63678,-41.5936 10.85083,-60.79957 -5.64153,-11.07195 -18.54842,-25.78973 -25.79831,-29.42304 -3.14817,-1.57774 -7.43591,-2.35108 -12.22731,-2.34638 z m 2.121,11.01543 c 1.51795,0.0215 2.6256,0.27498 3.46537,0.74927 2.72026,1.53634 2.55464,1.75242 -1.41489,1.84791 -6.26209,0.15079 -9.80493,1.80603 -9.76992,4.56711 0.0192,1.51394 1.93212,2.32221 5.38712,2.27841 2.946,-0.0373 7.86624,0.80666 10.9344,1.87237 6.8305,2.37251 8.91373,0.73357 4.75786,-3.74329 -5.88981,-6.34458 0.78236,-3.40291 7.4305,3.2761 7.88189,7.91833 12.85631,17.35111 11.67171,22.12758 -0.47888,1.93085 0.30269,4.56587 1.77772,6.00384 3.50904,3.4212 1.99548,13.56258 -3.60692,24.17426 -6.11253,11.5778 -11.84606,16.4484 -23.17138,19.6828 -16.25607,4.6424 -16.97809,4.7164 -18.11134,1.872 -0.85026,-2.1345 -1.93051,-2.3015 -5.57979,-0.8608 -3.10722,1.2266 -5.08033,1.2448 -6.29552,0.06 -0.97341,-0.949 -3.08581,-1.7086 -4.69504,-1.6882 -2.0697,0.026 -3.10228,-1.5637 -3.52475,-5.432 -0.54313,-4.9727 -1.19451,-5.538 -7.17829,-6.2282 -8.49823,-0.98036 -14.79834,-8.2007 -11.66266,-13.36633 2.63548,-4.34162 2.52904,-5.15449 -0.52061,-3.93967 -4.73993,1.88815 -2.62147,-3.52887 3.26445,-8.34864 5.48577,-4.49209 7.31075,-9.30483 4.5479,-11.9985 -0.66789,-0.65118 -2.56248,0.57132 -4.20803,2.71931 l -2.99166,3.90521 1.65434,-4.76704 c 4.356,-12.55845 7.21768,-14.24612 10.67945,-6.2967 l 2.21024,5.0735 3.20245,-3.6347 c 2.33193,-2.64348 3.17698,-6.12918 3.10932,-12.79651 -0.11553,-10.84131 0.40787,-11.31127 16.95125,-15.23639 5.48518,-1.30144 9.15681,-1.90864 11.68672,-1.8728 z m -189.08115,3.70691 c 0.29004,0.0647 0.68644,0.354 1.20898,0.86345 1.04399,1.01786 1.61752,2.72826 1.27581,3.79846 -0.8055,2.52257 -3.10009,0.28544 -3.14255,-3.06388 -0.015,-1.18529 0.17436,-1.70592 0.65776,-1.59803 z M 195.4051,941.0219 c -1.60495,0.15303 -1.81742,1.35469 -0.14316,2.98701 1.58077,1.54122 3.57899,1.35843 4.65177,-0.42759 0.49719,-0.82776 -0.60958,-1.87999 -2.45862,-2.33857 -0.82671,-0.20503 -1.51501,-0.27187 -2.04999,-0.22085 z m 690.69775,4.26114 c 2.29077,-0.18716 5.74012,2.86364 5.77416,5.54835 0.0394,3.11155 -1.87895,2.73605 -5.42764,-1.06011 -1.78791,-1.91253 -2.27322,-3.54656 -1.24468,-4.20038 0.26661,-0.16948 0.57091,-0.26111 0.89816,-0.28786 z m 55.60299,0.49645 c -3.97227,0.0504 -4.32029,4.67529 -0.6901,9.17174 1.89898,2.35216 4.07272,4.26657 4.83294,4.25693 2.64576,-0.0335 3.15272,-4.86156 0.71646,-6.83196 -1.34897,-1.09099 -2.46735,-3.02662 -2.48353,-4.30317 -0.0162,-1.27655 -1.08481,-2.3099 -2.37577,-2.29354 z m -673.14767,11.90376 c -0.98137,0.0124 -1.77399,0.78081 -1.76224,1.70749 0.0117,0.92668 0.35642,1.68064 0.76507,1.67546 0.40865,-0.005 1.20126,-0.77355 1.76224,-1.7075 0.56097,-0.93394 0.21631,-1.68789 -0.76507,-1.67545 z m 142.51726,-1.51376 c 1.04075,0.10152 3.95242,2.1666 7.01504,5.03234 7.85121,7.34654 20.87052,13.76992 34.75965,17.15137 13.32013,3.24293 38.78645,1.71825 56.80429,-3.39922 6.9263,-1.96724 14.01378,-3.60848 15.74875,-3.64565 36.06135,-31.19033 42.64286,-10.88699 5.63786,14.4625 -14.79058,2.15649 -32.20403,15.75727 -47.07232,21.12887 -14.49225,2.2489 -29.49972,2.1171 -43.52119,-4.998 -7.35961,-1.1361 -45.42433,-34.61863 -45.48369,-39.30113 -0.052,-4.10319 27.14512,20.87144 39.04069,26.68826 5.54248,2.71024 11.47185,4.91003 13.17452,4.88845 0.95859,-0.0122 13.91923,4.08757 27.52665,2.9939 10.56258,-0.84895 22.48736,-7.06354 23.28101,-6.47893 3.49487,2.57439 52.52627,-24.91992 52.43427,-27.04728 4.81706,-3.1358 -18.66848,9.99133 -38.63645,14.68472 -11.08775,2.60614 -23.97451,8.92569 -35.00075,10.98084 -15.36174,2.86323 -27.5953,0.87805 -30.60792,-0.53473 -9.06926,-4.25304 -35.83809,-19.52077 -37.30595,-23.82732 -19.43859,-57.03082 0.009,-6.77949 1.88072,-8.69917 0.0673,-0.0691 0.17615,-0.0943 0.32483,-0.0797 z m 341.18343,10.67331 c 0.60811,0.0554 1.4983,0.67101 2.66918,1.81258 2.96187,2.88773 5.79648,12.88527 5.96049,21.02497 0.2002,9.93085 -2.38614,7.08703 -6.56889,-7.2267 -3.18398,-10.8958 -3.88515,-15.77704 -2.06078,-15.61085 z m 189.39968,-0.65005 c -0.23061,-0.0168 -0.50655,0.0262 -0.82113,0.13548 -1.21116,0.42085 -2.5212,1.7645 -2.91116,2.98592 -0.4052,1.26899 0.23465,1.8928 1.49297,1.45558 1.21116,-0.42086 2.52118,-1.76452 2.91115,-2.98591 0.30389,-0.95176 0.02,-1.54059 -0.67183,-1.59107 z M 544.5013,981.07179 c 1.48597,-0.077 1.82992,1.19937 0.46365,3.8614 -7.45545,14.52613 -17.20612,22.03431 -42.66028,32.83831 -20.6464,8.7634 -31.76066,10.8037 -41.72222,7.6579 -25.65569,-6.8444 -53.32514,-31.66806 -53.34966,-33.6022 -0.0264,-2.08134 25.47482,24.382 51.80652,22.4813 16.75238,-1.2094 26.21357,-2.6705 33.62971,-5.5247 18.67813,-6.2564 31.38604,-12.39549 44.527,-23.44603 3.1931,-2.7567 5.8193,-4.18898 7.30528,-4.26598 z m 407.01666,-4.85694 c -0.81013,0.0673 -2.08257,0.83269 -3.24262,2.02248 -2.59294,2.65993 -2.59512,2.87987 -0.0231,2.84727 3.07153,-0.0389 5.57921,-3.05626 3.89994,-4.69347 -0.14637,-0.14272 -0.36413,-0.19867 -0.63417,-0.17628 z m -69.15042,2.58481 c -0.16,0.0178 -0.3349,0.0598 -0.52503,0.12514 -1.23116,0.42314 -2.46933,2.50337 -2.75216,4.62297 -0.3494,2.61853 0.20326,3.60458 1.72422,3.08183 1.23116,-0.42314 2.46933,-2.50337 2.75217,-4.62296 0.30572,-2.29122 -0.0793,-3.33215 -1.1992,-3.20698 z m 57.22916,2.85544 c -1.77312,-0.006 -3.4987,1.29471 -3.47637,3.05561 0.0248,1.95915 1.83198,1.9684 4.81549,0.0245 1.58076,-1.02996 1.69829,-1.82143 0.38822,-2.60836 -0.53845,-0.32343 -1.1363,-0.46978 -1.72734,-0.47179 z m -58.97179,12.08284 c -0.92668,0.0117 -1.67527,0.77954 -1.66352,1.70623 0.0117,0.92669 0.77956,1.67526 1.70623,1.66352 0.92668,-0.0118 1.67527,-0.77955 1.66352,-1.70624 -0.0118,-0.92668 -0.77956,-1.67526 -1.70623,-1.66351 z m -620.01316,9.54506 c -0.0881,-0.086 -0.76457,0.4328 -2.08745,1.4976 -1.60557,1.2924 -2.91559,2.6361 -2.91115,2.9859 0.0176,1.3868 1.38886,0.4757 3.55434,-2.3588 1.03095,-1.3494 1.53234,-2.0389 1.44426,-2.1247 z"
       id="path7678"
       inkscape:connector-curvature="0"
       sodipodi:nodetypes="sscccsssssscsscsssssscssssscccssssssssssssscssssscssccsscsscsssssssssssssccscsssssscssssssscsscssccsssscccsccsssscsssssssssssscssssssscsssscssssssssccsssssssccsssssssscssssscscsssssscsscccscssssscccccccscccscsccscsccscscssscssssssscsssccccssssscsssssccsssssccccsccsscsscccccscccccsssccsssccssssscsssc" />
    <path
       style="fill:#cd0042;fill-opacity:1;stroke:#ff5855;stroke-width:2;stroke-miterlimit:4;stroke-dasharray:none;stroke-opacity:1"
       d="m 245.04971,169.33579 c 0.0189,-0.45404 1.25464,-2.80678 2.7461,-5.22831 4.39087,-7.12899 3.21539,-13.83443 -1.41536,-8.07384 -8.06201,10.02905 -11.50719,12.28278 -9.10078,5.95344 2.52009,-6.62833 0.28525,-9.57221 -3.82165,-5.03414 -2.51341,2.77729 -4.29339,2.8776 -2.58735,0.14581 1.81267,-2.90256 0.39379,-5.88286 -2.59533,-5.45132 -2.01296,0.29061 -2.66121,1.45659 -3.69842,6.65226 -0.6917,3.46495 -1.90111,7.07523 -2.68757,8.02285 -1.27403,1.53512 -1.77136,1.39584 -4.56173,-1.27751 -3.67489,-3.52076 -4.00351,-6.96202 -0.93041,-9.74314 2.59654,-2.34983 2.91822,-6.05383 0.52575,-6.05383 -0.9216,0 -3.84388,1.99861 -6.49395,4.44136 l -4.81832,4.44137 -2.15943,-2.74527 c -1.96924,-2.50349 -3.3322,-5.41045 -5.10907,-10.89678 -0.84299,-2.60285 -4.10596,-1.97312 -5.63152,1.08685 -0.90693,1.81913 -1.61064,2.11949 -3.06231,1.3071 -5.63162,-3.15161 -9.95571,-22.29553 -7.50723,-33.23649 1.63862,-7.32215 12.04963,-28.899125 12.16478,-25.211704 0.0922,2.951319 0.87223,3.094509 3.56794,0.654929 1.89089,-1.711233 2.01289,-1.677876 2.01289,0.550349 0,3.666005 1.77588,2.836743 5.49209,-2.564576 3.63832,-5.288118 4.41383,-5.331533 10.29785,-0.576485 2.19051,1.770214 2.73909,1.366263 7.54216,-5.553678 l 1.86848,-2.691994 0.0577,3.917241 c 0.0318,2.154483 0.7104,4.80981 1.5081,5.900728 1.35907,1.85864 1.56692,1.866933 3.30209,0.131755 1.01846,-1.018453 1.85174,-2.993989 1.85174,-4.390081 0,-1.396092 0.78072,-3.186291 1.73493,-3.978219 2.18272,-1.811496 3.23999,-0.375672 4.21551,5.724896 0.51918,3.246783 1.18629,4.251008 2.82397,4.251008 1.54603,0 2.51026,-1.221803 3.45639,-4.379715 l 1.3122,-4.379714 4.23865,3.829365 c 2.33126,2.106151 5.26695,3.829366 6.52377,3.829366 1.25682,0 4.51404,2.228913 7.23826,4.953141 2.72423,2.724227 5.40935,4.95314 5.96694,4.95314 0.55759,0 1.0138,-1.952024 1.0138,-4.337832 0,-5.3568 1.19508,-6.233289 4.16948,-3.057955 5.00841,5.346755 5.97317,13.188965 2.43471,19.790945 -2.63638,4.91891 -2.75458,6.31671 -0.53417,6.31671 2.48085,0 5.77175,-6.17276 6.63425,-12.4439 0.69668,-5.065429 0.3797,-6.257662 -3.80291,-14.303504 -2.50961,-4.827605 -4.3562,-8.984199 -4.10352,-9.236873 1.03742,-1.037424 8.56744,9.669429 12.24165,17.406276 5.43565,11.445931 7.85902,23.694911 6.17585,31.216081 -1.85025,8.2678 -8.34799,18.6877 -17.1615,27.52051 -9.62564,9.64673 -15.5055,12.67491 -24.61109,12.67491 -3.71734,0 -6.74334,-0.37149 -6.72444,-0.82553 z m 13.36252,-4.29821 c 1.10709,-1.0019 2.01289,-2.57418 2.01289,-3.49396 0,-1.25254 -0.69072,-1.02342 -2.75174,0.91281 -4.14263,3.8918 -3.43623,6.35955 0.73885,2.58115 z m 11.91917,-48.94524 c 0,-1.32698 -3.01419,-1.22153 -3.85244,0.13478 -1.1897,1.92497 0.57451,3.55159 2.29939,2.12007 0.85418,-0.70891 1.55305,-1.72359 1.55305,-2.25485 z m -70.44466,-15.27499 c 0,-1.712199 -0.7338,-2.201398 -3.3021,-2.201398 -3.51751,0 -4.12234,0.940861 -1.98125,3.081958 2.12753,2.12753 5.28335,1.60156 5.28335,-0.88056 z"
       id="path9031"
       inkscape:connector-curvature="0"
       transform="translate(0,842.36216)" />
    <path
       style="fill:#fedd00;fill-opacity:1;stroke:#fedd00;stroke-width:5.50348949;stroke-miterlimit:4;stroke-dasharray:none;stroke-opacity:1"
       d="m 459.64311,164.68783 c -12.59619,-1.62871 -22.91918,-6.51293 -35.94049,-17.00485 -11.87237,-9.56616 -27.46564,-24.54389 -26.52836,-25.48117 0.40991,-0.40991 7.81287,4.59576 16.45102,11.12369 8.63815,6.52794 18.68914,13.2608 22.33554,14.9619 14.8229,6.91513 37.19687,8.93359 50.10738,4.52043 3.93499,-1.34509 9.99711,-3.18389 13.47138,-4.08624 11.5663,-3.00401 53.29745,-25.53023 51.19365,-27.63402 -0.2314,-0.2314 -5.34582,1.7468 -11.36538,4.396 -6.01956,2.6492 -15.39755,6.15649 -20.84,7.79398 -5.44244,1.63749 -16.15142,5.12604 -23.79774,7.75235 -15.81135,5.43077 -29.07379,7.63923 -39.48146,6.57443 -5.51224,-0.56395 -9.30215,-1.88253 -16.51046,-5.74428 -11.53071,-6.17741 -25.48752,-15.05271 -27.74702,-17.64466 -1.80074,-2.06568 -8.02608,-19.91209 -7.22526,-20.71291 0.26254,-0.26253 1.60244,1.87397 2.97755,4.74778 2.49096,5.20575 3.94359,6.47545 19.17772,16.76259 21.56156,14.55987 47.22479,16.80521 86.01342,7.52553 11.57278,-2.76864 15.07482,-4.0767 18.31345,-6.84034 7.13635,-6.08969 17.71906,-11.7687 21.30266,-11.43167 1.95185,0.18356 3.42677,1.0167 3.62131,2.04558 1.05541,5.58144 -19.04398,25.10604 -28.22501,27.41785 -2.73788,0.68941 -13.67481,5.63876 -24.30427,10.99856 -18.62291,9.39041 -19.64677,9.76325 -28.13187,10.24421 -4.84307,0.27451 -11.53357,0.14638 -14.86776,-0.28474 z"
       id="path9033"
       inkscape:connector-curvature="0"
       transform="translate(0,842.36216)" />
    <path
       style="fill:#fedd00;fill-opacity:1;stroke:#fedd00;stroke-width:5.50348949;stroke-miterlimit:4;stroke-dasharray:none;stroke-opacity:1"
       d="m 456.34935,181.11819 c -3.32961,-1.19465 -8.62332,-3.427 -11.76379,-4.96077 -6.88016,-3.3602 -22.7953,-13.63043 -22.1391,-14.28663 0.25718,-0.25719 4.24064,1.42785 8.85212,3.74452 11.32372,5.68872 19.26626,7.24682 32.27849,6.33216 26.31986,-1.85011 50.44679,-10.70621 70.65834,-25.93606 12.68183,-9.55606 13.98112,-8.93228 6.10634,2.93157 -5.22056,7.86509 -14.25264,14.5395 -29.6512,21.91123 -25.82701,12.36414 -40.67264,15.16819 -54.3412,10.26398 z"
       id="path9035"
       inkscape:connector-curvature="0"
       transform="translate(0,842.36216)" />
    <path
       style="fill:#00e29a;fill-opacity:1;stroke:#fedd00;stroke-width:5.50348949;stroke-miterlimit:4;stroke-dasharray:none;stroke-opacity:1"
       d="m 701.25464,191.36659 c -1.21077,-0.27813 -2.67195,-0.95293 -3.24706,-1.49955 -0.57512,-0.54662 -2.08738,-0.99386 -3.36059,-0.99386 -1.57834,0 -3.87234,-2.17366 -7.20957,-6.83136 -7.92957,-11.06713 -7.87304,-10.88521 -7.4656,-24.02446 0.44027,-14.19826 1.22774,-15.66881 12.36417,-23.0892 7.08633,-4.72175 7.58013,-5.33652 10.11979,-12.59905 1.82293,-5.21295 2.45281,-8.79245 1.98551,-11.28339 -0.37644,-2.00657 -0.1778,-4.26203 0.44143,-5.01212 0.61922,-0.7501 1.49017,-8.268732 1.93545,-16.708082 0.75132,-14.239739 1.00249,-15.537165 3.48927,-18.023949 2.32837,-2.328369 3.33907,-2.589296 7.70937,-1.99028 5.98374,0.820164 7.57462,1.956607 8.32959,5.950238 0.31104,1.645333 1.39918,5.220427 2.41808,7.944654 2.25965,6.041572 3.81375,34.121639 1.88847,34.121639 -0.66033,0 -1.50672,-0.49532 -1.88087,-1.1007 -0.37414,-0.60539 -1.41645,-1.1007 -2.31623,-1.1007 -2.27507,0 -0.99627,6.8431 2.3847,12.76096 2.82852,4.95088 9.76826,10.86674 11.49534,9.79934 0.60182,-0.37194 1.09422,-2.3514 1.09422,-4.39878 0,-2.04739 0.57553,-4.07822 1.27896,-4.51297 3.78765,-2.34089 9.72802,13.96182 9.72802,26.69753 0,8.62437 -1.31489,12.48769 -6.2707,18.42422 -1.79698,2.15258 -2.29711,3.54684 -1.54284,4.30111 1.57378,1.57378 3.84319,-0.5624 10.1731,-9.57587 5.69569,-8.11038 7.46056,-7.71564 2.22809,0.49834 -4.17829,6.55911 -11.33954,12.83419 -18.265,16.00476 -8.68326,3.97534 -31.11762,7.70882 -37.5051,6.24153 z"
       id="path9037"
       inkscape:connector-curvature="0"
       transform="translate(0,842.36216)" />
    <path
       style="fill:#ff5855;fill-opacity:1;stroke:#ff5855;stroke-width:5.50348949;stroke-miterlimit:4;stroke-dasharray:none;stroke-opacity:1"
       d="m 912.73777,171.80409 c -0.59169,-1.54192 -1.58614,-1.75977 -5.41325,-1.18586 -2.91306,0.43684 -6.34509,0.12951 -9.06344,-0.8116 -3.65935,-1.2669 -4.5689,-2.20565 -5.56017,-5.73868 -1.29774,-4.62535 -2.03265,-5.19601 -9.14011,-7.09731 -2.64687,-0.70805 -6.04214,-2.51703 -7.54506,-4.01994 -2.75929,-2.7593 -2.88661,-4.5676 -0.79259,-11.25767 0.71885,-2.29662 0.5372,-2.51392 -1.54814,-1.85205 -3.7524,1.19096 -2.82721,-1.0635 3.14094,-7.65374 3.42758,-3.78485 5.50349,-7.0862 5.50349,-8.75228 0,-3.61169 -1.88334,-4.53477 -4.47215,-2.19193 -2.71787,2.45963 -2.68278,1.63524 0.19058,-4.47756 1.27743,-2.71763 2.95649,-4.94114 3.73122,-4.94114 0.77474,0 2.45633,2.22891 3.73687,4.95314 1.28054,2.72422 2.55551,4.95314 2.83328,4.95314 0.27776,0 1.76117,-1.84858 3.29645,-4.10795 2.16948,-3.19267 2.79143,-5.4859 2.79143,-10.29238 0,-11.466626 1.60086,-13.519814 12.75821,-16.363031 9.91696,-2.527132 15.88763,-3.275416 18.32404,-2.296491 2.11918,0.851467 1.82517,1.01044 -1.97855,1.069842 -5.31901,0.08307 -8.585,2.157747 -8.02166,5.095662 0.32402,1.68981 1.65346,2.267549 6.44871,2.80243 3.32229,0.370583 7.97531,1.218813 10.34003,1.884955 5.20178,1.465343 6.55137,0.812893 5.66052,-2.736522 -0.60081,-2.39382 -0.43984,-2.563519 1.46476,-1.544209 6.26813,3.354604 15.54232,18.176044 15.54232,24.838784 0,2.16026 0.80382,5.15453 1.78626,6.65393 4.32867,6.60638 -1.81724,24.84963 -11.70133,34.73373 -4.28171,4.2817 -6.79005,5.70329 -14.18534,8.03946 -12.97272,4.09808 -17.22873,4.63697 -18.12732,2.29527 z M 882.31944,153.1005 c 0,-0.90808 -0.74297,-1.65105 -1.65104,-1.65105 -0.90808,0 -1.65105,0.74297 -1.65105,1.65105 0,0.90807 0.74297,1.65105 1.65105,1.65105 0.90807,0 1.65104,-0.74298 1.65104,-1.65105 z m 1.12607,-11.61857 c 1.01471,-2.44972 1.06365,-3.69281 0.18018,-4.57628 -1.85077,-1.85077 -4.60834,1.0049 -4.60834,4.7723 0,4.23707 2.64032,4.1202 4.42816,-0.19602 z m 58.09148,0.9418 c 2.12351,-2.12351 1.54399,-3.08196 -1.86349,-3.08196 -2.96873,0 -5.20204,2.25372 -3.71092,3.74484 1.10163,1.10163 4.17542,0.73611 5.57441,-0.66288 z m 9.90628,-4.40279 c 1.6889,-1.6889 1.70776,-4.18265 0.0316,-4.18265 -1.53637,0 -5.31499,3.25138 -5.31499,4.57338 0,1.39739 3.77436,1.11825 5.28335,-0.39073 z m -10.31511,-10.31512 c 2.31841,-2.3184 2.1819,-3.77382 -0.35397,-3.77382 -2.16524,0 -3.88577,2.75845 -2.80811,4.50212 0.83616,1.35294 1.15406,1.27972 3.16208,-0.7283 z m 7.04643,-13.50694 c 0.2,-1.40585 -0.36056,-3.38204 -1.24568,-4.39154 -0.88512,-1.0095 -1.95809,-2.97879 -2.38438,-4.37619 -0.55084,-1.80568 -1.46422,-2.44256 -3.15711,-2.2014 -3.67251,0.52318 -3.75064,5.66295 -0.1577,10.37354 3.27541,4.29428 6.38082,4.5606 6.94487,0.59559 z"
       id="path9041"
       inkscape:connector-curvature="0"
       transform="translate(0,842.36216)" />
    <path
       style="fill:#ff5855;fill-opacity:1;stroke:#ff5855;stroke-width:5.50348949;stroke-miterlimit:4;stroke-dasharray:none;stroke-opacity:1"
       d="m 887.33022,107.48523 c -1.06403,-1.17574 -1.75736,-2.66942 -1.54074,-3.31928 0.54662,-1.63986 5.33555,1.83219 5.33555,3.86835 0,2.20187 -1.5019,1.98456 -3.79481,-0.54907 z"
       id="path9043"
       inkscape:connector-curvature="0"
       transform="translate(0,842.36216)" />
  </g>
</svg>
