<?xml version="1.0" encoding="UTF-8" standalone="no"?>
<!-- Created with Inkscape (http://www.inkscape.org/) -->

<svg
   xmlns:dc="http://purl.org/dc/elements/1.1/"
   xmlns:cc="http://creativecommons.org/ns#"
   xmlns:rdf="http://www.w3.org/1999/02/22-rdf-syntax-ns#"
   xmlns:svg="http://www.w3.org/2000/svg"
   xmlns="http://www.w3.org/2000/svg"
   xmlns:sodipodi="http://sodipodi.sourceforge.net/DTD/sodipodi-0.dtd"
   xmlns:inkscape="http://www.inkscape.org/namespaces/inkscape"
   width="420"
   height="210"
   viewBox="0 0 420 210"
   id="svg5601"
   version="1.1"
   inkscape:version="0.91 r13725"
   sodipodi:docname="ian-2-lightbulb.svg">
  <defs
     id="defs5603" />
  <sodipodi:namedview
     id="base"
     pagecolor="#ffffff"
     bordercolor="#666666"
     borderopacity="1.0"
     inkscape:pageopacity="0.0"
     inkscape:pageshadow="2"
     inkscape:zoom="1.1306426"
     inkscape:cx="296.62901"
     inkscape:cy="106.90195"
     inkscape:document-units="px"
     inkscape:current-layer="layer1"
     showgrid="false"
     units="px"
     inkscape:window-width="1440"
     inkscape:window-height="778"
     inkscape:window-x="0"
     inkscape:window-y="1"
     inkscape:window-maximized="1" />
  <metadata
     id="metadata5606">
    <rdf:RDF>
      <cc:Work
         rdf:about="">
        <dc:format>image/svg+xml</dc:format>
        <dc:type
           rdf:resource="http://purl.org/dc/dcmitype/StillImage" />
        <dc:title />
      </cc:Work>
    </rdf:RDF>
  </metadata>
  <g
     inkscape:label="Layer 1"
     inkscape:groupmode="layer"
     id="layer1"
     transform="translate(0,-842.36216)">
    <path
       style="fill:#000000"
       d="m 143.06971,1031.0508 c -0.78533,-2.0656 -0.0639,-7.0835 1.06947,-7.4383 2.03124,-0.6358 34.05424,-7.7029 34.20791,-7.5492 0.0907,0.091 0.5808,2.1759 1.08911,4.6338 0.7355,3.5566 0.77708,4.5598 0.20365,4.9142 -0.39631,0.245 -3.31824,0.7349 -6.49321,1.0889 -3.17497,0.3539 -6.93116,1.0043 -8.34709,1.4453 -3.82235,1.1904 -18.13451,4.3098 -19.77392,4.3098 -0.98336,0 -1.5866,-0.4332 -1.95592,-1.4045 z m -0.78916,-11.3085 c -0.19204,-0.7168 -0.35268,-2.0013 -0.35697,-2.8545 -0.009,-1.7864 -0.62858,-1.5627 13.15036,-4.748 12.45862,-2.88 21.89039,-4.901 22.03887,-4.7224 0.0694,0.083 0.30241,1.3661 0.51777,2.8503 0.36233,2.4971 0.29308,2.7219 -0.92786,3.0118 -0.72569,0.1724 -8.27037,1.8579 -16.76598,3.7457 -8.4956,1.8877 -15.86516,3.5646 -16.3768,3.7263 -0.62285,0.1969 -1.04561,-0.1366 -1.27939,-1.0092 z m -3.34651,-8.025 c -1.9182,-0.7851 -2.24886,-1.5822 -1.5979,-3.852 0.58201,-2.0294 -0.28672,-5.0032 -2.67138,-9.1448 -3.95298,-6.8653 -7.93016,-9.9723 -14.0064,-10.9419 -4.82625,-0.7702 -12.39321,-5.2665 -24.755346,-14.7098 -2.905834,-2.2198 -3.530835,-3.1126 -6.32413,-9.0346 -2.714733,-5.7553 -3.360244,-7.8648 -5.198464,-16.988 -1.882539,-9.3432 -2.066157,-11.0358 -1.781712,-16.4237 0.208355,-3.9466 0.827716,-7.773 1.805761,-11.1558 0.818749,-2.8319 1.695554,-5.9212 1.948457,-6.8652 1.061894,-3.9635 7.727284,-12.5759 16.433184,-21.2334 8.23222,-8.1865 9.01121,-8.8029 14.61613,-11.5649 5.54662,-2.7333 10.43173,-4.7338 16.5042,-6.7586 3.49976,-1.167 17.30748,-1.6753 23.35183,-0.8597 8.64371,1.1663 16.85644,5.5997 27.71025,14.9584 5.25361,4.53 6.87139,6.3399 9.71606,10.8698 4.20935,6.7032 4.63705,7.8114 6.18199,16.0187 2.20048,11.6897 1.36688,25.2324 -2.19895,35.7242 -1.50898,4.4399 -1.71817,4.718 -9.03899,12.014 -4.12184,4.1079 -9.37332,9.1581 -11.66996,11.2226 l -4.17569,3.7537 1.2113,9.4045 c 0.66622,5.1724 1.38133,11.3745 1.58913,13.7823 l 0.37781,4.3778 -3.36339,0.6828 c -1.84986,0.3756 -9.41328,2.0831 -16.80761,3.7946 -16.31605,3.7765 -15.93736,3.7144 -17.85618,2.929 z m 5.75446,-9.9373 c 2.46129,-0.4922 4.32342,-3.6655 3.79933,-6.4745 -0.20921,-1.1212 -2.96092,-7.4449 -6.1149,-14.0526 -8.28983,-17.3674 -10.34236,-23.4407 -8.3402,-24.6781 1.1364,-0.7024 9.17437,-0.7476 10.96879,-0.062 1.50925,0.5768 1.79919,0.4719 3.28148,-1.187 1.61115,-1.8032 4.0522,-2.4392 4.78861,-1.2477 0.68796,1.1131 1.83552,0.5473 2.90048,-1.4302 1.45066,-2.6938 2.89703,-2.6165 3.65412,0.195 1.49296,5.5445 1.81525,9.4227 2.00433,24.119 0.11133,8.6529 0.43707,16.5049 0.72387,17.4489 0.50845,1.6735 0.62271,1.7204 4.5836,1.8834 3.54383,0.1458 4.1053,0.031 4.40029,-0.8982 0.18597,-0.586 -0.17673,-4.0079 -0.806,-7.6044 -0.62929,-3.5965 -1.14681,-8.777 -1.15008,-11.5124 -0.007,-5.7771 0.12006,-5.9417 6.126,-7.9403 7.06461,-2.351 11.44085,-6.203 17.50138,-15.405 2.48899,-3.7792 3.97679,-9.5937 5.22518,-20.4207 1.32381,-11.4812 0.35564,-17.2192 -4.57005,-27.0852 -3.08818,-6.1855 -5.97621,-9.8329 -11.55913,-14.5982 -5.34428,-4.5616 -16.03866,-11.2963 -19.59443,-12.3394 -1.72387,-0.5058 -6.16567,-0.7605 -13.44422,-0.7711 -9.91078,-0.014 -11.22312,0.1026 -14.87446,1.3268 -8.95372,3.0019 -11.00696,3.768 -14.03616,5.2369 -2.88476,1.3988 -4.52,2.4835 -10.97973,7.2829 -1.17266,0.8713 -2.79364,2.6802 -3.60219,4.0198 -0.80855,1.3396 -2.07604,2.8326 -2.81666,3.3179 -3.161551,2.0715 -11.1863,16.8782 -11.1863,20.6402 0,0.9033 -0.528923,3.4438 -1.175385,5.6453 -1.859328,6.3321 -0.799553,14.4122 3.931721,29.9768 l 2.678352,8.811 4.801572,5.3316 c 4.86714,5.4045 9.48849,8.749 14.98783,10.8469 2.75564,1.0513 3.99605,1.128 8.11443,0.5022 3.1819,-0.4836 4.36555,0.2735 6.2741,4.0131 0.6383,1.2507 2.51025,4.2113 4.1599,6.5791 1.64965,2.3678 3.57687,5.4636 4.28272,6.8796 2.11691,4.2465 2.10907,4.2409 5.06181,3.6503 z m 13.8717,-7.2259 c 0.24575,-13.7454 -0.66122,-30.4147 -1.76399,-32.4209 -0.24569,-0.447 -1.79427,-1.1576 -3.44129,-1.5791 -2.74237,-0.7018 -3.28995,-0.6631 -6.50175,0.4594 -4.74602,1.6587 -6.31441,3.3933 -5.82659,6.4439 0.20335,1.2717 1.12701,3.7374 2.05258,5.4794 0.92557,1.742 4.13305,7.9943 7.12773,13.894 4.87286,9.5999 5.59482,10.7268 6.87224,10.7268 1.3337,0 1.4309,-0.1971 1.48107,-3.0035 z M 295.51116,983.602 c -2.88545,-0.9041 -4.87263,-2.1392 -8.85548,-5.5038 -5.36543,-4.5325 -5.7513,-4.6926 -11.81673,-4.9023 -10.1643,-0.3515 -15.97064,-2.3386 -21.2175,-7.2614 -3.24089,-3.0408 -6.30121,-8.4641 -7.52998,-13.3442 -0.30889,-1.2268 -0.82754,-3.2603 -1.15255,-4.5189 -1.09867,-4.2546 -0.463,-14.0027 1.41765,-21.7396 1.08595,-4.4676 6.15649,-12.4299 10.63612,-16.7021 2.39296,-2.2821 13.96327,-7.0398 17.12021,-7.0398 2.81943,0 9.03761,2.3281 12.79017,4.7888 4.19176,2.7486 5.88412,3.2009 9.38553,2.5086 2.73799,-0.5414 3.2901,-0.9553 7.35541,-5.5146 5.23317,-5.8691 6.2237,-6.6945 9.36273,-7.8021 3.08009,-1.0867 6.64739,-1.0729 10.95166,0.043 4.14767,1.0748 5.60437,1.9206 5.60437,3.254 0,1.2487 -0.81526,1.2607 -7.48594,0.1095 -6.02911,-1.0404 -7.23827,-0.7853 -11.43136,2.4124 -3.34822,2.5534 -5.99985,7.7526 -5.38398,10.5566 l 0.38091,1.7343 5.23807,-0.2611 c 2.88094,-0.1436 6.04071,-0.4423 7.02171,-0.6639 3.51331,-0.7935 7.52688,2.4553 17.37021,14.0602 6.67237,7.8665 8.33544,11.0302 9.97772,18.981 1.21044,5.8601 1.17977,6.2916 -0.9051,12.7322 -1.60567,4.9603 -2.20917,6.0317 -5.38127,9.5537 -6.86869,7.6263 -15.13064,12.4932 -24.49033,14.4264 -5.14662,1.0631 -15.70218,1.1152 -18.96225,0.094 z m 5.80873,-4.4227 c 1.22086,-1.1469 1.34887,-1.1602 2.27253,-0.2366 0.64019,0.6402 1.49177,0.8709 2.46174,0.667 0.81564,-0.1716 3.67123,-0.6108 6.34577,-0.9762 6.55616,-0.8957 6.83535,-0.9922 5.56799,-1.9255 -1.47851,-1.0889 -0.76255,-2.1694 2.39811,-3.6194 2.90666,-1.3334 10.19802,-8.5309 11.82028,-11.668 3.36701,-6.511 1.46965,-19.3204 -4.8637,-32.8354 -2.35907,-5.0342 -4.00433,-6.6582 -8.9043,-8.7895 -2.53122,-1.101 -2.92084,-1.1412 -3.49208,-0.36 -0.37351,0.5108 -0.52761,2.0802 -0.36767,3.7447 0.3488,3.6301 -0.4716,3.7448 -3.45343,0.4827 -1.65747,-1.8133 -2.33725,-2.2234 -2.84439,-1.7163 -0.36652,0.3665 -1.96649,0.6763 -3.55548,0.6884 -2.62144,0.02 -2.99576,0.1923 -4.04073,1.8593 -1.65511,2.6405 -4.43782,2.8739 -5.67768,0.4763 -0.80357,-1.5539 -1.08289,-1.6829 -2.97845,-1.3753 -1.63312,0.265 -2.26106,0.1078 -2.86408,-0.7168 -1.04154,-1.4244 -1.02084,-1.5118 0.94393,-3.9841 2.03593,-2.5619 2.12851,-3.1465 0.49829,-3.1465 -0.7285,0 -2.43302,1.2645 -4.2413,3.1465 -3.20219,3.3327 -3.93257,3.6972 -4.49116,2.2416 -0.62858,-1.6381 -0.36425,-3.1837 0.79694,-4.6599 1.5122,-1.9225 1.44314,-2.7944 -0.31248,-3.9447 -2.14904,-1.4081 -9.73172,-0.7708 -14.75479,1.24 -3.76108,1.5057 -3.83482,1.5773 -5.87379,5.7029 l -2.06489,4.178 0.25621,9.0629 c 0.18253,6.4565 0.51887,9.7211 1.1695,11.3513 2.78407,6.976 3.78504,8.8454 5.83255,10.8929 1.87664,1.8766 2.74053,2.3049 5.13677,2.5467 l 2.88071,0.2907 0.003,3.078 c 0.002,2.2453 0.26135,3.2423 0.95668,3.6854 1.17516,0.7489 2.76543,-0.3734 2.76543,-1.9516 0,-1.5627 3.7821,-5.0978 5.45396,-5.0978 1.90657,0 1.7782,1.1529 -0.35435,3.1825 -0.97103,0.9241 -2.01794,2.1459 -2.32646,2.715 -0.62799,1.1584 -0.1099,4.4002 0.70322,4.4002 0.28875,0 1.52235,-0.9011 2.74133,-2.0024 1.34875,-1.2185 2.80506,-2.0023 3.72026,-2.0023 1.68526,0 1.93001,0.6505 0.64578,1.7163 -1.38057,1.1458 -1.09437,2.495 0.42907,2.0228 4.05817,-1.2577 4.85727,-0.8128 2.98531,1.6621 -1.02699,1.3578 -1.09927,3.1876 -0.12483,3.1599 0.39331,-0.011 1.35872,-0.3882 2.14535,-0.8378 1.93859,-1.1082 2.28838,-1.0581 2.28838,0.3279 0,0.6586 -1.01077,2.0934 -2.27279,3.2264 -1.25003,1.1221 -2.12299,2.2827 -1.93991,2.5789 0.69339,1.1219 3.99313,2.7301 5.60606,2.7321 0.92729,0 2.25882,-0.5422 2.97315,-1.2133 z m 20.80565,-1.6113 c 0,-0.675 -1.11579,-1.397 -1.52559,-0.9872 -0.4098,0.4098 0.31227,1.5256 0.98726,1.5256 0.29608,0 0.53833,-0.2423 0.53833,-0.5384 z m 11.62705,-7.8441 c 3.8939,-4.252 5.70072,-6.9533 5.31795,-7.9508 -0.55731,-1.4523 -1.96786,-0.2322 -4.58374,3.9648 -1.41271,2.2666 -3.09855,4.6007 -3.7463,5.1869 -0.64776,0.5862 -1.17773,1.2834 -1.17773,1.5493 0,1.192 1.453,0.2382 4.18982,-2.7502 z m -47.33107,-1.1959 c -0.39675,-0.3968 -1.48212,0.4093 -1.48212,1.1008 0,0.3793 0.32825,0.3359 0.87196,-0.1153 0.47959,-0.3981 0.75416,-0.8415 0.61016,-0.9855 z m -15.78449,-3.923 c 0,-1.0796 -1.32967,-2.8998 -4.85056,-6.64 -6.53871,-6.9461 -7.50445,-9.0733 -8.71828,-19.2037 -0.53637,-4.4763 -1.14478,-8.1388 -1.35202,-8.1388 -0.65275,0 -1.77084,6.921 -1.77084,10.9615 0,4.5749 0.90027,7.6928 2.46265,8.529 0.72255,0.3867 1.01065,0.9655 0.80424,1.6159 -0.19367,0.6102 0.14032,1.4314 0.83952,2.0642 l 1.16116,1.0508 -1.20841,1.2863 -1.2084,1.2863 2.4025,2.6064 c 2.37672,2.5784 8.35035,6.0695 10.38563,6.0695 0.75238,0 1.05281,-0.4245 1.05281,-1.4874 z"
       id="path10763"
       inkscape:connector-curvature="0" />
    <path
       style="fill:#fcf679;fill-opacity:1;stroke:none;stroke-width:2;stroke-miterlimit:4;stroke-dasharray:none;stroke-opacity:1"
       d="m 136.11918,147.95139 c -4.49129,-7.26706 -8.92562,-10.73782 -13.71892,-10.73782 -18.94589,0 -35.763921,-34.41419 -28.924019,-59.186272 6.451471,-23.365302 31.355719,-41.777649 56.412389,-41.707118 15.28626,0.04303 34.51654,12.539602 42.27892,27.474462 10.92222,21.014405 2.27416,50.979648 -17.51166,60.677258 -7.62863,3.73902 -8.19027,5.16198 -6.346,16.07811 1.32242,7.82735 0.86919,11.97605 -1.30834,11.97605 -2.0402,0 -3.34987,-7.41962 -3.37858,-19.14061 -0.0571,-23.28982 -2.72171,-28.80863 -11.61229,-24.05054 -3.47222,1.85828 -9.15998,3.37869 -12.63946,3.37869 -8.21894,0 -7.98858,5.25418 1.13479,25.88375 8.50574,19.23299 5.57756,25.47675 -4.38683,9.35404 z"
       id="path10747"
       inkscape:connector-curvature="0"
       transform="translate(0,842.36216)" />
    <path
       style="fill:#fcf679;fill-opacity:1;stroke:none;stroke-width:2;stroke-miterlimit:4;stroke-dasharray:none;stroke-opacity:1"
       d="m 148.93507,138.69047 c -5.629,-11.6614 -6.25614,-15.18591 -3.06249,-17.21123 2.20882,-1.40077 5.02338,-2.56796 6.25457,-2.59375 3.36658,-0.0705 5.99781,13.11529 4.87773,24.4437 l -0.99126,10.02565 -7.07855,-14.66437 z"
       id="path10749"
       inkscape:connector-curvature="0"
       transform="translate(0,842.36216)" />
    <path
       style="fill:#99f8ce;fill-opacity:1;stroke:none;stroke-width:2;stroke-miterlimit:4;stroke-dasharray:none;stroke-opacity:1"
       d="m 335.16968,109.70498 c 0,-5.30422 -1.4675,-12.386083 -3.26111,-15.737476 -5.99773,-11.206858 -0.83265,-13.556428 5.91649,-2.691383 7.0234,11.306559 7.60924,24.702379 1.17274,26.815879 -2.51819,0.82688 -3.82812,-2.04306 -3.82812,-8.38702 z"
       id="path10751"
       inkscape:connector-curvature="0"
       transform="translate(0,842.36216)" />
    <path
       style="fill:#99f8ce;fill-opacity:1;stroke:none;stroke-width:2;stroke-miterlimit:4;stroke-dasharray:none;stroke-opacity:1"
       d="m 297.21329,132.87768 c 2.20968,-5.75832 -11.001,-18.46345 -20.23105,-19.45684 -10.55804,-1.13631 -15.31248,-8.69285 -15.31248,-24.3371 0,-11.428396 1.09106,-13.686523 7.85561,-16.258398 10.35447,-3.936765 10.51937,-3.895572 10.51937,2.62788 0,6.07623 0.83254,6.3736 21.43747,7.657098 7.57968,0.472145 14.66397,-0.435407 15.74286,-2.016783 3.05562,-4.478756 12.2019,11.722873 13.89459,24.612763 1.29416,9.85499 0.21554,12.80781 -7.16638,19.61896 -9.7569,9.00248 -29.42848,14.5585 -26.73999,7.55242 z"
       id="path10753"
       inkscape:connector-curvature="0"
       transform="translate(0,842.36216)" />
    <path
       style="fill:#99f8ce;fill-opacity:1;stroke:none;stroke-width:2;stroke-miterlimit:4;stroke-dasharray:none;stroke-opacity:1"
       d="m 269.16675,123.29401 c 0,-0.2284 -0.45267,-0.38421 -1.11624,-0.38421 -0.42201,0 -0.56557,-0.0448 -0.62043,-0.19348 -0.10556,-0.28608 -0.25719,-0.35574 -0.7785,-0.35761 -0.33816,-0.001 -0.46986,-0.0471 -0.46986,-0.16364 0,-0.20106 -0.33923,-0.39084 -0.69864,-0.39084 -0.16276,0 -0.33924,-0.10423 -0.442,-0.26106 -0.11211,-0.17111 -0.3215,-0.28512 -0.60767,-0.33088 -0.30359,-0.0485 -0.45372,-0.1352 -0.49274,-0.28441 -0.0372,-0.14234 -0.19266,-0.24021 -0.46161,-0.29067 -0.24764,-0.0465 -0.47256,-0.17842 -0.57776,-0.33898 -0.0947,-0.1446 -0.26269,-0.26291 -0.37321,-0.26291 -0.11053,0 -0.23121,-0.0953 -0.2682,-0.21187 -0.037,-0.11653 -0.21446,-0.26319 -0.3944,-0.32592 -0.17993,-0.0627 -0.32715,-0.16892 -0.32715,-0.23599 0,-0.0671 -0.17233,-0.19396 -0.38296,-0.28196 -0.21063,-0.088 -0.43319,-0.25387 -0.49459,-0.36859 -0.0614,-0.11472 -0.23731,-0.24013 -0.39093,-0.27868 -0.17998,-0.0452 -0.27931,-0.14724 -0.27931,-0.287 0,-0.13781 -0.0985,-0.24162 -0.27007,-0.28469 -0.16441,-0.0413 -0.28335,-0.16103 -0.30403,-0.30613 -0.0213,-0.14954 -0.12665,-0.25152 -0.28271,-0.27369 -0.15234,-0.0216 -0.24876,-0.11216 -0.24876,-0.23355 0,-0.10902 -0.14925,-0.38603 -0.33167,-0.61557 -0.18241,-0.22955 -0.33167,-0.48179 -0.33167,-0.56054 0,-0.0787 -0.0964,-0.17378 -0.21428,-0.21119 -0.35917,-0.114 -0.3728,-1.27357 -0.015,-1.27357 0.10334,0 0.33088,-0.14925 0.50565,-0.33167 0.17476,-0.18242 0.38193,-0.33167 0.46036,-0.33167 0.0784,0 0.22282,-0.12243 0.32087,-0.27208 0.0981,-0.14964 0.27078,-0.30144 0.38384,-0.33732 0.11307,-0.0359 0.23575,-0.16033 0.27263,-0.27653 0.0821,-0.2587 -0.11789,-0.66186 -0.32834,-0.66186 -0.0848,0 -0.17015,-0.11194 -0.18958,-0.24875 -0.0219,-0.15422 -0.12411,-0.26143 -0.26894,-0.2821 -0.12848,-0.0183 -0.2891,-0.15515 -0.35694,-0.30403 -0.0678,-0.14888 -0.17632,-0.27069 -0.24108,-0.27069 -0.10794,0 -1.32423,-1.17677 -1.32423,-1.28121 0,-0.025 0.0972,-0.0455 0.21611,-0.0455 0.15944,0 0.23513,-0.10145 0.28869,-0.38694 0.0399,-0.21283 0.11149,-0.38695 0.15902,-0.38695 0.20472,0 0.21344,-0.38065 0.0137,-0.59761 -0.11726,-0.12736 -0.23099,-0.33107 -0.25273,-0.45268 -0.0298,-0.16697 -0.17468,-0.24819 -0.59146,-0.33167 -0.67582,-0.13537 -0.99073,-0.34941 -1.0871,-0.73889 -0.0404,-0.16316 -0.1666,-0.32624 -0.28049,-0.36239 -0.15531,-0.0493 -0.22039,-0.20408 -0.26026,-0.61903 -0.0327,-0.34047 -0.13891,-0.64762 -0.27606,-0.79846 -0.16881,-0.18565 -0.23801,-0.45758 -0.28515,-1.12044 -0.0469,-0.66014 -0.12189,-0.95597 -0.3049,-1.2035 -0.2372,-0.32083 -0.2426,-0.40227 -0.24014,-3.618271 0.002,-3.174363 0.0107,-3.301178 0.23636,-3.606359 0.20244,-0.27381 0.24354,-0.529249 0.30596,-1.901331 0.0527,-1.158217 0.11142,-1.600114 0.21811,-1.641057 0.2095,-0.08039 0.37012,-0.753572 0.37083,-1.554184 3.4e-4,-0.380038 0.0379,-0.690664 0.0835,-0.690279 0.0456,3.84e-4 0.18073,0.162073 0.30029,0.359309 0.19301,0.318416 0.22399,0.631216 0.27639,2.790855 0.0575,2.368935 0.14359,2.92975 0.44985,2.92975 0.0639,0 0.10667,0.683999 0.10667,1.70643 0,1.681956 0.081,2.195279 0.3837,2.430432 0.11594,0.09009 0.16257,0.519465 0.18912,1.741555 0.0327,1.5043 0.0533,1.64119 0.28399,1.88659 0.21179,0.22528 0.24885,0.38675 0.24937,1.08665 7.1e-4,0.93948 0.16327,1.65122 0.37715,1.65122 0.0916,0 0.1675,0.1884 0.20312,0.50439 0.0342,0.30344 0.15231,0.606 0.29646,0.75945 0.13179,0.14028 0.27713,0.39837 0.32297,0.57353 0.0458,0.17517 0.19254,0.36759 0.32598,0.42762 0.14819,0.0667 0.24261,0.20845 0.24261,0.36433 0,0.14036 0.1204,0.3756 0.26755,0.52275 0.14716,0.14715 0.28426,0.35633 0.30468,0.46484 0.0204,0.10851 0.14455,0.24458 0.27585,0.30239 0.1313,0.0578 0.26528,0.23789 0.29775,0.40021 0.0335,0.1673 0.15215,0.31948 0.27404,0.35136 0.13052,0.0341 0.24513,0.19332 0.29164,0.40506 0.0421,0.19186 0.19667,0.4275 0.3434,0.52364 0.14673,0.0961 0.26678,0.26763 0.26678,0.3811 0,0.12784 0.10511,0.23267 0.27639,0.27566 0.17454,0.0438 0.27639,0.14745 0.27639,0.28123 0,0.12426 0.11429,0.25532 0.2764,0.31695 0.16165,0.0615 0.27639,0.19273 0.27639,0.31622 0,0.11612 0.12437,0.29263 0.27639,0.39223 0.15201,0.0996 0.27639,0.24936 0.27639,0.33278 0,0.0834 0.12728,0.26884 0.28285,0.41204 0.15556,0.1432 0.32846,0.37229 0.38421,0.50911 0.0557,0.13681 0.17845,0.24875 0.27267,0.24875 0.0942,0 0.22043,0.12919 0.28046,0.28709 0.06,0.1579 0.20526,0.31222 0.32272,0.34294 0.11747,0.0307 0.2288,0.16272 0.24742,0.29333 0.0212,0.14868 0.12688,0.2507 0.28261,0.27281 0.1611,0.0229 0.24875,0.1115 0.24875,0.25149 0,0.12885 0.11164,0.25861 0.27639,0.32125 0.15202,0.0578 0.27639,0.182 0.27639,0.27602 0,0.094 0.12016,0.22569 0.26702,0.29261 0.14687,0.0669 0.29243,0.21879 0.32347,0.3375 0.031,0.11871 0.15357,0.24124 0.27228,0.27229 0.11872,0.031 0.27059,0.1766 0.33751,0.32346 0.0682,0.14957 0.21658,0.26702 0.33746,0.26702 0.13961,0 0.22826,0.0878 0.25112,0.24875 0.0221,0.15574 0.12413,0.26142 0.27281,0.28261 0.13061,0.0186 0.26374,0.13425 0.29582,0.25696 0.0321,0.1227 0.15548,0.2485 0.27419,0.27955 0.11871,0.031 0.27059,0.1766 0.3375,0.32346 0.0669,0.14686 0.191,0.26702 0.27574,0.26702 0.0943,0 0.18152,0.17164 0.22477,0.44209 0.0424,0.26544 0.15853,0.49695 0.29052,0.57938 0.19058,0.11902 0.21983,0.2588 0.21983,1.05042 l 0,0.91314 -0.60806,0 c -0.47118,0 -0.60806,-0.038 -0.60806,-0.16857 z"
       id="path10755"
       inkscape:connector-curvature="0"
       transform="translate(0,842.36216)" />
    <path
       style="fill:#99f8ce;fill-opacity:1;stroke:none;stroke-width:2;stroke-miterlimit:4;stroke-dasharray:none;stroke-opacity:1"
       d="m 276.14327,121.96622 c -0.18872,-0.21494 -0.34313,-0.43882 -0.34313,-0.49751 0,-0.0587 -0.0684,-0.10671 -0.15201,-0.10671 -0.0836,0 -0.18057,-0.14278 -0.21548,-0.3173 -0.0389,-0.19436 -0.15131,-0.34027 -0.29021,-0.37659 -0.21078,-0.0551 -0.22675,-0.14249 -0.22675,-1.24041 0,-1.09154 0.0189,-1.19637 0.24875,-1.38231 0.23343,-0.18881 0.24876,-0.28445 0.24876,-1.55291 0,-1.09375 -0.0317,-1.36634 -0.16584,-1.42837 -0.0912,-0.0422 -0.38941,-0.19312 -0.66267,-0.33546 -0.58021,-0.30223 -1.41473,-0.32619 -2.05423,-0.059 -0.55346,0.23125 -1.20806,0.21439 -1.57164,-0.0405 -0.18178,-0.12742 -0.5821,-0.23577 -1.01818,-0.27557 -0.54806,-0.05 -0.75461,-0.11826 -0.8703,-0.28752 -0.0834,-0.12206 -0.22146,-0.22193 -0.30676,-0.22193 -0.0853,0 -0.20238,-0.12438 -0.26017,-0.2764 -0.0578,-0.15201 -0.17541,-0.27639 -0.26135,-0.27639 -0.0907,0 -0.18635,-0.16035 -0.22794,-0.38203 -0.0961,-0.51231 -0.88993,-1.35906 -1.36254,-1.45337 -0.24534,-0.049 -0.3593,-0.13466 -0.3593,-0.27021 0,-0.13067 -0.11334,-0.2234 -0.33167,-0.27135 -0.18242,-0.0401 -0.33167,-0.14017 -0.33167,-0.22245 0,-0.0823 -0.094,-0.17944 -0.20889,-0.2159 -0.13402,-0.0425 -0.25388,-0.24496 -0.3344,-0.56475 -0.069,-0.27415 -0.19891,-0.52662 -0.28862,-0.56104 -0.10543,-0.0405 -0.1631,-0.21602 -0.1631,-0.49654 0,-0.48576 -0.25919,-1.20074 -0.43528,-1.20074 -0.0632,0 -0.14827,-0.20871 -0.18906,-0.4638 -0.0435,-0.27183 -0.18129,-0.56308 -0.33297,-0.70366 -0.16288,-0.15094 -0.25882,-0.36542 -0.25882,-0.57859 0,-0.32585 -0.23637,-0.6862 -0.45012,-0.6862 -0.0565,0 -0.10266,-0.15252 -0.10266,-0.33894 0,-0.4203 -0.17656,-0.76663 -0.39084,-0.76663 -0.11801,0 -0.16194,-0.13374 -0.16194,-0.49303 0,-0.37528 -0.063,-0.5535 -0.26394,-0.74625 -0.19483,-0.18692 -0.27795,-0.41061 -0.31742,-0.85426 -0.0389,-0.43676 -0.11782,-0.65313 -0.28885,-0.79162 -0.17279,-0.13992 -0.23664,-0.31813 -0.24017,-0.67037 -0.008,-0.748785 -0.1759,-1.448213 -0.38555,-1.601516 -0.16044,-0.117316 -0.20263,-0.406628 -0.26202,-1.79692 -0.0631,-1.477032 -0.0976,-1.693314 -0.31727,-1.99046 l -0.24647,-0.33337 0,-5.76801 c 0,-5.697576 0.003,-5.772676 0.23616,-6.15013 0.17763,-0.287412 0.25486,-0.646868 0.3116,-1.450286 0.0681,-0.96414 0.24753,-1.565669 0.46707,-1.565669 0.0424,0 0.11067,-0.236315 0.15159,-0.525144 0.0447,-0.315667 0.15883,-0.592356 0.28606,-0.69364 0.11642,-0.09267 0.2433,-0.3663 0.28196,-0.608061 0.0387,-0.241761 0.15975,-0.503184 0.26908,-0.580939 0.10933,-0.07776 0.23296,-0.326508 0.27473,-0.552783 0.0418,-0.226275 0.19301,-0.520973 0.33609,-0.654883 0.16626,-0.155616 0.26013,-0.368796 0.26013,-0.590772 0,-0.253875 0.0592,-0.362794 0.22027,-0.4049 0.14153,-0.03701 0.26142,-0.210466 0.33542,-0.485274 0.0633,-0.235221 0.20725,-0.476958 0.3198,-0.537194 0.11255,-0.06024 0.23619,-0.23521 0.27474,-0.388829 0.0386,-0.153619 0.14485,-0.279307 0.23621,-0.279307 0.0913,0 0.22276,-0.124377 0.29203,-0.276392 0.0693,-0.152015 0.21868,-0.276391 0.33203,-0.276391 0.11503,0 0.25007,-0.11564 0.30561,-0.261705 0.091,-0.23943 0.17729,-0.266209 1.01345,-0.314613 0.77989,-0.04515 0.93715,-0.08784 1.07209,-0.291078 0.087,-0.130994 0.24776,-0.23817 0.35729,-0.23817 0.10953,0 0.34141,-0.119708 0.51529,-0.266017 0.18879,-0.158864 0.53734,-0.297771 0.86529,-0.344847 0.30204,-0.04336 0.64866,-0.169075 0.77027,-0.279374 0.16333,-0.148141 0.52152,-0.22765 1.37076,-0.304277 0.95339,-0.08602 1.17986,-0.142441 1.32668,-0.330488 0.1645,-0.210711 0.31527,-0.229319 2.13061,-0.262969 1.84815,-0.03426 1.96786,-0.04964 2.21826,-0.284965 0.25265,-0.237451 0.34848,-0.248752 2.10937,-0.248752 1.54634,0 1.8447,0.02619 1.8447,0.161945 0,0.212886 0.34555,0.390838 0.75894,0.390838 0.25934,0 0.33892,0.054 0.36658,0.248752 0.0221,0.155731 0.12413,0.261411 0.27281,0.282604 0.13061,0.01862 0.26373,0.134249 0.29582,0.256957 0.0321,0.122708 0.16154,0.250091 0.28766,0.283074 0.12648,0.03307 0.22932,0.150538 0.22932,0.261917 0,0.111073 0.10175,0.273214 0.2261,0.360314 0.18308,0.128238 0.19507,0.170268 0.063,0.220942 -0.0921,0.03532 -0.19559,0.279377 -0.23773,0.560358 -0.0594,0.395842 -0.1232,0.504702 -0.31177,0.531584 -0.15238,0.02172 -0.25035,0.127276 -0.27413,0.295356 -0.0204,0.143854 -0.12916,0.285652 -0.2418,0.315107 -0.11263,0.02945 -0.25227,0.185384 -0.31031,0.346509 -0.058,0.161125 -0.21147,0.403945 -0.34097,0.539599 -0.12949,0.135654 -0.26548,0.396844 -0.3022,0.580422 -0.0367,0.183578 -0.13282,0.333778 -0.21357,0.333778 -0.46365,0 -0.50463,2.391006 -0.043,2.511712 0.13985,0.03657 0.2058,0.202062 0.2456,0.616292 0.0299,0.311462 0.11108,0.585181 0.18033,0.608265 0.0693,0.02308 0.27418,0.257464 0.45539,0.520844 0.45713,0.664427 1.31792,0.824312 1.49161,0.277057 0.0364,-0.114649 0.17575,-0.224043 0.30969,-0.243097 0.1499,-0.02133 0.25644,-0.125207 0.27712,-0.270219 0.0258,-0.180525 0.13654,-0.252037 0.4741,-0.306014 0.24227,-0.03874 0.4695,-0.146025 0.50495,-0.238409 0.0355,-0.09238 0.23255,-0.238204 0.438,-0.324045 0.20544,-0.08584 0.37354,-0.23447 0.37354,-0.330287 0,-0.09582 0.12437,-0.221501 0.27639,-0.279297 0.21204,-0.08062 0.27639,-0.184165 0.27639,-0.444769 0,-0.213383 0.0964,-0.430213 0.2592,-0.583158 0.14255,-0.133911 0.29133,-0.374605 0.3306,-0.534877 0.0393,-0.160273 0.19541,-0.409025 0.34696,-0.552783 0.15155,-0.143759 0.2764,-0.348443 0.27745,-0.454854 0.001,-0.119929 0.087,-0.193474 0.22576,-0.193474 0.13349,0 0.26389,-0.105295 0.32302,-0.260842 0.0651,-0.171292 0.22124,-0.285255 0.45472,-0.33195 0.19554,-0.03911 0.47069,-0.195358 0.61143,-0.347219 0.17122,-0.184752 0.37416,-0.276111 0.61335,-0.276111 0.20999,0 0.45854,-0.09496 0.60247,-0.230176 0.13476,-0.126597 0.44891,-0.257524 0.69811,-0.290949 0.42969,-0.05763 0.45309,-0.04594 0.45309,0.226286 0,0.173341 -0.0871,0.333661 -0.21981,0.404697 -0.12089,0.0647 -0.25066,0.240577 -0.28837,0.390837 -0.0377,0.150261 -0.13653,0.273201 -0.21958,0.273201 -0.0831,0 -0.22508,0.143222 -0.3156,0.318272 -0.0905,0.17505 -0.24105,0.347615 -0.33451,0.383478 -0.0935,0.03586 -0.16992,0.137566 -0.16992,0.226007 0,0.08844 -0.14925,0.310051 -0.33167,0.49247 -0.18242,0.182418 -0.33167,0.431537 -0.33167,0.553598 0,0.145628 -0.0851,0.234074 -0.24762,0.257257 -0.14408,0.02056 -0.26428,0.127785 -0.28746,0.256441 -0.0219,0.121613 -0.1699,0.326919 -0.32885,0.456238 -0.27379,0.222737 -0.28902,0.28888 -0.28902,1.255501 0,0.98249 0.0111,1.028494 0.30008,1.238972 0.16505,0.120227 0.30009,0.310119 0.30009,0.421982 0,0.272652 0.62431,0.883736 0.90287,0.883736 0.12239,0 0.31317,0.111939 0.42395,0.248753 0.17854,0.220487 0.30203,0.248752 1.08675,0.248752 0.76594,0 0.92101,-0.03354 1.15009,-0.248752 0.14564,-0.136814 0.34898,-0.248753 0.45187,-0.248753 0.10289,0 0.29522,-0.124376 0.4274,-0.276391 0.37938,-0.436323 0.60421,-0.362506 0.66986,0.219926 0.0379,0.336624 0.14039,0.570049 0.3184,0.725472 l 0.26247,0.229155 -1.21612,-0.06818 c -1.89563,-0.106269 -5.49913,-0.482182 -6.99999,-0.730231 -2.86344,-0.473246 -4.23617,-0.993297 -5.09112,-1.928744 -0.82793,-0.905893 -0.91018,-1.279524 -1.01337,-4.603198 -0.0924,-2.977195 -0.19442,-3.792294 -0.54705,-4.372152 -0.50612,-0.832242 -1.60585,-0.92699 -3.71434,-0.320009 -1.4168,0.40786 -5.85028,2.024056 -7.56006,2.75597 -4.32595,1.851835 -5.75381,3.808941 -6.36705,8.727027 -0.23885,1.915517 -0.33767,8.312253 -0.16867,10.918125 0.49271,7.597222 2.17172,12.634692 5.31962,15.960242 2.4182,2.55466 5.20915,3.87008 9.53157,4.4924 0.86612,0.1247 1.97276,0.33191 2.45921,0.46047 0.90474,0.2391 2.80014,0.93443 2.96763,1.08868 0.14947,0.13764 -0.12509,0.53307 -0.39694,0.57167 -0.15766,0.0224 -0.26163,0.12412 -0.28344,0.27732 -0.0215,0.15073 -0.12565,0.25493 -0.27639,0.27639 -0.13307,0.0189 -0.28989,0.14365 -0.34848,0.27713 -0.0586,0.13348 -0.22027,0.27124 -0.3593,0.30614 -0.14245,0.0357 -0.25279,0.14759 -0.25279,0.25623 0,0.10603 -0.11194,0.2419 -0.24875,0.30192 -0.13682,0.06 -0.26425,0.21802 -0.28319,0.35109 -0.0215,0.15074 -0.12566,0.25494 -0.27639,0.27639 -0.1532,0.0218 -0.25493,0.12578 -0.27732,0.28344 -0.0195,0.13694 -0.12507,0.297 -0.23471,0.35568 -0.20882,0.11176 -0.44854,0.86916 -0.44854,1.41716 0,0.17733 -0.0961,0.40783 -0.21485,0.51529 -0.11817,0.10694 -0.24659,0.33894 -0.28538,0.51556 -0.0388,0.17662 -0.16599,0.37221 -0.28266,0.43465 -0.11667,0.0624 -0.21212,0.16645 -0.21212,0.23112 0,0.1324 -0.63911,0.75908 -0.77414,0.75908 -0.0481,0 -0.24182,-0.17585 -0.43053,-0.39079 z"
       id="path10757"
       inkscape:connector-curvature="0"
       transform="translate(0,842.36216)" />
    <path
       style="fill:#99f8ce;fill-opacity:1;stroke:none;stroke-width:2;stroke-miterlimit:4;stroke-dasharray:none;stroke-opacity:1"
       d="m 292.60475,128.62121 c 0,-1.11202 0.008,-1.14652 0.27639,-1.26903 0.15755,-0.0718 0.27639,-0.21882 0.27639,-0.34197 0,-0.11882 0.0984,-0.24726 0.21865,-0.28543 0.3019,-0.0958 0.47657,-0.81794 0.42378,-1.75208 -0.0406,-0.71793 -0.067,-0.7831 -0.46548,-1.1483 -0.39621,-0.3631 -0.45982,-0.38408 -1.02284,-0.33739 -0.44571,0.037 -0.64175,0.10889 -0.76107,0.27925 -0.0937,0.1338 -0.34343,0.26033 -0.59895,0.3035 -0.28246,0.0477 -0.46081,0.14521 -0.50178,0.27427 -0.0659,0.20763 -0.36581,0.33056 -0.81283,0.33316 -0.16535,9.6e-4 -0.28003,0.0815 -0.31693,0.22263 -0.041,0.15662 -0.1508,0.22111 -0.3766,0.22111 -0.26216,0 -0.31877,-0.0468 -0.31877,-0.2635 0,-0.17366 0.0782,-0.28394 0.22932,-0.32346 0.12612,-0.033 0.25471,-0.1571 0.28576,-0.27581 0.031,-0.11872 0.1766,-0.27059 0.32346,-0.33751 0.14687,-0.0669 0.26703,-0.19858 0.26703,-0.2926 0,-0.094 0.12437,-0.21823 0.27639,-0.27603 0.15201,-0.0578 0.27639,-0.17979 0.27639,-0.2711 0,-0.0913 0.11829,-0.24354 0.26288,-0.33827 0.17397,-0.11399 0.28678,-0.32176 0.33357,-0.61433 0.0793,-0.49576 -0.0512,-0.82929 -0.36328,-0.92832 -0.11512,-0.0365 -0.23291,-0.15674 -0.26178,-0.26712 -0.0628,-0.24009 -0.51078,-0.34579 -1.45009,-0.34213 -0.84253,0.003 -1.51653,0.15363 -1.63462,0.36464 -0.0495,0.0885 -0.21925,0.19326 -0.37722,0.23291 -0.15798,0.0397 -0.39493,0.17497 -0.52656,0.30072 -0.13163,0.12575 -0.37411,0.27714 -0.53884,0.33644 -0.16474,0.0593 -0.32738,0.1956 -0.36144,0.3029 -0.034,0.10731 -0.18534,0.25133 -0.33619,0.32006 -0.15084,0.0687 -0.27426,0.19731 -0.27426,0.28572 0,0.0884 -0.10235,0.19324 -0.22745,0.23294 -0.12509,0.0397 -0.27311,0.19231 -0.32893,0.33912 -0.0558,0.14682 -0.17162,0.26694 -0.25735,0.26694 -0.0857,0 -0.23735,0.12437 -0.33695,0.27639 -0.0996,0.15201 -0.25363,0.27639 -0.34228,0.27639 -0.0886,0 -0.19113,0.11933 -0.22774,0.26519 -0.0708,0.28212 -0.4833,0.41112 -0.99923,0.31249 l -0.2651,-0.0507 0,-1.73828 0,-1.73827 0.27639,-0.12593 c 0.16213,-0.0739 0.27639,-0.21832 0.27639,-0.34942 0,-0.12634 0.0731,-0.22348 0.16821,-0.22348 0.0925,0 0.22295,-0.12016 0.28987,-0.26702 0.0669,-0.14686 0.21879,-0.29242 0.3375,-0.32347 0.11871,-0.031 0.24162,-0.15503 0.27314,-0.27554 0.0315,-0.1205 0.15588,-0.24487 0.27639,-0.27639 0.1205,-0.0315 0.24498,-0.15627 0.27661,-0.27725 0.0316,-0.12097 0.17125,-0.2485 0.31026,-0.28338 0.139,-0.0349 0.27986,-0.16717 0.31302,-0.29396 0.0332,-0.12679 0.15926,-0.25641 0.28024,-0.28805 0.12097,-0.0316 0.24999,-0.17719 0.2867,-0.32346 0.0367,-0.14627 0.14149,-0.26595 0.23285,-0.26595 0.0913,0 0.22276,-0.12438 0.29203,-0.27639 0.0693,-0.15202 0.16332,-0.27639 0.20902,-0.27639 0.0457,0 0.64716,0.40337 1.33658,0.89637 3.42886,2.45203 6.34429,5.39946 8.29351,8.38455 0.72258,1.10658 0.8833,1.42534 0.64414,1.27753 -0.0605,-0.0374 -0.22236,0.0531 -0.3596,0.20122 -0.13723,0.14808 -0.34889,0.2882 -0.47035,0.31138 -0.1274,0.0243 -0.23578,0.14691 -0.25616,0.28977 -0.0248,0.17388 -0.11053,0.24762 -0.28789,0.24762 -0.1389,0 -0.38676,0.12438 -0.55079,0.27639 -0.16402,0.15202 -0.4177,0.27639 -0.56372,0.27639 -0.36625,0 -0.82868,0.22584 -0.82868,0.4047 0,0.0814 -0.0497,0.14809 -0.11056,0.14809 -0.0666,0 -0.11055,-0.45474 -0.11055,-1.1431 z"
       id="path10759"
       inkscape:connector-curvature="0"
       transform="translate(0,842.36216)" />
    <path
       style="fill:#99f8ce;fill-opacity:1;stroke:none;stroke-width:2;stroke-miterlimit:4;stroke-dasharray:none;stroke-opacity:1"
       d="m 302.44565,83.137225 c -0.63771,-0.01987 -1.20237,-0.07903 -1.25481,-0.131463 -0.0534,-0.05342 0.003,-0.193751 0.12845,-0.319144 0.35247,-0.352469 0.46165,-0.629886 0.46165,-1.173 l 0,-0.504773 2.37697,0 c 2.17341,0 2.39465,-0.01768 2.58345,-0.20648 0.11356,-0.113564 0.44938,-0.250687 0.74626,-0.304719 0.43865,-0.07983 0.54639,-0.144713 0.5751,-0.346303 0.0313,-0.21955 0.0994,-0.248064 0.59235,-0.248064 0.52773,0 0.58695,0.0309 1.12604,0.587496 0.31296,0.323123 0.6299,0.721127 0.70432,0.884453 0.0744,0.163326 0.20662,0.296956 0.29379,0.296956 0.0988,0 0.18671,0.167058 0.23349,0.443939 0.0541,0.320149 0.15378,0.485213 0.35751,0.591958 0.27104,0.142014 0.25524,0.151102 -0.38953,0.22405 -2.10626,0.238296 -5.13384,0.311048 -8.53504,0.205094 z"
       id="path10761"
       inkscape:connector-curvature="0"
       transform="translate(0,842.36216)" />
  </g>
</svg>
