<?xml version="1.0" encoding="UTF-8" standalone="no"?>
<!-- Created with Inkscape (http://www.inkscape.org/) -->

<svg
   xmlns:dc="http://purl.org/dc/elements/1.1/"
   xmlns:cc="http://creativecommons.org/ns#"
   xmlns:rdf="http://www.w3.org/1999/02/22-rdf-syntax-ns#"
   xmlns:svg="http://www.w3.org/2000/svg"
   xmlns="http://www.w3.org/2000/svg"
   xmlns:sodipodi="http://sodipodi.sourceforge.net/DTD/sodipodi-0.dtd"
   xmlns:inkscape="http://www.inkscape.org/namespaces/inkscape"
   width="1104"
   height="210"
   viewBox="0 0 1104 210"
   id="svg8124"
   version="1.1"
   inkscape:version="0.91 r13725"
   sodipodi:docname="ian-2-variations.svg">
  <defs
     id="defs8126" />
  <sodipodi:namedview
     id="base"
     pagecolor="#ffffff"
     bordercolor="#666666"
     borderopacity="1.0"
     inkscape:pageopacity="0.0"
     inkscape:pageshadow="2"
     inkscape:zoom="0.9085145"
     inkscape:cx="773.24028"
     inkscape:cy="16.944167"
     inkscape:document-units="px"
     inkscape:current-layer="layer1"
     showgrid="false"
     units="px"
     inkscape:window-width="1440"
     inkscape:window-height="778"
     inkscape:window-x="0"
     inkscape:window-y="1"
     inkscape:window-maximized="1" />
  <metadata
     id="metadata8129">
    <rdf:RDF>
      <cc:Work
         rdf:about="">
        <dc:format>image/svg+xml</dc:format>
        <dc:type
           rdf:resource="http://purl.org/dc/dcmitype/StillImage" />
        <dc:title />
      </cc:Work>
    </rdf:RDF>
  </metadata>
  <g
     inkscape:label="Layer 1"
     inkscape:groupmode="layer"
     id="layer1"
     transform="translate(0,-842.36216)">
    <path
       style="fill:#000000"
       d="m 354.01121,886.55952 c -2.96214,-0.31399 -11.59608,7.90454 -16.53779,15.74275 l -3.63789,5.77086 -11.69918,0.22502 c -10.88365,0.21099 -12.10679,0.46184 -17.58927,3.58728 -6.77614,3.86278 -14.98161,12.45895 -18.97773,19.88286 -1.99838,3.71253 -2.8312,7.21175 -3.02498,12.7247 -0.57638,16.39871 3.01522,23.24973 18.05868,34.45548 l 9.31018,6.93342 23.85738,-1.20277 c 21.99692,-1.10966 24.20064,-1.40334 28.26929,-3.77531 7.0429,-4.10602 17.97456,-17.46022 22.46179,-27.43937 3.61579,-8.04109 3.92572,-9.57289 3.61221,-17.83983 -0.29805,-7.84706 -0.81521,-9.89011 -3.91539,-15.4451 -6.32663,-11.33604 -14.02093,-14.2017 -31.48099,-11.72378 -6.09715,0.86527 -11.52618,1.16533 -12.06313,0.66602 -1.26845,-1.17957 5.77327,-9.5386 11.81889,-14.02985 5.18919,-3.85496 5.94858,-8.06477 1.53793,-8.53238 z m 287.91926,-4.91984 c -1.2451,0.0852 -3.35749,1.21224 -6.89978,3.41837 -5.62724,3.50445 -7.73369,6.63516 -3.42797,5.09444 3.48124,-1.24564 6.13046,0.0586 8.21303,4.04644 2.61088,4.99967 3.92505,11.21014 2.56572,12.12005 -0.60343,0.40388 -4.64042,0.25854 -8.97242,-0.32343 -6.93455,-0.93158 -8.34553,-0.81309 -11.79098,0.9862 -11.40815,5.95749 -18.57301,14.26675 -31.76915,36.84659 -5.37546,9.19832 -5.84574,10.54763 -5.10506,14.63716 2.61112,14.41724 5.68081,20.11863 15.83483,29.41863 7.10339,6.50595 8.64764,6.76059 39.81342,6.55966 22.32391,-0.14392 23.61786,-0.26761 29.73587,-2.8514 3.51798,-1.48565 9.39671,-4.90953 13.06383,-7.60909 3.66711,-2.69957 7.2372,-5.28234 7.9338,-5.73785 2.05734,-1.34513 -1.86174,9.33753 -5.93499,16.1784 -6.55911,11.01585 -10.63805,14.47285 -21.22214,17.98645 -18.08928,6.005 -46.43418,9.044 -49.39683,5.2958 -1.31585,-1.6646 -1.88515,-1.7352 -3.7538,-0.4716 -3.49969,2.3663 -13.35051,-0.8496 -19.16469,-6.2565 -4.93392,-4.5881 -7.37759,-10.1903 -9.4946,-21.75847 -0.95677,-5.22783 -1.41879,-6.01157 -3.31119,-5.62269 -7.66594,1.57546 -10.58291,6.43957 -11.96442,19.94946 -1.49014,14.5716 -1.00809,18.228 2.95059,22.4196 1.90773,2.0199 3.49499,4.4052 3.52748,5.3 0.0681,1.8769 1.36358,2.0664 2.89011,0.4249 0.6948,-0.7472 2.45684,-0.2564 5.14795,1.4328 3.74921,2.3534 21.96217,6.6128 32.32422,7.5591 10.6148,0.9692 32.27354,-2.994 45.83007,-8.3863 24.73891,-9.8406 35.33731,-20.6477 49.08757,-50.04703 6.1982,-13.25223 7.4062,-19.13863 5.32597,-25.95515 -2.4647,-8.07656 -11.09185,-22.74426 -15.89794,-27.03013 -2.53581,-2.26145 -9.52487,-8.6157 -15.53335,-14.12011 -6.19525,-5.67572 -12.25194,-10.27592 -13.99095,-10.62832 -1.94463,-0.39406 -5.37605,0.30082 -9.38028,1.89962 -9.94199,3.96961 -9.51058,4.18317 -10.5253,-5.23702 -0.5658,-5.25258 -1.63766,-9.3113 -2.9,-10.98112 -1.10132,-1.45677 -2.05284,-4.03533 -2.11442,-5.73128 -0.0711,-1.95698 -0.44902,-2.91208 -1.6942,-2.82618 z m -323.64935,30.45053 c 2.74112,-0.0995 2.09951,2.09266 -0.99475,3.39939 -10.05489,4.24663 -16.73571,16.29577 -11.34034,20.4523 1.56419,1.20507 1.68193,1.01571 0.95059,-1.50659 -1.0135,-3.49556 2.4263,-10.80099 6.62376,-14.07133 2.6318,-2.05055 14.19501,-5.8259 15.14293,-4.94441 0.23299,0.21666 -0.25906,1.833 -1.09199,3.5918 -2.24561,4.74178 -0.51187,5.84965 2.65624,1.6969 1.516,-1.98714 3.12902,-3.61796 3.58521,-3.63452 0.45619,-0.0166 1.5603,1.58007 2.45159,3.53482 1.54485,3.38833 1.654,3.43629 2.33879,1.02676 0.86185,-3.03205 2.41063,-3.25303 5.36772,-0.76598 2.14008,1.79992 2.17592,1.73825 1.27245,-2.26954 -1.13574,-5.03768 -0.23461,-5.18769 4.66625,-0.77086 l 3.79128,3.41659 -0.12644,-3.4824 c -0.22959,-6.32299 1.81838,-4.94496 5.82449,3.92039 3.74853,8.29551 4.04987,8.64619 5.894,6.85124 2.60498,-2.53526 2.51513,-2.84995 -2.18753,-7.62414 -4.25862,-4.32332 -4.73516,-6.50636 -1.84712,-8.47462 5.0565,-3.44615 18.53482,4.39913 21.55572,12.54653 2.11373,5.70074 1.57189,20.85256 -0.96784,27.04333 -2.27379,5.54245 -10.73561,17.52819 -11.72528,16.60798 -0.33837,-0.31477 0.8234,-3.08956 2.58359,-6.16457 1.76018,-3.0751 3.49464,-6.64431 3.85252,-7.93252 0.83572,-3.00775 -1.2763,-3.0042 -2.74864,0.004 -0.60912,1.24497 -0.78336,2.25181 -0.38558,2.23736 0.39791,-0.0144 -0.88776,1.98301 -2.85683,4.43972 -1.96906,2.45682 -4.43701,5.80932 -5.48549,7.44886 -2.53172,3.95901 -3.9954,2.86146 -4.21405,-3.16023 -0.22762,-6.26881 -2.01498,-6.3392 -2.81578,-0.11053 -0.84424,6.56631 -1.85502,8.2584 -5.86828,9.82297 -4.54106,1.77025 -5.50418,1.75342 -8.42954,-0.14116 -1.3469,-0.87234 -6.22173,-1.76688 -10.83289,-1.98853 -6.75912,-0.32498 -8.90942,-0.0288 -11.10053,1.52341 -3.5319,2.502 -3.49642,2.51217 -4.41534,-1.34866 -0.90353,-3.79537 -3.38773,-4.22154 -7.31271,-1.25436 -3.01611,2.28006 -4.49434,0.91245 -4.71351,-4.35805 -0.12871,-3.09801 -0.21416,-3.15171 -1.65142,-1.05172 -1.44353,2.10891 -1.60347,2.02101 -3.40229,-1.85235 -1.03821,-2.23557 -1.97804,-6.57867 -2.0896,-9.65129 -0.18451,-5.08156 -1.41847,-7.04522 -2.84821,-4.53216 -0.92587,1.6272 -0.80797,7.1822 0.23536,11.08654 0.85411,3.19629 0.71591,3.63976 -1.0459,3.36645 -3.91437,-0.60748 -7.35444,-7.06813 -7.61722,-14.3055 -0.39709,-10.93582 1.21483,-14.94514 9.6344,-23.96206 7.07988,-7.58202 17.31586,-14.50081 21.68821,-14.65957 z m 51.51431,2.67394 c -0.10799,0.0317 -0.20649,0.0942 -0.29286,0.18649 -1.06509,1.14524 2.01616,9.2601 4.73445,12.46908 2.76137,3.25977 4.65459,3.27063 3.53114,0.0194 -2.42183,-7.00856 -6.35237,-13.15793 -7.97273,-12.67499 z m 260.64092,-5.06939 c 0.77263,0.0587 0.70861,0.64973 0.31012,2.08392 -0.38127,1.37231 -0.14764,3.81452 0.52055,5.42665 0.66816,1.61201 1.54151,3.82567 1.93951,4.91911 0.66655,1.83085 0.9147,1.84385 3.13687,0.16402 2.98474,-2.25647 7.32139,-2.52287 8.18264,-0.50122 0.76306,1.79122 6.83344,0.50103 13.14307,-2.79396 3.13889,-1.6392 4.35312,-1.7999 6.08288,-0.80495 2.86266,1.6465 3.54588,0.16751 2.46202,-5.32428 -1.04883,-5.31409 -0.24131,-5.76095 2.29246,-1.26873 1.63765,2.9036 2.08338,3.10108 4.05165,1.79832 1.94767,-1.28901 2.61518,-1.04544 5.60659,2.04367 1.86784,1.92898 3.4123,3.92216 3.43068,4.42853 0.12848,3.53836 -11.23785,8.63635 -24.41749,10.9525 -13.29154,2.33589 -23.56251,2.00627 -29.51333,-0.94549 -4.58407,-2.27379 -11.61293,-8.76279 -11.68646,-10.78793 -0.085,-2.34233 7.31638,-7.86252 12.05397,-8.99025 1.17501,-0.27968 1.94063,-0.43544 2.40427,-0.39991 z m 30.77768,-0.0514 c 0.61073,-0.0222 1.12835,0.45928 1.15052,1.0699 0.0222,0.61061 -0.45917,1.12834 -1.06989,1.15052 -0.61051,0.0222 -1.12836,-0.45928 -1.15053,-1.0699 -0.0222,-0.61062 0.45939,-1.12836 1.0699,-1.15052 z m -49.15277,15.00536 c 0.96007,0.0497 2.77662,1.16593 6.58294,3.76046 9.80475,6.68323 16.75361,8.22883 30.69307,6.82789 10.31275,-1.03646 16.09155,-2.34752 27.81241,-6.31202 4.07241,-1.37749 4.88123,-1.34172 6.83967,0.30527 2.46723,2.07529 5.86146,12.63015 7.27448,22.62517 l 0.92292,6.52149 -4.68307,1.44458 c -2.57469,0.79462 -8.21723,2.24892 -12.53882,3.23014 -11.25894,2.55657 -26.49118,3.75533 -36.05028,2.83967 -16.1962,-1.55145 -43.78537,-8.67303 -43.88175,-11.32766 -0.0192,-0.52879 2.19516,-3.76447 4.92168,-7.18972 4.21445,-5.29442 8.55926,-13.84101 11.0586,-21.75351 0.20459,-0.64776 0.47212,-1.00154 1.04815,-0.97176 z m -114.41984,4.31537 c -7.49168,0.26091 -15.34968,1.11319 -21.27564,2.46171 -14.25001,3.24293 -31.98788,11.05742 -39.33046,17.32597 l -2.62827,2.24275 6.91546,10.70503 c 3.8034,5.88774 9.82664,13.42009 13.38555,16.73839 7.37498,6.87651 11.45548,8.28102 29.84109,10.27213 12.47081,1.35054 21.51781,0.60749 27.0058,-2.21599 4.71088,-2.42376 32.55648,-32.32666 35.26884,-37.8748 1.0729,-2.19461 0.69442,-2.86699 -3.47477,-6.18126 -6.32857,-5.03088 -18.26061,-10.60657 -26.63059,-12.44486 -4.45964,-0.97954 -11.5855,-1.29531 -19.07701,-1.02907 z m 2.12977,3.2229 c 8.28746,-0.31203 17.61939,1.85962 28.82571,6.70471 10.6754,4.61537 11.16677,5.63795 6.21189,12.9148 -3.6788,5.40271 -8.23027,7.34243 -23.25031,9.90917 -11.36596,1.94226 -25.93874,2.26207 -36.16153,0.79188 -6.43899,-0.92612 -9.02805,-1.88642 -11.83178,-4.38394 -3.05487,-2.72118 -3.7918,-2.95511 -4.95976,-1.57213 -1.18267,1.40041 -1.94973,1.41259 -5.55516,0.0888 -4.35368,-1.59859 -8.2014,-5.03992 -8.28759,-7.41344 -0.0591,-1.62736 12.13742,-7.92897 20.73289,-10.71233 8.06972,-2.61309 26.64466,-6.03928 34.27564,-6.32748 z m 100.70507,0.0758 c 0.0621,0.009 0.11741,0.0313 0.16562,0.0762 0.38566,0.35864 -0.17203,1.54759 -1.23732,2.6417 -1.85159,1.90172 -1.88242,1.87316 -0.70102,-0.65201 0.59463,-1.27111 1.33815,-2.1153 1.77269,-2.06626 z m 96.45968,0.54047 c 0.99075,-0.036 1.82919,0.68396 1.86245,1.59988 0.0332,0.91593 -0.1296,1.67223 -0.36019,1.68059 -0.23059,0.009 -1.06682,-0.71164 -1.86023,-1.59996 -1.18139,-1.3228 -1.11729,-1.62696 0.35797,-1.68051 z m -198.00883,7.53059 c -0.45799,0.0155 -0.9879,0.13926 -1.56879,0.38702 -2.08515,0.88824 -2.2125,2.34538 -0.26706,3.04946 2.34025,0.84684 2.81817,0.70286 3.4087,-1.02055 0.52417,-1.5297 -0.1989,-2.46237 -1.57285,-2.41593 z m -13.55271,2.5765 c -1.55925,0.0321 -3.10774,1.06755 -2.41632,2.10054 0.8871,1.32526 1.79528,1.32418 3.73434,-0.006 1.07394,-0.73646 1.11851,-1.21177 0.16205,-1.75588 -0.4393,-0.24997 -0.96032,-0.34978 -1.48007,-0.33924 z m 17.79413,3.729 c -1.43793,0.0755 -3.39836,0.95671 -3.73765,2.12673 -0.32228,1.11137 0.10209,1.34454 1.42233,0.78211 1.03453,-0.44066 2.34012,-0.81668 2.90078,-0.83703 0.56077,-0.0203 0.99971,-0.57213 0.97599,-1.22526 -0.0236,-0.64715 -0.6987,-0.89188 -1.56145,-0.84655 z m 194.76957,-6.09074 c 0.59528,-0.0217 1.1109,0.58497 1.14971,1.34784 0.0488,1.0044 0.3177,0.95462 0.97923,-0.17885 1.32915,-2.27728 3.08454,-0.82136 6.54141,5.42725 3.53312,6.38624 3.47594,9.47411 -0.47569,25.22754 -3.47763,13.86393 -10.74687,28.47101 -18.65134,37.48421 -7.03908,8.0262 -16.89898,14.9364 -18.3088,12.8303 -0.51978,-0.7766 -1.55463,-0.3174 -2.97025,1.3172 -1.19488,1.3796 -3.80779,3.2618 -5.80811,4.1841 -4.2461,1.9581 -3.74464,1.9115 -6.23652,0.5783 -6.39757,-3.4226 -4.02482,-8.4071 5.1321,-10.7819 3.49422,-0.9064 7.3967,-2.0071 8.67223,-2.4449 1.75701,-0.6031 2.4858,-0.2423 3.00697,1.4909 0.37842,1.2585 1.48524,2.2608 2.45835,2.2254 2.10241,-0.077 2.23318,-1.3491 0.32297,-3.1253 -0.99418,-0.9246 -1.0534,-1.634 -0.21577,-2.5347 0.83752,-0.9006 1.38286,-0.9204 1.95153,-0.071 1.34071,2.003 2.88689,1.2331 2.79152,-1.3932 -0.0488,-1.374 1.81384,-4.8183 4.13844,-7.6541 4.03614,-4.92381 4.26384,-5.04257 5.04569,-2.6389 1.09969,3.3806 2.8152,2.5103 5.57511,-2.82748 1.52766,-2.95462 1.91005,-4.79221 1.14415,-5.50443 -1.34888,-1.25436 -3.15221,1.25081 -3.06952,4.26289 0.0299,1.06891 -0.48123,1.96291 -1.13293,1.98657 -1.14452,0.0416 -0.90961,-1.70641 0.99612,-7.42926 0.44283,-1.33008 1.71404,-3.12714 2.82527,-3.99346 1.82626,-1.42378 3.8352,-9.87921 6.55038,-27.57163 0.30556,-1.99122 1.0032,-3.9214 1.55094,-4.28814 0.54775,-0.36662 1.51494,-1.72531 2.14839,-3.01995 1.05693,-2.15957 0.91681,-2.28677 -1.69262,-1.53013 -2.35596,0.68307 -2.94584,0.39789 -3.44119,-1.66852 -1.70531,-7.11205 -1.96243,-9.67103 -0.97777,-9.70678 z m -212.30892,7.82404 c -1.31734,0.0479 -3.05791,1.10855 -3.02134,2.1811 0,0 0,0 0,0 0.0522,1.40827 1.20237,1.39463 3.30094,-0.042 0.87765,-0.6006 1.24453,-1.41967 0.81549,-1.81864 -0.2632,-0.24479 -0.65579,-0.33948 -1.09518,-0.32287 z m 337.21999,-11.24806 c -18.01308,0.65406 -32.74322,1.41093 -32.73341,1.68137 0.01,0.27045 1.11882,2.21118 2.4646,4.31386 l 2.4469,3.8237 -2.56336,0.6229 c -1.40985,0.34257 -6.47556,1.00919 -11.25611,1.48349 -4.78055,0.47428 -8.92648,1.11629 -9.213,1.4244 -0.46402,0.49898 4.47541,7.88093 9.73206,14.54577 l 1.91867,2.4316 -16.78975,0.60964 c -13.39182,0.48626 -16.7766,0.91332 -16.733,2.11435 0.0644,1.77546 6.81902,10.37247 12.70251,16.16623 5.4614,5.37808 9.83471,7.78703 17.22155,9.48827 3.76808,0.8678 11.55719,1.22419 20.51113,0.93798 13.0444,-0.41695 14.98442,-0.74341 20.15012,-3.38056 9.69825,-4.95105 22.49749,-19.96063 24.31805,-28.51861 l 0.63621,-2.99117 -3.94431,1.81941 c -2.16892,1.00011 -3.95126,1.56374 -3.96252,1.25333 -0.0112,-0.31042 2.36494,-3.75452 5.28045,-7.6542 2.91552,-3.89969 5.28017,-7.66197 5.25478,-8.36129 -0.0253,-0.69921 0.96866,-2.26109 2.21021,-3.46954 2.05716,-2.00211 5.17565,-7.43316 5.12163,-8.92085 -0.0122,-0.33562 -14.76008,-0.0741 -32.77341,0.57992 z m -24.18535,2.99292 c 2.4927,-0.0282 7.13773,1.15377 11.11286,3.06403 3.57551,1.71823 6.71025,2.89807 6.96724,2.62171 0.25699,-0.27647 -0.12868,-1.52322 -0.85626,-2.77201 -0.76455,-1.3118 -0.87678,-2.287 -0.26627,-2.30917 0.5813,-0.0211 1.30531,0.57792 1.60946,1.33115 0.44232,1.09561 1.01364,1.07487 2.85358,-0.10365 2.84825,-1.82418 5.32923,-1.97908 5.9315,-0.36956 0.31751,0.84869 2.04021,0.61716 5.66313,-0.76147 7.59816,-2.89111 19.54276,-3.00844 19.64502,-0.19227 0.0192,0.52957 -1.55809,1.8625 -3.50544,2.96083 -2.82625,1.59427 -7.81075,2.25962 -24.71064,3.29859 l -21.17012,1.30063 -2.52505,-3.28459 c -1.38863,-1.80752 -2.53582,-3.58434 -2.54901,-3.94806 -0.0203,-0.55988 0.6669,-0.82317 1.8,-0.83619 z m 24.27442,10.34397 -2.20887,3.0287 c -3.21628,4.40931 -1.83358,4.54108 3.98055,0.37874 2.80987,-2.01156 6.23962,-3.69834 7.62172,-3.74852 3.78827,-0.13755 8.28123,1.67509 8.34264,3.36638 0.0792,2.18024 -4.14606,6.09114 -9.15668,8.47686 -3.37572,1.60732 -8.3515,2.29871 -22.1067,3.07386 -9.76277,0.55014 -18.78124,0.59634 -20.04125,0.10243 -1.26012,-0.49397 -4.25576,-2.91882 -6.65736,-5.39047 -3.67017,-3.77739 -4.15096,-4.77534 -3.0148,-6.2501 1.96807,-2.55462 9.99692,-1.64253 15.26814,1.73411 4.65242,2.98022 7.03719,3.30183 10.32042,1.38827 3.18491,-1.85631 2.46108,-3.3756 -1.58162,-3.31663 -3.02604,0.0443 -3.25693,-0.11464 -1.42524,-0.98177 1.20229,-0.56915 6.34204,-1.22045 11.42236,-1.44828 l 9.2367,-0.4132 z m -365.79559,13.64255 c 0.67271,-0.0355 1.94549,0.21306 3.26567,0.66093 6.25823,2.12285 34.0723,2.36821 50.12835,0.4422 8.28835,-0.9942 15.39017,-1.50564 15.78281,-1.13536 1.17687,1.10996 -12.016,13.7374 -17.24818,16.50892 -5.15518,2.73092 -14.56754,3.78972 -15.90672,1.78908 -0.4268,-0.63762 -1.52746,-0.841 -2.44595,-0.44968 -0.9186,0.39131 -2.3428,0.194 -3.16647,-0.44087 -1.08098,-0.83231 -2.14464,-0.77523 -3.82483,0.20447 -1.9983,1.16467 -2.42722,1.02906 -3.02212,-0.9498 -0.53445,-1.77751 -1.02164,-2.0114 -2.13016,-1.02132 -1.07192,0.95727 -2.09233,0.85948 -4.01562,-0.38614 -1.41851,-0.91876 -3.60564,-1.63208 -4.86039,-1.58652 -1.25488,0.0455 -3.41376,-0.65044 -4.79595,-1.54551 -2.69083,-1.74279 -9.07114,-11.03641 -8.21169,-11.96074 0.0711,-0.076 0.227,-0.11829 0.45126,-0.12922 z m 136.30983,-3.25158 c 1.80309,-0.13885 4.86754,0.4797 9.97637,1.66134 l 10.8826,2.51866 0.29244,5.66293 c 0.31409,6.06303 0.64458,5.88827 1.5167,-0.80422 0.86471,-6.63632 2.67689,-3.77608 2.98508,4.71184 0.25899,7.13278 -1.03362,10.35489 -2.34943,5.85646 -0.30958,-1.05875 -0.33202,-0.2254 -0.05,1.85165 0.54896,4.04447 2.33832,6.51556 3.67792,5.07743 0.45121,-0.48439 0.83436,-5.36878 0.85003,-10.85226 0.0198,-6.88099 0.42863,-9.84689 1.31983,-9.57543 0.84219,0.25656 1.41582,3.83001 1.64993,10.27746 0.19742,5.43671 0.7514,10.44349 1.23121,11.12631 0.49738,0.70764 0.13047,1.55739 -0.85315,1.97642 -2.92855,1.24746 -4.40784,0.93577 -8.98842,-1.89699 -7.66003,-4.73696 -9.57498,-6.873 -9.71901,-10.8399 -0.14621,-4.02652 -1.63227,-4.76052 -3.30536,-1.63209 -0.84217,1.57458 -1.10466,1.01071 -1.26728,-2.73318 -0.17247,-3.96599 -0.55735,-4.7044 -2.42428,-4.63661 -1.50145,0.0546 -2.24728,-0.659 -2.30342,-2.20486 -0.12135,-3.34207 -1.97785,-1.53566 -2.7536,2.67941 -0.58348,3.16991 -0.78828,3.34976 -1.62406,1.43557 -0.52563,-1.20377 -1.02725,-3.4367 -1.11598,-4.96203 -0.18034,-3.0898 0.0537,-4.5197 2.37193,-4.69791 z m 219.34899,-7.79955 c -0.64659,0.0235 -0.84927,0.53109 -0.44974,1.12801 0.39965,0.59691 0.94624,1.07732 1.21558,1.06753 0.26923,-0.01 0.47191,-0.51739 0.44973,-1.128 -0.0221,-0.61061 -0.56888,-1.09102 -1.21557,-1.06754 z m -359.98314,14.18277 c 1.1402,-0.0414 3.8613,2.49058 5.46284,5.08211 1.37748,2.22903 0.21888,1.5872 -3.29711,-1.82571 -1.82153,-1.76814 -2.79599,-3.23352 -2.16573,-3.2564 z m 240.09172,-5.38277 c 0.14943,-0.006 0.19339,0.3635 0.22027,1.10368 0.0332,0.91592 -0.39582,2.43226 -0.95453,3.36969 -0.90281,1.51497 -1.02393,1.51937 -1.07768,0.0391 -0.0332,-0.91592 0.39815,-2.43235 0.95675,-3.36978 0.45141,-0.75754 0.70575,-1.13729 0.85519,-1.14273 z m -4.46339,1.27375 c 1.95509,-0.071 1.82582,0.51099 -1.69889,7.687 -2.98227,6.07155 -7.83077,13.45226 -7.15817,10.89689 1.34826,-5.12188 7.74466,-18.54262 8.85706,-18.58389 z m 16.4407,-0.59698 c -0.26933,0.01 -0.77966,0.52857 -1.13496,1.1529 -0.35518,0.62431 -0.11623,1.1159 0.53037,1.09241 0.6467,-0.0234 1.15712,-0.54226 1.13496,-1.15288 -0.0222,-0.61062 -0.26114,-1.10219 -0.53037,-1.09243 z m -24.31258,3.43833 c 0.77833,-0.004 1.25738,0.0356 1.35517,0.12666 1.21542,1.13013 -7.74257,19.59496 -10.42953,21.49833 -1.39994,0.99175 -6.30059,2.25803 -10.88863,2.81416 -8.89075,1.07765 -10.53061,0.42794 -9.37998,-3.71315 0.53585,-1.9282 0.10754,-2.22647 -3.06338,-2.14469 -10.28593,0.26565 -14.27035,-0.21054 -16.33773,-1.94928 -2.12263,-1.78466 -2.2573,-1.77666 -2.96258,0.15092 -0.69023,1.88634 -0.80437,1.87504 -1.73217,-0.16722 -0.5465,-1.203 -1.12632,-4.88528 -1.28939,-8.18226 l -0.29582,-5.99487 14.18001,0.16903 c 7.79909,0.0923 20.32357,-0.57832 27.83337,-1.48833 5.63231,-0.68253 10.67567,-1.10445 13.01066,-1.11941 z m 127.32598,3.94233 9.45635,-0.34336 -4.83652,4.57241 c -6.39722,6.04758 -3.36738,5.88431 3.72283,-0.20076 5.01253,-4.30211 6.01252,-4.72351 10.39933,-4.39232 2.66889,0.20147 5.67271,1.13093 6.67769,2.0656 1.66941,1.55231 1.41726,2.10896 -2.93571,6.45093 -5.76501,5.7506 -13.2478,10.06179 -20.32971,11.70953 l 0,0 c -17.27447,4.01941 -29.36092,1.83728 -39.71838,-7.16896 -7.78152,-6.76638 -7.31363,-9.95664 1.50713,-10.27693 2.38196,-0.0865 5.71239,1.16428 9.4875,3.56372 6.17333,3.92428 7.28672,3.55813 3.33834,-1.10261 -2.2184,-2.61904 -2.26213,-2.90782 -0.52969,-3.64574 1.29487,-0.55161 2.58337,0.0903 4.13076,2.06024 l 2.24914,2.86262 3.96115,-2.90791 c 3.45485,-2.53556 5.17315,-2.94958 13.4197,-3.24901 z m -104.97305,4.18935 c -0.13204,0.0159 -0.28499,0.0749 -0.45766,0.19037 -0.5968,0.39953 -1.03936,1.82032 -0.97968,3.15783 0.0856,1.97701 0.29508,2.11348 1.12077,0.72792 1.16728,-1.95891 1.24197,-4.17286 0.31657,-4.07612 z m 100.95323,-1.28376 c -1.81663,-0.053 -2.99346,1.17746 -1.92968,2.76677 0.94811,1.41642 2.88728,1.42472 4.93592,0.0206 1.19338,-0.81784 0.98015,-1.28623 -1.03567,-2.27269 -0.68858,-0.33696 -1.36507,-0.49704 -1.97057,-0.51463 z m -156.56331,15.14934 c 0.64669,-0.0234 1.19341,0.45692 1.21559,1.06754 0.0221,0.61062 -0.18052,1.11823 -0.44975,1.12801 -0.26933,0.01 -0.81593,-0.47063 -1.21558,-1.06754 -0.39953,-0.59691 -0.19685,-1.10453 0.44974,-1.12801 z m -71.41633,8.37943 c 0.0892,0.008 0.17489,0.0437 0.25621,0.11887 0.3967,0.3689 1.14874,6.92034 1.67083,14.56044 0.5221,7.6402 0.7326,13.8998 0.46815,13.9094 -0.89083,0.032 -1.95467,-3.423 -2.07495,-6.7359 -0.0913,-2.516 -0.57292,-3.1951 -2.05043,-2.8915 -1.6716,0.3435 -1.91658,-0.4055 -1.82287,-5.592 0.10354,-5.7355 2.21739,-13.42698 3.55306,-13.36931 z m 5.4733,10.69011 c 0.61073,-0.022 1.15556,1.2087 1.211,2.7352 0.10553,2.9066 -0.13885,3.2671 -1.40718,2.0877 -1.19345,-1.1099 -1.04405,-4.7778 0.19618,-4.8229 z m 4.94903,4.267 c 0.19052,-0.01 1.51202,1.452 2.93814,3.2413 2.51676,3.1577 2.53683,3.3339 0.7061,6.0518 -2.80941,4.1706 -3.52462,3.5685 -3.76946,-3.1743 -0.12194,-3.3584 -0.0653,-6.1119 0.12522,-6.1188 z m 97.39211,-2.4246 c -0.61051,0.022 -1.09207,0.5399 -1.0699,1.1505 0.0221,0.6106 0.54002,1.0921 1.15052,1.0699 0.61073,-0.022 1.09208,-0.5399 1.06991,-1.1505 -0.0222,-0.6106 -0.5398,-1.0921 -1.15053,-1.0699 z m -85.50233,11.9937 c 0.48805,-0.018 0.98909,0.1786 1.47131,0.637 0.54693,0.5199 0.7504,3.6375 0.4536,6.9293 l -0.53825,5.9861 -2.45401,-1.9866 c -1.96162,-1.5877 -2.36977,-2.8415 -2.04016,-6.2551 0.30565,-3.1644 1.6439,-5.2426 3.10751,-5.3107 z m 47.73668,-0.1267 c 1.16531,-0.2408 2.08946,0.9017 3.82047,4.46 1.38263,2.8421 2.27104,5.4279 1.97392,5.7473 -0.297,0.3195 -4.63198,1.6388 -9.63373,2.9313 -13.84609,3.5779 -16.06632,3.4406 -18.17067,-1.1228 -0.96161,-2.0855 -1.77411,-4.4911 -1.80519,-5.3473 -0.0694,-1.9136 7.12972,-4.2684 15.38086,-5.0291 3.3517,-0.309 6.91481,-0.9622 7.91783,-1.4534 0.17935,-0.088 0.35002,-0.1516 0.51651,-0.186 z m -36.31367,1.3841 0.14485,2.915 c 0.18127,3.6389 -2.11283,6.0137 -4.05962,4.2034 -0.74439,-0.6921 -1.37988,-2.0074 -1.41315,-2.9232 -0.0473,-1.3028 0.24189,-1.3843 1.33052,-0.3718 1.08863,1.0122 1.67563,0.738 2.69417,-1.264 l 1.30323,-2.5594 z m 9.12984,2.6844 c 0.73583,0.068 1.10527,1.4983 1.21892,4.6283 0.19672,5.4179 -1.48136,6.9363 -2.76642,2.504 -1.00917,-3.4806 -0.50247,-6.4384 1.2107,-7.0787 0.12042,-0.046 0.23162,-0.063 0.3368,-0.053 z"
       id="path7720"
       inkscape:connector-curvature="0" />
    <path
       style="fill:#fcf679;fill-opacity:1;stroke:#ff5855;stroke-width:5.50348949;stroke-miterlimit:4;stroke-dasharray:none;stroke-opacity:1"
       d="m 317.41617,130.45187 c -1.34018,-3.55054 -3.98178,-4.11397 -7.34662,-1.56698 -2.7251,2.06275 -3.96546,1.18179 -3.96546,-2.81645 0,-3.27691 -1.42939,-4.27606 -2.84365,-1.98773 -1.23374,1.99622 -3.54535,-3.30568 -4.38394,-10.05499 -0.92318,-7.43007 -1.3266,-8.18307 -3.44307,-6.42656 -1.3147,1.09111 -1.51324,2.76262 -0.93512,7.87258 0.5605,4.95413 0.40864,6.37893 -0.64252,6.02855 -4.9742,-1.65807 -7.92278,-14.54269 -5.43367,-23.743926 2.21926,-8.203708 19.80416,-24.835534 28.68895,-27.134059 l 2.75174,-0.711885 -2.57249,1.969914 c -6.97607,5.342 -11.05093,9.442575 -12.24284,12.320112 -1.7054,4.117182 -1.0909,9.349545 1.14779,9.773403 1.32192,0.250282 1.6468,-0.41131 1.34663,-2.742333 -0.63056,-4.896737 3.81976,-11.499671 9.57327,-14.203848 2.72197,-1.279338 6.3738,-2.666612 8.11517,-3.082831 2.75305,-0.658024 3.05988,-0.498147 2.3517,1.225373 -0.44795,1.090173 -1.06368,2.848933 -1.3683,3.908354 -0.86321,3.002158 2.51188,2.35 5.14193,-0.993558 2.49681,-3.174181 2.4736,-3.176542 4.35689,0.443209 1.46661,2.818852 3.41246,3.289584 3.41246,0.825524 0,-1.932212 1.50028,-2.10373 4.47516,-0.511622 1.89573,1.014563 2.12903,0.759013 2.12903,-2.332037 l 0,-3.471461 3.779,2.882385 c 2.07846,1.585312 4.05971,2.882386 4.4028,2.882386 0.34308,0 0.63945,-1.609771 0.65858,-3.577268 0.0324,-3.326987 0.32115,-3.042557 4.12762,4.065347 4.50376,8.409969 6.07118,9.617869 7.94271,6.120882 1.07524,-2.009106 0.70614,-2.929264 -2.67723,-6.674242 -6.08121,-6.731175 -4.81058,-9.771021 3.43744,-8.223684 2.82287,0.529573 3.59049,1.038282 2.54331,1.685474 -3.06066,1.891591 3.28667,15.409074 7.23555,15.409074 2.21199,0 1.97626,-1.475159 -1.25459,-7.850923 -1.55416,-3.06699 -2.6204,-5.781688 -2.36943,-6.032662 0.96515,-0.965152 6.10008,4.093267 7.8073,7.690983 2.15013,4.53105 2.45333,20.457769 0.49719,26.116089 -1.47348,4.26217 -7.54617,14.53098 -8.20413,13.87302 -0.23945,-0.23945 0.60265,-2.78199 1.87135,-5.65009 1.26869,-2.86809 2.03903,-5.4824 1.71187,-5.80957 -1.11238,-1.11237 -3.99189,0.701 -3.99189,2.51388 0,0.99285 -2.32394,4.97021 -5.1643,8.8386 -5.43899,7.40753 -6.89425,7.55617 -6.92652,0.70748 -0.009,-1.96749 -0.52772,-3.57727 -1.1521,-3.57727 -1.2507,0 -1.49885,0.56873 -3.27805,7.51297 -1.00638,3.92793 -1.9052,5.04757 -5.13554,6.39729 -3.48886,1.45774 -4.38401,1.44867 -8.21266,-0.0833 -5.53154,-2.21328 -19.43334,-2.30752 -22.50993,-0.1526 -2.06214,1.44439 -2.33167,1.31545 -3.45139,-1.65104 z"
       id="path8962"
       inkscape:connector-curvature="0"
       transform="translate(0,842.36216)" />
    <path
       style="fill:#00e29a;fill-opacity:1;stroke:#00645d;stroke-width:5.50348949;stroke-miterlimit:4;stroke-dasharray:none;stroke-opacity:1"
       d="m 489.92626,139.29251 c -2.72114,-0.56577 -5.75819,-0.77138 -6.74901,-0.4569 -0.9936,0.31535 -2.07657,-0.14505 -2.41486,-1.02664 -0.33735,-0.87913 -1.51047,-1.39072 -2.60692,-1.13687 -1.09646,0.25384 -4.66858,-0.43837 -7.93806,-1.53827 -4.57487,-1.53903 -6.71116,-3.05812 -9.2719,-6.59312 -1.83006,-2.52633 -3.10064,-4.82008 -2.82349,-5.09722 0.27714,-0.27715 5.68778,0.0198 12.02364,0.65976 10.82532,1.0935 42.45644,-0.13964 51.86883,-2.02212 1.79734,-0.35947 3.12848,-0.14926 3.12848,0.49403 0,1.57073 -12.66839,13.12875 -16.64261,15.1839 -4.21648,2.18043 -12.26612,2.845 -18.5741,1.53345 z"
       id="path8964"
       inkscape:connector-curvature="0"
       transform="translate(0,842.36216)" />
    <path
       style="fill:#00645d;fill-opacity:1;stroke:none;stroke-width:5.50348949;stroke-miterlimit:4;stroke-dasharray:none;stroke-opacity:1"
       d="m 652.54875,147.50576 c -0.45403,-0.4543 -0.82552,-1.98173 -0.82552,-3.39429 0,-2.47045 -0.32615,-2.5683 -8.56067,-2.5683 -6.13777,0 -9.28695,-0.5087 -11.12677,-1.79736 -1.94955,-1.36552 -2.76508,-1.47539 -3.39429,-0.4573 -1.09249,1.76767 -2.19946,-2.36604 -2.21929,-8.28736 l -0.015,-4.48819 15.68494,-0.10387 c 8.62672,-0.0571 20.81389,-0.66842 27.0826,-1.35843 6.26871,-0.69 11.66183,-0.99038 11.98472,-0.6675 0.32288,0.32289 -1.44932,4.83098 -3.93821,10.01798 -3.70897,7.72969 -5.17593,9.70148 -8.13227,10.93084 -4.45725,1.85349 -15.42033,3.2943 -16.54021,2.17378 z"
       id="path8977"
       inkscape:connector-curvature="0"
       transform="translate(0,842.36216)" />
    <path
       style="fill:#00645d;fill-opacity:1;stroke:none;stroke-width:5.50348949;stroke-miterlimit:4;stroke-dasharray:none;stroke-opacity:1"
       d="m 615.4002,145.0512 c -6.16367,-3.95086 -8.49812,-6.57937 -8.98093,-10.11222 -0.23853,-1.74535 -1.04031,-2.7025 -2.19228,-2.61711 -1.1511,0.0853 -2.03729,-0.97078 -2.41991,-2.88387 -0.3611,-1.80552 -1.51087,-3.25572 -2.86122,-3.60885 -1.24164,-0.32469 -2.25753,-1.3797 -2.25753,-2.34445 0,-3.19378 -2.24358,-1.81816 -2.97353,1.82318 l -0.71711,3.57726 -0.90113,-3.30209 c -1.81873,-6.66454 0.63842,-7.39284 14.22288,-4.21564 l 7.98006,1.86641 0,4.81684 c 0,2.93095 0.43095,4.55051 1.1007,4.13658 0.60538,-0.37415 1.10828,-2.26081 1.11755,-4.19258 0.0128,-2.67257 0.27196,-3.11757 1.08385,-1.86126 0.58684,0.90808 1.06698,4.37527 1.06698,7.70489 0,4.31006 -0.30734,5.57826 -1.06698,4.40279 -0.81437,-1.26014 -1.07098,-0.836 -1.08385,1.79144 -0.0164,3.34393 2.62077,6.94481 4.04388,5.5217 0.38799,-0.38799 1.00399,-5.28788 1.36889,-10.88865 l 0.66344,-10.18322 0.85704,10.33484 c 0.47137,5.68416 0.95786,10.8732 1.08108,11.5312 0.45977,2.45502 -4.34231,1.77288 -9.13188,-1.29719 z"
       id="path8979"
       inkscape:connector-curvature="0"
       transform="translate(0,842.36216)" />
    <path
       style="fill:#00645d;fill-opacity:1;stroke:none;stroke-width:5.50348949;stroke-miterlimit:4;stroke-dasharray:none;stroke-opacity:1"
       d="m 633.25411,88.692682 c -5.13719,-1.068782 -8.95078,-3.444807 -13.91405,-8.66905 -3.18909,-3.356765 -3.19785,-3.402314 -1.1007,-5.721192 2.15233,-2.379891 9.37685,-6.506029 11.39152,-6.506029 0.6105,0 0.81773,0.761647 0.46051,1.692549 -0.65622,1.710073 2.54406,11.515826 3.75839,11.515826 0.36099,0 2.28365,-0.588444 4.27259,-1.307654 2.88841,-1.044461 4.17777,-1.007137 6.40613,0.185444 2.47548,1.324836 3.58581,1.177304 9.85281,-1.309165 4.31806,-1.713218 8.23301,-2.578586 10.07371,-2.226712 2.98259,0.570157 3.00472,0.530306 2.36294,-4.254556 -0.64729,-4.825883 -0.64614,-4.827834 1.31158,-2.232422 1.48315,1.966252 2.55937,2.407271 4.42753,1.814338 2.87006,-0.910921 7.78431,2.964985 7.78431,6.139545 0,6.147524 -33.08662,13.791882 -47.08727,10.879078 z"
       id="path8981"
       inkscape:connector-curvature="0"
       transform="translate(0,842.36216)" />
    <path
       style="fill:#00645d;fill-opacity:1;stroke:none;stroke-width:5;stroke-miterlimit:4;stroke-dasharray:none;stroke-opacity:1"
       d="m 625.52974,191.89394 c -0.63084,-0.76011 -1.47794,-2.70067 -1.88244,-4.31235 -0.91888,-3.66111 0.75582,-4.67553 10.49361,-6.35631 3.91913,-0.67646 8.45811,-1.49416 10.08661,-1.81711 2.46239,-0.48833 3.25003,-0.0281 4.67797,2.7332 2.91167,5.63054 2.37898,6.31204 -6.88832,8.81262 -9.81161,2.64746 -14.83275,2.93372 -16.48743,0.93995 z"
       id="path8983"
       inkscape:connector-curvature="0"
       transform="translate(0,842.36216)" />
    <path
       style="fill:#00645d;fill-opacity:1;stroke:none;stroke-width:5;stroke-miterlimit:4;stroke-dasharray:none;stroke-opacity:1"
       d="m 577.12485,180.09511 c -0.31523,-1.13509 -0.57832,-2.9306 -0.58464,-3.99003 -0.0145,-2.43574 -0.47312,-3.14242 -2.19604,-3.38419 -1.28574,-0.18043 -1.38693,-0.42742 -1.54463,-3.77034 -0.19282,-4.08748 0.63153,-9.52777 1.93878,-12.79489 0.74523,-1.86252 0.95917,-2.05982 1.28334,-1.18349 0.80158,2.16687 2.64259,27.18675 2.00046,27.18675 -0.17827,0 -0.58204,-0.92871 -0.89727,-2.06381 z"
       id="path8985"
       inkscape:connector-curvature="0"
       transform="translate(0,842.36216)" />
    <path
       style="fill:#00645d;fill-opacity:1;stroke:none;stroke-width:5;stroke-miterlimit:4;stroke-dasharray:none;stroke-opacity:1"
       d="m 586.72016,178.71924 c -0.18255,-0.98375 -0.25569,-3.47701 -0.16253,-5.54059 l 0.16939,-3.75196 2.06381,2.71123 c 1.13509,1.49117 2.06381,3.06014 2.06381,3.48661 0,0.99043 -2.62831,4.88335 -3.297,4.88335 -0.27806,0 -0.65493,-0.80489 -0.83748,-1.78864 z"
       id="path8987"
       inkscape:connector-curvature="0"
       transform="translate(0,842.36216)" />
    <path
       style="fill:#00645d;fill-opacity:1;stroke:none;stroke-width:5;stroke-miterlimit:4;stroke-dasharray:none;stroke-opacity:1"
       d="m 597.32124,189.75645 c -1.77482,-1.67594 -2.06369,-2.28652 -2.06296,-4.36042 10e-4,-2.81823 1.50944,-6.18325 2.88688,-6.44004 1.58859,-0.29615 2.12135,2.19479 1.65745,7.74941 l -0.41757,4.99987 -2.0638,-1.94882 z"
       id="path8989"
       inkscape:connector-curvature="0"
       transform="translate(0,842.36216)" />
    <path
       style="fill:#00645d;fill-opacity:1;stroke:none;stroke-width:5;stroke-miterlimit:4;stroke-dasharray:none;stroke-opacity:1"
       d="m 605.47009,185.88891 c -1.05318,-1.50362 -1.20511,-3.19781 -0.19631,-2.18901 1.09363,1.09364 2.04882,0.75666 3.19805,-1.12821 l 1.09056,-1.78864 0.002,1.94135 c 0.002,2.12666 -1.27287,4.38766 -2.47449,4.38766 -0.41971,0 -1.14864,-0.55042 -1.61984,-1.22315 z"
       id="path8991"
       inkscape:connector-curvature="0"
       transform="translate(0,842.36216)" />
    <path
       style="fill:#00645d;fill-opacity:1;stroke:none;stroke-width:5;stroke-miterlimit:4;stroke-dasharray:none;stroke-opacity:1"
       d="m 580.93723,168.37941 c -0.61402,-1.14731 -0.26949,-3.2813 0.52977,-3.2813 0.38907,0 1.1324,2.57397 1.1324,3.92123 0,0.89597 -1.05823,0.48855 -1.66217,-0.63993 z"
       id="path8993"
       inkscape:connector-curvature="0"
       transform="translate(0,842.36216)" />
    <path
       style="fill:#00645d;fill-opacity:1;stroke:none;stroke-width:5;stroke-miterlimit:4;stroke-dasharray:none;stroke-opacity:1"
       d="m 617.8148,190.39743 c -0.92948,-2.24398 -0.95856,-5.69928 -0.0571,-6.78546 1.24541,-1.50063 1.71509,-0.46676 1.71509,3.77527 0,4.46553 -0.60224,5.55895 -1.65798,3.01019 z"
       id="path8995"
       inkscape:connector-curvature="0"
       transform="translate(0,842.36216)" />
    <path
       style="fill:#00645d;fill-opacity:1;stroke:none;stroke-width:5;stroke-miterlimit:4;stroke-dasharray:none;stroke-opacity:1"
       d="m 653.73513,185.70165 c -3.99949,-2.39709 -3.55692,-5.66764 1.09351,-8.081 2.05639,-1.06717 12.64048,-4.22287 14.25877,-4.25133 0.49982,-0.009 1.42018,0.85082 2.04525,1.91024 0.7155,1.21268 1.55751,1.92622 2.27303,1.92622 1.3965,0 2.05301,-1.48837 1.18607,-2.68896 -1.19373,-1.65316 -1.30996,-2.27575 -0.58737,-3.1464 0.65425,-0.78832 0.78269,-0.78323 1.39589,0.0554 1.01019,1.38152 2.58825,0.79827 2.98348,-1.10268 0.18841,-0.90625 0.79115,-2.51453 1.33942,-3.57395 1.39318,-2.69204 5.82577,-8.25523 6.57753,-8.25523 0.34302,0 0.90412,0.74297 1.24688,1.65105 0.34276,0.90807 1.01464,1.65104 1.49308,1.65104 1.83334,0 6.38832,-8.20764 5.63886,-10.1607 -0.39034,-1.01722 -2.32497,-1.12207 -2.92168,-0.15834 -0.23427,0.37836 -0.55845,1.6584 -0.72041,2.84453 -0.16196,1.18614 -0.63003,2.26798 -1.04016,2.4041 -0.50746,0.16843 -0.65309,-0.081 -0.45584,-0.78073 0.15941,-0.56552 0.67285,-2.39033 1.14097,-4.05514 0.46813,-1.6648 1.45113,-3.66803 2.18445,-4.45161 2.8581,-3.05399 4.0912,-7.20869 6.68061,-22.50909 1.46928,-8.68168 1.61083,-9.13681 3.88325,-12.48541 2.00535,-2.95504 1.80155,-3.49615 -1.25769,-3.33937 l -2.60384,0.13344 -0.69354,-2.75175 c -1.14031,-4.52441 -1.47543,-7.980058 -0.77387,-7.980058 0.34169,0 0.62125,0.371486 0.62125,0.825524 0,1.069544 0.49764,1.043814 1.75107,-0.09052 0.94944,-0.859231 1.09473,-0.838518 2.34282,0.334002 0.73183,0.687518 2.36916,3.298288 3.63851,5.801708 2.07928,4.10076 2.30432,4.93348 2.27165,8.4058 -0.0765,8.13033 -4.60434,24.05833 -10.04185,35.32513 -5.6724,11.75353 -11.59786,19.58021 -19.69857,26.01898 -5.07841,4.03654 -7.89798,5.51112 -9.68179,5.06342 -1.05493,-0.26477 -1.93234,0.14769 -3.99095,1.87609 -2.43519,2.04457 -7.67077,5.05303 -8.77251,5.04084 -0.25873,-0.003 -1.52156,-0.63521 -2.80628,-1.40521 z m 31.12594,-17.99737 c 0.22631,-1.17514 -1.48542,-1.94655 -2.10278,-0.94764 -0.63486,1.02722 -0.0141,2.27822 1.03066,2.07702 0.48815,-0.094 0.9706,-0.60223 1.07212,-1.12938 z m 18.8151,-34.58738 c 0,-0.99223 -0.28825,-1.59008 -0.76664,-1.59008 -0.98118,0 -1.43951,1.21662 -1.41644,3.75987 l 0.0183,2.01879 1.08238,-1.29925 c 0.59532,-0.71459 1.08239,-2.01479 1.08239,-2.88933 z m 1.6704,-11.24451 c 0.5558,-0.66969 0.5622,-0.98912 0.0303,-1.51346 -0.52781,-0.52034 -0.84148,-0.43795 -1.44499,0.37958 -1.2707,1.72129 0.0492,2.77919 1.41465,1.13388 l 1e-5,0 z"
       id="path8997"
       inkscape:connector-curvature="0"
       transform="translate(0,842.36216)" />
    <path
       style="fill:#00645d;fill-opacity:1;stroke:none;stroke-width:5;stroke-miterlimit:4;stroke-dasharray:none;stroke-opacity:1"
       d="m 680.81541,136.75513 c 0.54507,-2.44149 7.06375,-15.35987 7.86375,-15.58396 0.37837,-0.10599 0.68794,0.1648 0.68794,0.60175 0,1.0571 -5.40815,11.64829 -7.3693,14.43187 -1.50432,2.13516 -1.53989,2.15171 -1.18239,0.55034 z"
       id="path8999"
       inkscape:connector-curvature="0"
       transform="translate(0,842.36216)" />
    <path
       style="fill:#fcf679;fill-opacity:1;stroke:none;stroke-width:5;stroke-miterlimit:4;stroke-dasharray:none;stroke-opacity:1"
       d="m 475.57795,119.93727 c -5.608,-0.86763 -8.90215,-2.08919 -11.79033,-4.37216 -3.0592,-2.41817 -4.14373,-2.6624 -5.6738,-1.27771 -0.95339,0.86281 -1.2121,0.86121 -4.02329,-0.0249 -3.39073,-1.06884 -7.28197,-3.80041 -8.49662,-5.96445 -0.76116,-1.3561 -0.72669,-1.51884 0.54093,-2.5537 4.39357,-3.58682 16.48867,-8.725747 26.0281,-11.058725 12.91131,-3.157611 19.76195,-4.137138 28.98482,-4.144341 7.62876,-0.006 9.10281,0.152857 13.94587,1.502553 6.7437,1.879378 18.01356,6.491917 20.50521,8.392393 2.63539,2.0101 2.4779,3.63992 -0.8022,8.30242 -3.93456,5.59277 -7.73446,7.39461 -20.99086,9.95344 -6.5581,1.26589 -9.0438,1.45282 -21.18843,1.59346 -7.5673,0.0876 -15.23503,-0.0691 -17.0394,-0.34824 z m 10.03758,-11.28114 c 1.5219,-1.06598 1.64006,-2.99571 0.18343,-2.99571 -1.57961,0 -3.6091,1.86714 -3.19694,2.9412 0.43786,1.14104 1.43648,1.15911 3.01351,0.0545 z m 16.63292,-1.55135 c 1.79198,-0.53568 2.47657,-1.02572 2.47657,-1.77274 0,-1.29067 -1.53065,-1.62005 -3.58125,-0.77067 -1.6045,0.66461 -2.44357,1.90656 -1.89154,2.79976 0.17019,0.27538 0.35674,0.49693 0.41455,0.49233 0.0578,-0.005 1.21956,-0.3415 2.58167,-0.74868 z m -16.29146,-3.7203 c 1.90754,-0.86914 2.21668,-2.0437 0.71766,-2.7267 -0.85322,-0.38875 -1.71277,-0.38777 -2.7409,0.003 -1.59863,0.60778 -1.91196,1.61351 -0.83744,2.68803 0.81674,0.81674 1.13737,0.82072 2.86068,0.0355 z M 500.32203,101.06 c 1.19855,-1.829218 0.54144,-3.104467 -1.59966,-3.104467 -3.1616,0 -4.30943,2.760647 -1.56464,3.763127 2.1609,0.78923 2.22424,0.77605 3.1643,-0.65866 z"
       id="path9001"
       inkscape:connector-curvature="0"
       transform="translate(0,842.36216)" />
    <path
       style="fill:#fcf679;fill-opacity:1;stroke:none;stroke-width:5;stroke-miterlimit:4;stroke-dasharray:none;stroke-opacity:1"
       d="m 639.47826,123.22315 c -12.98393,-0.97163 -41.34479,-7.88108 -43.62463,-10.62812 -0.46433,-0.55949 0.33479,-2.01342 3.44112,-6.2608 4.43393,-6.06265 7.90267,-12.339991 10.53947,-19.073148 0.94026,-2.400992 1.96568,-4.450812 2.27872,-4.555158 0.31303,-0.104345 2.48119,1.05847 4.81812,2.584034 10.47716,6.839565 14.25322,8.006786 25.65638,7.930666 10.70009,-0.07143 16.82428,-1.062711 29.11659,-4.712919 8.7899,-2.610166 9.69684,-2.780256 11.00698,-2.064263 3.01326,1.646763 6.68483,12.27287 8.47815,24.537068 0.72385,4.95033 0.71626,5.05009 -0.4046,5.32059 -0.62826,0.15161 -5.47628,1.38326 -10.77339,2.737 -13.9416,3.56293 -28.60897,5.07734 -40.53291,4.18505 z"
       id="path9003"
       inkscape:connector-curvature="0"
       transform="translate(0,842.36216)" />
    <path
       style="fill:#fcf679;fill-opacity:1;stroke:none;stroke-width:5;stroke-miterlimit:4;stroke-dasharray:none;stroke-opacity:1"
       d="m 789.25543,148.75408 c -5.75739,-0.76361 -12.44577,-3.7611 -17.67264,-7.92024 -8.14249,-6.47918 -8.17007,-10.37886 -0.0736,-10.39961 2.77727,-0.007 3.88065,0.36444 8.96493,3.01881 7.74581,4.04389 8.35376,3.97395 4.89086,-0.5627 -3.42923,-4.49254 -1.05261,-5.79352 2.83941,-1.5543 l 2.35122,2.56096 3.75268,-2.56096 c 3.24021,-2.21121 4.31637,-2.63379 7.8803,-3.09431 2.27019,-0.29335 6.33525,-0.54101 9.03347,-0.55036 l 4.90584,-0.017 -3.66756,3.79893 c -3.59928,3.7282 -4.35798,5.00665 -2.97124,5.00665 0.38297,0 3.39761,-2.03825 6.69918,-4.52944 5.97684,-4.50981 6.01663,-4.52913 9.1766,-4.45649 3.79386,0.0872 6.60947,0.93537 7.92282,2.3866 0.9251,1.02222 0.89184,1.14599 -0.84497,3.14379 -2.70467,3.11111 -7.74037,7.34435 -11.26179,9.46716 -7.87949,4.74999 -22.17969,7.55512 -31.92555,6.2625 z m 17.37218,-15.04523 c 2.26643,-1.21295 0.57393,-3.28273 -2.68436,-3.28273 -2.12944,0 -3.14333,1.18525 -2.32379,2.71657 0.67267,1.2569 3.18649,1.54109 5.00815,0.56616 z"
       id="path9005"
       inkscape:connector-curvature="0"
       transform="translate(0,842.36216)" />
    <path
       style="fill:#fcf679;fill-opacity:1;stroke:none;stroke-width:5;stroke-miterlimit:4;stroke-dasharray:none;stroke-opacity:1"
       d="m 788.41478,121.81698 c -0.74841,-0.49735 -3.03243,-2.53388 -5.0756,-4.52562 -5.62518,-5.48361 -4.86727,-7.61601 2.5191,-7.08752 3.20688,0.22945 4.66952,0.70199 8.7263,2.81926 3.11141,1.62387 5.57618,2.5436 6.81654,2.5436 2.12516,0 4.56358,-1.05828 5.75996,-2.49984 0.66315,-0.79903 0.62559,-1.02306 -0.28285,-1.68733 -0.57614,-0.42128 -1.92891,-0.78167 -3.00615,-0.80086 -1.80821,-0.0322 -1.85756,-0.0753 -0.64262,-0.56136 1.5105,-0.60429 18.08865,-1.92134 18.53729,-1.47269 0.16334,0.16334 -0.5085,1.43973 -1.49298,2.83643 -2.53218,3.59243 -1.57651,4.18827 2.58229,1.60999 6.88431,-4.26798 9.16542,-5.23482 11.49314,-4.87133 1.1916,0.18607 2.98712,0.7277 3.99003,1.20362 2.68061,1.27203 2.42347,2.85018 -0.96008,5.89228 -5.38696,4.84334 -8.9007,5.86415 -23.90836,6.94582 -12.40079,0.89379 -23.42067,0.74229 -25.05601,-0.34445 z m 25.69671,-10.3409 c -0.39882,-1.03931 -2.01657,-1.15729 -2.01657,-0.14707 0,0.3935 0.29718,1.01265 0.66041,1.37588 0.8381,0.83809 1.81102,-0.0435 1.35616,-1.22881 z"
       id="path9007"
       inkscape:connector-curvature="0"
       transform="translate(0,842.36216)" />
    <path
       style="fill:#fcf679;fill-opacity:1;stroke:none;stroke-width:2.20139575;stroke-miterlimit:4;stroke-dasharray:none;stroke-opacity:1"
       d="m 816.82791,102.58772 c 0,-1.79779 4.26718,-3.20423 10.45663,-3.446455 2.42154,-0.09477 7.47565,-0.795941 11.23135,-1.558165 4.51368,-0.916056 7.86428,-1.040621 9.8838,-0.367448 l 3.05524,1.018413 -2.74883,1.801105 c -2.70382,1.77161 -17.96036,4.0574 -27.20022,4.07524 -3.26675,0.006 -4.67797,-0.45305 -4.67797,-1.52269 z"
       id="path4152"
       inkscape:connector-curvature="0"
       transform="translate(0,842.36216)" />
    <path
       style="fill:#fcf679;fill-opacity:1;stroke:#fcf679;stroke-width:2.20139575;stroke-miterlimit:4;stroke-dasharray:none;stroke-opacity:1"
       d="m 800.04227,102.50193 c -1.05942,-1.45697 -1.92622,-2.927344 -1.92622,-3.267504 0,-1.276073 4.52506,-0.54183 10.5475,1.711454 7.08474,2.65074 6.42419,4.25206 -1.74192,4.22282 -3.95294,-0.0142 -5.3421,-0.55266 -6.87936,-2.66677 z"
       id="path4154"
       inkscape:connector-curvature="0"
       transform="translate(0,842.36216)" />
  </g>
</svg>
