<?xml version="1.0" encoding="UTF-8" standalone="no"?>
<!-- Created with Inkscape (http://www.inkscape.org/) -->

<svg
   xmlns:dc="http://purl.org/dc/elements/1.1/"
   xmlns:cc="http://creativecommons.org/ns#"
   xmlns:rdf="http://www.w3.org/1999/02/22-rdf-syntax-ns#"
   xmlns:svg="http://www.w3.org/2000/svg"
   xmlns="http://www.w3.org/2000/svg"
   xmlns:sodipodi="http://sodipodi.sourceforge.net/DTD/sodipodi-0.dtd"
   xmlns:inkscape="http://www.inkscape.org/namespaces/inkscape"
   width="1104"
   height="736"
   viewBox="0 0 1104 736.00001"
   id="svg6712"
   version="1.1"
   inkscape:version="0.91 r13725"
   sodipodi:docname="neatebox-callout.svg"
   inkscape:export-filename="C:\Users\HP Laptop\Documents\Haver.scot\images\neatebox-callout.png"
   inkscape:export-xdpi="90"
   inkscape:export-ydpi="90">
  <defs
     id="defs6714" />
  <sodipodi:namedview
     id="base"
     pagecolor="#ffffff"
     bordercolor="#666666"
     borderopacity="1.0"
     inkscape:pageopacity="0.0"
     inkscape:pageshadow="2"
     inkscape:zoom="0.51939372"
     inkscape:cx="191.31766"
     inkscape:cy="421.34044"
     inkscape:document-units="px"
     inkscape:current-layer="layer1"
     showgrid="false"
     units="px"
     inkscape:window-width="1366"
     inkscape:window-height="745"
     inkscape:window-x="-8"
     inkscape:window-y="-8"
     inkscape:window-maximized="1" />
  <metadata
     id="metadata6717">
    <rdf:RDF>
      <cc:Work
         rdf:about="">
        <dc:format>image/svg+xml</dc:format>
        <dc:type
           rdf:resource="http://purl.org/dc/dcmitype/StillImage" />
        <dc:title />
      </cc:Work>
    </rdf:RDF>
  </metadata>
  <g
     inkscape:label="Layer 1"
     inkscape:groupmode="layer"
     id="layer1"
     transform="translate(0,-316.36216)">
    <rect
       style="display:inline;fill:#f9f9f9;fill-opacity:1;fill-rule:evenodd;stroke:none;stroke-width:1px;stroke-linecap:butt;stroke-linejoin:miter;stroke-opacity:1"
       id="rect4672-9-2-7-2-6-0-6-6"
       width="1104"
       height="736"
       x="0"
       y="316.36215"
       inkscape:export-xdpi="90"
       inkscape:export-ydpi="90"
       inkscape:export-filename="C:\Users\HP Laptop\Documents\Haver.scot\images\ideation.png" />
    <rect
       style="display:inline;opacity:1;fill:#ffffff;fill-opacity:1;fill-rule:nonzero;stroke:#525252;stroke-width:5;stroke-linecap:square;stroke-linejoin:round;stroke-miterlimit:4;stroke-dasharray:none;stroke-dashoffset:0;stroke-opacity:1"
       id="rect5414-1-12-9-2-5-0-8-6-5"
       width="40.423748"
       height="70.274963"
       x="210.7002"
       y="812.09399"
       inkscape:export-filename="C:\Users\HP Laptop\Documents\Haver.scot\images\neatebox.png"
       inkscape:export-xdpi="90"
       inkscape:export-ydpi="90" />
    <path
       style="display:inline;opacity:1;fill:none;fill-opacity:1;fill-rule:nonzero;stroke:#525252;stroke-width:5;stroke-linecap:square;stroke-linejoin:round;stroke-miterlimit:4;stroke-dasharray:none;stroke-dashoffset:0;stroke-opacity:1"
       d="m 220.22267,884.02041 c 1.1076,7.8706 -1.1074,48.3492 -1.1074,48.3492 l -1.1075,39.3539 -4.43,-1.1244"
       id="path5469-3-1-0-1-1-0-9"
       inkscape:connector-curvature="0"
       inkscape:export-filename="C:\Users\HP Laptop\Documents\Haver.scot\images\neatebox.png"
       inkscape:export-xdpi="90"
       inkscape:export-ydpi="90" />
    <path
       style="display:inline;opacity:1;fill:none;fill-opacity:1;fill-rule:nonzero;stroke:#525252;stroke-width:5;stroke-linecap:square;stroke-linejoin:round;stroke-miterlimit:4;stroke-dasharray:none;stroke-dashoffset:0;stroke-opacity:1"
       d="m 240.14947,883.24791 c -1.1075,7.8706 1.1076,48.3491 1.1076,48.3491 l 1.1075,39.354 4.4299,-1.1246"
       id="path5469-1-6-6-5-1-9-3-2"
       inkscape:connector-curvature="0"
       inkscape:export-filename="C:\Users\HP Laptop\Documents\Haver.scot\images\neatebox.png"
       inkscape:export-xdpi="90"
       inkscape:export-ydpi="90" />
    <path
       style="display:inline;opacity:1;fill:none;fill-opacity:1;fill-rule:nonzero;stroke:#525252;stroke-width:5;stroke-linecap:square;stroke-linejoin:round;stroke-miterlimit:4;stroke-dasharray:none;stroke-dashoffset:0;stroke-opacity:1"
       d="m 209.60897,877.65151 -41.3788,-19.2226 39.035,-44.9007"
       id="path5609-96-5-8-4"
       inkscape:connector-curvature="0"
       sodipodi:nodetypes="ccc"
       inkscape:export-filename="C:\Users\HP Laptop\Documents\Haver.scot\images\neatebox.png"
       inkscape:export-xdpi="90"
       inkscape:export-ydpi="90" />
    <path
       style="display:inline;opacity:1;fill:none;fill-opacity:1;fill-rule:nonzero;stroke:#525252;stroke-width:5;stroke-linecap:square;stroke-linejoin:round;stroke-miterlimit:4;stroke-dasharray:none;stroke-dashoffset:0;stroke-opacity:1"
       d="m 251.45587,814.66661 23.4935,40.5487 20.3612,-47.7042"
       id="path5609-9-4-7-65-2"
       inkscape:connector-curvature="0"
       inkscape:export-filename="C:\Users\HP Laptop\Documents\Haver.scot\images\neatebox.png"
       inkscape:export-xdpi="90"
       inkscape:export-ydpi="90" />
    <ellipse
       style="display:inline;opacity:1;fill:#ffffff;fill-opacity:1;fill-rule:nonzero;stroke:#525252;stroke-width:5;stroke-linecap:round;stroke-linejoin:round;stroke-miterlimit:4;stroke-dasharray:none;stroke-dashoffset:0;stroke-opacity:1"
       id="path10752-7-1-1-2-7-4"
       cx="226.29785"
       cy="786.32422"
       rx="24.579807"
       ry="24.36018"
       inkscape:export-filename="C:\Users\HP Laptop\Documents\Haver.scot\images\neatebox.png"
       inkscape:export-xdpi="90"
       inkscape:export-ydpi="90" />
    <path
       style="color:#000000;clip-rule:nonzero;display:inline;overflow:visible;visibility:visible;opacity:1;isolation:auto;mix-blend-mode:normal;color-interpolation:sRGB;color-interpolation-filters:linearRGB;solid-color:#000000;solid-opacity:1;fill:#595959;fill-opacity:1;fill-rule:nonzero;stroke:#525252;stroke-width:3;stroke-linecap:round;stroke-linejoin:round;stroke-miterlimit:4;stroke-dasharray:none;stroke-dashoffset:0;stroke-opacity:1;color-rendering:auto;image-rendering:auto;shape-rendering:auto;text-rendering:auto;enable-background:accumulate"
       d="m 208.79977,755.41101 c 15.838,-2.6149 31.6759,-1e-4 36.744,6.5372 5.0681,6.5372 -6.3352,17.6505 -13.3039,20.9192 -6.9687,3.2686 -11.4033,-3.9223 -12.0368,-0.6537 -0.6334,3.2686 6.3352,64.0648 5.0681,71.2558 -1.267,7.191 -31.0422,-10.4596 -32.3092,-15.6894 -1.2671,-5.2297 -0.6337,-63.4111 1.9004,-69.9483 2.5342,-6.5373 13.9374,-12.4208 13.9374,-12.4208 z"
       id="path7293-9-1-0-0"
       inkscape:connector-curvature="0"
       sodipodi:nodetypes="cssssssc"
       inkscape:export-filename="C:\Users\HP Laptop\Documents\Haver.scot\images\neatebox.png"
       inkscape:export-xdpi="90"
       inkscape:export-ydpi="90" />
    <rect
       style="display:inline;fill:#595959;fill-rule:evenodd;stroke:#525252;stroke-width:0.99999994px;stroke-linecap:butt;stroke-linejoin:miter;stroke-opacity:1;fill-opacity:1"
       id="rect12011-1-1-6-3"
       width="21.01576"
       height="40.933376"
       x="290.00977"
       y="772.75488"
       rx="3.1558645"
       ry="2.1465101"
       inkscape:export-filename="C:\Users\HP Laptop\Documents\Haver.scot\images\neatebox.png"
       inkscape:export-xdpi="90"
       inkscape:export-ydpi="90" />
    <rect
       style="display:inline;fill:#595959;fill-rule:evenodd;stroke:#525252;stroke-width:0.99999994px;stroke-linecap:butt;stroke-linejoin:miter;stroke-opacity:1;fill-opacity:1"
       id="rect12011-0-0-5-6-1"
       width="122.05943"
       height="229.58282"
       x="389.56641"
       y="747.29468"
       rx="18.329245"
       ry="12.039121"
       inkscape:export-filename="C:\Users\HP Laptop\Documents\Haver.scot\images\neatebox.png"
       inkscape:export-xdpi="90"
       inkscape:export-ydpi="90" />
    <rect
       style="display:inline;fill:#ffffff;fill-rule:evenodd;stroke:#525252;stroke-width:0.99999994px;stroke-linecap:butt;stroke-linejoin:miter;stroke-opacity:1"
       id="rect12011-0-7-7-7-0-7"
       width="109.66727"
       height="206.44656"
       x="395.76221"
       y="758.86279"
       rx="16.468359"
       ry="10.825876"
       inkscape:export-filename="C:\Users\HP Laptop\Documents\Haver.scot\images\neatebox.png"
       inkscape:export-xdpi="90"
       inkscape:export-ydpi="90" />
    <rect
       style="display:inline;fill:#00dc9f;fill-opacity:0.94117647;fill-rule:evenodd;stroke:none;stroke-width:0.99999994px;stroke-linecap:butt;stroke-linejoin:miter;stroke-opacity:1"
       id="rect12043-1-7-7-3"
       width="83.590271"
       height="23.136255"
       x="410.74561"
       y="927.93585"
       inkscape:export-filename="C:\Users\HP Laptop\Documents\Haver.scot\images\neatebox.png"
       inkscape:export-xdpi="90"
       inkscape:export-ydpi="90" />
    <rect
       style="display:inline;fill:#000000;fill-rule:evenodd;stroke:#595959;stroke-width:0.99999994px;stroke-linecap:butt;stroke-linejoin:miter;stroke-opacity:1"
       id="rect12045-2-7-0-6"
       width="88.925819"
       height="5.3391356"
       x="402.91113"
       y="785.55859"
       inkscape:export-filename="C:\Users\HP Laptop\Documents\Haver.scot\images\neatebox.png"
       inkscape:export-xdpi="90"
       inkscape:export-ydpi="90" />
    <rect
       style="display:inline;fill:#000000;fill-rule:evenodd;stroke:#595959;stroke-width:0.99999994px;stroke-linecap:butt;stroke-linejoin:miter;stroke-opacity:1"
       id="rect12045-5-3-2-3-6"
       width="72.919174"
       height="5.3391356"
       x="402.91113"
       y="801.74536"
       inkscape:export-filename="C:\Users\HP Laptop\Documents\Haver.scot\images\neatebox.png"
       inkscape:export-xdpi="90"
       inkscape:export-ydpi="90" />
    <rect
       y="832.18335"
       x="414.93848"
       height="68.761826"
       width="69.189659"
       id="rect9191-3-4-60-95-3-9-2-0-7-2-9-8-5-1"
       style="display:inline;opacity:1;fill:#ffffff;fill-opacity:1;fill-rule:nonzero;stroke:#525252;stroke-width:5;stroke-linecap:round;stroke-linejoin:round;stroke-miterlimit:4;stroke-dasharray:none;stroke-dashoffset:0;stroke-opacity:1"
       inkscape:export-filename="C:\Users\HP Laptop\Documents\Haver.scot\images\neatebox.png"
       inkscape:export-xdpi="90"
       inkscape:export-ydpi="90" />
    <path
       style="color:#000000;clip-rule:nonzero;display:inline;overflow:visible;visibility:visible;opacity:1;isolation:auto;mix-blend-mode:normal;color-interpolation:sRGB;color-interpolation-filters:linearRGB;solid-color:#000000;solid-opacity:1;fill:none;fill-opacity:1;fill-rule:nonzero;stroke:#525252;stroke-width:5;stroke-linecap:square;stroke-linejoin:round;stroke-miterlimit:4;stroke-dasharray:none;stroke-dashoffset:0;stroke-opacity:1;color-rendering:auto;image-rendering:auto;shape-rendering:auto;text-rendering:auto;enable-background:accumulate"
       d="m 415.92857,878.54681 c 0,0 15.9433,-14.2054 21.0501,-16.9068 5.1067,-2.7014 30.2146,-4.8625 30.2146,-4.8625 l 12.7668,-13.5068 3.8299,-2.7014"
       id="path12152-4-5-7-6"
       inkscape:connector-curvature="0"
       sodipodi:nodetypes="csccc"
       inkscape:export-filename="C:\Users\HP Laptop\Documents\Haver.scot\images\neatebox.png"
       inkscape:export-xdpi="90"
       inkscape:export-ydpi="90" />
    <path
       style="color:#000000;clip-rule:nonzero;display:inline;overflow:visible;visibility:visible;opacity:1;isolation:auto;mix-blend-mode:normal;color-interpolation:sRGB;color-interpolation-filters:linearRGB;solid-color:#000000;solid-opacity:1;fill:none;fill-opacity:1;fill-rule:nonzero;stroke:#525252;stroke-width:5;stroke-linecap:square;stroke-linejoin:round;stroke-miterlimit:4;stroke-dasharray:none;stroke-dashoffset:0;stroke-opacity:1;color-rendering:auto;image-rendering:auto;shape-rendering:auto;text-rendering:auto;enable-background:accumulate"
       d="m 442.51087,861.09971 -4.2556,21.6111 1.2767,17.8291"
       id="path12154-3-2-3-2"
       inkscape:connector-curvature="0"
       inkscape:export-filename="C:\Users\HP Laptop\Documents\Haver.scot\images\neatebox.png"
       inkscape:export-xdpi="90"
       inkscape:export-ydpi="90" />
    <rect
       y="790.00879"
       x="-814.34424"
       height="148.62227"
       width="172.35089"
       id="rect4261-29-7-3-0-9"
       style="display:inline;opacity:1;fill:#ffffff;fill-opacity:1;fill-rule:evenodd;stroke:#525252;stroke-width:5;stroke-linecap:round;stroke-miterlimit:4;stroke-dasharray:none;stroke-dashoffset:0;stroke-opacity:1"
       transform="scale(-1,1)" />
    <path
       inkscape:connector-curvature="0"
       id="path4263-6-0-8-5-0"
       d="m 804.95557,785.21991 -153.3135,0 17.69,-11.7821 117.9335,0 z"
       style="display:inline;opacity:1;fill:#595959;fill-opacity:1;fill-rule:evenodd;stroke:#525252;stroke-width:5;stroke-linecap:round;stroke-miterlimit:4;stroke-dasharray:none;stroke-dashoffset:0;stroke-opacity:1"
       sodipodi:nodetypes="ccccc" />
    <rect
       y="913.47729"
       x="-735.85059"
       height="21.381897"
       width="21.402319"
       id="rect4261-4-3-5-3-3-1-7-7-4"
       style="display:inline;opacity:1;fill:#595959;fill-opacity:1;fill-rule:evenodd;stroke:#525252;stroke-width:5;stroke-linecap:round;stroke-miterlimit:4;stroke-dasharray:none;stroke-dashoffset:0;stroke-opacity:1"
       transform="scale(-1,1)" />
    <rect
       y="817.48291"
       x="-792.45117"
       height="8.773715"
       width="22.162796"
       id="rect4261-4-3-4-7-80-3-7-7"
       style="display:inline;opacity:1;fill:#595959;fill-opacity:1;fill-rule:evenodd;stroke:#525252;stroke-width:5;stroke-linecap:round;stroke-miterlimit:4;stroke-dasharray:none;stroke-dashoffset:0;stroke-opacity:1"
       transform="scale(-1,1)" />
    <rect
       y="841.57617"
       x="-792.45117"
       height="8.773715"
       width="22.162796"
       id="rect4261-4-3-4-7-8-7-5-0-4"
       style="display:inline;opacity:1;fill:#595959;fill-opacity:1;fill-rule:evenodd;stroke:#525252;stroke-width:5;stroke-linecap:round;stroke-miterlimit:4;stroke-dasharray:none;stroke-dashoffset:0;stroke-opacity:1"
       transform="scale(-1,1)" />
    <rect
       y="865.66992"
       x="-792.45117"
       height="8.773715"
       width="22.162796"
       id="rect4261-4-3-4-7-8-2-7-5-3-7"
       style="display:inline;opacity:1;fill:#595959;fill-opacity:1;fill-rule:evenodd;stroke:#525252;stroke-width:5;stroke-linecap:round;stroke-miterlimit:4;stroke-dasharray:none;stroke-dashoffset:0;stroke-opacity:1"
       transform="scale(-1,1)" />
    <rect
       y="889.76318"
       x="-792.45117"
       height="8.773715"
       width="22.162796"
       id="rect4261-4-3-4-7-8-2-6-1-4-9-0"
       style="display:inline;opacity:1;fill:#595959;fill-opacity:1;fill-rule:evenodd;stroke:#525252;stroke-width:5;stroke-linecap:round;stroke-miterlimit:4;stroke-dasharray:none;stroke-dashoffset:0;stroke-opacity:1"
       transform="scale(-1,1)" />
    <rect
       y="817.8999"
       x="-757.20117"
       height="8.773715"
       width="22.162796"
       id="rect4261-4-3-4-7-3-4-5-0-6"
       style="display:inline;opacity:1;fill:#595959;fill-opacity:1;fill-rule:evenodd;stroke:#525252;stroke-width:5;stroke-linecap:round;stroke-miterlimit:4;stroke-dasharray:none;stroke-dashoffset:0;stroke-opacity:1"
       transform="scale(-1,1)" />
    <rect
       y="841.99341"
       x="-757.20117"
       height="8.773715"
       width="22.162796"
       id="rect4261-4-3-4-7-8-4-4-3-0-3"
       style="display:inline;opacity:1;fill:#595959;fill-opacity:1;fill-rule:evenodd;stroke:#525252;stroke-width:5;stroke-linecap:round;stroke-miterlimit:4;stroke-dasharray:none;stroke-dashoffset:0;stroke-opacity:1"
       transform="scale(-1,1)" />
    <rect
       y="866.08691"
       x="-757.20117"
       height="8.773715"
       width="22.162796"
       id="rect4261-4-3-4-7-8-2-4-7-9-1-8"
       style="display:inline;opacity:1;fill:#595959;fill-opacity:1;fill-rule:evenodd;stroke:#525252;stroke-width:5;stroke-linecap:round;stroke-miterlimit:4;stroke-dasharray:none;stroke-dashoffset:0;stroke-opacity:1"
       transform="scale(-1,1)" />
    <rect
       y="890.18042"
       x="-757.20117"
       height="8.773715"
       width="22.162796"
       id="rect4261-4-3-4-7-8-2-6-3-6-1-3-4"
       style="display:inline;opacity:1;fill:#595959;fill-opacity:1;fill-rule:evenodd;stroke:#525252;stroke-width:5;stroke-linecap:round;stroke-miterlimit:4;stroke-dasharray:none;stroke-dashoffset:0;stroke-opacity:1"
       transform="scale(-1,1)" />
    <rect
       y="817.8999"
       x="-721.82129"
       height="8.773715"
       width="22.162796"
       id="rect4261-4-3-4-7-7-3-9-2-6"
       style="display:inline;opacity:1;fill:#595959;fill-opacity:1;fill-rule:evenodd;stroke:#525252;stroke-width:5;stroke-linecap:round;stroke-miterlimit:4;stroke-dasharray:none;stroke-dashoffset:0;stroke-opacity:1"
       transform="scale(-1,1)" />
    <rect
       y="841.99341"
       x="-721.82129"
       height="8.773715"
       width="22.162796"
       id="rect4261-4-3-4-7-8-5-1-8-7-3"
       style="display:inline;opacity:1;fill:#595959;fill-opacity:1;fill-rule:evenodd;stroke:#525252;stroke-width:5;stroke-linecap:round;stroke-miterlimit:4;stroke-dasharray:none;stroke-dashoffset:0;stroke-opacity:1"
       transform="scale(-1,1)" />
    <rect
       y="866.08691"
       x="-721.82129"
       height="8.773715"
       width="22.162796"
       id="rect4261-4-3-4-7-8-2-2-0-9-0-3"
       style="display:inline;opacity:1;fill:#595959;fill-opacity:1;fill-rule:evenodd;stroke:#525252;stroke-width:5;stroke-linecap:round;stroke-miterlimit:4;stroke-dasharray:none;stroke-dashoffset:0;stroke-opacity:1"
       transform="scale(-1,1)" />
    <rect
       y="890.18042"
       x="-721.82129"
       height="8.773715"
       width="22.162796"
       id="rect4261-4-3-4-7-8-2-6-9-9-0-0-5"
       style="display:inline;opacity:1;fill:#595959;fill-opacity:1;fill-rule:evenodd;stroke:#525252;stroke-width:5;stroke-linecap:round;stroke-miterlimit:4;stroke-dasharray:none;stroke-dashoffset:0;stroke-opacity:1"
       transform="scale(-1,1)" />
    <rect
       y="817.8999"
       x="-686.44141"
       height="8.773715"
       width="22.162796"
       id="rect4261-4-3-4-7-2-6-3-9-7"
       style="display:inline;opacity:1;fill:#595959;fill-opacity:1;fill-rule:evenodd;stroke:#525252;stroke-width:5;stroke-linecap:round;stroke-miterlimit:4;stroke-dasharray:none;stroke-dashoffset:0;stroke-opacity:1"
       transform="scale(-1,1)" />
    <rect
       y="841.99341"
       x="-686.44141"
       height="8.773715"
       width="22.162796"
       id="rect4261-4-3-4-7-8-0-7-8-5-4"
       style="display:inline;opacity:1;fill:#595959;fill-opacity:1;fill-rule:evenodd;stroke:#525252;stroke-width:5;stroke-linecap:round;stroke-miterlimit:4;stroke-dasharray:none;stroke-dashoffset:0;stroke-opacity:1"
       transform="scale(-1,1)" />
    <rect
       y="866.08691"
       x="-686.44141"
       height="8.773715"
       width="22.162796"
       id="rect4261-4-3-4-7-8-2-0-0-9-9-1"
       style="display:inline;opacity:1;fill:#595959;fill-opacity:1;fill-rule:evenodd;stroke:#525252;stroke-width:5;stroke-linecap:round;stroke-miterlimit:4;stroke-dasharray:none;stroke-dashoffset:0;stroke-opacity:1"
       transform="scale(-1,1)" />
    <rect
       y="890.18042"
       x="-686.44141"
       height="8.773715"
       width="22.162796"
       id="rect4261-4-3-4-7-8-2-6-7-5-7-4-7"
       style="display:inline;opacity:1;fill:#595959;fill-opacity:1;fill-rule:evenodd;stroke:#525252;stroke-width:5;stroke-linecap:round;stroke-miterlimit:4;stroke-dasharray:none;stroke-dashoffset:0;stroke-opacity:1"
       transform="scale(-1,1)" />
    <path
       inkscape:connector-curvature="0"
       id="path4145-9-5-7-7-3"
       d="m 852.39644,812.39904 c -16.96378,5.017 -51.95088,5.85243 -44.52952,10.45263 7.95194,4.17959 38.69818,24.24744 38.69818,24.24744 z"
       style="display:inline;fill:#ffffff;fill-opacity:1;fill-rule:nonzero;stroke:#525252;stroke-width:5;stroke-miterlimit:4;stroke-dasharray:none;stroke-opacity:1"
       inkscape:export-filename="C:\Users\HP Laptop\Documents\Haver.scot\images\neatebox.png"
       inkscape:export-xdpi="90"
       inkscape:export-ydpi="90" />
    <path
       inkscape:connector-curvature="0"
       id="path4143-0-7-0-88-8"
       d="m 988.98467,841.87811 c 0,-36.9838 -32.4353,-67.0329 -72.9788,-67.0329 -40.0938,0 -72.9789,30.0491 -72.9789,67.0329 0,36.9837 32.8851,67.0328 72.9789,67.0328 40.5435,0 72.9788,-30.0491 72.9788,-67.0328 z"
       style="display:inline;fill:#ffffff;fill-opacity:1;fill-rule:nonzero;stroke:#525252;stroke-width:4.99999952;stroke-linecap:round;stroke-linejoin:round;stroke-miterlimit:4;stroke-dasharray:none;stroke-opacity:1"
       inkscape:export-filename="C:\Users\HP Laptop\Documents\Haver.scot\images\neatebox.png"
       inkscape:export-xdpi="90"
       inkscape:export-ydpi="90" />
    <ellipse
       style="display:inline;opacity:1;fill:#ffffff;fill-opacity:1;fill-rule:nonzero;stroke:#525252;stroke-width:5;stroke-linecap:round;stroke-linejoin:round;stroke-miterlimit:4;stroke-dasharray:none;stroke-dashoffset:0;stroke-opacity:1"
       id="path10752-7-1-4-2-2-2-4"
       cx="-912.33936"
       cy="829.01172"
       rx="22.653259"
       ry="22.452604"
       inkscape:export-filename="C:\Users\HP Laptop\Documents\Haver.scot\images\neatebox.png"
       inkscape:export-xdpi="90"
       inkscape:export-ydpi="90"
       transform="scale(-1,1)" />
    <path
       style="color:#000000;clip-rule:nonzero;display:inline;overflow:visible;visibility:visible;opacity:1;isolation:auto;mix-blend-mode:normal;color-interpolation:sRGB;color-interpolation-filters:linearRGB;solid-color:#000000;solid-opacity:1;fill:#595959;fill-opacity:1;fill-rule:nonzero;stroke:#525252;stroke-width:2.99999976;stroke-linecap:round;stroke-linejoin:round;stroke-miterlimit:4;stroke-dasharray:none;stroke-dashoffset:0;stroke-opacity:1;color-rendering:auto;image-rendering:auto;shape-rendering:auto;text-rendering:auto;enable-background:accumulate"
       d="m 928.46477,800.51931 c -14.5965,-2.4101 -29.193,-10e-5 -33.8639,6.0253 -4.6709,6.0253 5.8385,16.2683 12.2612,19.281 6.4224,3.0127 10.5094,-3.6152 11.0932,-0.6025 0.584,3.0127 -5.8386,59.0482 -4.6708,65.676 1.1676,6.6278 28.6092,-9.6406 29.7769,-14.4608 1.1677,-4.8202 0.5839,-58.4456 -1.7516,-64.4709 -2.3354,-6.0253 -12.845,-11.4481 -12.845,-11.4481 z"
       id="path7293-0-3-8-3-2"
       inkscape:connector-curvature="0"
       sodipodi:nodetypes="cssssssc"
       inkscape:export-filename="C:\Users\HP Laptop\Documents\Haver.scot\images\neatebox.png"
       inkscape:export-xdpi="90"
       inkscape:export-ydpi="90" />
    <g
       style="color:#000000;font-style:normal;font-variant:normal;font-weight:normal;font-stretch:normal;font-size:52.5px;line-height:125%;font-family:'Fira Sans';-inkscape-font-specification:'Fira Sans';text-indent:0;text-align:end;text-decoration:none;text-decoration-line:none;text-decoration-style:solid;text-decoration-color:#000000;letter-spacing:0px;word-spacing:0px;text-transform:none;direction:ltr;block-progression:tb;writing-mode:lr-tb;baseline-shift:baseline;text-anchor:end;white-space:normal;clip-rule:nonzero;display:inline;overflow:visible;visibility:visible;opacity:1;isolation:auto;mix-blend-mode:normal;color-interpolation:sRGB;color-interpolation-filters:linearRGB;solid-color:#000000;solid-opacity:1;fill:#525252;fill-opacity:1;fill-rule:nonzero;stroke:none;stroke-width:1;stroke-linecap:square;stroke-linejoin:round;stroke-miterlimit:4;stroke-dasharray:none;stroke-dashoffset:0;stroke-opacity:1;color-rendering:auto;image-rendering:auto;shape-rendering:auto;text-rendering:auto;enable-background:accumulate"
       id="text6228-1">
      <path
         d="m 71.144922,434.66564 2.3625,0 0.525,-9.7125 -3.375,0 0.4875,9.7125 z m 6.5625,0 2.3625,0 0.525,-9.7125 -3.375,0 0.4875,9.7125 z"
         style="font-size:37.5px;text-align:end;text-anchor:end"
         id="path7415" />
      <path
         d="m 112.79336,424.95314 -3,0 -4.4625,22.9125 -5.25,-22.9125 -3.487501,0 -5.1375,22.9125 -4.3125,-22.9125 -3.225,0 5.3625,25.8 4.05,0 4.9875,-22.0125 4.950001,22.0125 4.1625,0 5.3625,-25.8 z"
         style="font-size:37.5px;text-align:end;text-anchor:end"
         id="path7417" />
      <path
         d="m 131.74961,440.25314 c 0,-5.9625 -2.7375,-9.675 -8.025,-9.675 -5.025,0 -8.1,4.3125 -8.1,10.5 0,6.2625 3.1875,10.125 8.625,10.125 2.7,0 4.875,-0.9375 6.7875,-2.475 l -1.3875,-1.875 c -1.725,1.2 -3.1875,1.7625 -5.175,1.7625 -3,0 -5.175,-1.875 -5.5125,-6.6375 l 12.7125,0 c 0.0375,-0.4125 0.075,-1.05 0.075,-1.725 z m -3.1125,-0.6 -9.675,0 c 0.2625,-4.6125 2.1,-6.5625 4.8375,-6.5625 3.2625,0 4.8375,2.2875 4.8375,6.2625 l 0,0.3 z"
         style="font-size:37.5px;text-align:end;text-anchor:end"
         id="path7419" />
      <path
         d="m 136.25723,434.66564 2.3625,0 0.525,-9.7125 -3.375,0 0.4875,9.7125 z"
         style="font-size:37.5px;text-align:end;text-anchor:end"
         id="path7421" />
      <path
         d="m 153.53711,430.57814 c -2.4375,0 -4.275,1.5375 -5.325,4.575 l -0.3,-4.125 -2.7,0 0,19.725 3.15,0 0,-11.55 c 0.9,-3.7875 2.325,-5.55 4.8375,-5.55 0.7125,0 1.125,0.075 1.725,0.225 l 0.5625,-3.075 c -0.5625,-0.15 -1.275,-0.225 -1.95,-0.225 z"
         style="font-size:37.5px;text-align:end;text-anchor:end"
         id="path7423" />
      <path
         d="m 173.13145,440.25314 c 0,-5.9625 -2.7375,-9.675 -8.025,-9.675 -5.025,0 -8.1,4.3125 -8.1,10.5 0,6.2625 3.1875,10.125 8.625,10.125 2.7,0 4.875,-0.9375 6.7875,-2.475 l -1.3875,-1.875 c -1.725,1.2 -3.1875,1.7625 -5.175,1.7625 -3,0 -5.175,-1.875 -5.5125,-6.6375 l 12.7125,0 c 0.0375,-0.4125 0.075,-1.05 0.075,-1.725 z m -3.1125,-0.6 -9.675,0 c 0.2625,-4.6125 2.1,-6.5625 4.8375,-6.5625 3.2625,0 4.8375,2.2875 4.8375,6.2625 l 0,0.3 z"
         style="font-size:37.5px;text-align:end;text-anchor:end"
         id="path7425" />
      <path
         d="m 195.95195,430.57814 c -5.2875,0 -8.55,4.1625 -8.55,10.4625 0,6.375 3.3,10.1625 8.55,10.1625 2.25,0 4.2375,-0.75 5.925,-2.175 l -1.4625,-2.0625 c -1.4625,1.0125 -2.6625,1.5375 -4.35,1.5375 -3.225,0 -5.2875,-2.25 -5.2875,-7.5 0,-5.2875 2.0625,-7.8 5.2875,-7.8 1.6875,0 2.9625,0.4875 4.275,1.4625 l 1.5375,-1.9875 c -1.8,-1.5 -3.6375,-2.1 -5.925,-2.1 z"
         style="font-size:37.5px;text-align:end;text-anchor:end"
         id="path7427" />
      <path
         d="m 220.84434,431.02814 -3.15,0 0,14.1375 c -1.2375,2.0625 -2.8875,3.525 -5.1375,3.525 -2.25,0 -3.225,-1.05 -3.225,-3.8625 l 0,-13.8 -3.15,0 0,14.1375 c 0,3.8625 2.025,6.0375 5.5125,6.0375 2.85,0 4.725,-1.2375 6.1875,-3.6375 l 0.2625,3.1875 2.7,0 0,-19.725 z"
         style="font-size:37.5px;text-align:end;text-anchor:end"
         id="path7429" />
      <path
         d="m 236.44727,430.57814 c -2.4375,0 -4.275,1.5375 -5.325,4.575 l -0.3,-4.125 -2.7,0 0,19.725 3.15,0 0,-11.55 c 0.9,-3.7875 2.325,-5.55 4.8375,-5.55 0.7125,0 1.125,0.075 1.725,0.225 l 0.5625,-3.075 c -0.5625,-0.15 -1.275,-0.225 -1.95,-0.225 z"
         style="font-size:37.5px;text-align:end;text-anchor:end"
         id="path7431" />
      <path
         d="m 250.80273,430.57814 c -2.4375,0 -4.275,1.5375 -5.325,4.575 l -0.3,-4.125 -2.7,0 0,19.725 3.15,0 0,-11.55 c 0.9,-3.7875 2.325,-5.55 4.8375,-5.55 0.7125,0 1.125,0.075 1.725,0.225 l 0.5625,-3.075 c -0.5625,-0.15 -1.275,-0.225 -1.95,-0.225 z"
         style="font-size:37.5px;text-align:end;text-anchor:end"
         id="path7433" />
      <path
         d="m 270.39707,440.25314 c 0,-5.9625 -2.7375,-9.675 -8.025,-9.675 -5.025,0 -8.1,4.3125 -8.1,10.5 0,6.2625 3.1875,10.125 8.625,10.125 2.7,0 4.875,-0.9375 6.7875,-2.475 l -1.3875,-1.875 c -1.725,1.2 -3.1875,1.7625 -5.175,1.7625 -3,0 -5.175,-1.875 -5.5125,-6.6375 l 12.7125,0 c 0.0375,-0.4125 0.075,-1.05 0.075,-1.725 z m -3.1125,-0.6 -9.675,0 c 0.2625,-4.6125 2.1,-6.5625 4.8375,-6.5625 3.2625,0 4.8375,2.2875 4.8375,6.2625 l 0,0.3 z"
         style="font-size:37.5px;text-align:end;text-anchor:end"
         id="path7435" />
      <path
         d="m 285.2459,430.57814 c -2.6625,0 -4.725,1.3875 -6.1875,3.4125 l -0.2625,-2.9625 -2.7,0 0,19.725 3.15,0 0,-14.0625 c 1.35,-2.175 2.925,-3.6375 5.25,-3.6375 2.025,0 3.2625,0.975 3.2625,4.0125 l 0,13.6875 3.15,0 0,-14.1375 c 0,-3.75 -2.0625,-6.0375 -5.6625,-6.0375 z"
         style="font-size:37.5px;text-align:end;text-anchor:end"
         id="path7437" />
      <path
         d="m 306.58105,447.75314 c -0.975,0.5625 -1.8,0.825 -2.7375,0.825 -1.7625,0 -2.475,-0.975 -2.475,-3.0375 l 0,-12.075 4.425,0 0.3375,-2.4375 -4.7625,0 0,-4.875 -3.15,0.3375 0,4.5375 -3.4125,0 0,2.4375 3.4125,0 0,12.225 c 0,3.6 1.95,5.5125 5.2125,5.5125 1.65,0 3.075,-0.45 4.35,-1.3125 l -1.2,-2.1375 z"
         style="font-size:37.5px;text-align:end;text-anchor:end"
         id="path7439" />
      <path
         d="m 314.78242,451.20314 c 0.975,0 1.9125,-0.2625 2.625,-0.6375 l -0.825,-2.2125 c -0.375,0.15 -0.7875,0.225 -1.275,0.225 -0.9375,0 -1.3125,-0.5625 -1.3125,-1.65 l 0,-24.225 -3.15,0.375 0,23.925 c 0,2.7375 1.5375,4.2 3.9375,4.2 z"
         style="font-size:37.5px;text-align:end;text-anchor:end"
         id="path7441" />
      <path
         d="m 335.7168,431.02814 -3.2625,0 -5.325,17.4375 -5.4375,-17.4375 -3.375,0 6.675,19.725 1.0875,0 c -1.1625,3.15 -2.25,4.6875 -6.2625,5.4375 l 0.375,2.475 c 5.2875,-0.675 7.5,-3.6 8.8875,-7.8 l 6.6375,-19.8375 z"
         style="font-size:37.5px;text-align:end;text-anchor:end"
         id="path7443" />
      <path
         d="m 364.32578,431.02814 -3.15,0 0,14.1375 c -1.2375,2.0625 -2.8875,3.525 -5.1375,3.525 -2.25,0 -3.225,-1.05 -3.225,-3.8625 l 0,-13.8 -3.15,0 0,14.1375 c 0,3.8625 2.025,6.0375 5.5125,6.0375 2.85,0 4.725,-1.2375 6.1875,-3.6375 l 0.2625,3.1875 2.7,0 0,-19.725 z"
         style="font-size:37.5px;text-align:end;text-anchor:end"
         id="path7445" />
      <path
         d="m 380.75371,430.57814 c -2.6625,0 -4.725,1.3875 -6.1875,3.4125 l -0.2625,-2.9625 -2.7,0 0,19.725 3.15,0 0,-14.0625 c 1.35,-2.175 2.925,-3.6375 5.25,-3.6375 2.025,0 3.2625,0.975 3.2625,4.0125 l 0,13.6875 3.15,0 0,-14.1375 c 0,-3.75 -2.0625,-6.0375 -5.6625,-6.0375 z"
         style="font-size:37.5px;text-align:end;text-anchor:end"
         id="path7447" />
      <path
         d="m 405.38887,422.70314 0,10.35 c -1.275,-1.35 -2.9625,-2.475 -5.3625,-2.475 -4.8375,0 -7.725,4.35 -7.725,10.3875 0,6.1875 2.6625,10.2375 7.425,10.2375 2.5125,0 4.5,-1.275 5.7375,-3.225 l 0.3375,2.775 2.7375,0 0,-27.675 -3.15,-0.375 z m -5.025,25.9875 c -2.9625,0 -4.6875,-2.5125 -4.6875,-7.7625 0,-5.25 1.95,-7.8375 5.025,-7.8375 2.0625,0 3.4875,1.05 4.6875,2.6625 l 0,9.825 c -1.3125,1.9875 -2.7375,3.1125 -5.025,3.1125 z"
         style="font-size:37.5px;text-align:end;text-anchor:end"
         id="path7449" />
      <path
         d="m 430.57773,440.25314 c 0,-5.9625 -2.7375,-9.675 -8.025,-9.675 -5.025,0 -8.1,4.3125 -8.1,10.5 0,6.2625 3.1875,10.125 8.625,10.125 2.7,0 4.875,-0.9375 6.7875,-2.475 l -1.3875,-1.875 c -1.725,1.2 -3.1875,1.7625 -5.175,1.7625 -3,0 -5.175,-1.875 -5.5125,-6.6375 l 12.7125,0 c 0.0375,-0.4125 0.075,-1.05 0.075,-1.725 z m -3.1125,-0.6 -9.675,0 c 0.2625,-4.6125 2.1,-6.5625 4.8375,-6.5625 3.2625,0 4.8375,2.2875 4.8375,6.2625 l 0,0.3 z"
         style="font-size:37.5px;text-align:end;text-anchor:end"
         id="path7451" />
      <path
         d="m 444.60156,430.57814 c -2.4375,0 -4.275,1.5375 -5.325,4.575 l -0.3,-4.125 -2.7,0 0,19.725 3.15,0 0,-11.55 c 0.9,-3.7875 2.325,-5.55 4.8375,-5.55 0.7125,0 1.125,0.075 1.725,0.225 l 0.5625,-3.075 c -0.5625,-0.15 -1.275,-0.225 -1.95,-0.225 z"
         style="font-size:37.5px;text-align:end;text-anchor:end"
         id="path7453" />
      <path
         d="m 464.70859,428.92814 c -2.2125,1.0125 -3.9375,1.7625 -8.925,1.65 -4.35,0 -7.5,2.8125 -7.5,6.825 0,2.5875 1.05,4.3125 3.3,5.5125 -1.3875,0.9 -2.1375,2.1375 -2.1375,3.45 0,1.95 1.575,3.675 5.025,3.675 l 3.1125,0 c 2.55,0 4.0875,0.975 4.0875,2.925 0,2.0625 -1.5375,3.225 -5.8875,3.225 -4.425,0 -5.55,-1.05 -5.55,-3.4125 l -2.85,0 c 0,3.975 2.0625,5.8875 8.4,5.8875 6.0375,0 9.075,-2.1375 9.075,-5.925 0,-3.075 -2.625,-5.3625 -6.6375,-5.3625 l -3.15,0 c -2.1,0 -2.7,-0.75 -2.7,-1.6875 0,-0.7875 0.4125,-1.5 1.0875,-1.95 0.7875,0.2625 1.6125,0.375 2.5125,0.375 4.65,0 7.425,-2.775 7.425,-6.6375 0,-2.4 -1.1625,-4.05 -3.45,-5.0625 2.2875,-0.0375 4.125,-0.1125 5.7,-0.6 l -0.9375,-2.8875 z m -8.925,3.9375 c 2.925,0 4.3875,1.6125 4.3875,4.5375 0,2.925 -1.5,4.6125 -4.3125,4.6125 -2.775,0 -4.35,-1.8375 -4.35,-4.6125 0,-2.625 1.4625,-4.5375 4.275,-4.5375 z"
         style="font-size:37.5px;text-align:end;text-anchor:end"
         id="path7455" />
      <path
         d="m 476.03359,430.57814 c -5.5125,0 -8.7,4.1625 -8.7,10.35 0,6.2625 3.15,10.275 8.6625,10.275 5.5125,0 8.7,-4.1625 8.7,-10.35 0,-6.3 -3.1125,-10.275 -8.6625,-10.275 z m 0,2.55 c 3.4125,0 5.2875,2.5125 5.2875,7.725 0,5.2875 -1.9125,7.8 -5.325,7.8 -3.4125,0 -5.2875,-2.5125 -5.2875,-7.725 0,-5.2875 1.95,-7.8 5.325,-7.8 z"
         style="font-size:37.5px;text-align:end;text-anchor:end"
         id="path7457" />
      <path
         d="m 492.08652,421.72814 c -1.3125,0 -2.2125,0.9375 -2.2125,2.175 0,1.2375 0.9,2.175 2.2125,2.175 1.35,0 2.25,-0.9375 2.25,-2.175 0,-1.2375 -0.9,-2.175 -2.25,-2.175 z m 1.6125,9.3 -3.15,0 0,19.725 3.15,0 0,-19.725 z"
         style="font-size:37.5px;text-align:end;text-anchor:end"
         id="path7459" />
      <path
         d="m 510.17266,430.57814 c -2.6625,0 -4.725,1.3875 -6.1875,3.4125 l -0.2625,-2.9625 -2.7,0 0,19.725 3.15,0 0,-14.0625 c 1.35,-2.175 2.925,-3.6375 5.25,-3.6375 2.025,0 3.2625,0.975 3.2625,4.0125 l 0,13.6875 3.15,0 0,-14.1375 c 0,-3.75 -2.0625,-6.0375 -5.6625,-6.0375 z"
         style="font-size:37.5px;text-align:end;text-anchor:end"
         id="path7461" />
      <path
         d="m 537.65781,428.92814 c -2.2125,1.0125 -3.9375,1.7625 -8.925,1.65 -4.35,0 -7.5,2.8125 -7.5,6.825 0,2.5875 1.05,4.3125 3.3,5.5125 -1.3875,0.9 -2.1375,2.1375 -2.1375,3.45 0,1.95 1.575,3.675 5.025,3.675 l 3.1125,0 c 2.55,0 4.0875,0.975 4.0875,2.925 0,2.0625 -1.5375,3.225 -5.8875,3.225 -4.425,0 -5.55,-1.05 -5.55,-3.4125 l -2.85,0 c 0,3.975 2.0625,5.8875 8.4,5.8875 6.0375,0 9.075,-2.1375 9.075,-5.925 0,-3.075 -2.625,-5.3625 -6.6375,-5.3625 l -3.15,0 c -2.1,0 -2.7,-0.75 -2.7,-1.6875 0,-0.7875 0.4125,-1.5 1.0875,-1.95 0.7875,0.2625 1.6125,0.375 2.5125,0.375 4.65,0 7.425,-2.775 7.425,-6.6375 0,-2.4 -1.1625,-4.05 -3.45,-5.0625 2.2875,-0.0375 4.125,-0.1125 5.7,-0.6 l -0.9375,-2.8875 z m -8.925,3.9375 c 2.925,0 4.3875,1.6125 4.3875,4.5375 0,2.925 -1.5,4.6125 -4.3125,4.6125 -2.775,0 -4.35,-1.8375 -4.35,-4.6125 0,-2.625 1.4625,-4.5375 4.275,-4.5375 z"
         style="font-size:37.5px;text-align:end;text-anchor:end"
         id="path7463" />
      <path
         d="m 565.41543,446.21564 0,-9.15 c 0,-4.0875 -2.1375,-6.4875 -6.825,-6.4875 -2.175,0 -4.3125,0.45 -6.675,1.35 l 0.7875,2.325 c 2.025,-0.7125 3.825,-1.0875 5.325,-1.0875 2.85,0 4.2375,1.125 4.2375,4.05 l 0,1.575 -3.225,0 c -5.4,0 -8.55,2.25 -8.55,6.45 0,3.525 2.325,5.9625 6.225,5.9625 2.4375,0 4.5375,-0.9375 5.925,-3.0375 0.525,1.9875 1.7625,2.775 3.675,3.0375 l 0.75,-2.2125 c -1.05,-0.375 -1.65,-0.9375 -1.65,-2.775 z m -7.9875,2.5875 c -2.3625,0 -3.6,-1.3125 -3.6,-3.7125 0,-2.8125 1.95,-4.2 5.625,-4.2 l 2.8125,0 0,4.6875 c -1.125,2.1375 -2.7,3.225 -4.8375,3.225 z"
         style="font-size:37.5px;text-align:end;text-anchor:end"
         id="path7465" />
      <path
         d="m 602.41094,430.57814 c -2.6625,0 -4.5375,1.5 -5.9625,3.675 -0.7125,-2.2875 -2.475,-3.675 -4.95,-3.675 -2.55,0 -4.3875,1.3875 -5.775,3.4125 l -0.2625,-2.9625 -2.7,0 0,19.725 3.15,0 0,-14.0625 c 1.35,-2.175 2.6625,-3.6375 4.8375,-3.6375 1.6125,0 2.8875,0.975 2.8875,4.0125 l 0,13.6875 3.15,0 0,-14.0625 c 1.3875,-2.175 2.6625,-3.6375 4.875,-3.6375 1.6125,0 2.8875,0.975 2.8875,4.0125 l 0,13.6875 3.15,0 0,-14.1375 c 0,-3.7125 -2.0625,-6.0375 -5.2875,-6.0375 z"
         style="font-size:37.5px;text-align:end;text-anchor:end"
         id="path7467" />
      <path
         d="m 627.89102,446.21564 0,-9.15 c 0,-4.0875 -2.1375,-6.4875 -6.825,-6.4875 -2.175,0 -4.3125,0.45 -6.675,1.35 l 0.7875,2.325 c 2.025,-0.7125 3.825,-1.0875 5.325,-1.0875 2.85,0 4.2375,1.125 4.2375,4.05 l 0,1.575 -3.225,0 c -5.4,0 -8.55,2.25 -8.55,6.45 0,3.525 2.325,5.9625 6.225,5.9625 2.4375,0 4.5375,-0.9375 5.925,-3.0375 0.525,1.9875 1.7625,2.775 3.675,3.0375 l 0.75,-2.2125 c -1.05,-0.375 -1.65,-0.9375 -1.65,-2.775 z m -7.9875,2.5875 c -2.3625,0 -3.6,-1.3125 -3.6,-3.7125 0,-2.8125 1.95,-4.2 5.625,-4.2 l 2.8125,0 0,4.6875 c -1.125,2.1375 -2.7,3.225 -4.8375,3.225 z"
         style="font-size:37.5px;text-align:end;text-anchor:end"
         id="path7469" />
      <path
         d="m 640.04863,430.57814 c -4.0125,0 -6.975,2.25 -6.975,5.3625 0,2.775 1.6875,4.5375 5.925,5.6625 3.9,1.05 4.9125,1.8 4.9125,3.8625 0,1.9875 -1.7625,3.1875 -4.3875,3.1875 -2.2125,0 -4.0125,-0.75 -5.625,-1.95 l -1.6875,1.9125 c 1.725,1.5 4.05,2.5875 7.3875,2.5875 3.975,0 7.6125,-1.9125 7.6125,-5.925 0,-3.45 -2.325,-5.025 -6.4875,-6.1125 -3.2625,-0.8625 -4.3875,-1.6125 -4.3875,-3.3 0,-1.6875 1.5,-2.775 3.825,-2.775 1.875,0 3.375,0.5625 5.1375,1.725 l 1.35,-1.9875 c -1.875,-1.425 -3.9,-2.25 -6.6,-2.25 z"
         style="font-size:37.5px;text-align:end;text-anchor:end"
         id="path7471" />
      <path
         d="m 657.11406,430.57814 c -4.0125,0 -6.975,2.25 -6.975,5.3625 0,2.775 1.6875,4.5375 5.925,5.6625 3.9,1.05 4.9125,1.8 4.9125,3.8625 0,1.9875 -1.7625,3.1875 -4.3875,3.1875 -2.2125,0 -4.0125,-0.75 -5.625,-1.95 l -1.6875,1.9125 c 1.725,1.5 4.05,2.5875 7.3875,2.5875 3.975,0 7.6125,-1.9125 7.6125,-5.925 0,-3.45 -2.325,-5.025 -6.4875,-6.1125 -3.2625,-0.8625 -4.3875,-1.6125 -4.3875,-3.3 0,-1.6875 1.5,-2.775 3.825,-2.775 1.875,0 3.375,0.5625 5.1375,1.725 l 1.35,-1.9875 c -1.875,-1.425 -3.9,-2.25 -6.6,-2.25 z"
         style="font-size:37.5px;text-align:end;text-anchor:end"
         id="path7473" />
      <path
         d="m 670.94395,421.72814 c -1.3125,0 -2.2125,0.9375 -2.2125,2.175 0,1.2375 0.9,2.175 2.2125,2.175 1.35,0 2.25,-0.9375 2.25,-2.175 0,-1.2375 -0.9,-2.175 -2.25,-2.175 z m 1.6125,9.3 -3.15,0 0,19.725 3.15,0 0,-19.725 z"
         style="font-size:37.5px;text-align:end;text-anchor:end"
         id="path7475" />
      <path
         d="m 694.05508,431.02814 -3.3375,0 -5.2875,16.9125 -5.3625,-16.9125 -3.45,0 6.8625,19.725 3.825,0 6.75,-19.725 z"
         style="font-size:37.5px;text-align:end;text-anchor:end"
         id="path7477" />
      <path
         d="m 712.6334,440.25314 c 0,-5.9625 -2.7375,-9.675 -8.025,-9.675 -5.025,0 -8.1,4.3125 -8.1,10.5 0,6.2625 3.1875,10.125 8.625,10.125 2.7,0 4.875,-0.9375 6.7875,-2.475 l -1.3875,-1.875 c -1.725,1.2 -3.1875,1.7625 -5.175,1.7625 -3,0 -5.175,-1.875 -5.5125,-6.6375 l 12.7125,0 c 0.0375,-0.4125 0.075,-1.05 0.075,-1.725 z m -3.1125,-0.6 -9.675,0 c 0.2625,-4.6125 2.1,-6.5625 4.8375,-6.5625 3.2625,0 4.8375,2.2875 4.8375,6.2625 l 0,0.3 z"
         style="font-size:37.5px;text-align:end;text-anchor:end"
         id="path7479" />
      <path
         d="m 108.79375,477.45314 c -5.2875,0 -8.55,4.1625 -8.55,10.4625 0,6.375 3.3,10.1625 8.55,10.1625 2.25,0 4.2375,-0.75 5.925,-2.175 l -1.4625,-2.0625 c -1.4625,1.0125 -2.6625,1.5375 -4.35,1.5375 -3.225,0 -5.2875,-2.25 -5.2875,-7.5 0,-5.2875 2.0625,-7.8 5.2875,-7.8 1.6875,0 2.9625,0.4875 4.275,1.4625 l 1.5375,-1.9875 c -1.8,-1.5 -3.6375,-2.1 -5.925,-2.1 z"
         style="font-size:37.5px;text-align:end;text-anchor:end"
         id="path7481" />
      <path
         d="m 128.72734,477.45314 c -2.55,0 -4.5375,1.275 -6,3.2625 l 0,-11.1 -3.15,0.375 0,27.6375 3.15,0 0,-14.1 c 1.35,-2.1375 2.9625,-3.6 5.2125,-3.6 2.025,0 3.3,0.975 3.3,4.0125 l 0,13.6875 3.15,0 0,-14.1375 c 0,-3.7125 -2.1,-6.0375 -5.6625,-6.0375 z"
         style="font-size:37.5px;text-align:end;text-anchor:end"
         id="path7483" />
      <path
         d="m 154.6,493.09064 0,-9.15 c 0,-4.0875 -2.1375,-6.4875 -6.825,-6.4875 -2.175,0 -4.3125,0.45 -6.675,1.35 l 0.7875,2.325 c 2.025,-0.7125 3.825,-1.0875 5.325,-1.0875 2.85,0 4.2375,1.125 4.2375,4.05 l 0,1.575 -3.225,0 c -5.4,0 -8.55,2.25 -8.55,6.45 0,3.525 2.325,5.9625 6.225,5.9625 2.4375,0 4.5375,-0.9375 5.925,-3.0375 0.525,1.9875 1.7625,2.775 3.675,3.0375 l 0.75,-2.2125 c -1.05,-0.375 -1.65,-0.9375 -1.65,-2.775 z m -7.9875,2.5875 c -2.3625,0 -3.6,-1.3125 -3.6,-3.7125 0,-2.8125 1.95,-4.2 5.625,-4.2 l 2.8125,0 0,4.6875 c -1.125,2.1375 -2.7,3.225 -4.8375,3.225 z"
         style="font-size:37.5px;text-align:end;text-anchor:end"
         id="path7485" />
      <path
         d="m 171.06133,477.45314 c -2.6625,0 -4.725,1.3875 -6.1875,3.4125 l -0.2625,-2.9625 -2.7,0 0,19.725 3.15,0 0,-14.0625 c 1.35,-2.175 2.925,-3.6375 5.25,-3.6375 2.025,0 3.2625,0.975 3.2625,4.0125 l 0,13.6875 3.15,0 0,-14.1375 c 0,-3.75 -2.0625,-6.0375 -5.6625,-6.0375 z"
         style="font-size:37.5px;text-align:end;text-anchor:end"
         id="path7487" />
      <path
         d="m 198.54648,475.80314 c -2.2125,1.0125 -3.9375,1.7625 -8.925,1.65 -4.35,0 -7.5,2.8125 -7.5,6.825 0,2.5875 1.05,4.3125 3.3,5.5125 -1.3875,0.9 -2.1375,2.1375 -2.1375,3.45 0,1.95 1.575,3.675 5.025,3.675 l 3.1125,0 c 2.55,0 4.0875,0.975 4.0875,2.925 0,2.0625 -1.5375,3.225 -5.8875,3.225 -4.425,0 -5.55,-1.05 -5.55,-3.4125 l -2.85,0 c 0,3.975 2.0625,5.8875 8.4,5.8875 6.0375,0 9.075,-2.1375 9.075,-5.925 0,-3.075 -2.625,-5.3625 -6.6375,-5.3625 l -3.15,0 c -2.1,0 -2.7,-0.75 -2.7,-1.6875 0,-0.7875 0.4125,-1.5 1.0875,-1.95 0.7875,0.2625 1.6125,0.375 2.5125,0.375 4.65,0 7.425,-2.775 7.425,-6.6375 0,-2.4 -1.1625,-4.05 -3.45,-5.0625 2.2875,-0.0375 4.125,-0.1125 5.7,-0.6 l -0.9375,-2.8875 z m -8.925,3.9375 c 2.925,0 4.3875,1.6125 4.3875,4.5375 0,2.925 -1.5,4.6125 -4.3125,4.6125 -2.775,0 -4.35,-1.8375 -4.35,-4.6125 0,-2.625 1.4625,-4.5375 4.275,-4.5375 z"
         style="font-size:37.5px;text-align:end;text-anchor:end"
         id="path7489" />
      <path
         d="m 217.29648,487.12814 c 0,-5.9625 -2.7375,-9.675 -8.025,-9.675 -5.025,0 -8.1,4.3125 -8.1,10.5 0,6.2625 3.1875,10.125 8.625,10.125 2.7,0 4.875,-0.9375 6.7875,-2.475 l -1.3875,-1.875 c -1.725,1.2 -3.1875,1.7625 -5.175,1.7625 -3,0 -5.175,-1.875 -5.5125,-6.6375 l 12.7125,0 c 0.0375,-0.4125 0.075,-1.05 0.075,-1.725 z m -3.1125,-0.6 -9.675,0 c 0.2625,-4.6125 2.1,-6.5625 4.8375,-6.5625 3.2625,0 4.8375,2.2875 4.8375,6.2625 l 0,0.3 z"
         style="font-size:37.5px;text-align:end;text-anchor:end"
         id="path7491" />
      <path
         d="m 234.56699,468.60314 c -1.3125,0 -2.2125,0.9375 -2.2125,2.175 0,1.2375 0.9,2.175 2.2125,2.175 1.35,0 2.25,-0.9375 2.25,-2.175 0,-1.2375 -0.9,-2.175 -2.25,-2.175 z m 1.6125,9.3 -3.15,0 0,19.725 3.15,0 0,-19.725 z"
         style="font-size:37.5px;text-align:end;text-anchor:end"
         id="path7493" />
      <path
         d="m 252.65312,477.45314 c -2.6625,0 -4.725,1.3875 -6.1875,3.4125 l -0.2625,-2.9625 -2.7,0 0,19.725 3.15,0 0,-14.0625 c 1.35,-2.175 2.925,-3.6375 5.25,-3.6375 2.025,0 3.2625,0.975 3.2625,4.0125 l 0,13.6875 3.15,0 0,-14.1375 c 0,-3.75 -2.0625,-6.0375 -5.6625,-6.0375 z"
         style="font-size:37.5px;text-align:end;text-anchor:end"
         id="path7495" />
      <path
         d="m 284.65996,477.45314 c -2.55,0 -4.5375,1.275 -6,3.2625 l 0,-11.1 -3.15,0.375 0,27.6375 3.15,0 0,-14.1 c 1.35,-2.1375 2.9625,-3.6 5.2125,-3.6 2.025,0 3.3,0.975 3.3,4.0125 l 0,13.6875 3.15,0 0,-14.1375 c 0,-3.7125 -2.1,-6.0375 -5.6625,-6.0375 z"
         style="font-size:37.5px;text-align:end;text-anchor:end"
         id="path7497" />
      <path
         d="m 311.95762,477.90314 -3.15,0 0,14.1375 c -1.2375,2.0625 -2.8875,3.525 -5.1375,3.525 -2.25,0 -3.225,-1.05 -3.225,-3.8625 l 0,-13.8 -3.15,0 0,14.1375 c 0,3.8625 2.025,6.0375 5.5125,6.0375 2.85,0 4.725,-1.2375 6.1875,-3.6375 l 0.2625,3.1875 2.7,0 0,-19.725 z"
         style="font-size:37.5px;text-align:end;text-anchor:end"
         id="path7499" />
      <path
         d="m 338.88555,477.45314 c -2.6625,0 -4.5375,1.5 -5.9625,3.675 -0.7125,-2.2875 -2.475,-3.675 -4.95,-3.675 -2.55,0 -4.3875,1.3875 -5.775,3.4125 l -0.2625,-2.9625 -2.7,0 0,19.725 3.15,0 0,-14.0625 c 1.35,-2.175 2.6625,-3.6375 4.8375,-3.6375 1.6125,0 2.8875,0.975 2.8875,4.0125 l 0,13.6875 3.15,0 0,-14.0625 c 1.3875,-2.175 2.6625,-3.6375 4.875,-3.6375 1.6125,0 2.8875,0.975 2.8875,4.0125 l 0,13.6875 3.15,0 0,-14.1375 c 0,-3.7125 -2.0625,-6.0375 -5.2875,-6.0375 z"
         style="font-size:37.5px;text-align:end;text-anchor:end"
         id="path7501" />
      <path
         d="m 364.36563,493.09064 0,-9.15 c 0,-4.0875 -2.13751,-6.4875 -6.82501,-6.4875 -2.17499,0 -4.3125,0.45 -6.67499,1.35 l 0.78749,2.325 c 2.02501,-0.7125 3.825,-1.0875 5.325,-1.0875 2.85,0 4.2375,1.125 4.2375,4.05 l 0,1.575 -3.22499,0 c -5.40001,0 -8.55001,2.25 -8.55001,6.45 0,3.525 2.325,5.9625 6.225,5.9625 2.4375,0 4.5375,-0.9375 5.925,-3.0375 0.52501,1.9875 1.7625,2.775 3.675,3.0375 l 0.75,-2.2125 c -1.05,-0.375 -1.64999,-0.9375 -1.64999,-2.775 z m -7.98751,2.5875 c -2.3625,0 -3.6,-1.3125 -3.6,-3.7125 0,-2.8125 1.95,-4.2 5.625,-4.2 l 2.8125,0 0,4.6875 c -1.125,2.1375 -2.7,3.225 -4.8375,3.225 z"
         style="font-size:37.5px;text-align:end;text-anchor:end"
         id="path7503" />
      <path
         d="m 380.82695,477.45314 c -2.6625,0 -4.725,1.3875 -6.1875,3.4125 l -0.2625,-2.9625 -2.7,0 0,19.725 3.15,0 0,-14.0625 c 1.35,-2.175 2.925,-3.6375 5.25,-3.6375 2.025,0 3.2625,0.975 3.2625,4.0125 l 0,13.6875 3.15,0 0,-14.1375 c 0,-3.75 -2.0625,-6.0375 -5.6625,-6.0375 z"
         style="font-size:37.5px;text-align:end;text-anchor:end"
         id="path7505" />
      <path
         d="m 405.22129,468.60314 c -1.3125,0 -2.2125,0.9375 -2.2125,2.175 0,1.2375 0.9,2.175 2.2125,2.175 1.35,0 2.25,-0.9375 2.25,-2.175 0,-1.2375 -0.9,-2.175 -2.25,-2.175 z m 1.6125,9.3 -3.15,0 0,19.725 3.15,0 0,-19.725 z"
         style="font-size:37.5px;text-align:end;text-anchor:end"
         id="path7507" />
      <path
         d="m 423.30742,477.45314 c -2.6625,0 -4.725,1.3875 -6.1875,3.4125 l -0.2625,-2.9625 -2.7,0 0,19.725 3.15,0 0,-14.0625 c 1.35,-2.175 2.925,-3.6375 5.25,-3.6375 2.025,0 3.2625,0.975 3.2625,4.0125 l 0,13.6875 3.15,0 0,-14.1375 c 0,-3.75 -2.0625,-6.0375 -5.6625,-6.0375 z"
         style="font-size:37.5px;text-align:end;text-anchor:end"
         id="path7509" />
      <path
         d="m 444.64258,494.62814 c -0.975,0.5625 -1.8,0.825 -2.7375,0.825 -1.7625,0 -2.475,-0.975 -2.475,-3.0375 l 0,-12.075 4.425,0 0.3375,-2.4375 -4.7625,0 0,-4.875 -3.15,0.3375 0,4.5375 -3.4125,0 0,2.4375 3.4125,0 0,12.225 c 0,3.6 1.95,5.5125 5.2125,5.5125 1.65,0 3.075,-0.45 4.35,-1.3125 l -1.2,-2.1375 z"
         style="font-size:37.5px;text-align:end;text-anchor:end"
         id="path7511" />
      <path
         d="m 463.60996,487.12814 c 0,-5.9625 -2.7375,-9.675 -8.025,-9.675 -5.025,0 -8.1,4.3125 -8.1,10.5 0,6.2625 3.1875,10.125 8.625,10.125 2.7,0 4.875,-0.9375 6.7875,-2.475 l -1.3875,-1.875 c -1.725,1.2 -3.1875,1.7625 -5.175,1.7625 -3,0 -5.175,-1.875 -5.5125,-6.6375 l 12.7125,0 c 0.0375,-0.4125 0.075,-1.05 0.075,-1.725 z m -3.1125,-0.6 -9.675,0 c 0.2625,-4.6125 2.1,-6.5625 4.8375,-6.5625 3.2625,0 4.8375,2.2875 4.8375,6.2625 l 0,0.3 z"
         style="font-size:37.5px;text-align:end;text-anchor:end"
         id="path7513" />
      <path
         d="m 477.63379,477.45314 c -2.4375,0 -4.275,1.5375 -5.325,4.575 l -0.3,-4.125 -2.7,0 0,19.725 3.15,0 0,-11.55 c 0.9,-3.7875 2.325,-5.55 4.8375,-5.55 0.7125,0 1.125,0.075 1.725,0.225 l 0.5625,-3.075 c -0.5625,-0.15 -1.275,-0.225 -1.95,-0.225 z"
         style="font-size:37.5px;text-align:end;text-anchor:end"
         id="path7515" />
      <path
         d="m 495.3959,493.09064 0,-9.15 c 0,-4.0875 -2.1375,-6.4875 -6.825,-6.4875 -2.175,0 -4.3125,0.45 -6.675,1.35 l 0.7875,2.325 c 2.025,-0.7125 3.825,-1.0875 5.325,-1.0875 2.85,0 4.2375,1.125 4.2375,4.05 l 0,1.575 -3.225,0 c -5.4,0 -8.55,2.25 -8.55,6.45 0,3.525 2.325,5.9625 6.225,5.9625 2.4375,0 4.5375,-0.9375 5.925,-3.0375 0.525,1.9875 1.7625,2.775 3.675,3.0375 l 0.75,-2.2125 c -1.05,-0.375 -1.65,-0.9375 -1.65,-2.775 z m -7.9875,2.5875 c -2.3625,0 -3.6,-1.3125 -3.6,-3.7125 0,-2.8125 1.95,-4.2 5.625,-4.2 l 2.8125,0 0,4.6875 c -1.125,2.1375 -2.7,3.225 -4.8375,3.225 z"
         style="font-size:37.5px;text-align:end;text-anchor:end"
         id="path7517" />
      <path
         d="m 509.79473,477.45314 c -5.2875,0 -8.55,4.1625 -8.55,10.4625 0,6.375 3.3,10.1625 8.55,10.1625 2.25,0 4.2375,-0.75 5.925,-2.175 l -1.4625,-2.0625 c -1.4625,1.0125 -2.6625,1.5375 -4.35,1.5375 -3.225,0 -5.2875,-2.25 -5.2875,-7.5 0,-5.2875 2.0625,-7.8 5.2875,-7.8 1.6875,0 2.9625,0.4875 4.275,1.4625 l 1.5375,-1.9875 c -1.8,-1.5 -3.6375,-2.1 -5.925,-2.1 z"
         style="font-size:37.5px;text-align:end;text-anchor:end"
         id="path7519" />
      <path
         d="m 529.09082,494.62814 c -0.975,0.5625 -1.8,0.825 -2.7375,0.825 -1.7625,0 -2.475,-0.975 -2.475,-3.0375 l 0,-12.075 4.425,0 0.3375,-2.4375 -4.7625,0 0,-4.875 -3.15,0.3375 0,4.5375 -3.4125,0 0,2.4375 3.4125,0 0,12.225 c 0,3.6 1.95,5.5125 5.2125,5.5125 1.65,0 3.075,-0.45 4.35,-1.3125 l -1.2,-2.1375 z"
         style="font-size:37.5px;text-align:end;text-anchor:end"
         id="path7521" />
      <path
         d="m 535.4459,468.60314 c -1.3125,0 -2.2125,0.9375 -2.2125,2.175 0,1.2375 0.9,2.175 2.2125,2.175 1.35,0 2.25,-0.9375 2.25,-2.175 0,-1.2375 -0.9,-2.175 -2.25,-2.175 z m 1.6125,9.3 -3.15,0 0,19.725 3.15,0 0,-19.725 z"
         style="font-size:37.5px;text-align:end;text-anchor:end"
         id="path7523" />
      <path
         d="m 551.61953,477.45314 c -5.5125,0 -8.7,4.1625 -8.7,10.35 0,6.2625 3.15,10.275 8.6625,10.275 5.5125,0 8.7,-4.1625 8.7,-10.35 0,-6.3 -3.1125,-10.275 -8.6625,-10.275 z m 0,2.55 c 3.4125,0 5.2875,2.5125 5.2875,7.725 0,5.2875 -1.9125,7.8 -5.325,7.8 -3.4125,0 -5.2875,-2.5125 -5.2875,-7.725 0,-5.2875 1.95,-7.8 5.325,-7.8 z"
         style="font-size:37.5px;text-align:end;text-anchor:end"
         id="path7525" />
      <path
         d="m 575.28496,477.45314 c -2.6625,0 -4.725,1.3875 -6.1875,3.4125 l -0.2625,-2.9625 -2.7,0 0,19.725 3.15,0 0,-14.0625 c 1.35,-2.175 2.925,-3.6375 5.25,-3.6375 2.025,0 3.2625,0.975 3.2625,4.0125 l 0,13.6875 3.15,0 0,-14.1375 c 0,-3.75 -2.0625,-6.0375 -5.6625,-6.0375 z"
         style="font-size:37.5px;text-align:end;text-anchor:end"
         id="path7527" />
      <path
         d="m 593.32012,477.45314 c -4.0125,0 -6.975,2.25 -6.975,5.3625 0,2.775 1.6875,4.5375 5.925,5.6625 3.9,1.05 4.9125,1.8 4.9125,3.8625 0,1.9875 -1.7625,3.1875 -4.3875,3.1875 -2.2125,0 -4.0125,-0.75 -5.625,-1.95 l -1.6875,1.9125 c 1.725,1.5 4.05,2.5875 7.3875,2.5875 3.975,0 7.6125,-1.9125 7.6125,-5.925 0,-3.45 -2.325,-5.025 -6.4875,-6.1125 -3.2625,-0.8625 -4.3875,-1.6125 -4.3875,-3.3 0,-1.6875 1.5,-2.775 3.825,-2.775 1.875,0 3.375,0.5625 5.1375,1.725 l 1.35,-1.9875 c -1.875,-1.425 -3.9,-2.25 -6.6,-2.25 z"
         style="font-size:37.5px;text-align:end;text-anchor:end"
         id="path7529" />
      <path
         d="m 637.88418,477.90314 -3,0 -3.75,17.5125 -3.9,-17.5125 -3.525,0 -4.05,17.5125 -3.7125,-17.5125 -3.1875,0 4.6875,19.725 4.2,0 3.75,-16.875 3.6375,16.875 4.3125,0 4.5375,-19.725 z"
         style="font-size:37.5px;text-align:end;text-anchor:end"
         id="path7531" />
      <path
         d="m 651.53008,477.45314 c -2.55,0 -4.5375,1.275 -6,3.2625 l 0,-11.1 -3.15,0.375 0,27.6375 3.15,0 0,-14.1 c 1.35,-2.1375 2.9625,-3.6 5.2125,-3.6 2.025,0 3.3,0.975 3.3,4.0125 l 0,13.6875 3.15,0 0,-14.1375 c 0,-3.7125 -2.1,-6.0375 -5.6625,-6.0375 z"
         style="font-size:37.5px;text-align:end;text-anchor:end"
         id="path7533" />
      <path
         d="m 679.01523,487.12814 c 0,-5.9625 -2.7375,-9.675 -8.025,-9.675 -5.025,0 -8.1,4.3125 -8.1,10.5 0,6.2625 3.1875,10.125 8.625,10.125 2.7,0 4.875,-0.9375 6.7875,-2.475 l -1.3875,-1.875 c -1.725,1.2 -3.1875,1.7625 -5.175,1.7625 -3,0 -5.175,-1.875 -5.5125,-6.6375 l 12.7125,0 c 0.0375,-0.4125 0.075,-1.05 0.075,-1.725 z m -3.1125,-0.6 -9.675,0 c 0.2625,-4.6125 2.1,-6.5625 4.8375,-6.5625 3.2625,0 4.8375,2.2875 4.8375,6.2625 l 0,0.3 z"
         style="font-size:37.5px;text-align:end;text-anchor:end"
         id="path7535" />
      <path
         d="m 693.03906,477.45314 c -2.4375,0 -4.275,1.5375 -5.325,4.575 l -0.3,-4.125 -2.7,0 0,19.725 3.15,0 0,-11.55 c 0.9,-3.7875 2.325,-5.55 4.8375,-5.55 0.7125,0 1.125,0.075 1.725,0.225 l 0.5625,-3.075 c -0.5625,-0.15 -1.275,-0.225 -1.95,-0.225 z"
         style="font-size:37.5px;text-align:end;text-anchor:end"
         id="path7537" />
      <path
         d="m 712.6334,487.12814 c 0,-5.9625 -2.7375,-9.675 -8.025,-9.675 -5.025,0 -8.1,4.3125 -8.1,10.5 0,6.2625 3.1875,10.125 8.625,10.125 2.7,0 4.875,-0.9375 6.7875,-2.475 l -1.3875,-1.875 c -1.725,1.2 -3.1875,1.7625 -5.175,1.7625 -3,0 -5.175,-1.875 -5.5125,-6.6375 l 12.7125,0 c 0.0375,-0.4125 0.075,-1.05 0.075,-1.725 z m -3.1125,-0.6 -9.675,0 c 0.2625,-4.6125 2.1,-6.5625 4.8375,-6.5625 3.2625,0 4.8375,2.2875 4.8375,6.2625 l 0,0.3 z"
         style="font-size:37.5px;text-align:end;text-anchor:end"
         id="path7539" />
      <path
         d="m 221.91719,516.45314 0,10.35 c -1.275,-1.35 -2.9625,-2.475 -5.3625,-2.475 -4.8375,0 -7.725,4.35 -7.725,10.3875 0,6.1875 2.6625,10.2375 7.425,10.2375 2.5125,0 4.5,-1.275 5.7375,-3.225 l 0.3375,2.775 2.7375,0 0,-27.675 -3.15,-0.375 z m -5.025,25.9875 c -2.9625,0 -4.6875,-2.5125 -4.6875,-7.7625 0,-5.25 1.95,-7.8375 5.025,-7.8375 2.0625,0 3.4875,1.05 4.6875,2.6625 l 0,9.825 c -1.3125,1.9875 -2.7375,3.1125 -5.025,3.1125 z"
         style="font-size:37.5px;text-align:end;text-anchor:end"
         id="path7541" />
      <path
         d="m 233.98105,515.47814 c -1.3125,0 -2.2125,0.9375 -2.2125,2.175 0,1.2375 0.9,2.175 2.2125,2.175 1.35,0 2.25,-0.9375 2.25,-2.175 0,-1.2375 -0.9,-2.175 -2.25,-2.175 z m 1.6125,9.3 -3.15,0 0,19.725 3.15,0 0,-19.725 z"
         style="font-size:37.5px;text-align:end;text-anchor:end"
         id="path7543" />
      <path
         d="m 248.12969,524.32814 c -4.0125,0 -6.975,2.25 -6.975,5.3625 0,2.775 1.6875,4.5375 5.925,5.6625 3.9,1.05 4.9125,1.8 4.9125,3.8625 0,1.9875 -1.7625,3.1875 -4.3875,3.1875 -2.2125,0 -4.0125,-0.75 -5.625,-1.95 l -1.6875,1.9125 c 1.725,1.5 4.05,2.5875 7.3875,2.5875 3.975,0 7.6125,-1.9125 7.6125,-5.925 0,-3.45 -2.325,-5.025 -6.4875,-6.1125 -3.2625,-0.8625 -4.3875,-1.6125 -4.3875,-3.3 0,-1.6875 1.5,-2.775 3.825,-2.775 1.875,0 3.375,0.5625 5.1375,1.725 l 1.35,-1.9875 c -1.875,-1.425 -3.9,-2.25 -6.6,-2.25 z"
         style="font-size:37.5px;text-align:end;text-anchor:end"
         id="path7545" />
      <path
         d="m 273.10586,539.96564 0,-9.15 c 0,-4.0875 -2.1375,-6.4875 -6.825,-6.4875 -2.175,0 -4.3125,0.45 -6.675,1.35 l 0.7875,2.325 c 2.025,-0.7125 3.825,-1.0875 5.325,-1.0875 2.85,0 4.2375,1.125 4.2375,4.05 l 0,1.575 -3.225,0 c -5.4,0 -8.55,2.25 -8.55,6.45 0,3.525 2.325,5.9625 6.225,5.9625 2.4375,0 4.5375,-0.9375 5.925,-3.0375 0.525,1.9875 1.7625,2.775 3.675,3.0375 l 0.75,-2.2125 c -1.05,-0.375 -1.65,-0.9375 -1.65,-2.775 z m -7.9875,2.5875 c -2.3625,0 -3.6,-1.3125 -3.6,-3.7125 0,-2.8125 1.95,-4.2 5.625,-4.2 l 2.8125,0 0,4.6875 c -1.125,2.1375 -2.7,3.225 -4.8375,3.225 z"
         style="font-size:37.5px;text-align:end;text-anchor:end"
         id="path7547" />
      <path
         d="m 289.22969,524.32814 c -2.4375,0 -4.3125,1.125 -5.6625,2.9625 l 0,-10.8375 -3.15,0.375 0,27.675 2.7375,0 0.3375,-2.2125 c 1.35,1.6125 3.075,2.6625 5.325,2.6625 4.8,0 7.6875,-4.125 7.6875,-10.35 0,-6.5625 -2.8125,-10.275 -7.275,-10.275 z m -1.125,18.1125 c -1.875,0 -3.4875,-1.125 -4.5375,-2.7375 l 0,-9.7125 c 1.05,-1.65 2.55,-3.15 4.8,-3.15 2.8875,0 4.7625,2.1 4.7625,7.7625 0,5.475 -2.025,7.8375 -5.025,7.8375 z"
         style="font-size:37.5px;text-align:end;text-anchor:end"
         id="path7549" />
      <path
         d="m 306.35957,544.95314 c 0.975,0 1.9125,-0.2625 2.625,-0.6375 l -0.825,-2.2125 c -0.375,0.15 -0.7875,0.225 -1.275,0.225 -0.9375,0 -1.3125,-0.5625 -1.3125,-1.65 l 0,-24.225 -3.15,0.375 0,23.925 c 0,2.7375 1.5375,4.2 3.9375,4.2 z"
         style="font-size:37.5px;text-align:end;text-anchor:end"
         id="path7551" />
      <path
         d="m 327.96543,534.00314 c 0,-5.9625 -2.7375,-9.675 -8.025,-9.675 -5.025,0 -8.1,4.3125 -8.1,10.5 0,6.2625 3.1875,10.125 8.625,10.125 2.7,0 4.875,-0.9375 6.7875,-2.475 l -1.3875,-1.875 c -1.725,1.2 -3.1875,1.7625 -5.175,1.7625 -3,0 -5.175,-1.875 -5.5125,-6.6375 l 12.7125,0 c 0.0375,-0.4125 0.075,-1.05 0.075,-1.725 z m -3.1125,-0.6 -9.675,0 c 0.2625,-4.6125 2.1,-6.5625 4.8375,-6.5625 3.2625,0 4.8375,2.2875 4.8375,6.2625 l 0,0.3 z"
         style="font-size:37.5px;text-align:end;text-anchor:end"
         id="path7553" />
      <path
         d="m 345.47676,516.45314 0,10.35 c -1.275,-1.35 -2.9625,-2.475 -5.3625,-2.475 -4.8375,0 -7.725,4.35 -7.725,10.3875 0,6.1875 2.6625,10.2375 7.425,10.2375 2.5125,0 4.5,-1.275 5.7375,-3.225 l 0.3375,2.775 2.7375,0 0,-27.675 -3.15,-0.375 z m -5.025,25.9875 c -2.9625,0 -4.6875,-2.5125 -4.6875,-7.7625 0,-5.25 1.95,-7.8375 5.025,-7.8375 2.0625,0 3.4875,1.05 4.6875,2.6625 l 0,9.825 c -1.3125,1.9875 -2.7375,3.1125 -5.025,3.1125 z"
         style="font-size:37.5px;text-align:end;text-anchor:end"
         id="path7555" />
      <path
         d="m 374.8498,524.32814 c -2.325,0 -4.425,1.1625 -5.85,3.1875 l -0.2625,-2.7375 -2.7,0 0,27.6375 3.15,-0.375 0,-9.4125 c 1.2375,1.5375 3.0375,2.325 5.25,2.325 5.0625,0 7.6875,-4.3125 7.6875,-10.35 0,-6.2625 -2.1,-10.275 -7.275,-10.275 z m -1.125,18.0375 c -1.9125,0 -3.4875,-0.9375 -4.5375,-2.5125 l 0,-9.8625 c 1.0875,-1.65 2.7375,-3.15 4.9125,-3.15 3.075,0 4.65,2.5125 4.65,7.7625 0,5.2875 -1.7625,7.7625 -5.025,7.7625 z"
         style="font-size:37.5px;text-align:end;text-anchor:end"
         id="path7557" />
      <path
         d="m 402.89219,534.00314 c 0,-5.9625 -2.7375,-9.675 -8.025,-9.675 -5.025,0 -8.1,4.3125 -8.1,10.5 0,6.2625 3.1875,10.125 8.625,10.125 2.7,0 4.875,-0.9375 6.7875,-2.475 l -1.3875,-1.875 c -1.725,1.2 -3.1875,1.7625 -5.175,1.7625 -3,0 -5.175,-1.875 -5.5125,-6.6375 l 12.7125,0 c 0.0375,-0.4125 0.075,-1.05 0.075,-1.725 z m -3.1125,-0.6 -9.675,0 c 0.2625,-4.6125 2.1,-6.5625 4.8375,-6.5625 3.2625,0 4.8375,2.2875 4.8375,6.2625 l 0,0.3 z"
         style="font-size:37.5px;text-align:end;text-anchor:end"
         id="path7559" />
      <path
         d="m 415.82852,524.32814 c -5.5125,0 -8.7,4.1625 -8.7,10.35 0,6.2625 3.15,10.275 8.6625,10.275 5.5125,0 8.7,-4.1625 8.7,-10.35 0,-6.3 -3.1125,-10.275 -8.6625,-10.275 z m 0,2.55 c 3.4125,0 5.2875,2.5125 5.2875,7.725 0,5.2875 -1.9125,7.8 -5.325,7.8 -3.4125,0 -5.2875,-2.5125 -5.2875,-7.725 0,-5.2875 1.95,-7.8 5.325,-7.8 z"
         style="font-size:37.5px;text-align:end;text-anchor:end"
         id="path7561" />
      <path
         d="m 439.15645,524.32814 c -2.325,0 -4.425,1.1625 -5.85,3.1875 l -0.2625,-2.7375 -2.7,0 0,27.6375 3.15,-0.375 0,-9.4125 c 1.2375,1.5375 3.0375,2.325 5.25,2.325 5.0625,0 7.6875,-4.3125 7.6875,-10.35 0,-6.2625 -2.1,-10.275 -7.275,-10.275 z m -1.125,18.0375 c -1.9125,0 -3.4875,-0.9375 -4.5375,-2.5125 l 0,-9.8625 c 1.0875,-1.65 2.7375,-3.15 4.9125,-3.15 3.075,0 4.65,2.5125 4.65,7.7625 0,5.2875 -1.7625,7.7625 -5.025,7.7625 z"
         style="font-size:37.5px;text-align:end;text-anchor:end"
         id="path7563" />
      <path
         d="m 456.28633,544.95314 c 0.975,0 1.9125,-0.2625 2.625,-0.6375 l -0.825,-2.2125 c -0.375,0.15 -0.7875,0.225 -1.275,0.225 -0.9375,0 -1.3125,-0.5625 -1.3125,-1.65 l 0,-24.225 -3.15,0.375 0,23.925 c 0,2.7375 1.5375,4.2 3.9375,4.2 z"
         style="font-size:37.5px;text-align:end;text-anchor:end"
         id="path7565" />
      <path
         d="m 477.89219,534.00314 c 0,-5.9625 -2.7375,-9.675 -8.025,-9.675 -5.025,0 -8.1,4.3125 -8.1,10.5 0,6.2625 3.1875,10.125 8.625,10.125 2.7,0 4.875,-0.9375 6.7875,-2.475 l -1.3875,-1.875 c -1.725,1.2 -3.1875,1.7625 -5.175,1.7625 -3,0 -5.175,-1.875 -5.5125,-6.6375 l 12.7125,0 c 0.0375,-0.4125 0.075,-1.05 0.075,-1.725 z m -3.1125,-0.6 -9.675,0 c 0.2625,-4.6125 2.1,-6.5625 4.8375,-6.5625 3.2625,0 4.8375,2.2875 4.8375,6.2625 l 0,0.3 z"
         style="font-size:37.5px;text-align:end;text-anchor:end"
         id="path7567" />
      <path
         d="m 502.7752,524.32814 c -2.6625,0 -4.725,1.3875 -6.1875,3.4125 l -0.2625,-2.9625 -2.7,0 0,19.725 3.15,0 0,-14.0625 c 1.35,-2.175 2.925,-3.6375 5.25,-3.6375 2.025,0 3.2625,0.975 3.2625,4.0125 l 0,13.6875 3.15,0 0,-14.1375 c 0,-3.75 -2.0625,-6.0375 -5.6625,-6.0375 z"
         style="font-size:37.5px;text-align:end;text-anchor:end"
         id="path7569" />
      <path
         d="m 530.26035,534.00314 c 0,-5.9625 -2.7375,-9.675 -8.025,-9.675 -5.025,0 -8.1,4.3125 -8.1,10.5 0,6.2625 3.1875,10.125 8.625,10.125 2.7,0 4.875,-0.9375 6.7875,-2.475 l -1.3875,-1.875 c -1.725,1.2 -3.1875,1.7625 -5.175,1.7625 -3,0 -5.175,-1.875 -5.5125,-6.6375 l 12.7125,0 c 0.0375,-0.4125 0.075,-1.05 0.075,-1.725 z m -3.1125,-0.6 -9.675,0 c 0.2625,-4.6125 2.1,-6.5625 4.8375,-6.5625 3.2625,0 4.8375,2.2875 4.8375,6.2625 l 0,0.3 z"
         style="font-size:37.5px;text-align:end;text-anchor:end"
         id="path7571" />
      <path
         d="m 550.62168,534.00314 c 0,-5.9625 -2.7375,-9.675 -8.025,-9.675 -5.025,0 -8.1,4.3125 -8.1,10.5 0,6.2625 3.1875,10.125 8.625,10.125 2.7,0 4.875,-0.9375 6.7875,-2.475 l -1.3875,-1.875 c -1.725,1.2 -3.1875,1.7625 -5.175,1.7625 -3,0 -5.175,-1.875 -5.5125,-6.6375 l 12.7125,0 c 0.0375,-0.4125 0.075,-1.05 0.075,-1.725 z m -3.1125,-0.6 -9.675,0 c 0.2625,-4.6125 2.1,-6.5625 4.8375,-6.5625 3.2625,0 4.8375,2.2875 4.8375,6.2625 l 0,0.3 z"
         style="font-size:37.5px;text-align:end;text-anchor:end"
         id="path7573" />
      <path
         d="m 568.13301,516.45314 0,10.35 c -1.275,-1.35 -2.9625,-2.475 -5.3625,-2.475 -4.8375,0 -7.725,4.35 -7.725,10.3875 0,6.1875 2.6625,10.2375 7.425,10.2375 2.5125,0 4.5,-1.275 5.7375,-3.225 l 0.3375,2.775 2.7375,0 0,-27.675 -3.15,-0.375 z m -5.025,25.9875 c -2.9625,0 -4.6875,-2.5125 -4.6875,-7.7625 0,-5.25 1.95,-7.8375 5.025,-7.8375 2.0625,0 3.4875,1.05 4.6875,2.6625 l 0,9.825 c -1.3125,1.9875 -2.7375,3.1125 -5.025,3.1125 z"
         style="font-size:37.5px;text-align:end;text-anchor:end"
         id="path7575" />
      <path
         d="m 597.20605,541.50314 c -0.975,0.5625 -1.8,0.825 -2.7375,0.825 -1.7625,0 -2.475,-0.975 -2.475,-3.0375 l 0,-12.075 4.425,0 0.3375,-2.4375 -4.7625,0 0,-4.875 -3.15,0.3375 0,4.5375 -3.4125,0 0,2.4375 3.4125,0 0,12.225 c 0,3.6 1.95,5.5125 5.2125,5.5125 1.65,0 3.075,-0.45 4.35,-1.3125 l -1.2,-2.1375 z"
         style="font-size:37.5px;text-align:end;text-anchor:end"
         id="path7577" />
      <path
         d="m 608.74844,524.32814 c -5.5125,0 -8.7,4.1625 -8.7,10.35 0,6.2625 3.15,10.275 8.6625,10.275 5.5125,0 8.7,-4.1625 8.7,-10.35 0,-6.3 -3.1125,-10.275 -8.6625,-10.275 z m 0,2.55 c 3.4125,0 5.2875,2.5125 5.2875,7.725 0,5.2875 -1.9125,7.8 -5.325,7.8 -3.4125,0 -5.2875,-2.5125 -5.2875,-7.725 0,-5.2875 1.95,-7.8 5.325,-7.8 z"
         style="font-size:37.5px;text-align:end;text-anchor:end"
         id="path7579" />
      <path
         d="m 642.11055,524.32814 c -2.4375,0 -4.3125,1.125 -5.6625,2.9625 l 0,-10.8375 -3.15,0.375 0,27.675 2.7375,0 0.3375,-2.2125 c 1.35,1.6125 3.075,2.6625 5.325,2.6625 4.8,0 7.6875,-4.125 7.6875,-10.35 0,-6.5625 -2.8125,-10.275 -7.275,-10.275 z m -1.125,18.1125 c -1.875,0 -3.4875,-1.125 -4.5375,-2.7375 l 0,-9.7125 c 1.05,-1.65 2.55,-3.15 4.8,-3.15 2.8875,0 4.7625,2.1 4.7625,7.7625 0,5.475 -2.025,7.8375 -5.025,7.8375 z"
         style="font-size:37.5px;text-align:end;text-anchor:end"
         id="path7581" />
      <path
         d="m 670.15293,534.00314 c 0,-5.9625 -2.7375,-9.675 -8.025,-9.675 -5.025,0 -8.1,4.3125 -8.1,10.5 0,6.2625 3.1875,10.125 8.625,10.125 2.7,0 4.875,-0.9375 6.7875,-2.475 l -1.3875,-1.875 c -1.725,1.2 -3.1875,1.7625 -5.175,1.7625 -3,0 -5.175,-1.875 -5.5125,-6.6375 l 12.7125,0 c 0.0375,-0.4125 0.075,-1.05 0.075,-1.725 z m -3.1125,-0.6 -9.675,0 c 0.2625,-4.6125 2.1,-6.5625 4.8375,-6.5625 3.2625,0 4.8375,2.2875 4.8375,6.2625 l 0,0.3 z"
         style="font-size:37.5px;text-align:end;text-anchor:end"
         id="path7583" />
      <path
         d="m 687.42344,515.47814 c -1.3125,0 -2.2125,0.9375 -2.2125,2.175 0,1.2375 0.9,2.175 2.2125,2.175 1.35,0 2.25,-0.9375 2.25,-2.175 0,-1.2375 -0.9,-2.175 -2.25,-2.175 z m 1.6125,9.3 -3.15,0 0,19.725 3.15,0 0,-19.725 z"
         style="font-size:37.5px;text-align:end;text-anchor:end"
         id="path7585" />
      <path
         d="m 705.50957,524.32814 c -2.6625,0 -4.725,1.3875 -6.1875,3.4125 l -0.2625,-2.9625 -2.7,0 0,19.725 3.15,0 0,-14.0625 c 1.35,-2.175 2.925,-3.6375 5.25,-3.6375 2.025,0 3.2625,0.975 3.2625,4.0125 l 0,13.6875 3.15,0 0,-14.1375 c 0,-3.75 -2.0625,-6.0375 -5.6625,-6.0375 z"
         style="font-size:37.5px;text-align:end;text-anchor:end"
         id="path7587" />
      <path
         d="m 199.83379,571.20314 c -5.2875,0 -8.55,4.1625 -8.55,10.4625 0,6.375 3.3,10.1625 8.55,10.1625 2.25,0 4.2375,-0.75 5.925,-2.175 l -1.4625,-2.0625 c -1.4625,1.0125 -2.6625,1.5375 -4.35,1.5375 -3.225,0 -5.2875,-2.25 -5.2875,-7.5 0,-5.2875 2.0625,-7.8 5.2875,-7.8 1.6875,0 2.9625,0.4875 4.275,1.4625 l 1.5375,-1.9875 c -1.8,-1.5 -3.6375,-2.1 -5.925,-2.1 z"
         style="font-size:37.5px;text-align:end;text-anchor:end"
         id="path7589" />
      <path
         d="m 219.76738,571.20314 c -2.55,0 -4.5375,1.275 -6,3.2625 l 0,-11.1 -3.15,0.375 0,27.6375 3.15,0 0,-14.1 c 1.35,-2.1375 2.9625,-3.6 5.2125,-3.6 2.025,0 3.3,0.975 3.3,4.0125 l 0,13.6875 3.15,0 0,-14.1375 c 0,-3.7125 -2.1,-6.0375 -5.6625,-6.0375 z"
         style="font-size:37.5px;text-align:end;text-anchor:end"
         id="path7591" />
      <path
         d="m 245.64004,586.84064 0,-9.15 c 0,-4.0875 -2.1375,-6.4875 -6.825,-6.4875 -2.175,0 -4.3125,0.45 -6.675,1.35 l 0.7875,2.325 c 2.025,-0.7125 3.825,-1.0875 5.325,-1.0875 2.85,0 4.2375,1.125 4.2375,4.05 l 0,1.575 -3.225,0 c -5.4,0 -8.55,2.25 -8.55,6.45 0,3.525 2.325,5.9625 6.225,5.9625 2.4375,0 4.5375,-0.9375 5.925,-3.0375 0.525,1.9875 1.7625,2.775 3.675,3.0375 l 0.75,-2.2125 c -1.05,-0.375 -1.65,-0.9375 -1.65,-2.775 z m -7.9875,2.5875 c -2.3625,0 -3.6,-1.3125 -3.6,-3.7125 0,-2.8125 1.95,-4.2 5.625,-4.2 l 2.8125,0 0,4.6875 c -1.125,2.1375 -2.7,3.225 -4.8375,3.225 z"
         style="font-size:37.5px;text-align:end;text-anchor:end"
         id="path7593" />
      <path
         d="m 261.27637,571.20314 c -2.4375,0 -4.275,1.5375 -5.325,4.575 l -0.3,-4.125 -2.7,0 0,19.725 3.15,0 0,-11.55 c 0.9,-3.7875 2.325,-5.55 4.8375,-5.55 0.7125,0 1.125,0.075 1.725,0.225 l 0.5625,-3.075 c -0.5625,-0.15 -1.275,-0.225 -1.95,-0.225 z"
         style="font-size:37.5px;text-align:end;text-anchor:end"
         id="path7595" />
      <path
         d="m 281.3834,569.55314 c -2.2125,1.0125 -3.9375,1.7625 -8.925,1.65 -4.35,0 -7.5,2.8125 -7.5,6.825 0,2.5875 1.05,4.3125 3.3,5.5125 -1.3875,0.9 -2.1375,2.1375 -2.1375,3.45 0,1.95 1.575,3.675 5.025,3.675 l 3.1125,0 c 2.55,0 4.0875,0.975 4.0875,2.925 0,2.0625 -1.5375,3.225 -5.8875,3.225 -4.425,0 -5.55,-1.05 -5.55,-3.4125 l -2.85,0 c 0,3.975 2.0625,5.8875 8.4,5.8875 6.0375,0 9.075,-2.1375 9.075,-5.925 0,-3.075 -2.625,-5.3625 -6.6375,-5.3625 l -3.15,0 c -2.1,0 -2.7,-0.75 -2.7,-1.6875 0,-0.7875 0.4125,-1.5 1.0875,-1.95 0.7875,0.2625 1.6125,0.375 2.5125,0.375 4.65,0 7.425,-2.775 7.425,-6.6375 0,-2.4 -1.1625,-4.05 -3.45,-5.0625 2.2875,-0.0375 4.125,-0.1125 5.7,-0.6 l -0.9375,-2.8875 z m -8.925,3.9375 c 2.925,0 4.3875,1.6125 4.3875,4.5375 0,2.925 -1.5,4.6125 -4.3125,4.6125 -2.775,0 -4.35,-1.8375 -4.35,-4.6125 0,-2.625 1.4625,-4.5375 4.275,-4.5375 z"
         style="font-size:37.5px;text-align:end;text-anchor:end"
         id="path7597" />
      <path
         d="m 300.1334,580.87814 c 0,-5.9625 -2.7375,-9.675 -8.025,-9.675 -5.025,0 -8.1,4.3125 -8.1,10.5 0,6.2625 3.1875,10.125 8.625,10.125 2.7,0 4.875,-0.9375 6.7875,-2.475 l -1.3875,-1.875 c -1.725,1.2 -3.1875,1.7625 -5.175,1.7625 -3,0 -5.175,-1.875 -5.5125,-6.6375 l 12.7125,0 c 0.0375,-0.4125 0.075,-1.05 0.075,-1.725 z m -3.1125,-0.6 -9.675,0 c 0.2625,-4.6125 2.1,-6.5625 4.8375,-6.5625 3.2625,0 4.8375,2.2875 4.8375,6.2625 l 0,0.3 z"
         style="font-size:37.5px;text-align:end;text-anchor:end"
         id="path7599" />
      <path
         d="m 323.10391,571.20314 c -5.5125,0 -8.7,4.1625 -8.7,10.35 0,6.2625 3.15,10.275 8.6625,10.275 5.5125,0 8.7,-4.1625 8.7,-10.35 0,-6.3 -3.1125,-10.275 -8.6625,-10.275 z m 0,2.55 c 3.4125,0 5.2875,2.5125 5.2875,7.725 0,5.2875 -1.9125,7.8 -5.325,7.8 -3.4125,0 -5.2875,-2.5125 -5.2875,-7.725 0,-5.2875 1.95,-7.8 5.325,-7.8 z"
         style="font-size:37.5px;text-align:end;text-anchor:end"
         id="path7601" />
      <path
         d="m 344.10684,565.87814 c 1.05,0 2.2125,0.1875 3.4875,0.75 l 1.0125,-2.2875 c -1.5375,-0.675 -2.85,-1.0125 -4.6875,-1.0125 -3.8625,0 -6,2.25 -6,5.5125 l 0,2.8125 -3.4875,0 0,2.4375 3.4875,0 0,17.2875 3.15,0 0,-17.2875 4.5375,0 0.3375,-2.4375 -4.875,0 0,-2.85 c 0,-1.9875 0.825,-2.925 3.0375,-2.925 z"
         style="font-size:37.5px;text-align:end;text-anchor:end"
         id="path7603" />
      <path
         d="m 368.61719,588.37814 c -0.975,0.5625 -1.8,0.825 -2.7375,0.825 -1.7625,0 -2.475,-0.975 -2.475,-3.0375 l 0,-12.075 4.425,0 0.3375,-2.4375 -4.7625,0 0,-4.875 -3.15,0.3375 0,4.5375 -3.4125,0 0,2.4375 3.4125,0 0,12.225 c 0,3.6 1.95,5.5125 5.2125,5.5125 1.65,0 3.075,-0.45 4.35,-1.3125 l -1.2,-2.1375 z"
         style="font-size:37.5px;text-align:end;text-anchor:end"
         id="path7605" />
      <path
         d="m 382.58477,571.20314 c -2.55,0 -4.5375,1.275 -6,3.2625 l 0,-11.1 -3.15,0.375 0,27.6375 3.15,0 0,-14.1 c 1.35,-2.1375 2.9625,-3.6 5.2125,-3.6 2.025,0 3.3,0.975 3.3,4.0125 l 0,13.6875 3.15,0 0,-14.1375 c 0,-3.7125 -2.1,-6.0375 -5.6625,-6.0375 z"
         style="font-size:37.5px;text-align:end;text-anchor:end"
         id="path7607" />
      <path
         d="m 410.06992,580.87814 c 0,-5.9625 -2.7375,-9.675 -8.025,-9.675 -5.025,0 -8.1,4.3125 -8.1,10.5 0,6.2625 3.1875,10.125 8.625,10.125 2.7,0 4.875,-0.9375 6.7875,-2.475 l -1.3875,-1.875 c -1.725,1.2 -3.1875,1.7625 -5.175,1.7625 -3,0 -5.175,-1.875 -5.5125,-6.6375 l 12.7125,0 c 0.0375,-0.4125 0.075,-1.05 0.075,-1.725 z m -3.1125,-0.6 -9.675,0 c 0.2625,-4.6125 2.1,-6.5625 4.8375,-6.5625 3.2625,0 4.8375,2.2875 4.8375,6.2625 l 0,0.3 z"
         style="font-size:37.5px;text-align:end;text-anchor:end"
         id="path7609" />
      <path
         d="m 432.89043,571.20314 c -5.2875,0 -8.55,4.1625 -8.55,10.4625 0,6.375 3.3,10.1625 8.55,10.1625 2.25,0 4.2375,-0.75 5.925,-2.175 l -1.4625,-2.0625 c -1.4625,1.0125 -2.6625,1.5375 -4.35,1.5375 -3.225,0 -5.2875,-2.25 -5.2875,-7.5 0,-5.2875 2.0625,-7.8 5.2875,-7.8 1.6875,0 2.9625,0.4875 4.275,1.4625 l 1.5375,-1.9875 c -1.8,-1.5 -3.6375,-2.1 -5.925,-2.1 z"
         style="font-size:37.5px;text-align:end;text-anchor:end"
         id="path7611" />
      <path
         d="m 450.1791,571.20314 c -5.5125,0 -8.7,4.1625 -8.7,10.35 0,6.2625 3.15,10.275 8.6625,10.275 5.5125,0 8.7,-4.1625 8.7,-10.35 0,-6.3 -3.1125,-10.275 -8.6625,-10.275 z m 0,2.55 c 3.4125,0 5.2875,2.5125 5.2875,7.725 0,5.2875 -1.9125,7.8 -5.325,7.8 -3.4125,0 -5.2875,-2.5125 -5.2875,-7.725 0,-5.2875 1.95,-7.8 5.325,-7.8 z"
         style="font-size:37.5px;text-align:end;text-anchor:end"
         id="path7613" />
      <path
         d="m 473.84453,571.20314 c -2.6625,0 -4.725,1.3875 -6.1875,3.4125 l -0.2625,-2.9625 -2.7,0 0,19.725 3.15,0 0,-14.0625 c 1.35,-2.175 2.925,-3.6375 5.25,-3.6375 2.025,0 3.2625,0.975 3.2625,4.0125 l 0,13.6875 3.15,0 0,-14.1375 c 0,-3.75 -2.0625,-6.0375 -5.6625,-6.0375 z"
         style="font-size:37.5px;text-align:end;text-anchor:end"
         id="path7615" />
      <path
         d="m 500.54922,571.65314 -3.3375,0 -5.2875,16.9125 -5.3625,-16.9125 -3.45,0 6.8625,19.725 3.825,0 6.75,-19.725 z"
         style="font-size:37.5px;text-align:end;text-anchor:end"
         id="path7617" />
      <path
         d="m 519.12754,580.87814 c 0,-5.9625 -2.7375,-9.675 -8.025,-9.675 -5.025,0 -8.1,4.3125 -8.1,10.5 0,6.2625 3.1875,10.125 8.625,10.125 2.7,0 4.875,-0.9375 6.7875,-2.475 l -1.3875,-1.875 c -1.725,1.2 -3.1875,1.7625 -5.175,1.7625 -3,0 -5.175,-1.875 -5.5125,-6.6375 l 12.7125,0 c 0.0375,-0.4125 0.075,-1.05 0.075,-1.725 z m -3.1125,-0.6 -9.675,0 c 0.2625,-4.6125 2.1,-6.5625 4.8375,-6.5625 3.2625,0 4.8375,2.2875 4.8375,6.2625 l 0,0.3 z"
         style="font-size:37.5px;text-align:end;text-anchor:end"
         id="path7619" />
      <path
         d="m 533.15137,571.20314 c -2.4375,0 -4.275,1.5375 -5.325,4.575 l -0.3,-4.125 -2.7,0 0,19.725 3.15,0 0,-11.55 c 0.9,-3.7875 2.325,-5.55 4.8375,-5.55 0.7125,0 1.125,0.075 1.725,0.225 l 0.5625,-3.075 c -0.5625,-0.15 -1.275,-0.225 -1.95,-0.225 z"
         style="font-size:37.5px;text-align:end;text-anchor:end"
         id="path7621" />
      <path
         d="m 543.8084,571.20314 c -4.0125,0 -6.975,2.25 -6.975,5.3625 0,2.775 1.6875,4.5375 5.925,5.6625 3.9,1.05 4.9125,1.8 4.9125,3.8625 0,1.9875 -1.7625,3.1875 -4.3875,3.1875 -2.2125,0 -4.0125,-0.75 -5.625,-1.95 l -1.6875,1.9125 c 1.725,1.5 4.05,2.5875 7.3875,2.5875 3.975,0 7.6125,-1.9125 7.6125,-5.925 0,-3.45 -2.325,-5.025 -6.4875,-6.1125 -3.2625,-0.8625 -4.3875,-1.6125 -4.3875,-3.3 0,-1.6875 1.5,-2.775 3.825,-2.775 1.875,0 3.375,0.5625 5.1375,1.725 l 1.35,-1.9875 c -1.875,-1.425 -3.9,-2.25 -6.6,-2.25 z"
         style="font-size:37.5px;text-align:end;text-anchor:end"
         id="path7623" />
      <path
         d="m 568.78457,586.84064 0,-9.15 c 0,-4.0875 -2.1375,-6.4875 -6.825,-6.4875 -2.175,0 -4.3125,0.45 -6.675,1.35 l 0.7875,2.325 c 2.025,-0.7125 3.825,-1.0875 5.325,-1.0875 2.85,0 4.2375,1.125 4.2375,4.05 l 0,1.575 -3.225,0 c -5.4,0 -8.55,2.25 -8.55,6.45 0,3.525 2.325,5.9625 6.225,5.9625 2.4375,0 4.5375,-0.9375 5.925,-3.0375 0.525,1.9875 1.7625,2.775 3.675,3.0375 l 0.75,-2.2125 c -1.05,-0.375 -1.65,-0.9375 -1.65,-2.775 z m -7.9875,2.5875 c -2.3625,0 -3.6,-1.3125 -3.6,-3.7125 0,-2.8125 1.95,-4.2 5.625,-4.2 l 2.8125,0 0,4.6875 c -1.125,2.1375 -2.7,3.225 -4.8375,3.225 z"
         style="font-size:37.5px;text-align:end;text-anchor:end"
         id="path7625" />
      <path
         d="m 584.6084,588.37814 c -0.975,0.5625 -1.8,0.825 -2.7375,0.825 -1.7625,0 -2.475,-0.975 -2.475,-3.0375 l 0,-12.075 4.425,0 0.3375,-2.4375 -4.7625,0 0,-4.875 -3.15,0.3375 0,4.5375 -3.4125,0 0,2.4375 3.4125,0 0,12.225 c 0,3.6 1.95,5.5125 5.2125,5.5125 1.65,0 3.075,-0.45 4.35,-1.3125 l -1.2,-2.1375 z"
         style="font-size:37.5px;text-align:end;text-anchor:end"
         id="path7627" />
      <path
         d="m 590.96348,562.35314 c -1.3125,0 -2.2125,0.9375 -2.2125,2.175 0,1.2375 0.9,2.175 2.2125,2.175 1.35,0 2.25,-0.9375 2.25,-2.175 0,-1.2375 -0.9,-2.175 -2.25,-2.175 z m 1.6125,9.3 -3.15,0 0,19.725 3.15,0 0,-19.725 z"
         style="font-size:37.5px;text-align:end;text-anchor:end"
         id="path7629" />
      <path
         d="m 607.13711,571.20314 c -5.5125,0 -8.7,4.1625 -8.7,10.35 0,6.2625 3.15,10.275 8.6625,10.275 5.5125,0 8.7,-4.1625 8.7,-10.35 0,-6.3 -3.1125,-10.275 -8.6625,-10.275 z m 0,2.55 c 3.4125,0 5.2875,2.5125 5.2875,7.725 0,5.2875 -1.9125,7.8 -5.325,7.8 -3.4125,0 -5.2875,-2.5125 -5.2875,-7.725 0,-5.2875 1.95,-7.8 5.325,-7.8 z"
         style="font-size:37.5px;text-align:end;text-anchor:end"
         id="path7631" />
      <path
         d="m 630.80254,571.20314 c -2.6625,0 -4.725,1.3875 -6.1875,3.4125 l -0.2625,-2.9625 -2.7,0 0,19.725 3.15,0 0,-14.0625 c 1.35,-2.175 2.925,-3.6375 5.25,-3.6375 2.025,0 3.2625,0.975 3.2625,4.0125 l 0,13.6875 3.15,0 0,-14.1375 c 0,-3.75 -2.0625,-6.0375 -5.6625,-6.0375 z"
         style="font-size:37.5px;text-align:end;text-anchor:end"
         id="path7633" />
      <path
         d="m 666.70938,586.84064 0,-9.15 c 0,-4.0875 -2.13751,-6.4875 -6.82501,-6.4875 -2.17499,0 -4.3125,0.45 -6.67499,1.35 l 0.7875,2.325 c 2.025,-0.7125 3.82499,-1.0875 5.32499,-1.0875 2.85,0 4.23751,1.125 4.23751,4.05 l 0,1.575 -3.225,0 c -5.4,0 -8.55001,2.25 -8.55001,6.45 0,3.525 2.325,5.9625 6.225,5.9625 2.4375,0 4.5375,-0.9375 5.92501,-3.0375 0.525,1.9875 1.76249,2.775 3.67499,3.0375 l 0.75,-2.2125 c -1.04999,-0.375 -1.64999,-0.9375 -1.64999,-2.775 z m -7.98751,2.5875 c -2.3625,0 -3.59999,-1.3125 -3.59999,-3.7125 0,-2.8125 1.94999,-4.2 5.625,-4.2 l 2.8125,0 0,4.6875 c -1.125,2.1375 -2.70001,3.225 -4.83751,3.225 z"
         style="font-size:37.5px;text-align:end;text-anchor:end"
         id="path7635" />
      <path
         d="m 683.1707,571.20314 c -2.6625,0 -4.725,1.3875 -6.1875,3.4125 l -0.2625,-2.9625 -2.7,0 0,19.725 3.15,0 0,-14.0625 c 1.35,-2.175 2.925,-3.6375 5.25,-3.6375 2.025,0 3.2625,0.975 3.2625,4.0125 l 0,13.6875 3.15,0 0,-14.1375 c 0,-3.75 -2.0625,-6.0375 -5.6625,-6.0375 z"
         style="font-size:37.5px;text-align:end;text-anchor:end"
         id="path7637" />
      <path
         d="m 707.80586,563.32814 0,10.35 c -1.275,-1.35 -2.9625,-2.475 -5.3625,-2.475 -4.8375,0 -7.725,4.35 -7.725,10.3875 0,6.1875 2.6625,10.2375 7.425,10.2375 2.5125,0 4.5,-1.275 5.7375,-3.225 l 0.3375,2.775 2.7375,0 0,-27.675 -3.15,-0.375 z m -5.025,25.9875 c -2.9625,0 -4.6875,-2.5125 -4.6875,-7.7625 0,-5.25 1.95,-7.8375 5.025,-7.8375 2.0625,0 3.4875,1.05 4.6875,2.6625 l 0,9.825 c -1.3125,1.9875 -2.7375,3.1125 -5.025,3.1125 z"
         style="font-size:37.5px;text-align:end;text-anchor:end"
         id="path7639" />
      <path
         d="m 379.7541,610.20314 0,10.35 c -1.275,-1.35 -2.9625,-2.475 -5.3625,-2.475 -4.8375,0 -7.725,4.35 -7.725,10.3875 0,6.1875 2.6625,10.2375 7.425,10.2375 2.5125,0 4.5,-1.275 5.7375,-3.225 l 0.3375,2.775 2.7375,0 0,-27.675 -3.15,-0.375 z m -5.025,25.9875 c -2.9625,0 -4.6875,-2.5125 -4.6875,-7.7625 0,-5.25 1.95,-7.8375 5.025,-7.8375 2.0625,0 3.4875,1.05 4.6875,2.6625 l 0,9.825 c -1.3125,1.9875 -2.7375,3.1125 -5.025,3.1125 z"
         style="font-size:37.5px;text-align:end;text-anchor:end"
         id="path7641" />
      <path
         d="m 404.94297,627.75314 c 0,-5.9625 -2.7375,-9.675 -8.025,-9.675 -5.025,0 -8.1,4.3125 -8.1,10.5 0,6.2625 3.1875,10.125 8.625,10.125 2.7,0 4.875,-0.9375 6.7875,-2.475 l -1.3875,-1.875 c -1.725,1.2 -3.1875,1.7625 -5.175,1.7625 -3,0 -5.175,-1.875 -5.5125,-6.6375 l 12.7125,0 c 0.0375,-0.4125 0.075,-1.05 0.075,-1.725 z m -3.1125,-0.6 -9.675,0 c 0.2625,-4.6125 2.1,-6.5625 4.8375,-6.5625 3.2625,0 4.8375,2.2875 4.8375,6.2625 l 0,0.3 z"
         style="font-size:37.5px;text-align:end;text-anchor:end"
         id="path7643" />
      <path
         d="m 415.8543,618.07814 c -4.0125,0 -6.975,2.25 -6.975,5.3625 0,2.775 1.6875,4.5375 5.925,5.6625 3.9,1.05 4.9125,1.8 4.9125,3.8625 0,1.9875 -1.7625,3.1875 -4.3875,3.1875 -2.2125,0 -4.0125,-0.75 -5.625,-1.95 l -1.6875,1.9125 c 1.725,1.5 4.05,2.5875 7.3875,2.5875 3.975,0 7.6125,-1.9125 7.6125,-5.925 0,-3.45 -2.325,-5.025 -6.4875,-6.1125 -3.2625,-0.8625 -4.3875,-1.6125 -4.3875,-3.3 0,-1.6875 1.5,-2.775 3.825,-2.775 1.875,0 3.375,0.5625 5.1375,1.725 l 1.35,-1.9875 c -1.875,-1.425 -3.9,-2.25 -6.6,-2.25 z"
         style="font-size:37.5px;text-align:end;text-anchor:end"
         id="path7645" />
      <path
         d="m 429.68418,609.22814 c -1.3125,0 -2.2125,0.9375 -2.2125,2.175 0,1.2375 0.9,2.175 2.2125,2.175 1.35,0 2.25,-0.9375 2.25,-2.175 0,-1.2375 -0.9,-2.175 -2.25,-2.175 z m 1.6125,9.3 -3.15,0 0,19.725 3.15,0 0,-19.725 z"
         style="font-size:37.5px;text-align:end;text-anchor:end"
         id="path7647" />
      <path
         d="m 453.28281,616.42814 c -2.2125,1.0125 -3.9375,1.7625 -8.925,1.65 -4.35,0 -7.5,2.8125 -7.5,6.825 0,2.5875 1.05,4.3125 3.3,5.5125 -1.3875,0.9 -2.1375,2.1375 -2.1375,3.45 0,1.95 1.575,3.675 5.025,3.675 l 3.1125,0 c 2.55,0 4.0875,0.975 4.0875,2.925 0,2.0625 -1.5375,3.225 -5.8875,3.225 -4.425,0 -5.55,-1.05 -5.55,-3.4125 l -2.85,0 c 0,3.975 2.0625,5.8875 8.4,5.8875 6.0375,0 9.075,-2.1375 9.075,-5.925 0,-3.075 -2.625,-5.3625 -6.6375,-5.3625 l -3.15,0 c -2.1,0 -2.7,-0.75 -2.7,-1.6875 0,-0.7875 0.4125,-1.5 1.0875,-1.95 0.7875,0.2625 1.6125,0.375 2.5125,0.375 4.65,0 7.425,-2.775 7.425,-6.6375 0,-2.4 -1.1625,-4.05 -3.45,-5.0625 2.2875,-0.0375 4.125,-0.1125 5.7,-0.6 l -0.9375,-2.8875 z m -8.925,3.9375 c 2.925,0 4.3875,1.6125 4.3875,4.5375 0,2.925 -1.5,4.6125 -4.3125,4.6125 -2.775,0 -4.35,-1.8375 -4.35,-4.6125 0,-2.625 1.4625,-4.5375 4.275,-4.5375 z"
         style="font-size:37.5px;text-align:end;text-anchor:end"
         id="path7649" />
      <path
         d="m 467.10625,618.07814 c -2.6625,0 -4.725,1.3875 -6.1875,3.4125 l -0.2625,-2.9625 -2.7,0 0,19.725 3.15,0 0,-14.0625 c 1.35,-2.175 2.925,-3.6375 5.25,-3.6375 2.025,0 3.2625,0.975 3.2625,4.0125 l 0,13.6875 3.15,0 0,-14.1375 c 0,-3.75 -2.0625,-6.0375 -5.6625,-6.0375 z"
         style="font-size:37.5px;text-align:end;text-anchor:end"
         id="path7651" />
      <path
         d="m 481.46641,609.22814 c -1.3125,0 -2.2125,0.9375 -2.2125,2.175 0,1.2375 0.9,2.175 2.2125,2.175 1.35,0 2.25,-0.9375 2.25,-2.175 0,-1.2375 -0.9,-2.175 -2.25,-2.175 z m 1.6125,9.3 -3.15,0 0,19.725 3.15,0 0,-19.725 z"
         style="font-size:37.5px;text-align:end;text-anchor:end"
         id="path7653" />
      <path
         d="m 499.55254,618.07814 c -2.6625,0 -4.725,1.3875 -6.1875,3.4125 l -0.2625,-2.9625 -2.7,0 0,19.725 3.15,0 0,-14.0625 c 1.35,-2.175 2.925,-3.6375 5.25,-3.6375 2.025,0 3.2625,0.975 3.2625,4.0125 l 0,13.6875 3.15,0 0,-14.1375 c 0,-3.75 -2.0625,-6.0375 -5.6625,-6.0375 z"
         style="font-size:37.5px;text-align:end;text-anchor:end"
         id="path7655" />
      <path
         d="m 527.0377,616.42814 c -2.2125,1.0125 -3.9375,1.7625 -8.925,1.65 -4.35,0 -7.5,2.8125 -7.5,6.825 0,2.5875 1.05,4.3125 3.3,5.5125 -1.3875,0.9 -2.1375,2.1375 -2.1375,3.45 0,1.95 1.575,3.675 5.025,3.675 l 3.1125,0 c 2.55,0 4.0875,0.975 4.0875,2.925 0,2.0625 -1.5375,3.225 -5.8875,3.225 -4.425,0 -5.55,-1.05 -5.55,-3.4125 l -2.85,0 c 0,3.975 2.0625,5.8875 8.4,5.8875 6.0375,0 9.075,-2.1375 9.075,-5.925 0,-3.075 -2.625,-5.3625 -6.6375,-5.3625 l -3.15,0 c -2.1,0 -2.7,-0.75 -2.7,-1.6875 0,-0.7875 0.4125,-1.5 1.0875,-1.95 0.7875,0.2625 1.6125,0.375 2.5125,0.375 4.65,0 7.425,-2.775 7.425,-6.6375 0,-2.4 -1.1625,-4.05 -3.45,-5.0625 2.2875,-0.0375 4.125,-0.1125 5.7,-0.6 l -0.9375,-2.8875 z m -8.925,3.9375 c 2.925,0 4.3875,1.6125 4.3875,4.5375 0,2.925 -1.5,4.6125 -4.3125,4.6125 -2.775,0 -4.35,-1.8375 -4.35,-4.6125 0,-2.625 1.4625,-4.5375 4.275,-4.5375 z"
         style="font-size:37.5px;text-align:end;text-anchor:end"
         id="path7657" />
      <path
         d="m 546.95781,618.07814 c -4.0125,0 -6.975,2.25 -6.975,5.3625 0,2.775 1.6875,4.5375 5.925,5.6625 3.9,1.05 4.9125,1.8 4.9125,3.8625 0,1.9875 -1.7625,3.1875 -4.3875,3.1875 -2.2125,0 -4.0125,-0.75 -5.625,-1.95 l -1.6875,1.9125 c 1.725,1.5 4.05,2.5875 7.3875,2.5875 3.975,0 7.6125,-1.9125 7.6125,-5.925 0,-3.45 -2.325,-5.025 -6.4875,-6.1125 -3.2625,-0.8625 -4.3875,-1.6125 -4.3875,-3.3 0,-1.6875 1.5,-2.775 3.825,-2.775 1.875,0 3.375,0.5625 5.1375,1.725 l 1.35,-1.9875 c -1.875,-1.425 -3.9,-2.25 -6.6,-2.25 z"
         style="font-size:37.5px;text-align:end;text-anchor:end"
         id="path7659" />
      <path
         d="m 566.4877,618.07814 c -5.5125,0 -8.7,4.1625 -8.7,10.35 0,6.2625 3.15,10.275 8.6625,10.275 5.5125,0 8.7,-4.1625 8.7,-10.35 0,-6.3 -3.1125,-10.275 -8.6625,-10.275 z m 0,2.55 c 3.4125,0 5.2875,2.5125 5.2875,7.725 0,5.2875 -1.9125,7.8 -5.325,7.8 -3.4125,0 -5.2875,-2.5125 -5.2875,-7.725 0,-5.2875 1.95,-7.8 5.325,-7.8 z"
         style="font-size:37.5px;text-align:end;text-anchor:end"
         id="path7661" />
      <path
         d="m 584.75312,638.70314 c 0.975,0 1.9125,-0.2625 2.625,-0.6375 l -0.82499,-2.2125 c -0.375,0.15 -0.78751,0.225 -1.275,0.225 -0.9375,0 -1.3125,-0.5625 -1.3125,-1.65 l 0,-24.225 -3.15001,0.375 0,23.925 c 0,2.7375 1.5375,4.2 3.9375,4.2 z"
         style="font-size:37.5px;text-align:end;text-anchor:end"
         id="path7663" />
      <path
         d="m 606.39121,618.52814 -3.15,0 0,14.1375 c -1.2375,2.0625 -2.8875,3.525 -5.1375,3.525 -2.25,0 -3.225,-1.05 -3.225,-3.8625 l 0,-13.8 -3.15,0 0,14.1375 c 0,3.8625 2.025,6.0375 5.5125,6.0375 2.85,0 4.725,-1.2375 6.1875,-3.6375 l 0.2625,3.1875 2.7,0 0,-19.725 z"
         style="font-size:37.5px;text-align:end;text-anchor:end"
         id="path7665" />
      <path
         d="m 622.18164,635.25314 c -0.975,0.5625 -1.8,0.825 -2.7375,0.825 -1.7625,0 -2.475,-0.975 -2.475,-3.0375 l 0,-12.075 4.425,0 0.3375,-2.4375 -4.7625,0 0,-4.875 -3.15,0.3375 0,4.5375 -3.4125,0 0,2.4375 3.4125,0 0,12.225 c 0,3.6 1.95,5.5125 5.2125,5.5125 1.65,0 3.075,-0.45 4.35,-1.3125 l -1.2,-2.1375 z"
         style="font-size:37.5px;text-align:end;text-anchor:end"
         id="path7667" />
      <path
         d="m 628.53672,609.22814 c -1.3125,0 -2.2125,0.9375 -2.2125,2.175 0,1.2375 0.9,2.175 2.2125,2.175 1.35,0 2.25,-0.9375 2.25,-2.175 0,-1.2375 -0.9,-2.175 -2.25,-2.175 z m 1.6125,9.3 -3.15,0 0,19.725 3.15,0 0,-19.725 z"
         style="font-size:37.5px;text-align:end;text-anchor:end"
         id="path7669" />
      <path
         d="m 644.71035,618.07814 c -5.5125,0 -8.7,4.1625 -8.7,10.35 0,6.2625 3.15,10.275 8.6625,10.275 5.5125,0 8.7,-4.1625 8.7,-10.35 0,-6.3 -3.1125,-10.275 -8.6625,-10.275 z m 0,2.55 c 3.4125,0 5.2875,2.5125 5.2875,7.725 0,5.2875 -1.9125,7.8 -5.325,7.8 -3.4125,0 -5.2875,-2.5125 -5.2875,-7.725 0,-5.2875 1.95,-7.8 5.325,-7.8 z"
         style="font-size:37.5px;text-align:end;text-anchor:end"
         id="path7671" />
      <path
         d="m 668.37578,618.07814 c -2.6625,0 -4.725,1.3875 -6.1875,3.4125 l -0.2625,-2.9625 -2.7,0 0,19.725 3.15,0 0,-14.0625 c 1.35,-2.175 2.925,-3.6375 5.25,-3.6375 2.025,0 3.2625,0.975 3.2625,4.0125 l 0,13.6875 3.15,0 0,-14.1375 c 0,-3.75 -2.0625,-6.0375 -5.6625,-6.0375 z"
         style="font-size:37.5px;text-align:end;text-anchor:end"
         id="path7673" />
      <path
         d="m 686.41094,618.07814 c -4.0125,0 -6.975,2.25 -6.975,5.3625 0,2.775 1.6875,4.5375 5.925,5.6625 3.9,1.05 4.9125,1.8 4.9125,3.8625 0,1.9875 -1.7625,3.1875 -4.3875,3.1875 -2.2125,0 -4.0125,-0.75 -5.625,-1.95 l -1.6875,1.9125 c 1.725,1.5 4.05,2.5875 7.3875,2.5875 3.975,0 7.6125,-1.9125 7.6125,-5.925 0,-3.45 -2.325,-5.025 -6.4875,-6.1125 -3.2625,-0.8625 -4.3875,-1.6125 -4.3875,-3.3 0,-1.6875 1.5,-2.775 3.825,-2.775 1.875,0 3.375,0.5625 5.1375,1.725 l 1.35,-1.9875 c -1.875,-1.425 -3.9,-2.25 -6.6,-2.25 z"
         style="font-size:37.5px;text-align:end;text-anchor:end"
         id="path7675" />
      <path
         d="m 699.34082,633.86564 c -1.35,0 -2.4,1.0875 -2.4,2.4 0,1.35 1.05,2.4375 2.4,2.4375 1.425,0 2.4375,-1.0875 2.4375,-2.4375 0,-1.3125 -1.0125,-2.4 -2.4375,-2.4 z"
         style="font-size:37.5px;text-align:end;text-anchor:end"
         id="path7677" />
      <path
         d="m 702.85879,622.16564 2.3625,0 0.525,-9.7125 -3.375,0 0.4875,9.7125 z m 6.5625,0 2.3625,0 0.525,-9.7125 -3.375,0 0.4875,9.7125 z"
         style="font-size:37.5px;text-align:end;text-anchor:end"
         id="path7679" />
    </g>
    <g
       style="color:#000000;font-style:normal;font-variant:normal;font-weight:normal;font-stretch:normal;font-size:45px;line-height:125%;font-family:'Fira Sans';-inkscape-font-specification:'Fira Sans';text-indent:0;text-align:start;text-decoration:none;text-decoration-line:none;text-decoration-style:solid;text-decoration-color:#000000;letter-spacing:0px;word-spacing:0px;text-transform:none;direction:ltr;block-progression:tb;writing-mode:lr-tb;baseline-shift:baseline;text-anchor:start;white-space:normal;clip-rule:nonzero;display:inline;overflow:visible;visibility:visible;opacity:1;isolation:auto;mix-blend-mode:normal;color-interpolation:sRGB;color-interpolation-filters:linearRGB;solid-color:#000000;solid-opacity:1;fill:#525252;fill-opacity:1;fill-rule:nonzero;stroke:none;stroke-width:1;stroke-linecap:square;stroke-linejoin:round;stroke-miterlimit:4;stroke-dasharray:none;stroke-dashoffset:0;stroke-opacity:1;color-rendering:auto;image-rendering:auto;shape-rendering:auto;text-rendering:auto;enable-background:accumulate"
       id="text6228-7-9">
      <path
         d="m 780.01391,491.46692 c -7.02,0 -13.275,5.49 -13.275,15.975 0,10.71 4.995,16.065 12.915,16.065 3.825,0 7.02,-1.035 9.9,-2.7 l 0,-14.895 -9.945,0 0.45,3.195 5.625,0 0,9.72 c -1.8,0.99 -3.87,1.44 -6.03,1.44 -5.58,0 -8.775,-3.78 -8.775,-12.825 0,-9.27 4.59,-12.735 9.135,-12.735 2.79,0 4.68,0.765 6.84,2.52 l 2.295,-2.43 c -2.61,-2.16 -5.13,-3.33 -9.135,-3.33 z"
         style=""
         id="path7376" />
      <path
         d="m 812.49969,517.52192 0,-10.98 c 0,-4.905 -2.565,-7.785 -8.19,-7.785 -2.61,0 -5.175,0.54 -8.01,1.62 l 0.945,2.79 c 2.43,-0.855 4.59,-1.305 6.39,-1.305 3.42,0 5.085,1.35 5.085,4.86 l 0,1.89 -3.87,0 c -6.48,0 -10.26,2.7 -10.26,7.74 0,4.23 2.79,7.155 7.47,7.155 2.925,0 5.445,-1.125 7.11,-3.645 0.63,2.385 2.115,3.33 4.41,3.645 l 0.9,-2.655 c -1.26,-0.45 -1.98,-1.125 -1.98,-3.33 z m -9.585,3.105 c -2.835,0 -4.32,-1.575 -4.32,-4.455 0,-3.375 2.34,-5.04 6.75,-5.04 l 3.375,0 0,5.625 c -1.35,2.565 -3.24,3.87 -5.805,3.87 z"
         style=""
         id="path7378" />
      <path
         d="m 837.58016,499.29692 -4.005,0 -6.345,20.295 -6.435,-20.295 -4.14,0 8.235,23.67 4.59,0 8.1,-23.67 z"
         style=""
         id="path7380" />
      <path
         d="m 844.29992,488.13692 c -1.575,0 -2.655,1.125 -2.655,2.61 0,1.485 1.08,2.61 2.655,2.61 1.62,0 2.7,-1.125 2.7,-2.61 0,-1.485 -1.08,-2.61 -2.7,-2.61 z m 1.935,11.16 -3.78,0 0,23.67 3.78,0 0,-23.67 z"
         style=""
         id="path7382" />
      <path
         d="m 866.00328,498.75692 c -3.195,0 -5.67,1.665 -7.425,4.095 l -0.315,-3.555 -3.24,0 0,23.67 3.78,0 0,-16.875 c 1.62,-2.61 3.51,-4.365 6.3,-4.365 2.43,0 3.915,1.17 3.915,4.815 l 0,16.425 3.78,0 0,-16.965 c 0,-4.5 -2.475,-7.245 -6.795,-7.245 z"
         style=""
         id="path7384" />
      <path
         d="m 915.03148,492.00692 -3.645,0 0,17.325 c 0,3.825 0.405,8.55 0.495,9.405 l -13.14,-26.73 -5.085,0 0,30.96 3.645,0 0,-14.94 c 0,-5.715 -0.315,-9.27 -0.54,-11.745 l 13.05,26.685 5.22,0 0,-30.96 z"
         style=""
         id="path7386" />
      <path
         d="m 941.70031,510.36692 c 0,-7.155 -3.285,-11.61 -9.63,-11.61 -6.03,0 -9.72,5.175 -9.72,12.6 0,7.515 3.825,12.15 10.35,12.15 3.24,0 5.85,-1.125 8.145,-2.97 l -1.665,-2.25 c -2.07,1.44 -3.825,2.115 -6.21,2.115 -3.6,0 -6.21,-2.25 -6.615,-7.965 l 15.255,0 c 0.045,-0.495 0.09,-1.26 0.09,-2.07 z m -3.735,-0.72 -11.61,0 c 0.315,-5.535 2.52,-7.875 5.805,-7.875 3.915,0 5.805,2.745 5.805,7.515 l 0,0.36 z"
         style=""
         id="path7388" />
      <path
         d="m 963.75945,517.52192 0,-10.98 c 0,-4.905 -2.565,-7.785 -8.19,-7.785 -2.61,0 -5.175,0.54 -8.01,1.62 l 0.945,2.79 c 2.43,-0.855 4.59,-1.305 6.39,-1.305 3.42,0 5.085,1.35 5.085,4.86 l 0,1.89 -3.87,0 c -6.48,0 -10.26,2.7 -10.26,7.74 0,4.23 2.79,7.155 7.47,7.155 2.925,0 5.445,-1.125 7.11,-3.645 0.63,2.385 2.115,3.33 4.41,3.645 l 0.9,-2.655 c -1.26,-0.45 -1.98,-1.125 -1.98,-3.33 z m -9.585,3.105 c -2.835,0 -4.32,-1.575 -4.32,-4.455 0,-3.375 2.34,-5.04 6.75,-5.04 l 3.375,0 0,5.625 c -1.35,2.565 -3.24,3.87 -5.805,3.87 z"
         style=""
         id="path7390" />
      <path
         d="m 982.74805,519.36692 c -1.17,0.675 -2.16,0.99 -3.285,0.99 -2.115,0 -2.97,-1.17 -2.97,-3.645 l 0,-14.49 5.31,0 0.405,-2.925 -5.715,0 0,-5.85 -3.78,0.405 0,5.445 -4.095,0 0,2.925 4.095,0 0,14.67 c 0,4.32 2.34,6.615 6.255,6.615 1.98,0 3.69,-0.54 5.22,-1.575 l -1.44,-2.565 z"
         style=""
         id="path7392" />
      <path
         d="m 1005.5089,510.36692 c 0,-7.155 -3.285,-11.61 -9.62999,-11.61 -6.03,0 -9.72,5.175 -9.72,12.6 0,7.515 3.825,12.15 10.35,12.15 3.24,0 5.84999,-1.125 8.14499,-2.97 l -1.665,-2.25 c -2.07,1.44 -3.82499,2.115 -6.20999,2.115 -3.6,0 -6.21,-2.25 -6.615,-7.965 l 15.25499,0 c 0.045,-0.495 0.09,-1.26 0.09,-2.07 z m -3.735,-0.72 -11.60999,0 c 0.315,-5.535 2.52,-7.875 5.805,-7.875 3.915,0 5.80499,2.745 5.80499,7.515 l 0,0.36 z"
         style=""
         id="path7394" />
      <path
         d="m 1012.673,517.70192 c -1.62,0 -2.88,1.305 -2.88,2.88 0,0.99 0.495,1.89 1.215,2.43 l -1.8,7.29 2.7,0 2.925,-6.705 c 0.54,-1.215 0.765,-2.07 0.765,-3.015 0,-1.575 -1.215,-2.88 -2.925,-2.88 z"
         style=""
         id="path7396" />
      <path
         d="m 790.13891,548.25692 -3.645,0 0,17.325 c 0,3.825 0.405,8.55 0.495,9.405 l -13.14,-26.73 -5.085,0 0,30.96 3.645,0 0,-14.94 c 0,-5.715 -0.315,-9.27 -0.54,-11.745 l 13.05,26.685 5.22,0 0,-30.96 z"
         style=""
         id="path7398" />
      <path
         d="m 816.80773,566.61692 c 0,-7.155 -3.285,-11.61 -9.63,-11.61 -6.03,0 -9.72,5.175 -9.72,12.6 0,7.515 3.825,12.15 10.35,12.15 3.24,0 5.85,-1.125 8.145,-2.97 l -1.665,-2.25 c -2.07,1.44 -3.825,2.115 -6.21,2.115 -3.6,0 -6.21,-2.25 -6.615,-7.965 l 15.255,0 c 0.045,-0.495 0.09,-1.26 0.09,-2.07 z m -3.735,-0.72 -11.61,0 c 0.315,-5.535 2.52,-7.875 5.805,-7.875 3.915,0 5.805,2.745 5.805,7.515 l 0,0.36 z"
         style=""
         id="path7400" />
      <path
         d="m 838.86688,573.77192 0,-10.98 c 0,-4.905 -2.56501,-7.785 -8.19001,-7.785 -2.61,0 -5.17499,0.54 -8.01,1.62 l 0.94501,2.79 c 2.42999,-0.855 4.58999,-1.305 6.39,-1.305 3.41999,0 5.08499,1.35 5.08499,4.86 l 0,1.89 -3.87,0 c -6.47999,0 -10.26,2.7 -10.26,7.74 0,4.23 2.79001,7.155 7.47,7.155 2.925,0 5.44501,-1.125 7.11,-3.645 0.63,2.385 2.11501,3.33 4.41,3.645 l 0.9,-2.655 c -1.26,-0.45 -1.97999,-1.125 -1.97999,-3.33 z m -9.585,3.105 c -2.83501,0 -4.32001,-1.575 -4.32001,-4.455 0,-3.375 2.34,-5.04 6.75,-5.04 l 3.375,0 0,5.625 c -1.34999,2.565 -3.24,3.87 -5.80499,3.87 z"
         style=""
         id="path7402" />
      <path
         d="m 857.85547,575.61692 c -1.17,0.675 -2.16,0.99 -3.285,0.99 -2.115,0 -2.97,-1.17 -2.97,-3.645 l 0,-14.49 5.31,0 0.405,-2.925 -5.715,0 0,-5.85 -3.78,0.405 0,5.445 -4.095,0 0,2.925 4.095,0 0,14.67 c 0,4.32 2.34,6.615 6.255,6.615 1.98,0 3.69,-0.54 5.22,-1.575 l -1.44,-2.565 z"
         style=""
         id="path7404" />
      <path
         d="m 880.61633,566.61692 c 0,-7.155 -3.285,-11.61 -9.63,-11.61 -6.03,0 -9.72,5.175 -9.72,12.6 0,7.515 3.825,12.15 10.35,12.15 3.24,0 5.85,-1.125 8.145,-2.97 l -1.665,-2.25 c -2.07,1.44 -3.825,2.115 -6.21,2.115 -3.6,0 -6.21,-2.25 -6.615,-7.965 l 15.255,0 c 0.045,-0.495 0.09,-1.26 0.09,-2.07 z m -3.735,-0.72 -11.61,0 c 0.315,-5.535 2.52,-7.875 5.805,-7.875 3.915,0 5.805,2.745 5.805,7.515 l 0,0.36 z"
         style=""
         id="path7406" />
      <path
         d="m 898.02992,555.00692 c -2.925,0 -5.175,1.35 -6.795,3.555 l 0,-13.005 -3.78,0.45 0,33.21 3.285,0 0.405,-2.655 c 1.62,1.935 3.69,3.195 6.39,3.195 5.76,0 9.225,-4.95 9.225,-12.42 0,-7.875 -3.375,-12.33 -8.73,-12.33 z m -1.35,21.735 c -2.25,0 -4.185,-1.35 -5.445,-3.285 l 0,-11.655 c 1.26,-1.98 3.06,-3.78 5.76,-3.78 3.465,0 5.715,2.52 5.715,9.315 0,6.57 -2.43,9.405 -6.03,9.405 z"
         style=""
         id="path7408" />
      <path
         d="m 922.77078,555.00692 c -6.615,0 -10.44,4.995 -10.44,12.42 0,7.515 3.78,12.33 10.395,12.33 6.615,0 10.44,-4.995 10.44,-12.42 0,-7.56 -3.735,-12.33 -10.395,-12.33 z m 0,3.06 c 4.095,0 6.345,3.015 6.345,9.27 0,6.345 -2.295,9.36 -6.39,9.36 -4.095,0 -6.345,-3.015 -6.345,-9.27 0,-6.345 2.34,-9.36 6.39,-9.36 z"
         style=""
         id="path7410" />
      <path
         d="m 948.43273,566.52692 7.29,-10.98 -4.275,0 -5.175,8.865 -5.175,-8.865 -4.41,0 7.29,11.16 -8.28,12.51 4.275,0 6.12,-10.26 6.03,10.26 4.59,0 -8.28,-12.69 z"
         style=""
         id="path7412" />
    </g>
    <path
       style="color:#000000;clip-rule:nonzero;display:inline;overflow:visible;visibility:visible;opacity:1;isolation:auto;mix-blend-mode:normal;color-interpolation:sRGB;color-interpolation-filters:linearRGB;solid-color:#000000;solid-opacity:1;fill:#ffffff;fill-opacity:1;fill-rule:nonzero;stroke:#525252;stroke-width:5;stroke-linecap:square;stroke-linejoin:round;stroke-miterlimit:4;stroke-dasharray:none;stroke-dashoffset:0;stroke-opacity:1;color-rendering:auto;image-rendering:auto;shape-rendering:auto;text-rendering:auto;enable-background:accumulate"
       d="m 456.09121,845.8074 c -5.13586,6e-5 -9.29917,4.06455 -9.29883,9.07813 4.8e-4,1.72637 0.50524,3.41681 1.45508,4.87304 l -0.12695,-0.002 c 3.98526,4.87088 7.97085,13.5056 7.97085,13.5056 l 9.07602,-13.2849 c 1.25892,-3.06935 1.04458,-5.95288 1.04458,-5.95288 3.3e-4,-5.01357 -4.98489,-8.21701 -10.12075,-8.21707 z"
       id="path7370"
       inkscape:connector-curvature="0"
       sodipodi:nodetypes="ccccccccc" />
  </g>
</svg>
