<?xml version="1.0" encoding="UTF-8" standalone="no"?>
<!-- Created with Inkscape (http://www.inkscape.org/) -->

<svg
   xmlns:dc="http://purl.org/dc/elements/1.1/"
   xmlns:cc="http://creativecommons.org/ns#"
   xmlns:rdf="http://www.w3.org/1999/02/22-rdf-syntax-ns#"
   xmlns:svg="http://www.w3.org/2000/svg"
   xmlns="http://www.w3.org/2000/svg"
   xmlns:sodipodi="http://sodipodi.sourceforge.net/DTD/sodipodi-0.dtd"
   xmlns:inkscape="http://www.inkscape.org/namespaces/inkscape"
   width="1104"
   height="368"
   viewBox="0 0 1104 368"
   id="svg6712"
   version="1.1"
   inkscape:version="0.91 r13725"
   sodipodi:docname="neatebox-models.svg">
  <defs
     id="defs6714" />
  <sodipodi:namedview
     id="base"
     pagecolor="#ffffff"
     bordercolor="#666666"
     borderopacity="1.0"
     inkscape:pageopacity="0.0"
     inkscape:pageshadow="2"
     inkscape:zoom="0.59243346"
     inkscape:cx="1038.1261"
     inkscape:cy="507.90664"
     inkscape:document-units="px"
     inkscape:current-layer="text7758-6-1-5"
     showgrid="false"
     units="px"
     inkscape:window-width="1366"
     inkscape:window-height="745"
     inkscape:window-x="-8"
     inkscape:window-y="-8"
     inkscape:window-maximized="1" />
  <metadata
     id="metadata6717">
    <rdf:RDF>
      <cc:Work
         rdf:about="">
        <dc:format>image/svg+xml</dc:format>
        <dc:type
           rdf:resource="http://purl.org/dc/dcmitype/StillImage" />
        <dc:title></dc:title>
      </cc:Work>
    </rdf:RDF>
  </metadata>
  <g
     inkscape:label="Layer 1"
     inkscape:groupmode="layer"
     id="layer1"
     transform="translate(0,-684.36216)">
    <g
       style="color:#000000;font-style:normal;font-variant:normal;font-weight:normal;font-stretch:normal;font-size:37.5px;line-height:125%;font-family:'Fira Sans';-inkscape-font-specification:'Fira Sans';text-indent:0;text-align:start;text-decoration:none;text-decoration-line:none;text-decoration-style:solid;text-decoration-color:#000000;letter-spacing:0px;word-spacing:0px;text-transform:none;direction:ltr;block-progression:tb;writing-mode:lr-tb;baseline-shift:baseline;text-anchor:start;white-space:normal;clip-rule:nonzero;display:inline;overflow:visible;visibility:visible;opacity:1;isolation:auto;mix-blend-mode:normal;color-interpolation:sRGB;color-interpolation-filters:linearRGB;solid-color:#000000;solid-opacity:1;fill:#525252;fill-opacity:1;fill-rule:nonzero;stroke:none;stroke-width:5.9000001;stroke-linecap:square;stroke-linejoin:round;stroke-miterlimit:4;stroke-dasharray:none;stroke-dashoffset:0;stroke-opacity:1;color-rendering:auto;image-rendering:auto;shape-rendering:auto;text-rendering:auto;enable-background:accumulate"
       id="text7758-6-1-5">
      <g
         id="g6283"
         transform="matrix(0.89240777,0,0,0.89240777,30.146266,89.691411)">
        <path
           inkscape:connector-curvature="0"
           id="rect8296"
           d="m 749.47688,790.30294 0,34.63854 -82.09581,0 0,36.6771 -80.86913,0 0,41.47511 -76.58376,0 0,54.43496 76.58376,0 5.51187,0 75.35726,0 1.22668,0 80.86913,0 82.09563,0 0,-167.22571 -82.09563,0 z"
           style="fill:#525252;fill-opacity:1;fill-rule:evenodd;stroke:none;stroke-width:5;stroke-linecap:butt;stroke-linejoin:miter;stroke-miterlimit:4;stroke-dasharray:none;stroke-opacity:1" />
        <g
           style="display:inline;fill:#525252;fill-opacity:1"
           transform="matrix(0.93999082,0,0,0.93999082,-4279.5848,960.13425)"
           id="g6613">
          <path
             d="m 5050.005,-103.80105 c -2.1406,-2.19644 -5.1317,-3.35609 -8.1882,-3.18876 l -36.9931,2.0592 20.3582,-23.18609 c 2.9002,-3.30279 3.7288,-7.7056 2.6075,-11.63985 -0.5917,-2.69591 -2.2243,-5.14884 -4.7324,-6.71603 -0.077,-0.0549 -48.6631,-28.27971 -48.6631,-28.27971 -3.9674,-2.30467 -8.9666,-1.79691 -12.3903,1.25684 l -23.7336,21.17079 c -4.3727,3.90028 -4.7557,10.60693 -0.8551,14.97991 3.9008,4.37243 10.6078,4.75649 14.9802,0.85483 l 17.9933,-16.05038 14.875,8.63801 -26.2567,29.90377 c -10.8877,1.77565 -20.684,6.79279 -28.3741,14.026519 l 13.7115,13.71148 c 6.1983,-5.6359 14.4282,-9.07592 23.4464,-9.07592 19.2356,0 34.8851,15.64975 34.8851,34.88558 0,9.01821 -3.44,17.24758 -9.0754,23.44591 l 13.7106,13.71148 c 9.1337,-9.70959 14.7392,-22.77442 14.7392,-37.15739 0,-8.56898 -1.9894,-16.67245 -5.5266,-23.87829 l 14.3192,-0.79768 -3.4833,42.72757 c -0.4763,5.84022 3.8729,10.96007 9.7134,11.43691 0.2924,0.0237 0.5842,0.0351 0.8733,0.0351 5.4686,0 10.1114,-4.20208 10.5631,-9.74824 l 4.471,-54.85833 c 0.2496,-3.05679 -0.8355,-6.071319 -2.9751,-8.267199 z"
             id="path5"
             inkscape:connector-curvature="0"
             style="fill:#525252;fill-opacity:1" />
          <path
             d="m 5030.3539,-149.25076 c 9.8082,0 17.7584,-7.95106 17.7584,-17.75976 0,-9.80816 -7.9502,-17.76004 -17.7584,-17.76004 -9.8092,0 -17.76,7.95188 -17.76,17.76004 0,9.8087 7.9505,17.75976 17.76,17.75976 z"
             id="path7"
             inkscape:connector-curvature="0"
             style="fill:#525252;fill-opacity:1" />
          <path
             d="m 4967.7908,-25.565561 c -19.2358,0 -34.8856,-15.64975 -34.8856,-34.88558 0,-7.24946 2.2243,-13.98758 6.0239,-19.5724 l -13.8595,-13.85919 c -7.2216,9.21562 -11.5388,20.81654 -11.5388,33.43159 0,29.96728 24.2927,54.2597398 54.26,54.2597398 12.6156,0 24.2154,-4.3172098 33.4308,-11.5390698 l -13.8592,-13.85864 c -5.5845,3.7984 -12.3227,6.02355 -19.5716,6.02355 z"
             id="path9"
             inkscape:connector-curvature="0"
             style="fill:#525252;fill-opacity:1" />
        </g>
      </g>
    </g>
  </g>
</svg>
