<?xml version="1.0" encoding="UTF-8" standalone="no"?>
<!-- Created with Inkscape (http://www.inkscape.org/) -->

<svg
   xmlns:dc="http://purl.org/dc/elements/1.1/"
   xmlns:cc="http://creativecommons.org/ns#"
   xmlns:rdf="http://www.w3.org/1999/02/22-rdf-syntax-ns#"
   xmlns:svg="http://www.w3.org/2000/svg"
   xmlns="http://www.w3.org/2000/svg"
   xmlns:sodipodi="http://sodipodi.sourceforge.net/DTD/sodipodi-0.dtd"
   xmlns:inkscape="http://www.inkscape.org/namespaces/inkscape"
   width="1104"
   height="552"
   viewBox="0 0 1104 552.00001"
   id="svg7456"
   version="1.1"
   inkscape:version="0.91 r13725"
   sodipodi:docname="semiotics.svg">
  <defs
     id="defs7458" />
  <sodipodi:namedview
     id="base"
     pagecolor="#ffffff"
     bordercolor="#666666"
     borderopacity="1.0"
     inkscape:pageopacity="0.0"
     inkscape:pageshadow="2"
     inkscape:zoom="0.39921875"
     inkscape:cx="-11.469403"
     inkscape:cy="209.58377"
     inkscape:document-units="px"
     inkscape:current-layer="layer1"
     showgrid="false"
     units="px"
     inkscape:window-width="1440"
     inkscape:window-height="778"
     inkscape:window-x="0"
     inkscape:window-y="1"
     inkscape:window-maximized="1" />
  <metadata
     id="metadata7461">
    <rdf:RDF>
      <cc:Work
         rdf:about="">
        <dc:format>image/svg+xml</dc:format>
        <dc:type
           rdf:resource="http://purl.org/dc/dcmitype/StillImage" />
        <dc:title />
      </cc:Work>
    </rdf:RDF>
  </metadata>
  <g
     inkscape:label="Layer 1"
     inkscape:groupmode="layer"
     id="layer1"
     transform="translate(0,-500.36216)">
    <rect
       style="display:inline;fill:#cab3f3;fill-opacity:1;fill-rule:evenodd;stroke:none;stroke-width:1px;stroke-linecap:butt;stroke-linejoin:miter;stroke-opacity:1"
       id="rect4672-9-2-7-8-7-8"
       width="1104"
       height="552"
       x="0"
       y="500.36215"
       inkscape:export-xdpi="90"
       inkscape:export-ydpi="90" />
    <path
       style="display:inline;fill:#000000;fill-opacity:1;stroke:#000000;stroke-opacity:1"
       d="m 309.37974,945.35056 c -20.82293,-4.46185 -35.09043,-12.44526 -64.83601,-36.27935 -28.0244,-22.45493 -47.57582,-43.23625 -51.06956,-54.28219 -1.64262,-5.19347 -4.18097,-9.56234 -5.64059,-9.70819 -1.45961,-0.1465 -3.971,-0.38492 -5.58093,-0.53077 -1.60993,-0.1465 -3.98162,-2.8927 -5.27054,-6.10385 -2.6755,-6.66604 -10.91006,-41.58046 -10.91006,-46.25909 0,-3.53322 9.60097,-4.3385 11.67692,-0.97937 0.72163,1.16769 2.45003,2.11586 3.84064,2.10694 1.75388,-0.0212 2.60757,-6.0289 2.78612,-19.63846 0.70762,-53.89686 27.1654,-95.19346 77.15495,-120.42814 26.75417,-13.50553 55.39129,-19.18455 96.30277,-19.09771 19.99747,0.0425 25.64507,0.83776 35.89826,5.05441 29.89441,12.29431 65.67292,43.27701 77.46768,67.08392 9.42667,19.02765 19.00281,47.42592 21.90017,64.94725 4.40581,26.64207 3.83895,25.17779 8.2144,21.21803 6.42507,-5.81447 9.48973,0.36156 8.19338,16.51139 -1.49295,18.599 -12.43592,27.86665 -21.12313,28.70612 -3.86549,0.37345 -5.06503,-2.14537 -5.06503,-3.41263 0,-1.24179 7.69573,-2.71266 10.4275,-2.71266 3.25743,0 5.81171,-1.8543 7.42164,-5.38752 3.35042,-7.3537 5.70577,-28.58171 3.17102,-28.58171 -5.09835,0 -9.32328,6.26329 -11.28882,16.73579 -2.21649,11.81046 -18.10687,47.70766 -23.60522,53.32575 -1.71417,1.75154 -5.23869,6.65415 -7.83203,10.89478 -2.59334,4.24042 -12.31469,14.90124 -21.60294,23.69057 -14.11422,13.35585 -21.64053,18.36631 -45.82365,30.50543 l -28.93584,14.5246 -21.56643,0.41315 c -11.86141,0.22717 -27.29852,-0.81526 -34.30467,-2.31649 z m 55.79786,-5.40195 c 16.93408,-5.7476 48.1913,-22.25622 61.64799,-32.55951 20.23463,-15.49294 45.21878,-48.28981 54.8584,-72.01286 l 5.28328,-13.00257 -7.49489,-7.49489 -7.4951,-7.4951 -22.91415,3.81623 c -38.99795,6.49492 -43.58104,6.54014 -56.64518,0.55922 -6.37857,-2.92029 -15.72924,-9.05004 -20.77919,-13.62166 -19.66522,-17.80264 -26.1043,-19.2527 -39.14402,-8.81608 -11.2487,9.00334 -27.43058,16.15471 -44.74279,19.77349 -26.76223,5.59431 -75.5465,3.40457 -94.951,-4.26186 -3.82515,-1.51121 -3.97929,-0.78278 -2.71096,12.79982 0.73968,7.92141 2.22074,15.48657 3.29119,16.81179 1.07046,1.32502 1.93519,4.79773 1.9216,7.71696 -0.0701,15.30888 14.47408,32.51769 55.00149,65.07486 26.05462,20.93057 47.49557,32.05315 66.53235,34.51401 23.08889,2.98441 35.6144,2.51755 48.34098,-1.80185 z m -66.41325,-12.78199 c -20.10278,-8.02502 -34.91209,-24.45487 -40.53675,-44.97229 -1.71439,-6.25416 -3.70477,-21.57216 -4.42322,-34.03993 l -1.30612,-22.66873 8.27151,-1.30272 c 27.23483,-4.28925 55.76176,-15.60652 71.72497,-28.45517 12.81489,-10.31455 16.61753,-9.18252 35.48128,10.56294 l 16.43772,17.20627 14.49849,-0.75242 c 17.28375,-0.89679 20.91018,2.92433 4.47438,4.71472 -16.93175,1.84474 -22.52627,-0.6433 -38.47716,-17.11179 -9.19271,-9.49079 -16.10736,-14.8936 -19.06141,-14.8936 -2.5496,0 -9.40969,3.41136 -15.24433,7.58066 -13.80318,9.86339 -29.19655,16.85023 -49.45049,22.44453 -8.99697,2.48528 -17.68842,4.88924 -19.31427,5.3423 -2.3857,0.66474 -2.71626,5.01365 -1.7129,22.53583 0.68384,11.94167 2.2787,25.22533 3.54405,29.51926 6.47687,21.97745 27.90912,40.48389 50.09422,43.25578 14.3193,1.78912 36.50524,-2.9636 58.43174,-12.51703 21.50996,-9.37211 30.50034,-16.62475 36.85917,-29.73496 5.71405,-11.78011 12.2958,-46.74209 10.26295,-54.51552 -0.9125,-3.48928 -0.45115,-4.47969 1.73201,-3.71793 6.30256,2.19908 0.73034,44.91348 -8.08192,61.95478 -3.94871,7.63586 -18.37714,21.56388 -27.07433,26.13529 -14.81313,7.78638 -43.05217,15.69145 -59.52959,16.66445 -13.67452,0.80741 -19.05355,0.17622 -27.6,-3.23472 z m 18.04616,-28.93499 c -2.91923,-0.5244 -8.4127,-1.45579 -12.2077,-2.06957 -4.36271,-0.7055 -6.9,-2.33518 -6.9,-4.4315 0,-1.98338 1.20485,-2.85321 2.99821,-2.16512 1.649,0.63289 10.6691,2.32477 20.04503,3.76019 25.84847,3.95699 61.87984,-2.02988 61.87984,-10.28185 0,-1.66131 1.19423,-2.62264 2.65385,-2.13603 1.45961,0.48661 2.65384,2.65278 2.65384,4.81386 0,6.34652 -19.58772,11.95781 -44.58461,12.77222 -11.67692,0.38046 -23.61923,0.26241 -26.53846,-0.2622 z m -16.98462,-28.07302 c -4.54147,-0.89148 -7.43077,-2.69673 -7.43077,-4.64317 0,-1.75154 1.43308,-2.86 3.18462,-2.46319 23.4462,5.31194 61.39556,5.02171 83.20678,-0.63586 9.74705,-2.52859 12.33168,-2.28656 12.33168,1.15389 0,5.08944 -72.33472,10.30966 -91.29231,6.58833 z m 7.9212,-21.30762 c -13.45882,-1.51822 -16.82751,-5.81745 -4.16208,-5.31152 36.29995,1.44985 57.69016,0.72609 67.36396,-2.27976 12.81065,-3.98034 16.55299,-4.17269 15.42649,-0.79276 -2.15747,6.4722 -50.18402,11.59328 -78.62837,8.38404 z M 188.31043,835.61551 c -0.0297,-1.6543 -1.32841,-10.24745 -2.88611,-19.09601 -2.06661,-11.73892 -3.97334,-16.80076 -7.05287,-18.72406 -2.32137,-1.44963 -4.7472,-2.10906 -5.3907,-1.46556 -1.41397,1.41376 5.51512,34.70085 8.35197,40.12234 2.26745,4.33362 7.06008,3.7589 6.97771,-0.83671 z m 302.5599,-29.01545 c 0.0382,-3.18037 -4.05953,-3.40223 -8.45982,-0.45795 -2.75639,1.84453 -2.63049,2.55364 0.93627,5.275 4.28692,3.2706 7.44924,1.24582 7.52355,-4.81705 z m -66.48521,2.81626 c 6.8087,-1.66216 18.88859,-3.6553 26.84461,-4.42938 l 14.46537,-1.4076 -18.93339,-19.57116 C 431.81567,768.55855 423.9467,757.8748 409.39556,733.27492 399.25765,716.13575 385.59268,696.31237 379.0294,689.2232 l -11.9336,-12.88962 -8.6887,8.24327 c -36.49654,34.62441 -89.65244,56.02502 -141.30287,56.88848 l -24.33704,0.40699 -1.7715,6.09069 c -0.97449,3.35 -1.96512,16.07424 -2.20141,28.2762 l -0.42993,22.18509 11.67693,3.69288 c 9.03963,2.85872 19.59918,3.72197 46.75355,3.82239 42.4437,0.1571 55.71145,-2.81202 77.59506,-17.36422 21.81653,-14.50741 27.50765,-14.31379 45.27525,1.53986 16.03964,14.31188 26.33868,19.87582 40.91998,22.1059 0.7815,0.1189 6.9915,-1.14264 13.8,-2.80479 z M 276.80707,757.49053 c -2.37658,-1.50633 -2.37997,-2.55789 -0.0212,-6.33675 3.47908,-5.57095 9.43559,-5.86734 12.24951,-0.60975 3.59628,6.71996 -4.93806,11.5678 -12.22934,6.9465 z m 107.9644,-1.28659 c -4.06909,-4.90282 -0.97003,-9.58081 6.34673,-9.58081 7.97916,0 10.99096,5.66055 5.24697,9.86085 -5.08392,3.7175 -8.34157,3.63874 -11.5937,-0.28004 z m 103.21211,43.49612 c 7.73586,0 0.5278,-39.52129 -13.61953,-74.67563 -8.90886,-22.13689 -14.42015,-30.29991 -30.80394,-45.62534 -17.2483,-16.13411 -29.30228,-24.5277 -47.35863,-32.97733 l -13.93757,-6.52209 -36.44198,1.16238 c -28.01145,0.89361 -40.00875,2.19059 -51.85892,5.60684 -43.37191,12.50301 -76.01379,38.28778 -93.53703,73.88732 -3.0014,6.09769 -4.86801,11.67586 -4.14786,12.39622 3.74001,3.7398 20.19407,5.10281 36.7562,3.0447 43.02288,-5.34612 84.62223,-23.01479 116.23336,-49.36811 11.3453,-9.45831 23.34833,-25.63934 23.82581,-32.11919 0.40147,-5.44908 4.34785,-6.80998 6.14758,-2.11968 0.83225,2.16894 -0.64265,6.67114 -3.69861,11.28904 l -5.08328,7.68129 9.50968,10.5035 c 11.66185,12.88113 22.21906,28.3418 35.52163,52.02069 12.31957,21.92905 20.5206,32.42151 41.2172,52.73277 14.16941,13.90595 16.5445,15.44496 22.11545,14.33077 3.4326,-0.68639 7.55497,-1.24815 9.16044,-1.24815 z m 201.26409,136.35037 c -1.54879,-1.03989 -2.23348,-20.81826 -2.12308,-61.32572 0.0892,-32.88497 -0.43799,-60.3958 -1.17258,-61.13548 -0.73458,-0.73947 -9.88334,-1.47767 -20.33058,-1.64008 -18.70027,-0.29108 -18.98031,-0.3726 -18.04637,-5.25865 1.26918,-6.6395 76.8987,-79.23748 127.69182,-122.5733 18.8196,-16.05661 19.90321,-16.66339 22.7509,-12.73846 1.64474,2.26681 11.76503,13.87452 22.48954,25.79517 12.9928,14.44138 20.04376,20.81741 21.13035,19.10769 0.897,-1.41142 1.64559,-7.02611 1.66343,-12.4771 0.0552,-16.7963 -0.19745,-16.62752 24.79838,-16.62752 l 22.18871,0 -0.56432,37.20607 -0.56431,37.20608 21.7091,21.78298 c 19.71871,19.78601 21.44477,22.14475 18.82659,25.72532 -2.5876,3.53875 -4.81747,3.79076 -21.7989,2.46341 l -18.91662,-1.4783 -1.06153,46.29327 c -0.58385,25.46142 -1.06154,54.17476 -1.06154,63.80759 l 0,17.51432 -97.66154,-0.0552 c -53.71384,-0.0297 -98.69017,-0.7469 -99.94745,-1.59125 z m 192.30129,-4.41707 c 0,-4.01304 -57.42774,-6.24779 -75.36923,-2.93303 -7.4745,1.38085 -6.32953,1.71248 9.55385,2.76574 30.22136,2.00418 65.81538,2.09462 65.81538,0.16772 z m -148.61538,-3.48715 c 0,-2.1976 -2.20651,-3.18462 -7.11931,-3.18462 -3.91559,0 -12.99174,-0.61378 -20.16923,-1.36407 -12.34824,-1.29062 -13.04992,-1.11929 -13.04992,3.18461 0,4.33023 0.96834,4.5487 20.16923,4.5487 16.51287,0 20.16923,-0.57727 20.16923,-3.18462 z m 48.83077,-10.48524 0,-13.67007 -9.02308,-1.33669 c -4.96269,-0.73543 -14.27769,-1.03266 -20.69999,-0.66091 l -11.67693,0.67599 -0.62779,14.33077 -0.62779,14.33077 21.32779,0 21.32779,0 z m -26.82677,2.00716 c -0.73544,-1.91629 -0.3191,-4.5022 0.92523,-5.74654 3.23472,-3.23472 9.36362,-0.27833 8.51864,4.10922 -0.94116,4.88711 -7.74414,6.06648 -9.44387,1.63732 z m 43.40588,5.32255 c 1.52861,-0.0212 2.17445,-1.00761 1.4352,-2.20375 -1.84687,-2.98823 -12.24379,-1.33712 -13.39874,2.12774 -0.67917,2.03773 0.45816,2.44027 4.12323,1.45941 2.78377,-0.74499 6.3119,-1.36748 7.84031,-1.3834 z m 36.53348,-14.51824 c -1.43329,-14.99062 -6.08092,-22.64686 -16.353,-26.93866 -7.19256,-3.00543 -8.05517,-2.95107 -12.16587,0.76537 -5.57859,5.04358 -17.29671,7.33905 -22.70036,4.44721 -3.24427,-1.73625 -5.5941,-1.16408 -10.97249,2.67211 l -6.84394,4.88159 5.30768,0.59446 c 13.90319,1.55685 14.86154,2.2564 14.86154,10.8485 l 0,8.17766 14.81271,1.45962 c 8.1471,0.80273 15.36874,2.35916 16.04834,3.45892 0.6796,1.09954 5.275,1.9993 10.21157,1.9993 l 8.97616,0 z m 47.75373,-35.30783 c 0.85497,-26.22042 0.88448,-53.03679 0.0658,-59.59137 l -1.48892,-11.91789 15.56322,1.63158 c 17.79775,1.86576 24.79202,1.81502 26.80151,-0.19532 1.68487,-1.68487 -28.56303,-31.32027 -57.546,-56.38086 -11.45697,-9.90627 -26.26543,-23.72368 -32.90769,-30.70521 -6.64226,-6.98152 -18.28691,-19.20089 -25.87691,-27.15394 l -13.8,-14.46006 -19.50641,15.88507 c -24.04618,19.58178 -38.71855,33.12998 -83.42354,77.03118 -19.24527,18.8992 -34.50425,34.84945 -33.90894,35.44476 0.59552,0.59553 8.69846,1.54667 18.00688,2.11374 l 16.92432,1.03118 0.56601,53.99112 0.56601,53.99133 15.48997,2.6496 c 21.15073,3.61794 23.4668,2.92857 24.85253,-7.39659 1.64008,-12.22085 3.24088,-13.76284 14.38151,-13.85201 8.12119,-0.0658 11.45973,-1.36429 18.08798,-7.03991 l 8.12883,-6.96051 -2.0579,-11.32237 c -1.13181,-6.22741 -3.52642,-12.14421 -5.32106,-13.14864 -3.66571,-2.05132 -1.98572,-11.20963 3.62749,-19.77646 7.01506,-10.70625 27.02146,-14.83649 40.61679,-8.38509 8.9976,4.2695 12.62488,12.27223 15.80334,34.86665 1.71268,12.17457 3.86421,19.4718 6.61296,22.42819 4.25422,4.57523 9.45087,26.76924 7.47408,31.92046 -0.93119,2.42646 2.7135,2.97443 19.78644,2.97443 l 20.9278,0 1.55431,-47.67391 z m -93.79244,-87.30602 c -1.53838,-4.00921 4.28055,-10.49543 7.58384,-8.45366 3.48079,2.1511 2.8048,9.04218 -1.03139,10.51411 -4.72915,1.81481 -5.11152,1.69443 -6.55245,-2.06045 z m -12.29177,-13.49024 c -2.09144,-3.38397 7.88999,-8.63752 16.41118,-8.63752 9.95553,0 22.13838,5.73294 18.9527,8.91862 -1.50207,1.50207 -3.72366,1.1127 -7.08555,-1.24222 -6.09939,-4.27205 -14.59085,-4.40496 -20.00087,-0.31315 -4.86588,3.68035 -6.62316,3.95105 -8.27746,1.27427 z m -13.51465,-14.30572 c 0.37748,-1.94983 4.89709,-5.77137 10.04342,-8.4923 13.30384,-7.03397 27.74501,-6.71041 39.77818,0.89126 9.21246,5.82 12.11067,11.14616 6.06479,11.14616 -1.75154,0 -3.18462,-0.87747 -3.18462,-1.94984 0,-1.07257 -3.40499,-4.05444 -7.56643,-6.62633 -10.37442,-6.41169 -26.20896,-5.05335 -34.57983,2.96636 -6.64119,6.36286 -11.57459,7.3278 -10.55551,2.06469 z m 42.24965,118.35454 c 7.77365,-7.77365 7.87386,-13.12402 0.32908,-17.58078 -4.57014,-2.6997 -6.81232,-2.94577 -10.08462,-1.10676 -2.31415,1.3006 -7.55157,2.93261 -11.63849,3.62643 -6.74969,1.14582 -7.36751,1.83773 -6.74077,7.54881 1.60759,14.65242 16.90924,18.73807 28.1348,7.5123 z m 15.7337,-13.4325 c -2.19017,-19.3183 -5.80407,-26.61723 -15.1023,-30.50224 -10.34299,-4.32153 -20.93226,-2.23306 -28.85707,5.69196 -4.44997,4.44997 -6.00321,7.84138 -5.51894,12.05144 0.90847,7.90103 9.22519,8.77913 22.12586,2.33623 8.76088,-4.37545 9.99714,-4.52873 12.2026,-1.51269 1.34964,1.8458 4.53277,4.01559 7.07366,4.82214 3.94659,1.25262 4.44127,2.56596 3.3948,9.01374 -1.07746,6.63971 1.08702,11.14446 5.44676,11.33617 0.40657,0.0212 0.0616,-5.93867 -0.76537,-13.23675 z m 63.35283,-136.93846 c 0.74244,-14.88808 0.83925,-28.98 0.21528,-31.31538 -0.97067,-3.63216 -3.19099,-4.32853 -15.35388,-4.81556 -7.82036,-0.31337 -15.45558,0.24712 -16.96721,1.24518 -1.57787,1.04179 -3.27591,8.1093 -3.98735,16.59524 l -1.23924,14.78086 16.59312,15.28934 c 9.12626,8.4093 17.22219,15.28955 17.99117,15.28955 0.76897,0 2.00567,-12.18115 2.74811,-27.06923 z"
       id="path7379"
       inkscape:connector-curvature="0"
       sodipodi:nodetypes="ssscccsscsssscscscsscscscsscssssccccscssscsccscsccscssscccsssccscsscssccscccsccsssscssccsscsccccsccccccccsccsssccsccccsssscsccccccsccsssscscccsssssccsscscccccsccscscccssccssccccscssssscssscccscccccccssccscscscsssccscscscscccscssscsssscccsscscscscscssccccccccssccccscsssccsccscscsscscccccsccsscsss" />
    <path
       style="color:#000000;clip-rule:nonzero;display:inline;overflow:visible;visibility:visible;opacity:1;isolation:auto;mix-blend-mode:normal;color-interpolation:sRGB;color-interpolation-filters:linearRGB;solid-color:#000000;solid-opacity:1;fill:#ffffff;fill-opacity:1;fill-rule:nonzero;stroke:none;stroke-width:5;stroke-linecap:square;stroke-linejoin:round;stroke-miterlimit:4;stroke-dasharray:none;stroke-dashoffset:0;stroke-opacity:1;color-rendering:auto;image-rendering:auto;shape-rendering:auto;text-rendering:auto;enable-background:accumulate"
       d="m 787.01727,925.28657 c 0,-2.25358 7.22929,-4.46858 10.84213,-3.32193 3.12219,0.99092 2.177,2.09004 -2.69589,3.13508 -5.56628,1.19374 -8.14624,1.25294 -8.14624,0.18683 z"
       id="path7448"
       inkscape:connector-curvature="0" />
    <path
       style="color:#000000;clip-rule:nonzero;display:inline;overflow:visible;visibility:visible;opacity:1;isolation:auto;mix-blend-mode:normal;color-interpolation:sRGB;color-interpolation-filters:linearRGB;solid-color:#000000;solid-opacity:1;fill:#ffffff;fill-opacity:1;fill-rule:nonzero;stroke:none;stroke-width:1;stroke-linecap:square;stroke-linejoin:round;stroke-miterlimit:4;stroke-dasharray:none;stroke-dashoffset:0;stroke-opacity:1;color-rendering:auto;image-rendering:auto;shape-rendering:auto;text-rendering:auto;enable-background:accumulate"
       d="m 474.30115,299.75551 c -2.98034,-0.89361 -7.88922,-5.04543 -18.975,-16.04859 -20.13289,-19.98284 -25.85263,-27.52323 -41.70043,-54.97402 -7.93164,-13.73881 -19.23274,-30.94903 -25.14211,-38.28842 -2.23925,-2.78113 -6.90904,-8.21939 -10.37731,-12.08501 -3.46827,-3.86563 -6.30594,-7.19802 -6.30594,-7.40531 0,-0.20729 1.39848,-2.557 3.10774,-5.22158 3.98297,-6.2091 5.15966,-9.20685 4.91609,-12.52426 -0.14975,-2.03956 -0.59425,-2.96622 -1.88231,-3.92409 -1.55981,-1.15996 -1.79864,-1.18038 -3.18459,-0.27227 -1.08741,0.7125 -1.78709,2.15197 -2.55134,5.24892 -2.96048,11.99667 -18.65134,29.38882 -38.63912,42.82857 -28.75017,19.33157 -59.98456,31.47797 -95.15199,37.0026 -14.97048,2.3518 -33.73851,1.92752 -39.95115,-0.90315 -1.25559,-0.57209 -1.44811,-1.01506 -1.17434,-2.70211 0.51941,-3.20073 4.38639,-11.59565 8.59854,-18.66676 15.8578,-26.62114 41.09857,-47.26858 72.653,-59.43157 22.14384,-8.53557 30.24312,-9.69149 79.48256,-11.3436 l 24.10959,-0.80894 13.7769,6.72854 c 21.53922,10.51959 32.45273,18.38312 50.82182,36.61872 11.56106,11.47705 15.97898,17.3387 20.96335,27.81394 11.98537,25.18867 22.46141,61.89511 22.46141,78.70137 0,7.99151 -0.0655,8.07623 -6.97965,9.02109 -3.20718,0.43828 -6.11905,0.87976 -6.47081,0.98106 -0.35175,0.10131 -1.43397,-0.054 -2.40491,-0.34513 z"
       id="path4158"
       inkscape:connector-curvature="0"
       transform="translate(0,500.36216)" />
    <path
       style="color:#000000;clip-rule:nonzero;display:inline;overflow:visible;visibility:visible;opacity:1;isolation:auto;mix-blend-mode:normal;color-interpolation:sRGB;color-interpolation-filters:linearRGB;solid-color:#000000;solid-opacity:1;fill:#ffffff;fill-opacity:1;fill-rule:nonzero;stroke:none;stroke-width:1;stroke-linecap:square;stroke-linejoin:round;stroke-miterlimit:4;stroke-dasharray:none;stroke-dashoffset:0;stroke-opacity:1;color-rendering:auto;image-rendering:auto;shape-rendering:auto;text-rendering:auto;enable-background:accumulate"
       d="m 404.05085,309.72264 c -10.32407,-2.52636 -19.18109,-8.01044 -36.29776,-22.47478 -7.59545,-6.4185 -12.94611,-9.55266 -17.46669,-10.23116 -5.78741,-0.86864 -12.93529,1.95591 -25.68528,10.14978 -23.11224,14.85323 -35.17508,17.61784 -76.79294,17.59973 -18.09457,-0.008 -32.93574,-0.71489 -39.76516,-1.89435 -3.98667,-0.68852 -17.87692,-4.80753 -18.57308,-5.50767 -0.57127,-0.57453 0.50644,-36.0807 1.3053,-43.00423 0.35806,-3.10316 1.07613,-7.07366 1.59573,-8.82333 l 0.94473,-3.18123 17.38323,-0.40179 c 25.06177,-0.57927 41.17736,-2.77969 60.27951,-8.2306 34.84745,-9.94391 63.01273,-25.8626 89.99534,-50.86432 l 6.20982,-5.75394 6.9872,7.63261 c 11.12593,12.15365 20.8566,25.9245 36.14688,51.15512 15.93888,26.30087 20.7036,32.47933 42.48156,55.08618 l 11.18102,11.60657 -7.73379,0.76537 c -11.38333,1.12653 -22.74309,2.94091 -34.17041,5.4577 -5.57123,1.22702 -10.77885,2.21054 -11.57247,2.18561 -0.79363,-0.0249 -3.69736,-0.59701 -6.45274,-1.27127 z M 288.54196,257.46912 c 2.11496,-2.02625 2.44406,-4.83331 0.91363,-7.79282 -3.03672,-5.87239 -10.4903,-4.76178 -14.01539,2.08834 -1.86286,3.61999 -1.546,4.4623 2.46636,6.55625 3.79799,1.98207 8.0314,1.64302 10.6354,-0.85177 z m 105.5901,0.9186 c 7.63193,-3.69456 7.70102,-10.4546 0.12776,-12.50103 -3.3853,-0.91477 -8.26486,0.0408 -10.3866,2.03412 -2.1813,2.04923 -1.94468,5.49903 0.57392,8.36755 3.22778,3.67625 5.43787,4.15532 9.68492,2.09936 z"
       id="path4160"
       inkscape:connector-curvature="0"
       transform="translate(0,500.36216)" />
    <path
       style="color:#000000;clip-rule:nonzero;display:inline;overflow:visible;visibility:visible;opacity:1;isolation:auto;mix-blend-mode:normal;color-interpolation:sRGB;color-interpolation-filters:linearRGB;solid-color:#000000;solid-opacity:1;fill:#ffffff;fill-opacity:1;fill-rule:nonzero;stroke:none;stroke-width:1;stroke-linecap:square;stroke-linejoin:round;stroke-miterlimit:4;stroke-dasharray:none;stroke-dashoffset:0;stroke-opacity:1;color-rendering:auto;image-rendering:auto;shape-rendering:auto;text-rendering:auto;enable-background:accumulate"
       d="m 330.46963,442.10726 c -18.65677,-1.45667 -29.1601,-4.29592 -44.03685,-11.904 -22.96601,-11.74499 -67.49847,-48.25723 -81.18201,-66.56127 -5.81672,-7.78084 -8.01527,-12.80026 -9.07116,-20.70993 -0.47949,-3.59193 -1.43363,-7.79888 -2.12031,-9.34878 -0.68667,-1.5499 -1.68656,-5.63601 -2.22198,-9.08024 -1.1738,-7.55078 -2.00999,-19.72602 -1.35479,-19.72602 0.25924,0 2.7665,0.68905 5.57169,1.53122 11.33457,3.40287 25.05762,5.30076 42.54191,5.88351 22.18562,0.73946 40.6784,-0.53562 53.1871,-3.66725 16.21056,-4.05841 28.75578,-9.78364 40.61265,-18.53429 6.86266,-5.0648 9.98487,-6.47522 14.35555,-6.48491 5.71392,-0.0127 11.45869,3.39896 23.31284,13.84468 8.73272,7.69516 19.35694,14.13435 28.24161,17.11683 9.99568,3.35544 16.62375,2.86845 60.19346,-4.42267 l 13.11778,-2.19517 7.21156,7.21156 7.21156,7.21156 -2.72099,6.75148 c -5.52729,13.71466 -12.16471,25.79691 -20.80302,37.86821 -13.92856,19.46396 -28.44972,34.55406 -41.93085,43.57369 -16.45552,11.00965 -46.73724,26.03243 -59.43082,29.48366 -8.55427,2.3258 -19.06732,3.06521 -30.68493,2.15813 z m 6.88846,-12.76088 c 19.92801,-3.38034 43.17637,-11.26179 52.99351,-17.96537 9.44184,-6.44731 20.23949,-17.79217 23.68174,-24.88188 5.9149,-12.18244 10.8219,-37.02411 10.26818,-51.98266 -0.26845,-7.25201 -1.45943,-10.01343 -4.31873,-10.01343 l -1.46714,0 -0.0658,9.39335 c -0.0475,6.77529 -0.45878,11.56581 -1.47572,17.18795 -2.0146,11.13761 -5.94364,26.09668 -8.10828,30.87068 -6.50613,14.34898 -17.27205,22.63744 -42.65047,32.8357 -22.83622,9.1767 -44.96618,12.61918 -58.34823,9.07649 -9.98857,-2.64431 -18.78892,-7.77767 -27.23582,-15.88704 -9.81998,-9.42757 -15.58909,-20.16294 -17.43303,-32.43995 -2.01399,-13.40924 -3.44543,-38.69319 -2.3926,-42.26131 0.53759,-1.82195 0.87254,-1.96006 13.05445,-5.38264 28.26908,-7.94237 37.9183,-12.04203 56.07639,-23.8252 8.83095,-5.73059 13.40035,-8.06118 15.8049,-8.06118 2.49736,0 7.17265,3.61166 16.90428,13.05853 11.03202,10.70921 14.88862,13.89447 19.86356,16.40581 6.18385,3.1216 12.84001,3.60133 24.82451,1.78917 4.87479,-0.73711 7.04977,-1.70135 7.04977,-3.12542 0,-2.17038 -3.74377,-2.66603 -17.15177,-2.27079 l -12.49813,0.36841 -13.99088,-14.31076 c -15.51173,-15.86637 -19.32181,-18.8859 -24.35745,-19.30349 -4.65385,-0.38593 -6.93599,0.59445 -14.51221,6.23428 -18.63218,13.87001 -44.77118,24.0826 -72.79289,28.44042 -3.61644,0.56241 -6.76488,1.20496 -6.99654,1.42789 -0.64547,0.62115 1.17658,28.51699 2.63795,40.38723 1.62473,13.19732 3.52277,20.75296 7.06823,28.13698 3.55944,7.41316 7.25498,12.60426 13.36894,18.7793 9.4118,9.5058 22.97318,16.85261 34.33238,18.5994 5.28101,0.8121 19.33874,0.16615 27.86693,-1.28047 z m 20.54881,-31.64277 c 14.32581,-1.60284 25.99644,-5.277 29.32425,-9.23188 1.271,-1.5105 1.52961,-2.34653 1.25304,-4.05085 -0.4294,-2.64607 -2.02093,-4.49709 -3.86664,-4.49709 -1.62622,0 -2.46757,0.90639 -3.03061,3.26492 -1.49092,6.24535 -29.15518,11.57768 -51.32537,9.89306 -7.74014,-0.58815 -23.44738,-3.01445 -28.80256,-4.44916 -2.9035,-0.77787 -4.1792,0.0143 -4.1792,2.59514 0,1.93105 1.28677,3.53135 3.52319,4.38164 2.18883,0.83219 12.38901,2.56333 18.39462,3.12187 7.25606,0.67484 28.54406,0.10969 38.70928,-1.02765 z m -15.13883,-26.56484 c 21.83832,-1.25762 38.97065,-3.33246 45.6272,-5.52576 2.41183,-0.79469 3.17812,-1.36328 3.33574,-2.47516 0.50237,-3.54377 -3.34867,-4.15056 -12.41598,-1.95631 -11.70887,2.83348 -20.88962,3.81387 -38.82583,4.14611 -17.99168,0.33327 -30.28122,-0.47381 -41.43407,-2.72107 -4.66973,-0.94092 -5.02029,-0.93434 -6.18091,0.11601 -1.6407,1.48481 -1.55211,3.15953 0.26315,4.97479 2.86698,2.86698 9.65898,3.88253 26.77356,4.0032 6.41972,0.0453 16.70543,-0.20755 22.85714,-0.56181 z m -2.92517,-21.28019 c 25.20308,-1.27285 43.23002,-4.60988 46.35342,-8.58064 1.42579,-1.81259 1.46621,-2.01477 0.6583,-3.29224 -0.85503,-1.35198 -4.90029,-0.97901 -12.54937,1.15703 -12.24163,3.41853 -13.53796,3.51632 -46.72043,3.52423 -31.65681,0.008 -33.31906,0.13284 -32.43204,2.44437 0.89849,2.34143 8.38817,4.03297 20.91372,4.72334 4.64971,0.25628 9.15851,0.50503 10.01957,0.55278 0.86106,0.0478 7.05163,-0.19024 13.75683,-0.52887 z"
       id="path4162"
       inkscape:connector-curvature="0"
       transform="translate(0,500.36216)" />
    <path
       style="color:#000000;clip-rule:nonzero;display:inline;overflow:visible;visibility:visible;opacity:1;isolation:auto;mix-blend-mode:normal;color-interpolation:sRGB;color-interpolation-filters:linearRGB;solid-color:#000000;solid-opacity:1;fill:#ffffff;fill-opacity:1;fill-rule:nonzero;stroke:none;stroke-width:1;stroke-linecap:square;stroke-linejoin:round;stroke-miterlimit:4;stroke-dasharray:none;stroke-dashoffset:0;stroke-opacity:1;color-rendering:auto;image-rendering:auto;shape-rendering:auto;text-rendering:auto;enable-background:accumulate"
       d="m 182.05838,335.46904 c -1.214,-2.37962 -3.74634,-11.77 -5.91259,-21.9249 -1.21228,-5.6829 -2.83092,-16.5051 -2.51671,-16.82668 0.46703,-0.47798 3.2707,0.56353 4.84004,1.79797 2.94668,2.31786 5.18947,10.34507 7.93774,28.41013 0.72667,4.77661 1.15293,9.21496 0.94725,9.86301 -0.25334,0.79821 -0.96222,1.17827 -2.19771,1.17827 -1.49637,0 -2.05248,-0.44837 -3.09802,-2.4978 z"
       id="path4164"
       inkscape:connector-curvature="0"
       transform="translate(0,500.36216)" />
    <path
       style="color:#000000;clip-rule:nonzero;display:inline;overflow:visible;visibility:visible;opacity:1;isolation:auto;mix-blend-mode:normal;color-interpolation:sRGB;color-interpolation-filters:linearRGB;solid-color:#000000;solid-opacity:1;fill:#ffffff;fill-opacity:1;fill-rule:nonzero;stroke:none;stroke-width:1;stroke-linecap:square;stroke-linejoin:round;stroke-miterlimit:4;stroke-dasharray:none;stroke-dashoffset:0;stroke-opacity:1;color-rendering:auto;image-rendering:auto;shape-rendering:auto;text-rendering:auto;enable-background:accumulate"
       d="m 483.42462,310.04758 c -1.11937,-0.8822 -2.03522,-1.84239 -2.03522,-2.13376 0,-1.14623 4.38476,-3.21533 6.40233,-3.02115 1.93121,0.18586 2.04754,0.33468 1.98126,2.53439 -0.13228,4.38985 -2.73839,5.46562 -6.34837,2.62052 z"
       id="path4166"
       inkscape:connector-curvature="0"
       transform="translate(0,500.36216)" />
    <path
       style="color:#000000;clip-rule:nonzero;display:inline;overflow:visible;visibility:visible;opacity:1;isolation:auto;mix-blend-mode:normal;color-interpolation:sRGB;color-interpolation-filters:linearRGB;solid-color:#000000;solid-opacity:1;fill:#ffffff;fill-opacity:1;fill-rule:nonzero;stroke:none;stroke-width:1;stroke-linecap:square;stroke-linejoin:round;stroke-miterlimit:4;stroke-dasharray:none;stroke-dashoffset:0;stroke-opacity:1;color-rendering:auto;image-rendering:auto;shape-rendering:auto;text-rendering:auto;enable-background:accumulate"
       d=""
       id="path4168"
       inkscape:connector-curvature="0"
       transform="translate(0,500.36216)" />
    <path
       style="color:#000000;clip-rule:nonzero;display:inline;overflow:visible;visibility:visible;opacity:1;isolation:auto;mix-blend-mode:normal;color-interpolation:sRGB;color-interpolation-filters:linearRGB;solid-color:#000000;solid-opacity:1;fill:#ffffff;fill-opacity:1;fill-rule:nonzero;stroke:none;stroke-width:1;stroke-linecap:square;stroke-linejoin:round;stroke-miterlimit:4;stroke-dasharray:none;stroke-dashoffset:0;stroke-opacity:1;color-rendering:auto;image-rendering:auto;shape-rendering:auto;text-rendering:auto;enable-background:accumulate"
       d="m 488.27785,330.86126 c 0,-0.10624 0.7161,-1.95549 1.59132,-4.10943 0.87523,-2.15395 2.57213,-7.60026 3.77089,-12.10291 1.19876,-4.50266 2.92661,-9.55921 3.83966,-11.23678 1.52776,-2.80701 4.66114,-5.52358 6.37107,-5.52358 1.73713,0 0.14591,16.32755 -2.38691,24.49211 -1.32988,4.28685 -3.619,7.27309 -5.92599,7.73064 -2.17495,0.43136 -7.26004,0.95665 -7.26004,0.74995 z"
       id="path4170"
       inkscape:connector-curvature="0"
       transform="translate(0,500.36216)" />
    <path
       style="color:#000000;clip-rule:nonzero;display:inline;overflow:visible;visibility:visible;opacity:1;isolation:auto;mix-blend-mode:normal;color-interpolation:sRGB;color-interpolation-filters:linearRGB;solid-color:#000000;solid-opacity:1;fill:#ffffff;fill-opacity:1;fill-rule:nonzero;stroke:none;stroke-width:1;stroke-linecap:square;stroke-linejoin:round;stroke-miterlimit:4;stroke-dasharray:none;stroke-dashoffset:0;stroke-opacity:1;color-rendering:auto;image-rendering:auto;shape-rendering:auto;text-rendering:auto;enable-background:accumulate"
       d="m 847.10368,421.46122 c -1.20548,-0.12048 -3.0504,-0.35923 -4.09984,-0.53052 l -1.90806,-0.31146 0.2395,-3.90937 c 0.45972,-7.50425 -3.26128,-21.97426 -7.42676,-28.88072 -3.61625,-5.99583 -4.64608,-9.49953 -7.10925,-24.18716 -4.0815,-24.33767 -7.73235,-31.11813 -18.96051,-35.21403 -4.99152,-1.82084 -15.17622,-2.22245 -21.12514,-0.83302 -9.90351,2.31307 -16.12867,7.16385 -20.20254,15.74226 -1.67097,3.51859 -2.31985,5.82013 -2.55076,9.0474 -0.29534,4.12774 -0.22177,4.42848 1.58747,6.48909 1.04344,1.18841 2.47287,3.69945 3.1765,5.58008 1.13958,3.0458 3.85885,15.46301 3.85885,17.62097 0,1.28439 -11.168,10.33099 -14.91095,12.07856 -2.64253,1.23378 -4.83039,1.64885 -10.64896,2.02026 -11.69568,0.74655 -12.8663,1.9111 -14.8251,14.74827 -1.15624,7.57746 -2.81402,8.82505 -10.94083,8.23371 -5.59431,-0.40707 -26.9186,-3.92114 -27.5352,-4.53757 -0.34182,-0.34173 -1.11301,-57.377 -1.23632,-91.4348 l -0.0592,-16.34923 -7.04501,-0.41196 c -11.94396,-0.69841 -24.23598,-1.74521 -25.98461,-2.21287 -1.63728,-0.43787 -1.55567,-0.5654 4.66947,-7.297 17.60514,-19.03742 71.23457,-70.89157 91.92179,-88.87892 9.13796,-7.94538 36.23434,-30.2478 37.09278,-30.53024 0.27136,-0.0893 9.53574,9.27798 20.58751,20.81614 24.35041,25.42209 34.13103,34.97301 51.29163,50.08703 19.26153,16.96439 27.40044,24.50225 40.85196,37.83508 l 12.05479,11.94843 0,3.70207 0,3.70207 -8.29745,-0.44564 c -4.5636,-0.24511 -12.94717,-0.95346 -18.63014,-1.57413 -5.68297,-0.62068 -10.40248,-1.07422 -10.4878,-1.00788 -0.0853,0.0663 0.28536,3.33847 0.82372,7.27142 1.56288,11.41767 1.2098,61.82231 -0.72674,103.74574 l -0.38328,8.29745 -15.43486,-0.10022 c -8.48919,-0.0551 -16.42118,-0.1988 -17.62666,-0.31929 z M 795.37991,290.39684 c 6.19186,-2.35415 4.59335,-14.09584 -1.66175,-12.20615 -3.98214,1.20302 -6.72846,6.20687 -5.48104,9.98659 1.13114,3.42737 2.69105,3.9121 7.14279,2.21956 z m -10.70883,-16.62918 c 6.18662,-4.16632 13.21936,-4.24393 19.57079,-0.21598 4.05864,2.57392 6.50909,2.93167 8.09293,1.18154 1.12058,-1.23822 1.14517,-1.49412 0.29,-3.01772 -2.14494,-3.82147 -13.57269,-7.45491 -21.50386,-6.83712 -10.63762,0.8286 -18.97793,7.24305 -13.99769,10.76547 1.79481,1.26942 3.50993,0.84309 7.54783,-1.87619 z M 767.1238,263.21359 c 1.10831,-0.47241 4.12789,-2.59175 6.71017,-4.70965 6.7419,-5.52947 9.79264,-6.58445 19.13389,-6.61671 7.46943,-0.0258 7.5952,-0.002 12.21135,2.29261 5.35116,2.66017 9.20842,5.65284 10.01276,7.76841 1.15463,3.0369 7.00444,2.63567 7.36988,-0.50548 0.25323,-2.17664 -2.95543,-5.76364 -8.2294,-9.19978 -13.0072,-8.47451 -27.89769,-9.01538 -41.74931,-1.51643 -8.42976,4.56367 -11.81667,8.6477 -9.76647,11.7767 1.18753,1.8124 1.57258,1.87591 4.30713,0.71033 z"
       id="path4172"
       inkscape:connector-curvature="0"
       transform="translate(0,500.36216)" />
    <path
       style="color:#000000;clip-rule:nonzero;display:inline;overflow:visible;visibility:visible;opacity:1;isolation:auto;mix-blend-mode:normal;color-interpolation:sRGB;color-interpolation-filters:linearRGB;solid-color:#000000;solid-opacity:1;fill:#ffffff;fill-opacity:1;fill-rule:nonzero;stroke:none;stroke-width:1;stroke-linecap:square;stroke-linejoin:round;stroke-miterlimit:4;stroke-dasharray:none;stroke-dashoffset:0;stroke-opacity:1;color-rendering:auto;image-rendering:auto;shape-rendering:auto;text-rendering:auto;enable-background:accumulate"
       d="m 875.15224,248.67676 c -3.0736,-2.63043 -10.4764,-9.29734 -16.45065,-14.81535 l -10.86228,-10.03275 0.42467,-5.70977 c 0.88662,-11.92086 2.52872,-21.7983 4.00655,-24.09986 0.94086,-1.46529 10.95411,-2.21193 20.10653,-1.49925 9.07009,0.70627 10.87141,1.42389 11.50318,4.58273 1.20925,6.04625 -1.10333,54.18458 -2.68406,55.87087 -0.25056,0.26729 -2.97033,-1.66619 -6.04394,-4.29662 z"
       id="path4174"
       inkscape:connector-curvature="0"
       transform="translate(0,500.36216)" />
    <path
       style="color:#000000;clip-rule:nonzero;display:inline;overflow:visible;visibility:visible;opacity:1;isolation:auto;mix-blend-mode:normal;color-interpolation:sRGB;color-interpolation-filters:linearRGB;solid-color:#000000;solid-opacity:1;fill:#ffffff;fill-opacity:1;fill-rule:nonzero;stroke:none;stroke-width:1;stroke-linecap:square;stroke-linejoin:round;stroke-miterlimit:4;stroke-dasharray:none;stroke-dashoffset:0;stroke-opacity:1;color-rendering:auto;image-rendering:auto;shape-rendering:auto;text-rendering:auto;enable-background:accumulate"
       d="m 819.33375,376.29147 c -1.84993,-1.17564 -2.62338,-4.84195 -2.24701,-10.65124 0.43084,-6.65008 0.22264,-7.07592 -4.48411,-9.17171 -1.7359,-0.77294 -4.35415,-2.57492 -5.81835,-4.0044 -1.46419,-1.42947 -3.2723,-2.59904 -4.01803,-2.59904 -0.74573,0 -4.84118,1.54751 -9.10101,3.43891 -13.87213,6.15934 -20.48044,5.61349 -21.31158,-1.76035 -0.4346,-3.85579 1.46202,-7.64129 5.82742,-11.63102 5.06895,-4.63273 9.35541,-6.50497 15.64934,-6.83532 13.08395,-0.68673 21.02948,5.43614 24.27276,18.70475 1.14009,4.66424 2.9284,18.30094 2.9284,22.33047 0,2.69232 -0.29476,3.07061 -1.69783,2.17895 z"
       id="path4176"
       inkscape:connector-curvature="0"
       transform="translate(0,500.36216)" />
    <path
       style="color:#000000;clip-rule:nonzero;display:inline;overflow:visible;visibility:visible;opacity:1;isolation:auto;mix-blend-mode:normal;color-interpolation:sRGB;color-interpolation-filters:linearRGB;solid-color:#000000;solid-opacity:1;fill:#ffffff;fill-opacity:1;fill-rule:nonzero;stroke:none;stroke-width:1;stroke-linecap:square;stroke-linejoin:round;stroke-miterlimit:4;stroke-dasharray:none;stroke-dashoffset:0;stroke-opacity:1;color-rendering:auto;image-rendering:auto;shape-rendering:auto;text-rendering:auto;enable-background:accumulate"
       d="m 786.72055,382.9261 c -1.1333,-0.38122 -3.16526,-1.76521 -4.51547,-3.07555 -2.82141,-2.73808 -4.57401,-7.65307 -4.26356,-11.95673 l 0.19378,-2.68628 7.51467,-1.90018 c 4.13307,-1.0451 8.41654,-2.38365 9.51881,-2.97456 4.11564,-2.20632 9.40094,-0.76648 13.24107,3.60719 1.09233,1.24409 1.97593,2.95198 1.97593,3.81918 0,3.96177 -6.25151,11.46133 -11.78821,14.1416 -3.31077,1.60271 -8.76163,2.07328 -11.87702,1.02533 z"
       id="path4178"
       inkscape:connector-curvature="0"
       transform="translate(0,500.36216)" />
    <path
       style="color:#000000;clip-rule:nonzero;display:inline;overflow:visible;visibility:visible;opacity:1;isolation:auto;mix-blend-mode:normal;color-interpolation:sRGB;color-interpolation-filters:linearRGB;solid-color:#000000;solid-opacity:1;fill:#ffffff;fill-opacity:1;fill-rule:nonzero;stroke:none;stroke-width:1;stroke-linecap:square;stroke-linejoin:round;stroke-miterlimit:4;stroke-dasharray:none;stroke-dashoffset:0;stroke-opacity:1;color-rendering:auto;image-rendering:auto;shape-rendering:auto;text-rendering:auto;enable-background:accumulate"
       d="m 821.03158,421.24418 c -1.20548,-0.23821 -2.89628,-0.8895 -3.75734,-1.44731 -2.13574,-1.38357 -9.16888,-2.74183 -20.17789,-3.89681 -5.07044,-0.53196 -9.50879,-0.96719 -9.86301,-0.96719 -0.39851,0 -0.64403,-2.39924 -0.64403,-6.29333 0,-4.32899 -0.28904,-6.85226 -0.926,-8.08402 -1.16092,-2.24495 -4.48706,-3.51985 -11.59743,-4.44525 -2.92702,-0.38094 -5.40472,-0.77548 -5.506,-0.87676 -0.35865,-0.35864 6.43258,-4.92709 9.03688,-6.0791 2.614,-1.15629 2.68915,-1.15401 6.83463,0.20685 3.74561,1.2296 4.67338,1.30658 8.72023,0.72357 5.22376,-0.75256 10.06998,-2.80001 14.33718,-6.05724 1.64611,-1.2565 3.55452,-2.28455 4.24093,-2.28455 2.57975,0 10.59972,3.91997 13.6728,6.68294 5.3505,4.81056 8.04161,12.54635 9.11221,26.19378 0.21615,2.75538 0.53056,5.50293 0.69869,6.10567 0.27709,0.99341 -0.26925,1.08916 -5.8422,1.02388 -3.38133,-0.0396 -7.13417,-0.26692 -8.33965,-0.50513 z"
       id="path4180"
       inkscape:connector-curvature="0"
       transform="translate(0,500.36216)" />
    <path
       style="color:#000000;clip-rule:nonzero;display:inline;overflow:visible;visibility:visible;opacity:1;isolation:auto;mix-blend-mode:normal;color-interpolation:sRGB;color-interpolation-filters:linearRGB;solid-color:#000000;solid-opacity:1;fill:#ffffff;fill-opacity:1;fill-rule:nonzero;stroke:none;stroke-width:1;stroke-linecap:square;stroke-linejoin:round;stroke-miterlimit:4;stroke-dasharray:none;stroke-dashoffset:0;stroke-opacity:1;color-rendering:auto;image-rendering:auto;shape-rendering:auto;text-rendering:auto;enable-background:accumulate"
       d="m 740.47201,416.65582 c 0.29498,-7.31944 0.64211,-13.42038 0.77141,-13.55763 0.66167,-0.70241 25.17588,-0.78393 30.72359,-0.10217 10.15617,1.2481 8.98629,-0.60008 8.98629,14.19652 l 0,12.76968 -20.50881,8.4e-4 -20.5088,8.5e-4 0.53632,-13.30809 z m 22.28134,4.60612 c 3.47078,-2.46169 2.95803,-7.27442 -0.97382,-9.1402 -3.89151,-1.84665 -7.76761,0.63697 -7.73391,4.95551 0.041,5.24805 4.31352,7.30133 8.70773,4.18469 z"
       id="path4182"
       inkscape:connector-curvature="0"
       transform="translate(0,500.36216)" />
    <path
       style="color:#000000;clip-rule:nonzero;display:inline;overflow:visible;visibility:visible;opacity:1;isolation:auto;mix-blend-mode:normal;color-interpolation:sRGB;color-interpolation-filters:linearRGB;solid-color:#000000;solid-opacity:1;fill:#ffffff;fill-opacity:1;fill-rule:nonzero;stroke:none;stroke-width:1;stroke-linecap:square;stroke-linejoin:round;stroke-miterlimit:4;stroke-dasharray:none;stroke-dashoffset:0;stroke-opacity:1;color-rendering:auto;image-rendering:auto;shape-rendering:auto;text-rendering:auto;enable-background:accumulate"
       d="m 695.47385,429.50402 c -1.59614,-0.39877 -2.17017,-1.30202 -2.18219,-3.43366 -0.0163,-2.88091 1.3744,-3.11882 12.33847,-2.11082 5.43557,0.49972 13.12356,1.10052 17.08442,1.33511 3.96086,0.23458 7.69472,0.68617 8.29746,1.00352 1.81258,0.95435 1.24725,2.3107 -1.25245,3.0049 -2.3346,0.64835 -31.80364,0.82108 -34.28571,0.20095 z"
       id="path4184"
       inkscape:connector-curvature="0"
       transform="translate(0,500.36216)" />
    <path
       style="color:#000000;clip-rule:nonzero;display:inline;overflow:visible;visibility:visible;opacity:1;isolation:auto;mix-blend-mode:normal;color-interpolation:sRGB;color-interpolation-filters:linearRGB;solid-color:#000000;solid-opacity:1;fill:#ffffff;fill-opacity:1;fill-rule:nonzero;stroke:none;stroke-width:1;stroke-linecap:square;stroke-linejoin:round;stroke-miterlimit:4;stroke-dasharray:none;stroke-dashoffset:0;stroke-opacity:1;color-rendering:auto;image-rendering:auto;shape-rendering:auto;text-rendering:auto;enable-background:accumulate"
       d="m 831.67737,431.20556 c -17.64043,-0.84095 -25.04892,-1.39955 -25.04892,-1.88867 0,-0.99236 11.4055,-1.54511 30.68493,-1.48709 18.95132,0.057 30.12461,0.70956 38.82583,2.26745 l 4.07045,0.72878 -2.50489,0.47134 c -3.03083,0.57031 -33.40949,0.50971 -46.0274,-0.0918 z"
       id="path4186"
       inkscape:connector-curvature="0"
       transform="translate(0,500.36216)" />
  </g>
</svg>
